<svg width="59" height="62" viewBox="0 0 59 62" fill="none" xmlns="http://www.w3.org/2000/svg">
<g opacity="0.4">
<path d="M45.9773 26.1354C45.8553 24.0472 45.3643 22.0163 44.5464 20.1559C43.7298 18.2941 42.5858 16.6051 41.1926 15.169C42.511 16.6748 43.5582 18.41 44.2701 20.2838C44.9836 22.1566 45.3626 24.1661 45.3833 26.1959C45.4066 28.2253 45.0639 30.2744 44.3764 32.2126C43.6906 34.1514 42.6546 35.9754 41.3409 37.5682C38.7295 40.7814 34.9816 42.9794 31.0721 43.7246C29.1174 44.1002 27.1282 44.1324 25.2197 43.8363C23.3092 43.5429 21.4889 42.8991 19.8446 41.9857C18.1953 41.0773 16.7472 39.8529 15.529 38.451C14.3244 37.0352 13.378 35.4127 12.7373 33.6688C11.4684 30.1781 11.4608 26.1925 12.7944 22.6417C13.4544 20.8695 14.4129 19.2 15.6485 17.7581C16.8849 16.3176 18.3403 15.0688 19.9661 14.1442C20.3624 13.8954 20.7902 13.7064 21.2022 13.4903L21.8424 13.2149C21.9496 13.1704 22.054 13.1194 22.1629 13.08L22.4899 12.9632C23.3551 12.6332 24.252 12.4095 25.1503 12.2424L25.826 12.1296L26.5051 12.0593C26.7308 12.0288 26.9575 12.0227 27.1837 12.0137C27.4099 12.0084 27.636 11.9835 27.8614 11.9922C28.005 11.991 28.1477 11.9961 28.2908 11.9997L26.9656 15.1489L38.734 12.9786L31.6572 4L30.2228 7.40866C29.4939 7.36779 28.7622 7.35715 28.0279 7.3983C27.736 7.4039 27.4426 7.44477 27.1504 7.46744C26.8578 7.49376 26.5659 7.51867 26.2745 7.56933L25.4008 7.70398L24.5331 7.88957C23.3809 8.15914 22.2396 8.50653 21.142 8.98044L20.7289 9.15204C20.5914 9.20998 20.4585 9.27996 20.3232 9.3435L19.5173 9.73708C18.9964 10.0346 18.4643 10.309 17.9671 10.6477C15.9376 11.9314 14.161 13.5992 12.6995 15.473C11.2341 17.3522 10.1328 19.49 9.42517 21.705C8.71752 23.9226 8.41436 26.2272 8.52073 28.4717C8.62263 30.7167 9.1153 32.9043 9.96179 34.9153C10.8156 36.9232 12.0167 38.7522 13.4883 40.3109C14.229 41.086 15.0335 41.7939 15.8915 42.431C16.7483 43.0698 17.6654 43.6311 18.6291 44.1022C20.5536 45.0478 22.6506 45.6692 24.8133 45.8948C26.9743 46.1235 29.1921 45.9794 31.3403 45.4612C35.6391 44.4345 39.6225 41.8202 42.2577 38.2596C43.5876 36.491 44.5965 34.5041 45.2221 32.4363C45.8497 30.3682 46.1019 28.2231 45.9773 26.1354Z" fill="#3EC5FF"/>
<path d="M45.9773 26.1354C45.8553 24.0472 45.3643 22.0163 44.5464 20.1559C43.7298 18.2941 42.5858 16.6051 41.1926 15.169C42.511 16.6748 43.5582 18.41 44.2701 20.2838C44.9836 22.1566 45.3626 24.1661 45.3833 26.1959C45.4066 28.2253 45.0639 30.2744 44.3764 32.2126C43.6906 34.1514 42.6546 35.9754 41.3409 37.5682C38.7295 40.7814 34.9816 42.9794 31.0721 43.7246C29.1174 44.1002 27.1282 44.1324 25.2197 43.8363C23.3092 43.5429 21.4889 42.8991 19.8446 41.9857C18.1953 41.0773 16.7472 39.8529 15.529 38.451C14.3244 37.0352 13.378 35.4127 12.7373 33.6688C11.4684 30.1781 11.4608 26.1925 12.7944 22.6417C13.4544 20.8695 14.4129 19.2 15.6485 17.7581C16.8849 16.3176 18.3403 15.0688 19.9661 14.1442C20.3624 13.8954 20.7902 13.7064 21.2022 13.4903L21.8424 13.2149C21.9496 13.1704 22.054 13.1194 22.1629 13.08L22.4899 12.9632C23.3551 12.6332 24.252 12.4095 25.1503 12.2424L25.826 12.1296L26.5051 12.0593C26.7308 12.0288 26.9575 12.0227 27.1837 12.0137C27.4099 12.0084 27.636 11.9835 27.8614 11.9922C28.005 11.991 28.1477 11.9961 28.2908 11.9997L26.9656 15.1489L38.734 12.9786L31.6572 4L30.2228 7.40866C29.4939 7.36779 28.7622 7.35715 28.0279 7.3983C27.736 7.4039 27.4426 7.44477 27.1504 7.46744C26.8578 7.49376 26.5659 7.51867 26.2745 7.56933L25.4008 7.70398L24.5331 7.88957C23.3809 8.15914 22.2396 8.50653 21.142 8.98044L20.7289 9.15204C20.5914 9.20998 20.4585 9.27996 20.3232 9.3435L19.5173 9.73708C18.9964 10.0346 18.4643 10.309 17.9671 10.6477C15.9376 11.9314 14.161 13.5992 12.6995 15.473C11.2341 17.3522 10.1328 19.49 9.42517 21.705C8.71752 23.9226 8.41436 26.2272 8.52073 28.4717C8.62263 30.7167 9.1153 32.9043 9.96179 34.9153C10.8156 36.9232 12.0167 38.7522 13.4883 40.3109C14.229 41.086 15.0335 41.7939 15.8915 42.431C16.7483 43.0698 17.6654 43.6311 18.6291 44.1022C20.5536 45.0478 22.6506 45.6692 24.8133 45.8948C26.9743 46.1235 29.1921 45.9794 31.3403 45.4612C35.6391 44.4345 39.6225 41.8202 42.2577 38.2596C43.5876 36.491 44.5965 34.5041 45.2221 32.4363C45.8497 30.3682 46.1019 28.2231 45.9773 26.1354Z" fill="url(#paint0_radial_289_833)" style="mix-blend-mode:plus-lighter"/>
</g>
<g filter="url(#filter0_dii_289_833)">
<path d="M16.352 34.032L20.8566 27.2662L21.1995 26.7525C21.7492 25.9198 22.1638 25.2297 22.4443 24.683C22.7242 24.1364 22.8925 23.5597 22.9482 22.9523C22.9977 22.414 22.9356 22.0162 22.7623 21.7581C22.5887 21.5006 22.3094 21.3956 21.9236 21.444C21.3786 21.5126 20.9792 21.7808 20.7261 22.2491C20.4725 22.718 20.3107 23.3383 20.2399 24.1109L20.1693 24.877L17.1582 25.2552L17.234 24.4272C17.3785 22.854 17.8485 21.5638 18.644 20.5567C19.4396 19.5495 20.5954 18.951 22.1109 18.7604C23.5069 18.5851 24.5351 18.8346 25.1962 19.5086C25.8569 20.1827 26.1228 21.2237 25.9935 22.6312C25.9148 23.4872 25.6912 24.2755 25.3225 24.9971C24.9541 25.7185 24.3976 26.6243 23.6539 27.7132L23.4022 28.0925L19.8463 33.3274L24.6325 32.7264L24.4004 35.2519L16.1443 36.2888L16.352 34.032Z" fill="#3EC5FF"/>
<path d="M16.352 34.032L20.8566 27.2662L21.1995 26.7525C21.7492 25.9198 22.1638 25.2297 22.4443 24.683C22.7242 24.1364 22.8925 23.5597 22.9482 22.9523C22.9977 22.414 22.9356 22.0162 22.7623 21.7581C22.5887 21.5006 22.3094 21.3956 21.9236 21.444C21.3786 21.5126 20.9792 21.7808 20.7261 22.2491C20.4725 22.718 20.3107 23.3383 20.2399 24.1109L20.1693 24.877L17.1582 25.2552L17.234 24.4272C17.3785 22.854 17.8485 21.5638 18.644 20.5567C19.4396 19.5495 20.5954 18.951 22.1109 18.7604C23.5069 18.5851 24.5351 18.8346 25.1962 19.5086C25.8569 20.1827 26.1228 21.2237 25.9935 22.6312C25.9148 23.4872 25.6912 24.2755 25.3225 24.9971C24.9541 25.7185 24.3976 26.6243 23.6539 27.7132L23.4022 28.0925L19.8463 33.3274L24.6325 32.7264L24.4004 35.2519L16.1443 36.2888L16.352 34.032Z" fill="url(#paint1_radial_289_833)" style="mix-blend-mode:plus-lighter"/>
<path d="M29.4086 30.7348L24.5029 31.3509L24.731 28.8668L29.8895 17.9875L33.4591 17.5391L32.5026 27.952L34.0783 27.7541L33.8558 30.1763L32.2803 30.3742L31.9192 34.3075L29.0475 34.6683L29.4086 30.7348ZM29.6311 28.3126L30.2853 21.1913L27.1585 28.623L29.6311 28.3126Z" fill="#3EC5FF"/>
<path d="M29.4086 30.7348L24.5029 31.3509L24.731 28.8668L29.8895 17.9875L33.4591 17.5391L32.5026 27.952L34.0783 27.7541L33.8558 30.1763L32.2803 30.3742L31.9192 34.3075L29.0475 34.6683L29.4086 30.7348ZM29.6311 28.3126L30.2853 21.1913L27.1585 28.623L29.6311 28.3126Z" fill="url(#paint2_radial_289_833)" style="mix-blend-mode:plus-lighter"/>
<path d="M35.3388 25.4064L36.8815 25.2127L36.6041 28.2353C37.0741 27.7359 37.5779 27.4526 38.1162 27.3852C38.4496 27.3432 38.6932 27.442 38.8463 27.6813C38.9991 27.9207 39.0568 28.2454 39.0193 28.6555L38.575 33.4915L37.0427 33.6838L37.4634 29.1025C37.4791 28.9329 37.4634 28.8108 37.4164 28.7361C37.3694 28.6619 37.2812 28.6328 37.1519 28.649C36.9817 28.6706 36.7762 28.7837 36.5349 28.9883L36.0926 33.803L34.55 33.9967L35.3388 25.4064Z" fill="#3EC5FF"/>
<path d="M35.3388 25.4064L36.8815 25.2127L36.6041 28.2353C37.0741 27.7359 37.5779 27.4526 38.1162 27.3852C38.4496 27.3432 38.6932 27.442 38.8463 27.6813C38.9991 27.9207 39.0568 28.2454 39.0193 28.6555L38.575 33.4915L37.0427 33.6838L37.4634 29.1025C37.4791 28.9329 37.4634 28.8108 37.4164 28.7361C37.3694 28.6619 37.2812 28.6328 37.1519 28.649C36.9817 28.6706 36.7762 28.7837 36.5349 28.9883L36.0926 33.803L34.55 33.9967L35.3388 25.4064Z" fill="url(#paint3_radial_289_833)" style="mix-blend-mode:plus-lighter"/>
<path d="M39.6796 27.2931L41.2223 27.0994L41.1316 28.0858C41.3695 27.6928 41.5935 27.3989 41.8034 27.2049C42.0131 27.0109 42.2471 26.8975 42.506 26.8651C42.5673 26.8572 42.6449 26.8547 42.7392 26.8567L42.5889 28.4898C42.4195 28.4273 42.2395 28.408 42.0489 28.4318C41.6744 28.4788 41.3362 28.7171 41.0342 29.1462L40.6594 33.2292L39.1167 33.4229L39.6796 27.2931Z" fill="#3EC5FF"/>
<path d="M39.6796 27.2931L41.2223 27.0994L41.1316 28.0858C41.3695 27.6928 41.5935 27.3989 41.8034 27.2049C42.0131 27.0109 42.2471 26.8975 42.506 26.8651C42.5673 26.8572 42.6449 26.8547 42.7392 26.8567L42.5889 28.4898C42.4195 28.4273 42.2395 28.408 42.0489 28.4318C41.6744 28.4788 41.3362 28.7171 41.0342 29.1462L40.6594 33.2292L39.1167 33.4229L39.6796 27.2931Z" fill="url(#paint4_radial_289_833)" style="mix-blend-mode:plus-lighter"/>
</g>
<defs>
<filter id="filter0_dii_289_833" x="0.87156" y="12.4482" width="57.1404" height="49.295" filterUnits="userSpaceOnUse" color-interpolation-filters="sRGB">
<feFlood flood-opacity="0" result="BackgroundImageFix"/>
<feColorMatrix in="SourceAlpha" type="matrix" values="0 0 0 0 0 0 0 0 0 0 0 0 0 0 0 0 0 0 127 0" result="hardAlpha"/>
<feOffset dy="10.1818"/>
<feGaussianBlur stdDeviation="7.63636"/>
<feComposite in2="hardAlpha" operator="out"/>
<feColorMatrix type="matrix" values="0 0 0 0 0.243137 0 0 0 0 0.772549 0 0 0 0 1 0 0 0 0.6 0"/>
<feBlend mode="normal" in2="BackgroundImageFix" result="effect1_dropShadow_289_833"/>
<feBlend mode="normal" in="SourceGraphic" in2="effect1_dropShadow_289_833" result="shape"/>
<feColorMatrix in="SourceAlpha" type="matrix" values="0 0 0 0 0 0 0 0 0 0 0 0 0 0 0 0 0 0 127 0" result="hardAlpha"/>
<feOffset dy="10.1818"/>
<feGaussianBlur stdDeviation="6.36364"/>
<feComposite in2="hardAlpha" operator="arithmetic" k2="-1" k3="1"/>
<feColorMatrix type="matrix" values="0 0 0 0 0.243137 0 0 0 0 0.772549 0 0 0 0 1 0 0 0 0.6 0"/>
<feBlend mode="normal" in2="shape" result="effect2_innerShadow_289_833"/>
<feColorMatrix in="SourceAlpha" type="matrix" values="0 0 0 0 0 0 0 0 0 0 0 0 0 0 0 0 0 0 127 0" result="hardAlpha"/>
<feOffset/>
<feGaussianBlur stdDeviation="2.54545"/>
<feComposite in2="hardAlpha" operator="arithmetic" k2="-1" k3="1"/>
<feColorMatrix type="matrix" values="0 0 0 0 1 0 0 0 0 1 0 0 0 0 1 0 0 0 0.5 0"/>
<feBlend mode="normal" in2="effect2_innerShadow_289_833" result="effect3_innerShadow_289_833"/>
</filter>
<radialGradient id="paint0_radial_289_833" cx="0" cy="0" r="1" gradientUnits="userSpaceOnUse" gradientTransform="translate(20.6326 8.81545) rotate(79.903) scale(37.7695 64.9075)">
<stop stop-color="white" stop-opacity="0.4"/>
<stop offset="1" stop-color="#3E95FF" stop-opacity="0"/>
</radialGradient>
<radialGradient id="paint1_radial_289_833" cx="0" cy="0" r="1" gradientUnits="userSpaceOnUse" gradientTransform="translate(24.7468 19.6888) rotate(74.2075) scale(17.2511 44.9816)">
<stop stop-color="white" stop-opacity="0.4"/>
<stop offset="1" stop-color="#3E95FF" stop-opacity="0"/>
</radialGradient>
<radialGradient id="paint2_radial_289_833" cx="0" cy="0" r="1" gradientUnits="userSpaceOnUse" gradientTransform="translate(24.7468 19.6888) rotate(74.2075) scale(17.2511 44.9816)">
<stop stop-color="white" stop-opacity="0.4"/>
<stop offset="1" stop-color="#3E95FF" stop-opacity="0"/>
</radialGradient>
<radialGradient id="paint3_radial_289_833" cx="0" cy="0" r="1" gradientUnits="userSpaceOnUse" gradientTransform="translate(24.7468 19.6888) rotate(74.2075) scale(17.2511 44.9816)">
<stop stop-color="white" stop-opacity="0.4"/>
<stop offset="1" stop-color="#3E95FF" stop-opacity="0"/>
</radialGradient>
<radialGradient id="paint4_radial_289_833" cx="0" cy="0" r="1" gradientUnits="userSpaceOnUse" gradientTransform="translate(24.7468 19.6888) rotate(74.2075) scale(17.2511 44.9816)">
<stop stop-color="white" stop-opacity="0.4"/>
<stop offset="1" stop-color="#3E95FF" stop-opacity="0"/>
</radialGradient>
</defs>
</svg>
