<svg width="20" height="20" viewBox="0 0 20 20" fill="none" xmlns="http://www.w3.org/2000/svg">
<g id="vuesax/bold/apple">
<g id="apple">
<g id="Group">
<path id="Vector" fill-rule="evenodd" clip-rule="evenodd" d="M15.9167 15.9663C16.4084 15.2163 16.5917 14.833 16.9667 13.9913C14.2001 12.9413 13.7584 8.99967 16.4917 7.49133C15.6584 6.44133 14.4834 5.83301 13.3751 5.83301C12.5751 5.83301 12.0251 6.04135 11.5334 6.23302C11.1167 6.39135 10.7417 6.533 10.2751 6.533C9.77506 6.533 9.33339 6.37468 8.86672 6.20802C8.35839 6.02468 7.82505 5.83301 7.15839 5.83301C5.91672 5.83301 4.59172 6.59134 3.75006 7.89134C2.56672 9.72468 2.77506 13.158 4.68339 16.0913C5.36672 17.1413 6.28339 18.3163 7.47506 18.333C7.97506 18.3413 8.30005 18.1914 8.65839 18.033C9.06672 17.8497 9.50839 17.6497 10.2834 17.6497C11.0584 17.6413 11.4917 17.8497 11.9001 18.033C12.2501 18.1914 12.5667 18.3413 13.0584 18.333C14.2667 18.3163 15.2334 17.0163 15.9167 15.9663Z" fill="white"/>
</g>
<path id="Vector_2" fill-rule="evenodd" clip-rule="evenodd" d="M13.2 1.66699C13.3333 2.58366 12.9583 3.492 12.4667 4.12534C11.9417 4.80867 11.025 5.34199 10.1417 5.30866C9.98333 4.42532 10.3917 3.51698 10.8917 2.90865C11.45 2.24198 12.3917 1.72533 13.2 1.66699Z" fill="white"/>
</g>
</g>
</svg>
