<svg width="24" height="24" viewBox="0 0 24 24" fill="none" xmlns="http://www.w3.org/2000/svg">
<path d="M13.5858 3.58579L14.2929 2.87868L14.2929 2.87868L13.5858 3.58579ZM18.4142 8.41421L17.7071 9.12132V9.12132L18.4142 8.41421ZM4 10.5C4 11.0523 4.44772 11.5 5 11.5C5.55228 11.5 6 11.0523 6 10.5H4ZM15 20C14.4477 20 14 20.4477 14 21C14 21.5523 14.4477 22 15 22V20ZM14 3.5V2.5H12V3.5H14ZM18.5 10H19.5V8H18.5V10ZM9 16V15L8.99779 15L9 16ZM8.9888 16L8.14657 16.5391C8.33081 16.827 8.64927 17.0008 8.99101 17L8.9888 16ZM7 3V4H12.1716V3V2H7V3ZM19 9.82843H18V19H19H20V9.82843H19ZM13.5858 3.58579L12.8787 4.29289L17.7071 9.12132L18.4142 8.41421L19.1213 7.70711L14.2929 2.87868L13.5858 3.58579ZM5 10.5H6V5H5H4V10.5H5ZM17 21V20H15V21V22H17V21ZM19 9.82843H20C20 9.03278 19.6839 8.26972 19.1213 7.70711L18.4142 8.41421L17.7071 9.12132C17.8946 9.30886 18 9.56321 18 9.82843H19ZM12.1716 3V4C12.4368 4 12.6911 4.10536 12.8787 4.29289L13.5858 3.58579L14.2929 2.87868C13.7303 2.31607 12.9672 2 12.1716 2V3ZM19 19H18C18 19.5523 17.5523 20 17 20V21V22C18.6569 22 20 20.6569 20 19H19ZM7 3V2C5.34315 2 4 3.34315 4 5H5H6C6 4.44772 6.44772 4 7 4V3ZM13 3.5H12V7H13H14V3.5H13ZM15 9V10H18.5V9V8H15V9ZM13 7H12C12 8.65685 13.3431 10 15 10V9V8C14.4477 8 14 7.55228 14 7H13ZM6.25 21V20C5.00736 20 4 18.9926 4 17.75H3H2C2 20.0972 3.90279 22 6.25 22V21ZM9 21V20H6.25V21V22H9V21ZM11.5 18.5H10.5C10.5 19.3284 9.82843 20 9 20V21V22C10.933 22 12.5 20.433 12.5 18.5H11.5ZM9 16V17C9.82843 17 10.5 17.6716 10.5 18.5H11.5H12.5C12.5 16.567 10.933 15 9 15V16ZM8.9888 16L8.99101 17L9.00221 17L9 16L8.99779 15L8.98658 15L8.9888 16ZM6.25 14.5V15.5C7.04608 15.5 7.74527 15.9122 8.14657 16.5391L8.9888 16L9.83102 15.4609C9.07792 14.2844 7.75683 13.5 6.25 13.5V14.5ZM3 17.75H4C4 16.5074 5.00736 15.5 6.25 15.5V14.5V13.5C3.90279 13.5 2 15.4028 2 17.75H3Z" fill="white"/>
</svg>
