<svg width="21" height="20" viewBox="0 0 21 20" fill="none" xmlns="http://www.w3.org/2000/svg">
<g id="vuesax/bold/google-play">
<g id="google-play">
<path id="Vector" d="M18.3333 10.7914L16.0166 11.9497C15.8583 12.033 15.6666 11.9997 15.5333 11.8747L13.975 10.3164C13.8083 10.1497 13.8083 9.89138 13.975 9.72471L15.5583 8.14136C15.6833 8.01636 15.8833 7.98303 16.0416 8.06636L18.3333 9.21637C18.9916 9.53303 18.9916 10.4664 18.3333 10.7914Z" fill="white"/>
<path id="Vector_2" d="M14.0833 7.07456C14.3416 7.19956 14.3916 7.54124 14.1916 7.74124L12.8 9.1329L12.2083 9.72458C12.0416 9.89125 11.7833 9.89125 11.6166 9.72458L5.66664 3.77457C5.33331 3.44124 5.72498 2.89958 6.14998 3.10791L14.0833 7.07456Z" fill="white"/>
<path id="Vector_3" d="M2.16663 16.7919V2.90023C2.16663 2.53356 2.60829 2.34188 2.87496 2.60022L10.1833 9.69189C10.3583 9.85856 10.35 10.1335 10.175 10.3002L2.86663 17.1002C2.59996 17.3502 2.16663 17.1586 2.16663 16.7919Z" fill="white"/>
<path id="Vector_4" d="M14.0584 12.9336L6.23335 16.8503C5.80835 17.0586 5.41668 16.5169 5.75002 16.1836L11.625 10.3086C11.7917 10.1419 12.05 10.1419 12.2167 10.3086L14.175 12.2669C14.3667 12.4669 14.3084 12.8086 14.0584 12.9336Z" fill="white"/>
</g>
</g>
</svg>
