<svg width="25" height="24" viewBox="0 0 25 24" fill="none" xmlns="http://www.w3.org/2000/svg">
<g id="vuesax/bold/instagram">
<g id="instagram">
<path id="Vector" d="M16.3566 2H7.97663C4.33663 2 2.16663 4.17 2.16663 7.81V16.18C2.16663 19.83 4.33663 22 7.97663 22H16.3466C19.9866 22 22.1566 19.83 22.1566 16.19V7.81C22.1666 4.17 19.9966 2 16.3566 2ZM12.1666 15.88C10.0266 15.88 8.28663 14.14 8.28663 12C8.28663 9.86 10.0266 8.12 12.1666 8.12C14.3066 8.12 16.0466 9.86 16.0466 12C16.0466 14.14 14.3066 15.88 12.1666 15.88ZM18.0866 6.88C18.0366 7 17.9666 7.11 17.8766 7.21C17.7766 7.3 17.6666 7.37 17.5466 7.42C17.4266 7.47 17.2966 7.5 17.1666 7.5C16.8966 7.5 16.6466 7.4 16.4566 7.21C16.3666 7.11 16.2966 7 16.2466 6.88C16.1966 6.76 16.1666 6.63 16.1666 6.5C16.1666 6.37 16.1966 6.24 16.2466 6.12C16.2966 5.99 16.3666 5.89 16.4566 5.79C16.6866 5.56 17.0366 5.45 17.3566 5.52C17.4266 5.53 17.4866 5.55 17.5466 5.58C17.6066 5.6 17.6666 5.63 17.7266 5.67C17.7766 5.7 17.8266 5.75 17.8766 5.79C17.9666 5.89 18.0366 5.99 18.0866 6.12C18.1366 6.24 18.1666 6.37 18.1666 6.5C18.1666 6.63 18.1366 6.76 18.0866 6.88Z" fill="#3EC5FF"/>
</g>
</g>
</svg>
