<svg width="40" height="40" viewBox="0 0 40 40" fill="none" xmlns="http://www.w3.org/2000/svg">
<g id="Group 2085660889">
<g id="Vector" opacity="0.2">
<path d="M17.4834 0.884779C18.8629 -0.294926 21.122 -0.294926 22.5215 0.884779L25.6804 3.60407C26.2801 4.12394 27.3997 4.5439 28.1994 4.5439H31.5981C33.7173 4.5439 35.4567 6.28345 35.4567 8.40292V11.802C35.4567 12.5818 35.8765 13.7215 36.3963 14.3214L39.1153 17.4806C40.2949 18.8603 40.2949 21.1197 39.1153 22.5194L36.3963 25.6785C35.8765 26.2784 35.4567 27.3981 35.4567 28.1979V31.5971C35.4567 33.7165 33.7173 35.4561 31.5981 35.4561H28.1994C27.4197 35.4561 26.2801 35.8761 25.6804 36.3959L22.5215 39.1152C21.142 40.2949 18.8829 40.2949 17.4834 39.1152L14.3246 36.3959C13.7249 35.8761 12.6053 35.4561 11.8056 35.4561H8.34685C6.22764 35.4561 4.48831 33.7165 4.48831 31.5971V28.1779C4.48831 27.3981 4.06849 26.2784 3.56867 25.6785L0.869674 22.4994C-0.289891 21.1197 -0.289891 18.8803 0.869674 17.5006L3.56867 14.3214C4.06849 13.7215 4.48831 12.6018 4.48831 11.822V8.40292C4.48831 6.28345 6.22764 4.5439 8.34685 4.5439H11.8056C12.5853 4.5439 13.7249 4.12394 14.3246 3.60407L17.4834 0.884779Z" fill="#FFA310"/>
<path d="M17.4834 0.884779C18.8629 -0.294926 21.122 -0.294926 22.5215 0.884779L25.6804 3.60407C26.2801 4.12394 27.3997 4.5439 28.1994 4.5439H31.5981C33.7173 4.5439 35.4567 6.28345 35.4567 8.40292V11.802C35.4567 12.5818 35.8765 13.7215 36.3963 14.3214L39.1153 17.4806C40.2949 18.8603 40.2949 21.1197 39.1153 22.5194L36.3963 25.6785C35.8765 26.2784 35.4567 27.3981 35.4567 28.1979V31.5971C35.4567 33.7165 33.7173 35.4561 31.5981 35.4561H28.1994C27.4197 35.4561 26.2801 35.8761 25.6804 36.3959L22.5215 39.1152C21.142 40.2949 18.8829 40.2949 17.4834 39.1152L14.3246 36.3959C13.7249 35.8761 12.6053 35.4561 11.8056 35.4561H8.34685C6.22764 35.4561 4.48831 33.7165 4.48831 31.5971V28.1779C4.48831 27.3981 4.06849 26.2784 3.56867 25.6785L0.869674 22.4994C-0.289891 21.1197 -0.289891 18.8803 0.869674 17.5006L3.56867 14.3214C4.06849 13.7215 4.48831 12.6018 4.48831 11.822V8.40292C4.48831 6.28345 6.22764 4.5439 8.34685 4.5439H11.8056C12.5853 4.5439 13.7249 4.12394 14.3246 3.60407L17.4834 0.884779Z" fill="url(#paint0_radial_127_645)" style="mix-blend-mode:plus-lighter"/>
</g>
<g id="Union" filter="url(#filter0_dii_127_645)">
<path fill-rule="evenodd" clip-rule="evenodd" d="M21.9941 21.1307C21.9941 21.7747 21.5837 22.3443 20.9727 22.548L12 25.5276V26.0776C12 27.316 13.0405 28.3232 14.2788 28.3232C14.486 28.3232 14.6932 28.2946 14.8945 28.2371L27.3711 24.6823C28.3303 24.4079 29 23.5198 29 22.5228V19.8564C29 15.1878 25.1687 11.3232 20.5 11.3232C16.9881 11.3232 13.9369 13.5393 12.6563 16.5914L20.7928 18.212C21.4888 18.3507 21.9941 18.9669 21.9941 19.677V21.1307ZM12 19.8564C12 19.0531 12.1197 18.2785 12.3296 17.5417L19.0059 18.8702V22.154L12 24.478V19.8564ZM20.5977 19.1887C20.8297 19.2349 20.998 19.4401 20.998 19.677V21.1308C20.998 21.3452 20.8614 21.5354 20.6576 21.6035L20.002 21.822V19.0695L20.5977 19.1887Z" fill="#FFA310"/>
<path fill-rule="evenodd" clip-rule="evenodd" d="M21.9941 21.1307C21.9941 21.7747 21.5837 22.3443 20.9727 22.548L12 25.5276V26.0776C12 27.316 13.0405 28.3232 14.2788 28.3232C14.486 28.3232 14.6932 28.2946 14.8945 28.2371L27.3711 24.6823C28.3303 24.4079 29 23.5198 29 22.5228V19.8564C29 15.1878 25.1687 11.3232 20.5 11.3232C16.9881 11.3232 13.9369 13.5393 12.6563 16.5914L20.7928 18.212C21.4888 18.3507 21.9941 18.9669 21.9941 19.677V21.1307ZM12 19.8564C12 19.0531 12.1197 18.2785 12.3296 17.5417L19.0059 18.8702V22.154L12 24.478V19.8564ZM20.5977 19.1887C20.8297 19.2349 20.998 19.4401 20.998 19.677V21.1308C20.998 21.3452 20.8614 21.5354 20.6576 21.6035L20.002 21.822V19.0695L20.5977 19.1887Z" fill="url(#paint1_radial_127_645)" style="mix-blend-mode:plus-lighter"/>
</g>
</g>
<defs>
<filter id="filter0_dii_127_645" x="6" y="9.32324" width="29" height="29" filterUnits="userSpaceOnUse" color-interpolation-filters="sRGB">
<feFlood flood-opacity="0" result="BackgroundImageFix"/>
<feColorMatrix in="SourceAlpha" type="matrix" values="0 0 0 0 0 0 0 0 0 0 0 0 0 0 0 0 0 0 127 0" result="hardAlpha"/>
<feOffset dy="4"/>
<feGaussianBlur stdDeviation="3"/>
<feComposite in2="hardAlpha" operator="out"/>
<feColorMatrix type="matrix" values="0 0 0 0 1 0 0 0 0 0.639216 0 0 0 0 0.0627451 0 0 0 0.6 0"/>
<feBlend mode="normal" in2="BackgroundImageFix" result="effect1_dropShadow_127_645"/>
<feBlend mode="normal" in="SourceGraphic" in2="effect1_dropShadow_127_645" result="shape"/>
<feColorMatrix in="SourceAlpha" type="matrix" values="0 0 0 0 0 0 0 0 0 0 0 0 0 0 0 0 0 0 127 0" result="hardAlpha"/>
<feOffset dy="4"/>
<feGaussianBlur stdDeviation="2.5"/>
<feComposite in2="hardAlpha" operator="arithmetic" k2="-1" k3="1"/>
<feColorMatrix type="matrix" values="0 0 0 0 1 0 0 0 0 0.639216 0 0 0 0 0.0627451 0 0 0 0.6 0"/>
<feBlend mode="normal" in2="shape" result="effect2_innerShadow_127_645"/>
<feColorMatrix in="SourceAlpha" type="matrix" values="0 0 0 0 0 0 0 0 0 0 0 0 0 0 0 0 0 0 127 0" result="hardAlpha"/>
<feOffset/>
<feGaussianBlur stdDeviation="1"/>
<feComposite in2="hardAlpha" operator="arithmetic" k2="-1" k3="1"/>
<feColorMatrix type="matrix" values="0 0 0 0 1 0 0 0 0 1 0 0 0 0 1 0 0 0 0.5 0"/>
<feBlend mode="normal" in2="effect2_innerShadow_127_645" result="effect3_innerShadow_127_645"/>
</filter>
<radialGradient id="paint0_radial_127_645" cx="0" cy="0" r="1" gradientUnits="userSpaceOnUse" gradientTransform="translate(12.9386 4.58615) rotate(78.7233) scale(36.111 68.951)">
<stop stop-color="white" stop-opacity="0.3"/>
<stop offset="1" stop-color="#FFA310" stop-opacity="0"/>
</radialGradient>
<radialGradient id="paint1_radial_127_645" cx="0" cy="0" r="1" gradientUnits="userSpaceOnUse" gradientTransform="translate(23.5011 13.2724) rotate(101.277) scale(15.3472 29.3042)">
<stop stop-color="white" stop-opacity="0.3"/>
<stop offset="1" stop-color="#FFA310" stop-opacity="0"/>
</radialGradient>
</defs>
</svg>
