<svg width="50" height="73" viewBox="0 0 50 73" fill="none" xmlns="http://www.w3.org/2000/svg">
<g id="vuesax/bulk/people">
<g id="people">
<g id="Vector" opacity="0.2">
<path d="M36.5208 16.1873C36.375 16.1665 36.2291 16.1665 36.0833 16.1873C32.8541 16.0832 30.2916 13.4373 30.2916 10.1873C30.2916 6.87484 32.9791 4.1665 36.3125 4.1665C39.625 4.1665 42.3333 6.854 42.3333 10.1873C42.3125 13.4373 39.75 16.0832 36.5208 16.1873Z" fill="#3EC5FF"/>
<path d="M36.5208 16.1873C36.375 16.1665 36.2291 16.1665 36.0833 16.1873C32.8541 16.0832 30.2916 13.4373 30.2916 10.1873C30.2916 6.87484 32.9791 4.1665 36.3125 4.1665C39.625 4.1665 42.3333 6.854 42.3333 10.1873C42.3125 13.4373 39.75 16.0832 36.5208 16.1873Z" fill="url(#paint0_radial_2003_277)" style="mix-blend-mode:plus-lighter"/>
</g>
<g id="Vector_2" opacity="0.2">
<path d="M43.3125 30.6248C40.9792 32.1873 37.7084 32.7707 34.6875 32.3748C35.4792 30.6665 35.8959 28.7707 35.9167 26.7707C35.9167 24.6874 35.4584 22.7082 34.5834 20.979C37.6667 20.5624 40.9375 21.1457 43.2917 22.7082C46.5834 24.8748 46.5834 28.4373 43.3125 30.6248Z" fill="#3EC5FF"/>
<path d="M43.3125 30.6248C40.9792 32.1873 37.7084 32.7707 34.6875 32.3748C35.4792 30.6665 35.8959 28.7707 35.9167 26.7707C35.9167 24.6874 35.4584 22.7082 34.5834 20.979C37.6667 20.5624 40.9375 21.1457 43.2917 22.7082C46.5834 24.8748 46.5834 28.4373 43.3125 30.6248Z" fill="url(#paint1_radial_2003_277)" style="mix-blend-mode:plus-lighter"/>
</g>
<g id="Vector_3" opacity="0.2">
<path d="M13.4166 16.1873C13.5625 16.1665 13.7083 16.1665 13.8541 16.1873C17.0833 16.0832 19.6458 13.4373 19.6458 10.1873C19.6458 6.87484 16.9583 4.1665 13.625 4.1665C10.3125 4.1665 7.60413 6.854 7.60413 10.1873C7.62496 13.4373 10.1875 16.0832 13.4166 16.1873Z" fill="#3EC5FF"/>
<path d="M13.4166 16.1873C13.5625 16.1665 13.7083 16.1665 13.8541 16.1873C17.0833 16.0832 19.6458 13.4373 19.6458 10.1873C19.6458 6.87484 16.9583 4.1665 13.625 4.1665C10.3125 4.1665 7.60413 6.854 7.60413 10.1873C7.62496 13.4373 10.1875 16.0832 13.4166 16.1873Z" fill="url(#paint2_radial_2003_277)" style="mix-blend-mode:plus-lighter"/>
</g>
<g id="Vector_4" opacity="0.2">
<path d="M13.6458 26.7706C13.6458 28.7914 14.0833 30.7081 14.875 32.4373C11.9375 32.7498 8.875 32.1248 6.625 30.6456C3.33333 28.4581 3.33333 24.8956 6.625 22.7081C8.85417 21.2081 12 20.6039 14.9583 20.9373C14.1042 22.6873 13.6458 24.6664 13.6458 26.7706Z" fill="#3EC5FF"/>
<path d="M13.6458 26.7706C13.6458 28.7914 14.0833 30.7081 14.875 32.4373C11.9375 32.7498 8.875 32.1248 6.625 30.6456C3.33333 28.4581 3.33333 24.8956 6.625 22.7081C8.85417 21.2081 12 20.6039 14.9583 20.9373C14.1042 22.6873 13.6458 24.6664 13.6458 26.7706Z" fill="url(#paint3_radial_2003_277)" style="mix-blend-mode:plus-lighter"/>
</g>
<g id="Vector_5" filter="url(#filter0_dii_2003_277)">
<path d="M25.25 33.0625C25.0833 33.0417 24.8958 33.0417 24.7083 33.0625C20.875 32.9375 17.8125 29.7917 17.8125 25.9167C17.8125 21.9583 21 18.75 24.9792 18.75C28.9375 18.75 32.1458 21.9583 32.1458 25.9167C32.1458 29.7917 29.1042 32.9375 25.25 33.0625Z" fill="#3EC5FF"/>
<path d="M25.25 33.0625C25.0833 33.0417 24.8958 33.0417 24.7083 33.0625C20.875 32.9375 17.8125 29.7917 17.8125 25.9167C17.8125 21.9583 21 18.75 24.9792 18.75C28.9375 18.75 32.1458 21.9583 32.1458 25.9167C32.1458 29.7917 29.1042 32.9375 25.25 33.0625Z" fill="url(#paint4_radial_2003_277)" style="mix-blend-mode:plus-lighter"/>
</g>
<g id="Vector_6" filter="url(#filter1_dii_2003_277)">
<path d="M18.4791 37.375C15.3333 39.4792 15.3333 42.9375 18.4791 45.0208C22.0625 47.4167 27.9375 47.4167 31.5208 45.0208C34.6666 42.9167 34.6666 39.4583 31.5208 37.375C27.9583 34.9792 22.0833 34.9792 18.4791 37.375Z" fill="#3EC5FF"/>
<path d="M18.4791 37.375C15.3333 39.4792 15.3333 42.9375 18.4791 45.0208C22.0625 47.4167 27.9375 47.4167 31.5208 45.0208C34.6666 42.9167 34.6666 39.4583 31.5208 37.375C27.9583 34.9792 22.0833 34.9792 18.4791 37.375Z" fill="url(#paint5_radial_2003_277)" style="mix-blend-mode:plus-lighter"/>
</g>
</g>
</g>
<defs>
<filter id="filter0_dii_2003_277" x="2.53977" y="13.6591" width="44.8788" height="44.858" filterUnits="userSpaceOnUse" color-interpolation-filters="sRGB">
<feFlood flood-opacity="0" result="BackgroundImageFix"/>
<feColorMatrix in="SourceAlpha" type="matrix" values="0 0 0 0 0 0 0 0 0 0 0 0 0 0 0 0 0 0 127 0" result="hardAlpha"/>
<feOffset dy="10.1818"/>
<feGaussianBlur stdDeviation="7.63636"/>
<feComposite in2="hardAlpha" operator="out"/>
<feColorMatrix type="matrix" values="0 0 0 0 0.243137 0 0 0 0 0.772549 0 0 0 0 1 0 0 0 0.6 0"/>
<feBlend mode="normal" in2="BackgroundImageFix" result="effect1_dropShadow_2003_277"/>
<feBlend mode="normal" in="SourceGraphic" in2="effect1_dropShadow_2003_277" result="shape"/>
<feColorMatrix in="SourceAlpha" type="matrix" values="0 0 0 0 0 0 0 0 0 0 0 0 0 0 0 0 0 0 127 0" result="hardAlpha"/>
<feOffset dy="10.1818"/>
<feGaussianBlur stdDeviation="6.36364"/>
<feComposite in2="hardAlpha" operator="arithmetic" k2="-1" k3="1"/>
<feColorMatrix type="matrix" values="0 0 0 0 0.243137 0 0 0 0 0.772549 0 0 0 0 1 0 0 0 0.6 0"/>
<feBlend mode="normal" in2="shape" result="effect2_innerShadow_2003_277"/>
<feColorMatrix in="SourceAlpha" type="matrix" values="0 0 0 0 0 0 0 0 0 0 0 0 0 0 0 0 0 0 127 0" result="hardAlpha"/>
<feOffset/>
<feGaussianBlur stdDeviation="2.54545"/>
<feComposite in2="hardAlpha" operator="arithmetic" k2="-1" k3="1"/>
<feColorMatrix type="matrix" values="0 0 0 0 1 0 0 0 0 1 0 0 0 0 1 0 0 0 0.5 0"/>
<feBlend mode="normal" in2="effect2_innerShadow_2003_277" result="effect3_innerShadow_2003_277"/>
</filter>
<filter id="filter1_dii_2003_277" x="0.847024" y="30.4872" width="48.3058" height="41.7852" filterUnits="userSpaceOnUse" color-interpolation-filters="sRGB">
<feFlood flood-opacity="0" result="BackgroundImageFix"/>
<feColorMatrix in="SourceAlpha" type="matrix" values="0 0 0 0 0 0 0 0 0 0 0 0 0 0 0 0 0 0 127 0" result="hardAlpha"/>
<feOffset dy="10.1818"/>
<feGaussianBlur stdDeviation="7.63636"/>
<feComposite in2="hardAlpha" operator="out"/>
<feColorMatrix type="matrix" values="0 0 0 0 0.243137 0 0 0 0 0.772549 0 0 0 0 1 0 0 0 0.6 0"/>
<feBlend mode="normal" in2="BackgroundImageFix" result="effect1_dropShadow_2003_277"/>
<feBlend mode="normal" in="SourceGraphic" in2="effect1_dropShadow_2003_277" result="shape"/>
<feColorMatrix in="SourceAlpha" type="matrix" values="0 0 0 0 0 0 0 0 0 0 0 0 0 0 0 0 0 0 127 0" result="hardAlpha"/>
<feOffset dy="10.1818"/>
<feGaussianBlur stdDeviation="6.36364"/>
<feComposite in2="hardAlpha" operator="arithmetic" k2="-1" k3="1"/>
<feColorMatrix type="matrix" values="0 0 0 0 0.243137 0 0 0 0 0.772549 0 0 0 0 1 0 0 0 0.6 0"/>
<feBlend mode="normal" in2="shape" result="effect2_innerShadow_2003_277"/>
<feColorMatrix in="SourceAlpha" type="matrix" values="0 0 0 0 0 0 0 0 0 0 0 0 0 0 0 0 0 0 127 0" result="hardAlpha"/>
<feOffset/>
<feGaussianBlur stdDeviation="2.54545"/>
<feComposite in2="hardAlpha" operator="arithmetic" k2="-1" k3="1"/>
<feColorMatrix type="matrix" values="0 0 0 0 1 0 0 0 0 1 0 0 0 0 1 0 0 0 0.5 0"/>
<feBlend mode="normal" in2="effect2_innerShadow_2003_277" result="effect3_innerShadow_2003_277"/>
</filter>
<radialGradient id="paint0_radial_2003_277" cx="0" cy="0" r="1" gradientUnits="userSpaceOnUse" gradientTransform="translate(34.1867 5.54474) rotate(78.7042) scale(10.8528 20.7557)">
<stop stop-color="white" stop-opacity="0.4"/>
<stop offset="1" stop-color="#3E95FF" stop-opacity="0"/>
</radialGradient>
<radialGradient id="paint1_radial_2003_277" cx="0" cy="0" r="1" gradientUnits="userSpaceOnUse" gradientTransform="translate(38.1996 22.1839) rotate(79.1641) scale(10.4981 19.3003)">
<stop stop-color="white" stop-opacity="0.4"/>
<stop offset="1" stop-color="#3E95FF" stop-opacity="0"/>
</radialGradient>
<radialGradient id="paint2_radial_2003_277" cx="0" cy="0" r="1" gradientUnits="userSpaceOnUse" gradientTransform="translate(11.4992 5.54474) rotate(78.7042) scale(10.8528 20.7557)">
<stop stop-color="white" stop-opacity="0.4"/>
<stop offset="1" stop-color="#3E95FF" stop-opacity="0"/>
</radialGradient>
<radialGradient id="paint3_radial_2003_277" cx="0" cy="0" r="1" gradientUnits="userSpaceOnUse" gradientTransform="translate(7.65033 22.1859) rotate(79.5406) scale(10.5045 18.6714)">
<stop stop-color="white" stop-opacity="0.4"/>
<stop offset="1" stop-color="#3E95FF" stop-opacity="0"/>
</radialGradient>
<radialGradient id="paint4_radial_2003_277" cx="0" cy="0" r="1" gradientUnits="userSpaceOnUse" gradientTransform="translate(22.4488 20.391) rotate(78.7072) scale(12.9217 24.7061)">
<stop stop-color="white" stop-opacity="0.4"/>
<stop offset="1" stop-color="#3E95FF" stop-opacity="0"/>
</radialGradient>
<radialGradient id="paint5_radial_2003_277" cx="0" cy="0" r="1" gradientUnits="userSpaceOnUse" gradientTransform="translate(21.8646 36.8668) rotate(72.5113) scale(10.4332 29.7747)">
<stop stop-color="white" stop-opacity="0.4"/>
<stop offset="1" stop-color="#3E95FF" stop-opacity="0"/>
</radialGradient>
</defs>
</svg>
