<svg width="21" height="20" viewBox="0 0 21 20" fill="none" xmlns="http://www.w3.org/2000/svg">
<g id="outline / phone">
<path id="shape" d="M17.9995 15.9887V13.7306C18.0087 13.3614 17.8816 13.0018 17.6424 12.72C16.9679 11.9255 14.6546 11.4173 13.7376 11.6125C13.0228 11.7646 12.5227 12.4824 12.0337 12.9703C10.1455 11.8988 8.58215 10.3385 7.5085 8.45403C7.99742 7.96608 8.71656 7.46697 8.86901 6.75357C9.06427 5.83981 8.55678 3.54124 7.76776 2.86403C7.49024 2.62584 7.13539 2.49648 6.76937 2.50007H4.50676C3.64465 2.50088 2.9274 3.27412 3.00589 4.14099C3 11.6125 8.83333 17.5 16.3553 17.4941C17.2268 17.5727 18.003 16.8519 17.9995 15.9887Z" stroke="#7C8080" stroke-linecap="round" stroke-linejoin="round"/>
</g>
</svg>
