<svg width="56" height="65" viewBox="0 0 56 65" fill="none" xmlns="http://www.w3.org/2000/svg">
<g opacity="0.2">
<path d="M36.7291 4.1665H19.2708C11.6875 4.1665 7.16663 8.68734 7.16663 16.2707V33.7082C7.16663 41.3123 11.6875 45.8332 19.2708 45.8332H36.7083C44.2916 45.8332 48.8125 41.3123 48.8125 33.729V16.2707C48.8333 8.68734 44.3125 4.1665 36.7291 4.1665Z" fill="#3EC5FF"/>
<path d="M36.7291 4.1665H19.2708C11.6875 4.1665 7.16663 8.68734 7.16663 16.2707V33.7082C7.16663 41.3123 11.6875 45.8332 19.2708 45.8332H36.7083C44.2916 45.8332 48.8125 41.3123 48.8125 33.729V16.2707C48.8333 8.68734 44.3125 4.1665 36.7291 4.1665Z" fill="url(#paint0_radial_194_1968)" style="mix-blend-mode:plus-lighter"/>
</g>
<g filter="url(#filter0_dii_194_1968)">
<path d="M17.3333 39.375C16.4791 39.375 15.7708 38.6667 15.7708 37.8125V33.5C15.7708 32.6458 16.4791 31.9375 17.3333 31.9375C18.1874 31.9375 18.8958 32.6458 18.8958 33.5V37.8125C18.8958 38.6875 18.1874 39.375 17.3333 39.375Z" fill="#3EC5FF"/>
<path d="M17.3333 39.375C16.4791 39.375 15.7708 38.6667 15.7708 37.8125V33.5C15.7708 32.6458 16.4791 31.9375 17.3333 31.9375C18.1874 31.9375 18.8958 32.6458 18.8958 33.5V37.8125C18.8958 38.6875 18.1874 39.375 17.3333 39.375Z" fill="url(#paint1_radial_194_1968)" style="mix-blend-mode:plus-lighter"/>
</g>
<g filter="url(#filter1_dii_194_1968)">
<path d="M28 39.3748C27.1458 39.3748 26.4375 38.6665 26.4375 37.8123V29.1665C26.4375 28.3123 27.1458 27.604 28 27.604C28.8542 27.604 29.5625 28.3123 29.5625 29.1665V37.8123C29.5625 38.6873 28.8542 39.3748 28 39.3748Z" fill="#3EC5FF"/>
<path d="M28 39.3748C27.1458 39.3748 26.4375 38.6665 26.4375 37.8123V29.1665C26.4375 28.3123 27.1458 27.604 28 27.604C28.8542 27.604 29.5625 28.3123 29.5625 29.1665V37.8123C29.5625 38.6873 28.8542 39.3748 28 39.3748Z" fill="url(#paint2_radial_194_1968)" style="mix-blend-mode:plus-lighter"/>
</g>
<g filter="url(#filter2_dii_194_1968)">
<path d="M38.6667 39.3753C37.8126 39.3753 37.1042 38.667 37.1042 37.8128V24.8545C37.1042 24.0003 37.8126 23.292 38.6667 23.292C39.5209 23.292 40.2292 24.0003 40.2292 24.8545V37.8128C40.2292 38.6878 39.5417 39.3753 38.6667 39.3753Z" fill="#3EC5FF"/>
<path d="M38.6667 39.3753C37.8126 39.3753 37.1042 38.667 37.1042 37.8128V24.8545C37.1042 24.0003 37.8126 23.292 38.6667 23.292C39.5209 23.292 40.2292 24.0003 40.2292 24.8545V37.8128C40.2292 38.6878 39.5417 39.3753 38.6667 39.3753Z" fill="url(#paint3_radial_194_1968)" style="mix-blend-mode:plus-lighter"/>
</g>
<g filter="url(#filter3_dii_194_1968)">
<path d="M40.2291 12.125C40.2291 12.0208 40.1874 11.8958 40.1666 11.7917C40.1458 11.7083 40.1249 11.6042 40.1041 11.5208C40.0624 11.4375 39.9999 11.375 39.9583 11.2917C39.8958 11.2083 39.8332 11.1042 39.7499 11.0417C39.7291 11.0208 39.7291 11 39.7083 11C39.6458 10.9583 39.5833 10.9375 39.5208 10.8958C39.4374 10.8333 39.3332 10.7708 39.2291 10.7292C39.1249 10.6875 39.0208 10.6875 38.9166 10.6667C38.8333 10.6458 38.7707 10.625 38.6874 10.625H32.5833C31.7291 10.625 31.0208 11.3333 31.0208 12.1875C31.0208 13.0417 31.7291 13.75 32.5833 13.75H35.1874C30.2291 18.9583 23.9791 22.625 16.9583 24.3958C16.1249 24.6042 15.6041 25.4583 15.8124 26.2917C15.9791 27 16.6249 27.4792 17.3333 27.4792C17.4583 27.4792 17.5833 27.4583 17.7083 27.4375C25.1458 25.5833 31.7916 21.7292 37.1041 16.2708V18.2917C37.1041 19.1458 37.8124 19.8542 38.6666 19.8542C39.5208 19.8542 40.2291 19.1458 40.2291 18.2917V12.1875C40.2291 12.1667 40.2291 12.1458 40.2291 12.125Z" fill="#3EC5FF"/>
<path d="M40.2291 12.125C40.2291 12.0208 40.1874 11.8958 40.1666 11.7917C40.1458 11.7083 40.1249 11.6042 40.1041 11.5208C40.0624 11.4375 39.9999 11.375 39.9583 11.2917C39.8958 11.2083 39.8332 11.1042 39.7499 11.0417C39.7291 11.0208 39.7291 11 39.7083 11C39.6458 10.9583 39.5833 10.9375 39.5208 10.8958C39.4374 10.8333 39.3332 10.7708 39.2291 10.7292C39.1249 10.6875 39.0208 10.6875 38.9166 10.6667C38.8333 10.6458 38.7707 10.625 38.6874 10.625H32.5833C31.7291 10.625 31.0208 11.3333 31.0208 12.1875C31.0208 13.0417 31.7291 13.75 32.5833 13.75H35.1874C30.2291 18.9583 23.9791 22.625 16.9583 24.3958C16.1249 24.6042 15.6041 25.4583 15.8124 26.2917C15.9791 27 16.6249 27.4792 17.3333 27.4792C17.4583 27.4792 17.5833 27.4583 17.7083 27.4375C25.1458 25.5833 31.7916 21.7292 37.1041 16.2708V18.2917C37.1041 19.1458 37.8124 19.8542 38.6666 19.8542C39.5208 19.8542 40.2291 19.1458 40.2291 18.2917V12.1875C40.2291 12.1667 40.2291 12.1458 40.2291 12.125Z" fill="url(#paint4_radial_194_1968)" style="mix-blend-mode:plus-lighter"/>
</g>
<defs>
<filter id="filter0_dii_194_1968" x="0.498024" y="26.8466" width="33.6705" height="37.983" filterUnits="userSpaceOnUse" color-interpolation-filters="sRGB">
<feFlood flood-opacity="0" result="BackgroundImageFix"/>
<feColorMatrix in="SourceAlpha" type="matrix" values="0 0 0 0 0 0 0 0 0 0 0 0 0 0 0 0 0 0 127 0" result="hardAlpha"/>
<feOffset dy="10.1818"/>
<feGaussianBlur stdDeviation="7.63636"/>
<feComposite in2="hardAlpha" operator="out"/>
<feColorMatrix type="matrix" values="0 0 0 0 0.243137 0 0 0 0 0.772549 0 0 0 0 1 0 0 0 0.6 0"/>
<feBlend mode="normal" in2="BackgroundImageFix" result="effect1_dropShadow_194_1968"/>
<feBlend mode="normal" in="SourceGraphic" in2="effect1_dropShadow_194_1968" result="shape"/>
<feColorMatrix in="SourceAlpha" type="matrix" values="0 0 0 0 0 0 0 0 0 0 0 0 0 0 0 0 0 0 127 0" result="hardAlpha"/>
<feOffset dy="10.1818"/>
<feGaussianBlur stdDeviation="6.36364"/>
<feComposite in2="hardAlpha" operator="arithmetic" k2="-1" k3="1"/>
<feColorMatrix type="matrix" values="0 0 0 0 0.243137 0 0 0 0 0.772549 0 0 0 0 1 0 0 0 0.6 0"/>
<feBlend mode="normal" in2="shape" result="effect2_innerShadow_194_1968"/>
<feColorMatrix in="SourceAlpha" type="matrix" values="0 0 0 0 0 0 0 0 0 0 0 0 0 0 0 0 0 0 127 0" result="hardAlpha"/>
<feOffset/>
<feGaussianBlur stdDeviation="2.54545"/>
<feComposite in2="hardAlpha" operator="arithmetic" k2="-1" k3="1"/>
<feColorMatrix type="matrix" values="0 0 0 0 1 0 0 0 0 1 0 0 0 0 1 0 0 0 0.5 0"/>
<feBlend mode="normal" in2="effect2_innerShadow_194_1968" result="effect3_innerShadow_194_1968"/>
</filter>
<filter id="filter1_dii_194_1968" x="11.1648" y="22.5131" width="33.6705" height="42.3165" filterUnits="userSpaceOnUse" color-interpolation-filters="sRGB">
<feFlood flood-opacity="0" result="BackgroundImageFix"/>
<feColorMatrix in="SourceAlpha" type="matrix" values="0 0 0 0 0 0 0 0 0 0 0 0 0 0 0 0 0 0 127 0" result="hardAlpha"/>
<feOffset dy="10.1818"/>
<feGaussianBlur stdDeviation="7.63636"/>
<feComposite in2="hardAlpha" operator="out"/>
<feColorMatrix type="matrix" values="0 0 0 0 0.243137 0 0 0 0 0.772549 0 0 0 0 1 0 0 0 0.6 0"/>
<feBlend mode="normal" in2="BackgroundImageFix" result="effect1_dropShadow_194_1968"/>
<feBlend mode="normal" in="SourceGraphic" in2="effect1_dropShadow_194_1968" result="shape"/>
<feColorMatrix in="SourceAlpha" type="matrix" values="0 0 0 0 0 0 0 0 0 0 0 0 0 0 0 0 0 0 127 0" result="hardAlpha"/>
<feOffset dy="10.1818"/>
<feGaussianBlur stdDeviation="6.36364"/>
<feComposite in2="hardAlpha" operator="arithmetic" k2="-1" k3="1"/>
<feColorMatrix type="matrix" values="0 0 0 0 0.243137 0 0 0 0 0.772549 0 0 0 0 1 0 0 0 0.6 0"/>
<feBlend mode="normal" in2="shape" result="effect2_innerShadow_194_1968"/>
<feColorMatrix in="SourceAlpha" type="matrix" values="0 0 0 0 0 0 0 0 0 0 0 0 0 0 0 0 0 0 127 0" result="hardAlpha"/>
<feOffset/>
<feGaussianBlur stdDeviation="2.54545"/>
<feComposite in2="hardAlpha" operator="arithmetic" k2="-1" k3="1"/>
<feColorMatrix type="matrix" values="0 0 0 0 1 0 0 0 0 1 0 0 0 0 1 0 0 0 0.5 0"/>
<feBlend mode="normal" in2="effect2_innerShadow_194_1968" result="effect3_innerShadow_194_1968"/>
</filter>
<filter id="filter2_dii_194_1968" x="21.8315" y="18.2011" width="33.6705" height="46.629" filterUnits="userSpaceOnUse" color-interpolation-filters="sRGB">
<feFlood flood-opacity="0" result="BackgroundImageFix"/>
<feColorMatrix in="SourceAlpha" type="matrix" values="0 0 0 0 0 0 0 0 0 0 0 0 0 0 0 0 0 0 127 0" result="hardAlpha"/>
<feOffset dy="10.1818"/>
<feGaussianBlur stdDeviation="7.63636"/>
<feComposite in2="hardAlpha" operator="out"/>
<feColorMatrix type="matrix" values="0 0 0 0 0.243137 0 0 0 0 0.772549 0 0 0 0 1 0 0 0 0.6 0"/>
<feBlend mode="normal" in2="BackgroundImageFix" result="effect1_dropShadow_194_1968"/>
<feBlend mode="normal" in="SourceGraphic" in2="effect1_dropShadow_194_1968" result="shape"/>
<feColorMatrix in="SourceAlpha" type="matrix" values="0 0 0 0 0 0 0 0 0 0 0 0 0 0 0 0 0 0 127 0" result="hardAlpha"/>
<feOffset dy="10.1818"/>
<feGaussianBlur stdDeviation="6.36364"/>
<feComposite in2="hardAlpha" operator="arithmetic" k2="-1" k3="1"/>
<feColorMatrix type="matrix" values="0 0 0 0 0.243137 0 0 0 0 0.772549 0 0 0 0 1 0 0 0 0.6 0"/>
<feBlend mode="normal" in2="shape" result="effect2_innerShadow_194_1968"/>
<feColorMatrix in="SourceAlpha" type="matrix" values="0 0 0 0 0 0 0 0 0 0 0 0 0 0 0 0 0 0 127 0" result="hardAlpha"/>
<feOffset/>
<feGaussianBlur stdDeviation="2.54545"/>
<feComposite in2="hardAlpha" operator="arithmetic" k2="-1" k3="1"/>
<feColorMatrix type="matrix" values="0 0 0 0 1 0 0 0 0 1 0 0 0 0 1 0 0 0 0.5 0"/>
<feBlend mode="normal" in2="effect2_innerShadow_194_1968" result="effect3_innerShadow_194_1968"/>
</filter>
<filter id="filter3_dii_194_1968" x="0.493752" y="5.53409" width="55.0081" height="47.3995" filterUnits="userSpaceOnUse" color-interpolation-filters="sRGB">
<feFlood flood-opacity="0" result="BackgroundImageFix"/>
<feColorMatrix in="SourceAlpha" type="matrix" values="0 0 0 0 0 0 0 0 0 0 0 0 0 0 0 0 0 0 127 0" result="hardAlpha"/>
<feOffset dy="10.1818"/>
<feGaussianBlur stdDeviation="7.63636"/>
<feComposite in2="hardAlpha" operator="out"/>
<feColorMatrix type="matrix" values="0 0 0 0 0.243137 0 0 0 0 0.772549 0 0 0 0 1 0 0 0 0.6 0"/>
<feBlend mode="normal" in2="BackgroundImageFix" result="effect1_dropShadow_194_1968"/>
<feBlend mode="normal" in="SourceGraphic" in2="effect1_dropShadow_194_1968" result="shape"/>
<feColorMatrix in="SourceAlpha" type="matrix" values="0 0 0 0 0 0 0 0 0 0 0 0 0 0 0 0 0 0 127 0" result="hardAlpha"/>
<feOffset dy="10.1818"/>
<feGaussianBlur stdDeviation="6.36364"/>
<feComposite in2="hardAlpha" operator="arithmetic" k2="-1" k3="1"/>
<feColorMatrix type="matrix" values="0 0 0 0 0.243137 0 0 0 0 0.772549 0 0 0 0 1 0 0 0 0.6 0"/>
<feBlend mode="normal" in2="shape" result="effect2_innerShadow_194_1968"/>
<feColorMatrix in="SourceAlpha" type="matrix" values="0 0 0 0 0 0 0 0 0 0 0 0 0 0 0 0 0 0 127 0" result="hardAlpha"/>
<feOffset/>
<feGaussianBlur stdDeviation="2.54545"/>
<feComposite in2="hardAlpha" operator="arithmetic" k2="-1" k3="1"/>
<feColorMatrix type="matrix" values="0 0 0 0 1 0 0 0 0 1 0 0 0 0 1 0 0 0 0.5 0"/>
<feBlend mode="normal" in2="effect2_innerShadow_194_1968" result="effect3_innerShadow_194_1968"/>
</filter>
<radialGradient id="paint0_radial_194_1968" cx="0" cy="0" r="1" gradientUnits="userSpaceOnUse" gradientTransform="translate(20.6376 8.94374) rotate(78.7287) scale(37.6149 71.7896)">
<stop stop-color="white" stop-opacity="0.4"/>
<stop offset="1" stop-color="#3E95FF" stop-opacity="0"/>
</radialGradient>
<radialGradient id="paint1_radial_194_1968" cx="0" cy="0" r="1" gradientUnits="userSpaceOnUse" gradientTransform="translate(16.7816 32.7902) rotate(85.2109) scale(6.60783 5.47367)">
<stop stop-color="white" stop-opacity="0.4"/>
<stop offset="1" stop-color="#3E95FF" stop-opacity="0"/>
</radialGradient>
<radialGradient id="paint2_radial_194_1968" cx="0" cy="0" r="1" gradientUnits="userSpaceOnUse" gradientTransform="translate(27.4483 28.9536) rotate(86.9697) scale(10.4359 5.48516)">
<stop stop-color="white" stop-opacity="0.4"/>
<stop offset="1" stop-color="#3E95FF" stop-opacity="0"/>
</radialGradient>
<radialGradient id="paint3_radial_194_1968" cx="0" cy="0" r="1" gradientUnits="userSpaceOnUse" gradientTransform="translate(38.1151 25.136) rotate(87.7813) scale(14.25 5.48872)">
<stop stop-color="white" stop-opacity="0.4"/>
<stop offset="1" stop-color="#3E95FF" stop-opacity="0"/>
</radialGradient>
<radialGradient id="paint4_radial_194_1968" cx="0" cy="0" r="1" gradientUnits="userSpaceOnUse" gradientTransform="translate(23.6793 12.5574) rotate(73.859) scale(15.5341 41.3032)">
<stop stop-color="white" stop-opacity="0.4"/>
<stop offset="1" stop-color="#3E95FF" stop-opacity="0"/>
</radialGradient>
</defs>
</svg>
