<svg width="25" height="24" viewBox="0 0 25 24" fill="none" xmlns="http://www.w3.org/2000/svg">
<g id="Frame" filter="url(#filter0_i_150_2380)">
<path id="Vector" d="M3.74114 10.9684C3.74114 10.9684 13.1764 6.78403 16.4486 5.31059C17.7031 4.72126 21.9571 2.83526 21.9571 2.83526C21.9571 2.83526 23.9205 2.0102 23.7569 4.01399C23.7023 4.83913 23.266 7.72695 22.8297 10.8506C22.1752 15.2708 21.4662 20.1035 21.4662 20.1035C21.4662 20.1035 21.3572 21.4591 20.43 21.6948C19.5029 21.9306 17.9757 20.8698 17.7031 20.634C17.4849 20.4572 13.6126 17.805 12.1946 16.5084C11.8129 16.1548 11.3766 15.4476 12.2491 14.6225C14.2126 12.6776 16.5577 10.2613 17.9757 8.72893C18.6302 8.02165 19.2846 6.37146 16.5577 8.37525C12.6855 11.2631 8.86779 13.9742 8.86779 13.9742C8.86779 13.9742 7.99514 14.5635 6.359 14.0331C4.72278 13.5027 2.81392 12.7955 2.81392 12.7955C2.81392 12.7955 1.50506 11.9114 3.74114 10.9684Z" fill="#3EC5FF"/>
</g>
<defs>
<filter id="filter0_i_150_2380" x="0.833374" y="0" width="24" height="24.6667" filterUnits="userSpaceOnUse" color-interpolation-filters="sRGB">
<feFlood flood-opacity="0" result="BackgroundImageFix"/>
<feBlend mode="normal" in="SourceGraphic" in2="BackgroundImageFix" result="shape"/>
<feColorMatrix in="SourceAlpha" type="matrix" values="0 0 0 0 0 0 0 0 0 0 0 0 0 0 0 0 0 0 127 0" result="hardAlpha"/>
<feOffset dy="0.666667"/>
<feGaussianBlur stdDeviation="1.66667"/>
<feComposite in2="hardAlpha" operator="arithmetic" k2="-1" k3="1"/>
<feColorMatrix type="matrix" values="0 0 0 0 0 0 0 0 0 0 0 0 0 0 0 0 0 0 0.1 0"/>
<feBlend mode="normal" in2="shape" result="effect1_innerShadow_150_2380"/>
</filter>
</defs>
</svg>
