<svg width="25" height="24" viewBox="0 0 25 24" fill="none" xmlns="http://www.w3.org/2000/svg">
<g id="Frame" filter="url(#filter0_i_150_2373)">
<g id="Capa 2">
<g id="ELEMENTS">
<path id="Vector" fill-rule="evenodd" clip-rule="evenodd" d="M17.1415 9.30901C18.5682 10.3242 20.2768 10.8665 22.0273 10.86V7.38768C21.6832 7.38863 21.34 7.35176 21.0039 7.27772V10.044C19.2494 10.0471 17.5384 9.49849 16.1123 8.47566V15.617C16.108 16.7888 15.7869 17.9377 15.1831 18.9416C14.5793 19.9456 13.7153 20.7674 12.6828 21.3197C11.6502 21.8721 10.4875 22.1344 9.31803 22.079C8.14854 22.0236 7.01584 21.6524 6.04004 21.0048C6.94263 21.9189 8.09593 22.5443 9.35388 22.8019C10.6118 23.0595 11.9179 22.9376 13.1066 22.4518C14.2953 21.966 15.3133 21.138 16.0315 20.0727C16.7498 19.0075 17.1361 17.7528 17.1415 16.4677V9.30901ZM18.4077 5.76728C17.6822 4.98017 17.237 3.97507 17.1415 2.90843V2.45703H16.1701C16.2902 3.13504 16.5515 3.78017 16.937 4.35048C17.3225 4.92079 17.8236 5.40352 18.4077 5.76728ZM8.28924 18.2559C7.95256 17.8153 7.74624 17.2889 7.69375 16.7366C7.64126 16.1844 7.74471 15.6285 7.99234 15.1322C8.23996 14.6359 8.6218 14.2192 9.09442 13.9294C9.56703 13.6396 10.1114 13.4885 10.6656 13.4931C10.9716 13.493 11.2758 13.5399 11.5676 13.632V10.044C11.2265 9.99876 10.8825 9.97942 10.5384 9.98611V12.7755C9.8279 12.5507 9.05885 12.6018 8.38425 12.9187C7.70966 13.2356 7.17894 13.795 6.89767 14.4857C6.61639 15.1764 6.60517 15.9477 6.86622 16.6463C7.12728 17.3449 7.64149 17.9195 8.30659 18.2559H8.28924Z" fill="#3EC5FF"/>
<path id="Vector_2" fill-rule="evenodd" clip-rule="evenodd" d="M16.1119 8.45251C17.5379 9.47534 19.249 10.0239 21.0034 10.0208V7.25457C20.0038 7.04304 19.0958 6.52283 18.4073 5.76728C17.8232 5.40351 17.3221 4.92079 16.9366 4.35048C16.5511 3.78017 16.2898 3.13504 16.1697 2.45703H13.614V16.4677C13.6117 17.0879 13.4153 17.6917 13.0525 18.1945C12.6898 18.6972 12.1788 19.0737 11.5914 19.2709C11.0039 19.4682 10.3695 19.4764 9.77721 19.2943C9.1849 19.1123 8.66441 18.7492 8.28881 18.2559C7.69357 17.9553 7.21688 17.4628 6.93564 16.8577C6.6544 16.2527 6.58502 15.5705 6.73869 14.9211C6.89236 14.2718 7.26012 13.6932 7.78264 13.2787C8.30516 12.8642 8.95195 12.638 9.61867 12.6366C9.92458 12.6376 10.2286 12.6844 10.5207 12.7755V9.98611C9.25879 10.0164 8.03323 10.4149 6.9944 11.1325C5.95558 11.8501 5.14872 12.8557 4.67285 14.0259C4.19698 15.196 4.07283 16.4797 4.31562 17.7195C4.55842 18.9593 5.1576 20.1011 6.03961 21.0048C7.01562 21.657 8.1501 22.032 9.32221 22.0899C10.4943 22.1478 11.6602 21.8863 12.6956 21.3334C13.731 20.7805 14.5971 19.9569 15.2018 18.9502C15.8064 17.9436 16.127 16.7916 16.1292 15.617L16.1119 8.45251Z" fill="#3EC5FF"/>
<path id="Vector_3" fill-rule="evenodd" clip-rule="evenodd" d="M21.0036 7.25365V6.50711C20.0857 6.51101 19.1854 6.25415 18.4075 5.76635C19.0943 6.52408 20.0031 7.04472 21.0036 7.25365ZM16.1699 2.45611C16.1699 2.323 16.1294 2.18411 16.1121 2.05101V1.59961H12.585V15.6161C12.582 16.4009 12.2679 17.1525 11.7118 17.7058C11.1557 18.2591 10.403 18.5691 9.61888 18.5675C9.15717 18.5698 8.70146 18.4628 8.28902 18.255C8.66461 18.7482 9.1851 19.1114 9.77742 19.2934C10.3697 19.4755 11.0041 19.4673 11.5916 19.27C12.179 19.0727 12.69 18.6963 13.0527 18.1936C13.4155 17.6908 13.6119 17.0869 13.6142 16.4668V2.45611H16.1699ZM10.5209 9.97939V9.18656C9.06952 8.98922 7.59419 9.2897 6.33531 10.039C5.07643 10.7884 4.10823 11.9424 3.58851 13.313C3.06879 14.6835 3.0282 16.1899 3.47334 17.5865C3.91849 18.9832 4.82313 20.1877 6.03982 21.0039C5.16448 20.0981 4.57168 18.9567 4.33384 17.7192C4.09601 16.4817 4.22342 15.2016 4.70053 14.0354C5.17764 12.8692 5.98379 11.8673 7.02048 11.1522C8.05717 10.437 9.27953 10.0395 10.5382 10.0083L10.5209 9.97939Z" fill="#3EC5FF"/>
</g>
</g>
</g>
<defs>
<filter id="filter0_i_150_2373" x="0.5" y="0" width="24" height="24.6" filterUnits="userSpaceOnUse" color-interpolation-filters="sRGB">
<feFlood flood-opacity="0" result="BackgroundImageFix"/>
<feBlend mode="normal" in="SourceGraphic" in2="BackgroundImageFix" result="shape"/>
<feColorMatrix in="SourceAlpha" type="matrix" values="0 0 0 0 0 0 0 0 0 0 0 0 0 0 0 0 0 0 127 0" result="hardAlpha"/>
<feOffset dy="0.6"/>
<feGaussianBlur stdDeviation="1.5"/>
<feComposite in2="hardAlpha" operator="arithmetic" k2="-1" k3="1"/>
<feColorMatrix type="matrix" values="0 0 0 0 0 0 0 0 0 0 0 0 0 0 0 0 0 0 0.1 0"/>
<feBlend mode="normal" in2="shape" result="effect1_innerShadow_150_2373"/>
</filter>
</defs>
</svg>
