<svg width="32" height="25" viewBox="0 0 32 25" fill="none" xmlns="http://www.w3.org/2000/svg">
<path fill-rule="evenodd" clip-rule="evenodd" d="M12.6961 0.556227C12.3291 0.700459 12.0561 0.966924 11.9102 1.32326C11.8295 1.51998 11.8152 2.08002 11.8871 2.21721C11.9287 2.29644 11.861 2.37904 11.3564 2.86422L10.7782 3.42037L10.6346 3.33444C9.9286 2.91183 9.35244 2.66464 8.74806 2.525C8.3281 2.428 7.07495 2.41356 6.82555 2.50291C6.36618 2.66736 6.19141 3.29705 6.19214 4.78459C6.19265 5.8611 6.3048 6.41251 6.58832 6.73263C6.80265 6.97461 7.02837 7.03062 7.6856 7.00496C7.97675 6.99361 8.21499 6.99136 8.21499 6.99999C8.21499 7.11903 6.79092 9.74288 6.22189 10.6723C5.99286 11.0464 5.74451 11.5002 5.66997 11.6808C5.41537 12.2976 5.46526 12.8376 5.82631 13.3729C5.97253 13.5897 5.9735 13.5944 5.86558 13.5619C5.15897 13.3494 4.09458 13.3471 3.3424 13.5566C2.57115 13.7714 1.75556 14.2473 1.01714 14.9132C0.451832 15.423 0.302712 15.7739 0.550417 16.0113C0.654658 16.1112 0.684501 16.1133 1.9915 16.1133C2.83039 16.1133 3.59498 16.1395 4.05002 16.184C4.71589 16.2491 4.81135 16.2706 5.23986 16.452C5.8138 16.6949 6.40564 17.086 6.83598 17.5065C7.01541 17.6819 7.49799 18.2365 7.90843 18.739C8.71265 19.7239 8.9713 19.9633 9.36454 20.0869C9.50363 20.1306 9.68881 20.2284 9.77603 20.3042C9.86326 20.38 10.0288 20.4865 10.1439 20.5408C10.3525 20.6392 10.371 20.6396 15.8522 20.6522L21.3514 20.6649L21.4498 21.0717C21.7521 22.3205 22.658 23.4537 23.8259 24.0436C24.6925 24.4814 24.6116 24.4724 27.8723 24.4941C29.4403 24.5046 30.7905 24.5007 30.8728 24.4855C31.1469 24.4351 31.2894 24.1461 31.161 23.9013C31.0734 23.7343 30.8674 23.7118 29.4247 23.7118H28.025L28.2475 23.5309C29.302 22.6737 29.8526 21.4816 29.8861 19.9829L29.8955 19.5608L30.5163 19.5479C31.3706 19.5301 31.5964 19.4785 31.8209 19.2495L32 19.0668L31.9756 18.7509C31.9599 18.5485 31.8992 18.3087 31.8063 18.0833C31.6586 17.7249 31.0681 16.1046 31.0681 16.0579C31.0681 16.0438 31.1493 15.9748 31.2486 15.9046C31.4622 15.7536 31.5739 15.5379 31.5739 15.276C31.5739 15.0208 31.3784 14.4046 31.2132 14.1389C30.9843 13.7707 30.7483 13.6762 29.8693 13.6007C29.6028 13.5778 29.5586 13.5598 29.4937 13.4479C29.3691 13.2326 28.6903 12.5201 28.318 12.2139C27.8685 11.8441 27.2285 11.4132 26.8147 11.2017C26.4846 11.0329 26.3319 10.9226 26.3319 10.8527C26.3319 10.8309 26.3622 10.8131 26.3993 10.8131C26.5201 10.8131 26.784 10.5321 26.864 10.3183C27.0266 9.88415 26.8603 9.23068 26.5272 8.994C26.2476 8.7954 26.266 8.79615 21.6432 8.79615C16.7472 8.79615 16.9794 8.78307 16.4519 9.08856C16.1245 9.27815 15.7425 9.68078 15.5917 9.99513C15.4877 10.2119 15.4723 10.2964 15.4874 10.5675C15.5089 10.9564 15.6169 11.1331 15.9288 11.2898L16.1469 11.3994L19.6875 11.4296C23.3954 11.4612 24.358 11.5029 25.0836 11.6633C27.2178 12.135 28.8668 13.5061 29.984 15.738C30.3452 16.4598 30.8842 17.8559 30.8842 18.0701C30.8842 18.2665 30.4843 17.6921 29.9621 16.7458C29.0719 15.1324 28.3807 14.2506 27.4437 13.533C26.9549 13.1586 26.1653 12.7117 25.7572 12.5783C24.8399 12.2787 25.1705 12.2996 20.906 12.2703C18.7377 12.2555 16.9632 12.2618 16.8908 12.2846C16.7314 12.3349 16.6604 12.5015 16.7248 12.6743C16.7506 12.7435 16.909 12.9598 17.0767 13.155C17.8168 14.0165 18.1471 14.806 18.1471 15.7136C18.1471 16.4709 17.9484 16.9892 17.4813 17.4504C17.3243 17.6054 17.0761 17.794 16.9298 17.8695C16.6987 17.9888 16.588 18.0121 16.0835 18.0476C15.7643 18.0701 14.9341 18.0808 14.2386 18.0713C12.7702 18.0513 12.6091 18.018 12.0121 17.6107C11.4479 17.2257 10.988 16.6189 10.5398 15.6677C9.81664 14.1331 9.55293 13.013 9.64287 11.8579C9.69474 11.1915 9.79121 10.8711 10.4651 9.12749C10.7898 8.28743 11.1767 7.2483 11.325 6.81833L11.5947 6.03652L12.6293 6.01968C13.5359 6.00491 13.6852 5.99177 13.8363 5.9133C14.1629 5.74379 14.2866 5.24514 14.0814 4.92572C13.9361 4.69946 13.7631 4.64992 13.0201 4.62174C12.3752 4.5973 12.3151 4.58707 12.0948 4.46371C11.9653 4.39115 11.7486 4.21742 11.6132 4.07764L11.3672 3.82351L11.8397 3.33988L12.3122 2.85624L12.5692 2.98847C13.0798 3.25118 13.7424 3.1311 14.1047 2.71018C14.3341 2.44376 14.4204 2.20333 14.4216 1.82828C14.4224 1.56515 14.3982 1.44765 14.3038 1.25421C14.158 0.955948 13.8449 0.6665 13.5611 0.567906C13.315 0.482352 12.8984 0.476724 12.6961 0.556227ZM8.35923 3.382C8.44701 3.42829 8.5358 3.53725 8.5982 3.67515C8.68764 3.873 8.69711 3.97084 8.69435 4.66855C8.69058 5.61372 8.61802 5.90537 8.35293 6.04041C8.15498 6.1413 7.35908 6.1581 7.23667 6.06396C6.98046 5.86691 6.92887 4.02492 7.1631 3.4373L7.21456 3.30831H7.71705C8.08389 3.30831 8.25729 3.3282 8.35923 3.382ZM24.3087 14.0944C24.7232 14.2006 25.6581 14.6363 25.7893 14.7843C25.8345 14.8353 25.8525 14.8972 25.8318 14.9312C25.8035 14.978 25.7357 14.9758 25.5008 14.9209C24.196 14.6153 23.0823 14.5508 22.4694 14.7452C22.2798 14.8053 21.9901 14.9301 21.8257 15.0225C21.4625 15.2265 20.8548 15.8384 20.634 16.2223C20.3039 16.7962 20.0329 17.7708 20.0325 18.3856L20.0324 18.6176L19.8714 18.4585L19.7105 18.2994V17.8426C19.7105 16.1885 20.6797 14.7002 22.1016 14.171C22.7408 13.9331 23.5678 13.9044 24.3087 14.0944ZM1.82348 16.8567C1.37598 16.8916 1.28374 16.9404 0.981776 17.3014C0.564902 17.7999 0.312966 18.2939 0.112208 19.0065C-0.0285892 19.5064 -0.0390732 20.7431 0.0931713 21.2493C0.477719 22.7214 1.71321 23.9732 3.17995 24.3768C3.54063 24.4761 3.61466 24.4782 6.96593 24.4819L10.384 24.4858L10.4951 24.3541C10.5561 24.2818 10.6061 24.1825 10.6061 24.1336C10.6061 23.9736 10.5007 23.8041 10.3798 23.7693C10.3145 23.7506 9.40762 23.7353 8.36443 23.7353C7.32119 23.7353 6.47282 23.7224 6.47916 23.7067C6.48546 23.691 6.62024 23.5687 6.77855 23.4349C7.53716 22.7939 8.08605 21.7184 8.21752 20.6157L8.2681 20.191L7.95151 19.829C7.77742 19.6299 7.42285 19.1989 7.16365 18.8712C6.90441 18.5435 6.57651 18.1674 6.43493 18.0354C5.82245 17.4645 5.14394 17.1079 4.3295 16.9291C3.96969 16.8501 2.46387 16.8066 1.82348 16.8567ZM4.50193 18.1327C4.59679 18.1595 4.67437 18.1919 4.67437 18.2046C4.67437 18.2173 4.51784 18.4262 4.32656 18.6688C4.07715 18.9852 3.93511 19.1246 3.82439 19.1618C3.23563 19.3601 2.90962 20.0525 3.1508 20.5927C3.38342 21.1137 4.06069 21.3812 4.52676 21.1362C5.01744 20.8782 5.23562 20.3574 5.0849 19.8038C5.03073 19.6047 5.04521 19.5785 5.47896 19.0917L5.68795 18.8572L5.80286 18.9979C6.12013 19.3865 6.29004 20.0867 6.1978 20.6257C6.12345 21.0605 5.87082 21.548 5.57929 21.8196C5.02158 22.3391 4.20719 22.5622 3.56767 22.3706C2.47523 22.0433 1.74761 20.9744 1.91756 19.9466C2.0481 19.1572 2.62196 18.4267 3.31003 18.174C3.57976 18.0749 4.21983 18.0527 4.50193 18.1327ZM23.4006 19.662L23.9868 19.6925V19.8209C23.9868 19.915 23.9592 19.9564 23.8834 19.9757C23.8265 19.9902 23.2937 20.0167 22.6993 20.0346L21.6188 20.067L21.5383 19.8944C21.4941 19.7994 21.4578 19.7013 21.4578 19.6764C21.4578 19.624 22.5188 19.6161 23.4006 19.662ZM27.8846 20.0884C27.8583 20.6106 27.7484 20.9787 27.5105 21.3413C27.0856 21.9894 26.4834 22.3581 25.7371 22.4275C24.87 22.5082 23.9584 22.0047 23.5774 21.2348C23.4991 21.0766 23.4351 20.9335 23.4351 20.9169C23.4351 20.9003 23.7113 20.8949 24.0489 20.905L24.6627 20.9233L24.9171 21.102C25.2544 21.339 25.6196 21.3847 25.9345 21.2292C26.2052 21.0955 26.5012 20.7998 26.6108 20.5536C26.7155 20.3184 26.7267 19.92 26.6323 19.7925C26.5951 19.7425 26.5641 19.6857 26.5633 19.6663C26.5625 19.6469 26.8646 19.6311 27.2347 19.6311H27.9076L27.8846 20.0884Z" fill="#3EC5FF"/>
</svg>
