<svg width="50" height="50" viewBox="0 0 50 50" fill="none" xmlns="http://www.w3.org/2000/svg">
<g id="Group 2085660889">
<g id="Vector" opacity="0.2">
<path d="M21.8543 1.10597C23.5786 -0.368658 26.4026 -0.368658 28.1519 1.10597L32.1005 4.50509C32.8502 5.15493 34.2496 5.67987 35.2492 5.67987H39.4977C42.1467 5.67987 44.3208 7.85431 44.3208 10.5037V14.7525C44.3208 15.7272 44.8456 17.1519 45.4954 17.9017L48.8942 21.8508C50.3686 23.5753 50.3686 26.3997 48.8942 28.1492L45.4954 32.0981C44.8456 32.848 44.3208 34.2476 44.3208 35.2474V39.4963C44.3208 42.1457 42.1467 44.3201 39.4977 44.3201H35.2492C34.2746 44.3201 32.8502 44.8451 32.1005 45.4949L28.1519 48.894C26.4275 50.3687 23.6036 50.3687 21.8543 48.894L17.9058 45.4949C17.1561 44.8451 15.7566 44.3201 14.757 44.3201H10.4336C7.78455 44.3201 5.61039 42.1457 5.61039 39.4963V35.2224C5.61039 34.2476 5.08561 32.848 4.46084 32.0981L1.08709 28.1242C-0.362364 26.3997 -0.362364 23.6003 1.08709 21.8758L4.46084 17.9017C5.08561 17.1519 5.61039 15.7522 5.61039 14.7775V10.5037C5.61039 7.85431 7.78455 5.67987 10.4336 5.67987H14.757C15.7316 5.67987 17.1561 5.15493 17.9058 4.50509L21.8543 1.10597Z" fill="#FFA310"/>
<path d="M21.8543 1.10597C23.5786 -0.368658 26.4026 -0.368658 28.1519 1.10597L32.1005 4.50509C32.8502 5.15493 34.2496 5.67987 35.2492 5.67987H39.4977C42.1467 5.67987 44.3208 7.85431 44.3208 10.5037V14.7525C44.3208 15.7272 44.8456 17.1519 45.4954 17.9017L48.8942 21.8508C50.3686 23.5753 50.3686 26.3997 48.8942 28.1492L45.4954 32.0981C44.8456 32.848 44.3208 34.2476 44.3208 35.2474V39.4963C44.3208 42.1457 42.1467 44.3201 39.4977 44.3201H35.2492C34.2746 44.3201 32.8502 44.8451 32.1005 45.4949L28.1519 48.894C26.4275 50.3687 23.6036 50.3687 21.8543 48.894L17.9058 45.4949C17.1561 44.8451 15.7566 44.3201 14.757 44.3201H10.4336C7.78455 44.3201 5.61039 42.1457 5.61039 39.4963V35.2224C5.61039 34.2476 5.08561 32.848 4.46084 32.0981L1.08709 28.1242C-0.362364 26.3997 -0.362364 23.6003 1.08709 21.8758L4.46084 17.9017C5.08561 17.1519 5.61039 15.7522 5.61039 14.7775V10.5037C5.61039 7.85431 7.78455 5.67987 10.4336 5.67987H14.757C15.7316 5.67987 17.1561 5.15493 17.9058 4.50509L21.8543 1.10597Z" fill="url(#paint0_radial_207_961)" style="mix-blend-mode:plus-lighter"/>
</g>
<g id="Union" filter="url(#filter0_dii_207_961)">
<path fill-rule="evenodd" clip-rule="evenodd" d="M27.4927 26.4137C27.4927 27.2186 26.9796 27.9306 26.2159 28.1853L15 31.9098V32.5973C15 34.1452 16.3006 35.4043 17.8485 35.4043C18.1074 35.4043 18.3665 35.3684 18.6181 35.2967L34.2139 30.8531C35.4128 30.5102 36.25 29.4 36.25 28.1537V24.8208C36.25 18.9849 31.4609 14.1543 25.625 14.1543C21.2352 14.1543 17.4212 16.9243 15.8204 20.7395L25.991 22.7653C26.861 22.9386 27.4927 23.7088 27.4927 24.5965V26.4137ZM15 24.8213C15 23.8172 15.1496 22.8489 15.4121 21.9279L23.7573 23.5886V27.6932L15 30.5983V24.8213ZM25.7472 23.986C26.0372 24.0438 26.2476 24.3003 26.2476 24.5964V26.4136C26.2476 26.6818 26.0767 26.9195 25.822 27.0046L25.0024 27.2777V23.8371L25.7472 23.986Z" fill="#FFA310"/>
<path fill-rule="evenodd" clip-rule="evenodd" d="M27.4927 26.4137C27.4927 27.2186 26.9796 27.9306 26.2159 28.1853L15 31.9098V32.5973C15 34.1452 16.3006 35.4043 17.8485 35.4043C18.1074 35.4043 18.3665 35.3684 18.6181 35.2967L34.2139 30.8531C35.4128 30.5102 36.25 29.4 36.25 28.1537V24.8208C36.25 18.9849 31.4609 14.1543 25.625 14.1543C21.2352 14.1543 17.4212 16.9243 15.8204 20.7395L25.991 22.7653C26.861 22.9386 27.4927 23.7088 27.4927 24.5965V26.4137ZM15 24.8213C15 23.8172 15.1496 22.8489 15.4121 21.9279L23.7573 23.5886V27.6932L15 30.5983V24.8213ZM25.7472 23.986C26.0372 24.0438 26.2476 24.3003 26.2476 24.5964V26.4136C26.2476 26.6818 26.0767 26.9195 25.822 27.0046L25.0024 27.2777V23.8371L25.7472 23.986Z" fill="url(#paint1_radial_207_961)" style="mix-blend-mode:plus-lighter"/>
</g>
</g>
<defs>
<filter id="filter0_dii_207_961" x="7.5" y="11.6543" width="36.25" height="36.25" filterUnits="userSpaceOnUse" color-interpolation-filters="sRGB">
<feFlood flood-opacity="0" result="BackgroundImageFix"/>
<feColorMatrix in="SourceAlpha" type="matrix" values="0 0 0 0 0 0 0 0 0 0 0 0 0 0 0 0 0 0 127 0" result="hardAlpha"/>
<feOffset dy="5"/>
<feGaussianBlur stdDeviation="3.75"/>
<feComposite in2="hardAlpha" operator="out"/>
<feColorMatrix type="matrix" values="0 0 0 0 1 0 0 0 0 0.639216 0 0 0 0 0.0627451 0 0 0 0.6 0"/>
<feBlend mode="normal" in2="BackgroundImageFix" result="effect1_dropShadow_207_961"/>
<feBlend mode="normal" in="SourceGraphic" in2="effect1_dropShadow_207_961" result="shape"/>
<feColorMatrix in="SourceAlpha" type="matrix" values="0 0 0 0 0 0 0 0 0 0 0 0 0 0 0 0 0 0 127 0" result="hardAlpha"/>
<feOffset dy="5"/>
<feGaussianBlur stdDeviation="3.125"/>
<feComposite in2="hardAlpha" operator="arithmetic" k2="-1" k3="1"/>
<feColorMatrix type="matrix" values="0 0 0 0 1 0 0 0 0 0.639216 0 0 0 0 0.0627451 0 0 0 0.6 0"/>
<feBlend mode="normal" in2="shape" result="effect2_innerShadow_207_961"/>
<feColorMatrix in="SourceAlpha" type="matrix" values="0 0 0 0 0 0 0 0 0 0 0 0 0 0 0 0 0 0 127 0" result="hardAlpha"/>
<feOffset/>
<feGaussianBlur stdDeviation="1.25"/>
<feComposite in2="hardAlpha" operator="arithmetic" k2="-1" k3="1"/>
<feColorMatrix type="matrix" values="0 0 0 0 1 0 0 0 0 1 0 0 0 0 1 0 0 0 0.5 0"/>
<feBlend mode="normal" in2="effect2_innerShadow_207_961" result="effect3_innerShadow_207_961"/>
</filter>
<radialGradient id="paint0_radial_207_961" cx="0" cy="0" r="1" gradientUnits="userSpaceOnUse" gradientTransform="translate(16.1732 5.73268) rotate(78.7233) scale(45.1388 86.1888)">
<stop stop-color="white" stop-opacity="0.3"/>
<stop offset="1" stop-color="#FFA310" stop-opacity="0"/>
</radialGradient>
<radialGradient id="paint1_radial_207_961" cx="0" cy="0" r="1" gradientUnits="userSpaceOnUse" gradientTransform="translate(29.3764 16.5907) rotate(101.277) scale(19.184 36.6302)">
<stop stop-color="white" stop-opacity="0.3"/>
<stop offset="1" stop-color="#FFA310" stop-opacity="0"/>
</radialGradient>
</defs>
</svg>
