<svg width="25" height="24" viewBox="0 0 25 24" fill="none" xmlns="http://www.w3.org/2000/svg">
<g id="vuesax/bulk/briefcase">
<g id="briefcase">
<path id="Vector" d="M21.59 6.97953C20.74 6.03953 19.32 5.56953 17.26 5.56953H17.02V5.52953C17.02 3.84953 17.02 1.76953 13.26 1.76953H11.74C7.98004 1.76953 7.98004 3.85953 7.98004 5.52953V5.57953H7.74004C5.67004 5.57953 4.26004 6.04953 3.41004 6.98953C2.42004 8.08953 2.45004 9.56953 2.55004 10.5795L2.56004 10.6495L2.66004 11.6995C2.67004 11.7095 2.69004 11.7295 2.71004 11.7395C3.04004 11.9595 3.38004 12.1795 3.74004 12.3795C3.88004 12.4695 4.03004 12.5495 4.18004 12.6295C5.89004 13.5695 7.77004 14.1995 9.68004 14.5095C9.77004 15.4495 10.18 16.5495 12.37 16.5495C14.56 16.5495 14.99 15.4595 15.06 14.4895C17.1 14.1595 19.07 13.4495 20.85 12.4095C20.91 12.3795 20.95 12.3495 21 12.3195C21.46 12.0595 21.89 11.7795 22.31 11.4695C22.33 11.4595 22.35 11.4395 22.36 11.4195L22.4 11.0595L22.45 10.5895C22.46 10.5295 22.46 10.4795 22.47 10.4095C22.55 9.39953 22.53 8.01953 21.59 6.97953ZM13.59 13.8295C13.59 14.8895 13.59 15.0495 12.36 15.0495C11.13 15.0495 11.13 14.8595 11.13 13.8395V12.5795H13.59V13.8295ZM9.41004 5.56953V5.52953C9.41004 3.82953 9.41004 3.19953 11.74 3.19953H13.26C15.59 3.19953 15.59 3.83953 15.59 5.52953V5.57953H9.41004V5.56953Z" fill="white"/>
<path id="Vector_2" opacity="0.4" d="M21 12.3004C20.95 12.3304 20.9 12.3604 20.85 12.3904C19.07 13.4304 17.1 14.1304 15.06 14.4704C14.98 15.4304 14.56 16.5304 12.37 16.5304C10.18 16.5304 9.76003 15.4404 9.68003 14.4904C7.77003 14.1904 5.89003 13.5604 4.18003 12.6104C4.03003 12.5304 3.88003 12.4504 3.74003 12.3604C3.38003 12.1604 3.04003 11.9404 2.71003 11.7204C2.69003 11.7104 2.67003 11.6904 2.66003 11.6804L3.27003 18.1904C3.48003 20.1804 4.30003 22.2304 8.70003 22.2304H16.32C20.72 22.2304 21.54 20.1804 21.75 18.1804L22.38 11.4004C22.37 11.4204 22.35 11.4404 22.33 11.4504C21.9 11.7604 21.46 12.0504 21 12.3004Z" fill="white"/>
</g>
</g>
</svg>
