<svg width="98" height="107" viewBox="0 0 98 107" fill="none" xmlns="http://www.w3.org/2000/svg">
<g id="vuesax/bulk/coin">
<g id="coin">
<g id="Vector" opacity="0.2">
<path d="M37.4625 67.425C54.0103 67.425 67.425 54.0103 67.425 37.4625C67.425 20.9147 54.0103 7.5 37.4625 7.5C20.9147 7.5 7.5 20.9147 7.5 37.4625C7.5 54.0103 20.9147 67.425 37.4625 67.425Z" fill="#FFA310"/>
<path d="M37.4625 67.425C54.0103 67.425 67.425 54.0103 67.425 37.4625C67.425 20.9147 54.0103 7.5 37.4625 7.5C20.9147 7.5 7.5 20.9147 7.5 37.4625C7.5 54.0103 20.9147 67.425 37.4625 67.425Z" fill="url(#paint0_radial_211_1300)" style="mix-blend-mode:plus-lighter"/>
</g>
<g id="Vector_2" filter="url(#filter0_dii_211_1300)">
<path d="M82.3873 59.9633C82.3873 72.3383 72.3373 82.3883 59.9623 82.3883C52.3123 82.3883 45.5998 78.5633 41.5498 72.7508C57.8998 70.9133 70.9123 57.9008 72.7498 41.5508C78.5623 45.6008 82.3873 52.3133 82.3873 59.9633Z" fill="#FFA310"/>
<path d="M82.3873 59.9633C82.3873 72.3383 72.3373 82.3883 59.9623 82.3883C52.3123 82.3883 45.5998 78.5633 41.5498 72.7508C57.8998 70.9133 70.9123 57.9008 72.7498 41.5508C78.5623 45.6008 82.3873 52.3133 82.3873 59.9633Z" fill="url(#paint1_radial_211_1300)" style="mix-blend-mode:plus-lighter"/>
</g>
<g id="Vector_3" filter="url(#filter1_dii_211_1300)">
<path d="M42.9375 36.4131L33.9375 33.2631C33.0375 32.9631 32.85 32.8881 32.85 31.5756C32.85 30.6006 33.525 29.8131 34.3875 29.8131H40.0125C41.2125 29.8131 42.1875 30.9006 42.1875 32.2506C42.1875 33.7881 43.4625 35.0631 45 35.0631C46.5375 35.0631 47.8125 33.7881 47.8125 32.2506C47.8125 27.9381 44.475 24.4131 40.3125 24.2256V24.0381C40.3125 22.5006 39.0375 21.2256 37.5 21.2256C35.9625 21.2256 34.6875 22.4631 34.6875 24.0381V24.2256H34.35C30.4125 24.2256 27.1875 27.5256 27.1875 31.6131C27.1875 35.1756 28.7625 37.4631 32.025 38.5881L41.0625 41.7381C41.9625 42.0381 42.15 42.1131 42.15 43.4256C42.15 44.4006 41.475 45.1881 40.6125 45.1881H34.9875C33.7875 45.1881 32.8125 44.1006 32.8125 42.7506C32.8125 41.2131 31.5375 39.9381 30 39.9381C28.4625 39.9381 27.1875 41.2131 27.1875 42.7506C27.1875 47.0631 30.525 50.5881 34.6875 50.7756V51.0006C34.6875 52.5381 35.9625 53.8131 37.5 53.8131C39.0375 53.8131 40.3125 52.5381 40.3125 51.0006V50.8131H40.65C44.5875 50.8131 47.8125 47.5131 47.8125 43.4256C47.8125 39.8631 46.2 37.5756 42.9375 36.4131Z" fill="#FFA310"/>
<path d="M42.9375 36.4131L33.9375 33.2631C33.0375 32.9631 32.85 32.8881 32.85 31.5756C32.85 30.6006 33.525 29.8131 34.3875 29.8131H40.0125C41.2125 29.8131 42.1875 30.9006 42.1875 32.2506C42.1875 33.7881 43.4625 35.0631 45 35.0631C46.5375 35.0631 47.8125 33.7881 47.8125 32.2506C47.8125 27.9381 44.475 24.4131 40.3125 24.2256V24.0381C40.3125 22.5006 39.0375 21.2256 37.5 21.2256C35.9625 21.2256 34.6875 22.4631 34.6875 24.0381V24.2256H34.35C30.4125 24.2256 27.1875 27.5256 27.1875 31.6131C27.1875 35.1756 28.7625 37.4631 32.025 38.5881L41.0625 41.7381C41.9625 42.0381 42.15 42.1131 42.15 43.4256C42.15 44.4006 41.475 45.1881 40.6125 45.1881H34.9875C33.7875 45.1881 32.8125 44.1006 32.8125 42.7506C32.8125 41.2131 31.5375 39.9381 30 39.9381C28.4625 39.9381 27.1875 41.2131 27.1875 42.7506C27.1875 47.0631 30.525 50.5881 34.6875 50.7756V51.0006C34.6875 52.5381 35.9625 53.8131 37.5 53.8131C39.0375 53.8131 40.3125 52.5381 40.3125 51.0006V50.8131H40.65C44.5875 50.8131 47.8125 47.5131 47.8125 43.4256C47.8125 39.8631 46.2 37.5756 42.9375 36.4131Z" fill="url(#paint2_radial_211_1300)" style="mix-blend-mode:plus-lighter"/>
</g>
</g>
</g>
<defs>
<filter id="filter0_dii_211_1300" x="26.8155" y="36.6394" width="70.306" height="70.3064" filterUnits="userSpaceOnUse" color-interpolation-filters="sRGB">
<feFlood flood-opacity="0" result="BackgroundImageFix"/>
<feColorMatrix in="SourceAlpha" type="matrix" values="0 0 0 0 0 0 0 0 0 0 0 0 0 0 0 0 0 0 127 0" result="hardAlpha"/>
<feOffset dy="9.82284"/>
<feGaussianBlur stdDeviation="7.36713"/>
<feComposite in2="hardAlpha" operator="out"/>
<feColorMatrix type="matrix" values="0 0 0 0 1 0 0 0 0 0.639216 0 0 0 0 0.0627451 0 0 0 0.6 0"/>
<feBlend mode="normal" in2="BackgroundImageFix" result="effect1_dropShadow_211_1300"/>
<feBlend mode="normal" in="SourceGraphic" in2="effect1_dropShadow_211_1300" result="shape"/>
<feColorMatrix in="SourceAlpha" type="matrix" values="0 0 0 0 0 0 0 0 0 0 0 0 0 0 0 0 0 0 127 0" result="hardAlpha"/>
<feOffset dy="9.82284"/>
<feGaussianBlur stdDeviation="6.13928"/>
<feComposite in2="hardAlpha" operator="arithmetic" k2="-1" k3="1"/>
<feColorMatrix type="matrix" values="0 0 0 0 1 0 0 0 0 0.639216 0 0 0 0 0.0627451 0 0 0 0.6 0"/>
<feBlend mode="normal" in2="shape" result="effect2_innerShadow_211_1300"/>
<feColorMatrix in="SourceAlpha" type="matrix" values="0 0 0 0 0 0 0 0 0 0 0 0 0 0 0 0 0 0 127 0" result="hardAlpha"/>
<feOffset/>
<feGaussianBlur stdDeviation="2.45571"/>
<feComposite in2="hardAlpha" operator="arithmetic" k2="-1" k3="1"/>
<feColorMatrix type="matrix" values="0 0 0 0 1 0 0 0 0 1 0 0 0 0 1 0 0 0 0.5 0"/>
<feBlend mode="normal" in2="effect2_innerShadow_211_1300" result="effect3_innerShadow_211_1300"/>
</filter>
<filter id="filter1_dii_211_1300" x="12.4532" y="16.3142" width="50.0935" height="62.0564" filterUnits="userSpaceOnUse" color-interpolation-filters="sRGB">
<feFlood flood-opacity="0" result="BackgroundImageFix"/>
<feColorMatrix in="SourceAlpha" type="matrix" values="0 0 0 0 0 0 0 0 0 0 0 0 0 0 0 0 0 0 127 0" result="hardAlpha"/>
<feOffset dy="9.82284"/>
<feGaussianBlur stdDeviation="7.36713"/>
<feComposite in2="hardAlpha" operator="out"/>
<feColorMatrix type="matrix" values="0 0 0 0 1 0 0 0 0 0.639216 0 0 0 0 0.0627451 0 0 0 0.6 0"/>
<feBlend mode="normal" in2="BackgroundImageFix" result="effect1_dropShadow_211_1300"/>
<feBlend mode="normal" in="SourceGraphic" in2="effect1_dropShadow_211_1300" result="shape"/>
<feColorMatrix in="SourceAlpha" type="matrix" values="0 0 0 0 0 0 0 0 0 0 0 0 0 0 0 0 0 0 127 0" result="hardAlpha"/>
<feOffset dy="9.82284"/>
<feGaussianBlur stdDeviation="6.13928"/>
<feComposite in2="hardAlpha" operator="arithmetic" k2="-1" k3="1"/>
<feColorMatrix type="matrix" values="0 0 0 0 1 0 0 0 0 0.639216 0 0 0 0 0.0627451 0 0 0 0.6 0"/>
<feBlend mode="normal" in2="shape" result="effect2_innerShadow_211_1300"/>
<feColorMatrix in="SourceAlpha" type="matrix" values="0 0 0 0 0 0 0 0 0 0 0 0 0 0 0 0 0 0 127 0" result="hardAlpha"/>
<feOffset/>
<feGaussianBlur stdDeviation="2.45571"/>
<feComposite in2="hardAlpha" operator="arithmetic" k2="-1" k3="1"/>
<feColorMatrix type="matrix" values="0 0 0 0 1 0 0 0 0 1 0 0 0 0 1 0 0 0 0.5 0"/>
<feBlend mode="normal" in2="effect2_innerShadow_211_1300" result="effect3_innerShadow_211_1300"/>
</filter>
<radialGradient id="paint0_radial_211_1300" cx="0" cy="0" r="1" gradientUnits="userSpaceOnUse" gradientTransform="translate(26.8836 14.3706) rotate(78.7233) scale(54.0988 103.297)">
<stop stop-color="white" stop-opacity="0.3"/>
<stop offset="1" stop-color="#FFA310" stop-opacity="0"/>
</radialGradient>
<radialGradient id="paint1_radial_211_1300" cx="0" cy="0" r="1" gradientUnits="userSpaceOnUse" gradientTransform="translate(54.7593 46.2329) rotate(78.7233) scale(36.8671 70.3947)">
<stop stop-color="white" stop-opacity="0.3"/>
<stop offset="1" stop-color="#FFA310" stop-opacity="0"/>
</radialGradient>
<radialGradient id="paint2_radial_211_1300" cx="0" cy="0" r="1" gradientUnits="userSpaceOnUse" gradientTransform="translate(33.8589 24.9619) rotate(82.8072) scale(29.0801 35.9675)">
<stop stop-color="white" stop-opacity="0.3"/>
<stop offset="1" stop-color="#FFA310" stop-opacity="0"/>
</radialGradient>
</defs>
</svg>
