<svg width="106" height="108" viewBox="0 0 106 108" fill="none" xmlns="http://www.w3.org/2000/svg">
<g id="vuesax/bulk/cpu">
<g id="cpu">
<g id="Vector" opacity="0.2">
<path d="M64.2499 15H41.7499C31.3999 15 22.9999 23.4 22.9999 33.75V56.25C22.9999 66.6 31.3999 75 41.7499 75H64.2499C74.5999 75 82.9999 66.6 82.9999 56.25V33.75C82.9999 23.4 74.5999 15 64.2499 15ZM72.7249 53.475C72.7249 59.7 67.6999 64.725 61.4749 64.725H44.5249C38.2999 64.725 33.2749 59.7 33.2749 53.475V36.525C33.2749 30.3 38.2999 25.275 44.5249 25.275H61.4374C67.6624 25.275 72.6874 30.3 72.6874 36.525V53.475H72.7249Z" fill="#3E95FF"/>
<path d="M64.2499 15H41.7499C31.3999 15 22.9999 23.4 22.9999 33.75V56.25C22.9999 66.6 31.3999 75 41.7499 75H64.2499C74.5999 75 82.9999 66.6 82.9999 56.25V33.75C82.9999 23.4 74.5999 15 64.2499 15ZM72.7249 53.475C72.7249 59.7 67.6999 64.725 61.4749 64.725H44.5249C38.2999 64.725 33.2749 59.7 33.2749 53.475V36.525C33.2749 30.3 38.2999 25.275 44.5249 25.275H61.4374C67.6624 25.275 72.6874 30.3 72.6874 36.525V53.475H72.7249Z" fill="url(#paint0_radial_211_1338)" style="mix-blend-mode:plus-lighter"/>
</g>
<g id="Vector_2" opacity="0.2">
<path d="M41.9749 10.3125V15H41.7499C39.8749 15 38.0749 15.2625 36.3499 15.7875V10.3125C36.3499 8.775 37.5874 7.5 39.1624 7.5C40.6999 7.5 41.9749 8.775 41.9749 10.3125Z" fill="#3E95FF"/>
<path d="M41.9749 10.3125V15H41.7499C39.8749 15 38.0749 15.2625 36.3499 15.7875V10.3125C36.3499 8.775 37.5874 7.5 39.1624 7.5C40.6999 7.5 41.9749 8.775 41.9749 10.3125Z" fill="url(#paint1_radial_211_1338)" style="mix-blend-mode:plus-lighter"/>
</g>
<g id="Vector_3" filter="url(#filter0_dii_211_1338)">
<path d="M55.8124 10.3125V15H50.1874V10.3125C50.1874 8.775 51.4624 7.5 52.9999 7.5C54.5374 7.5 55.8124 8.775 55.8124 10.3125Z" fill="#3E95FF"/>
<path d="M55.8124 10.3125V15H50.1874V10.3125C50.1874 8.775 51.4624 7.5 52.9999 7.5C54.5374 7.5 55.8124 8.775 55.8124 10.3125Z" fill="url(#paint2_radial_211_1338)" style="mix-blend-mode:plus-lighter"/>
</g>
<g id="Vector_4" opacity="0.2">
<path d="M69.6874 10.3125V15.7875C67.9624 15.2625 66.1249 15 64.2499 15H64.0624V10.3125C64.0624 8.775 65.3374 7.5 66.8749 7.5C68.4124 7.5 69.6874 8.775 69.6874 10.3125Z" fill="#3E95FF"/>
<path d="M69.6874 10.3125V15.7875C67.9624 15.2625 66.1249 15 64.2499 15H64.0624V10.3125C64.0624 8.775 65.3374 7.5 66.8749 7.5C68.4124 7.5 69.6874 8.775 69.6874 10.3125Z" fill="url(#paint3_radial_211_1338)" style="mix-blend-mode:plus-lighter"/>
</g>
<g id="Vector_5" filter="url(#filter1_dii_211_1338)">
<path d="M90.4999 31.125C90.4999 32.7 89.2624 33.9375 87.6874 33.9375H82.9999V33.75C82.9999 31.875 82.7374 30.0375 82.2124 28.3125H87.6874C89.2624 28.3125 90.4999 29.5875 90.4999 31.125Z" fill="#3E95FF"/>
<path d="M90.4999 31.125C90.4999 32.7 89.2624 33.9375 87.6874 33.9375H82.9999V33.75C82.9999 31.875 82.7374 30.0375 82.2124 28.3125H87.6874C89.2624 28.3125 90.4999 29.5875 90.4999 31.125Z" fill="url(#paint4_radial_211_1338)" style="mix-blend-mode:plus-lighter"/>
</g>
<g id="Vector_6" opacity="0.2">
<path d="M90.4999 45C90.4999 46.5375 89.2624 47.8125 87.6874 47.8125H82.9999V42.1875H87.6874C89.2624 42.1875 90.4999 43.425 90.4999 45Z" fill="#3E95FF"/>
<path d="M90.4999 45C90.4999 46.5375 89.2624 47.8125 87.6874 47.8125H82.9999V42.1875H87.6874C89.2624 42.1875 90.4999 43.425 90.4999 45Z" fill="url(#paint5_radial_211_1338)" style="mix-blend-mode:plus-lighter"/>
</g>
<g id="Vector_7" filter="url(#filter2_dii_211_1338)">
<path d="M90.4999 58.875C90.4999 60.4125 89.2624 61.6875 87.6874 61.6875H82.2124C82.7374 59.9625 82.9999 58.125 82.9999 56.25V56.0625H87.6874C89.2624 56.0625 90.4999 57.3 90.4999 58.875Z" fill="#3E95FF"/>
<path d="M90.4999 58.875C90.4999 60.4125 89.2624 61.6875 87.6874 61.6875H82.2124C82.7374 59.9625 82.9999 58.125 82.9999 56.25V56.0625H87.6874C89.2624 56.0625 90.4999 57.3 90.4999 58.875Z" fill="url(#paint6_radial_211_1338)" style="mix-blend-mode:plus-lighter"/>
</g>
<g id="Vector_8" filter="url(#filter3_dii_211_1338)">
<path d="M69.6874 74.2129V79.6879C69.6874 81.2254 68.4124 82.5004 66.8749 82.5004C65.3374 82.5004 64.0624 81.2254 64.0624 79.6879V75.0004H64.2499C66.1249 75.0004 67.9624 74.7379 69.6874 74.2129Z" fill="#3E95FF"/>
<path d="M69.6874 74.2129V79.6879C69.6874 81.2254 68.4124 82.5004 66.8749 82.5004C65.3374 82.5004 64.0624 81.2254 64.0624 79.6879V75.0004H64.2499C66.1249 75.0004 67.9624 74.7379 69.6874 74.2129Z" fill="url(#paint7_radial_211_1338)" style="mix-blend-mode:plus-lighter"/>
</g>
<g id="Vector_9" opacity="0.2">
<path d="M55.8499 75V79.6875C55.8499 81.225 54.5749 82.5 53.0374 82.5C51.4624 82.5 50.2249 81.225 50.2249 79.6875V75H55.8499Z" fill="#3E95FF"/>
<path d="M55.8499 75V79.6875C55.8499 81.225 54.5749 82.5 53.0374 82.5C51.4624 82.5 50.2249 81.225 50.2249 79.6875V75H55.8499Z" fill="url(#paint8_radial_211_1338)" style="mix-blend-mode:plus-lighter"/>
</g>
<g id="Vector_10" filter="url(#filter4_dii_211_1338)">
<path d="M41.9749 75.0004V79.6879C41.9749 81.2254 40.6999 82.5004 39.1624 82.5004C37.5874 82.5004 36.3499 81.2254 36.3499 79.6879V74.2129C38.0749 74.7379 39.8749 75.0004 41.7499 75.0004H41.9749Z" fill="#3E95FF"/>
<path d="M41.9749 75.0004V79.6879C41.9749 81.2254 40.6999 82.5004 39.1624 82.5004C37.5874 82.5004 36.3499 81.2254 36.3499 79.6879V74.2129C38.0749 74.7379 39.8749 75.0004 41.7499 75.0004H41.9749Z" fill="url(#paint9_radial_211_1338)" style="mix-blend-mode:plus-lighter"/>
</g>
<g id="Vector_11" opacity="0.2">
<path d="M23.7874 28.3125C23.2624 30.0375 22.9999 31.875 22.9999 33.75V33.9375H18.3124C16.7749 33.9375 15.4999 32.7 15.4999 31.125C15.4999 29.5875 16.7749 28.3125 18.3124 28.3125H23.7874Z" fill="#3E95FF"/>
<path d="M23.7874 28.3125C23.2624 30.0375 22.9999 31.875 22.9999 33.75V33.9375H18.3124C16.7749 33.9375 15.4999 32.7 15.4999 31.125C15.4999 29.5875 16.7749 28.3125 18.3124 28.3125H23.7874Z" fill="url(#paint10_radial_211_1338)" style="mix-blend-mode:plus-lighter"/>
</g>
<g id="Vector_12" filter="url(#filter5_dii_211_1338)">
<path d="M22.9999 42.1875V47.8125H18.3124C16.7749 47.8125 15.4999 46.5375 15.4999 45C15.4999 43.425 16.7749 42.1875 18.3124 42.1875H22.9999Z" fill="#3E95FF"/>
<path d="M22.9999 42.1875V47.8125H18.3124C16.7749 47.8125 15.4999 46.5375 15.4999 45C15.4999 43.425 16.7749 42.1875 18.3124 42.1875H22.9999Z" fill="url(#paint11_radial_211_1338)" style="mix-blend-mode:plus-lighter"/>
</g>
<g id="Vector_13" opacity="0.2">
<path d="M23.7874 61.6875H18.3124C16.7749 61.6875 15.4999 60.4125 15.4999 58.875C15.4999 57.3 16.7749 56.0625 18.3124 56.0625H22.9999V56.25C22.9999 58.125 23.2624 59.9625 23.7874 61.6875Z" fill="#3E95FF"/>
<path d="M23.7874 61.6875H18.3124C16.7749 61.6875 15.4999 60.4125 15.4999 58.875C15.4999 57.3 16.7749 56.0625 18.3124 56.0625H22.9999V56.25C22.9999 58.125 23.2624 59.9625 23.7874 61.6875Z" fill="url(#paint12_radial_211_1338)" style="mix-blend-mode:plus-lighter"/>
</g>
<g id="Vector_14" filter="url(#filter6_dii_211_1338)">
<path d="M72.7249 36.5254V53.4379C72.7249 59.6629 67.6999 64.6879 61.4749 64.6879H44.5249C38.2999 64.6879 33.2749 59.6629 33.2749 53.4379V36.5254C33.2749 30.3004 38.2999 25.2754 44.5249 25.2754H61.4374C67.6624 25.2754 72.7249 30.3379 72.7249 36.5254Z" fill="#3E95FF"/>
<path d="M72.7249 36.5254V53.4379C72.7249 59.6629 67.6999 64.6879 61.4749 64.6879H44.5249C38.2999 64.6879 33.2749 59.6629 33.2749 53.4379V36.5254C33.2749 30.3004 38.2999 25.2754 44.5249 25.2754H61.4374C67.6624 25.2754 72.7249 30.3379 72.7249 36.5254Z" fill="url(#paint13_radial_211_1338)" style="mix-blend-mode:plus-lighter"/>
</g>
<path id="Vector_15" d="M41.7874 53.4189L46.9677 37.878C47.2332 37.0813 47.9788 36.5439 48.8186 36.5439C49.6584 36.5439 50.404 37.0813 50.6695 37.878L55.8499 53.4189M64.2874 36.5439V53.4189M44.5999 47.7939H53.0374" stroke="white" stroke-width="3" stroke-linecap="round" stroke-linejoin="round"/>
</g>
</g>
<defs>
<filter id="filter0_dii_211_1338" x="35.4531" y="2.58858" width="35.0935" height="36.9685" filterUnits="userSpaceOnUse" color-interpolation-filters="sRGB">
<feFlood flood-opacity="0" result="BackgroundImageFix"/>
<feColorMatrix in="SourceAlpha" type="matrix" values="0 0 0 0 0 0 0 0 0 0 0 0 0 0 0 0 0 0 127 0" result="hardAlpha"/>
<feOffset dy="9.82284"/>
<feGaussianBlur stdDeviation="7.36713"/>
<feComposite in2="hardAlpha" operator="out"/>
<feColorMatrix type="matrix" values="0 0 0 0 0.243137 0 0 0 0 0.584314 0 0 0 0 1 0 0 0 0.6 0"/>
<feBlend mode="normal" in2="BackgroundImageFix" result="effect1_dropShadow_211_1338"/>
<feBlend mode="normal" in="SourceGraphic" in2="effect1_dropShadow_211_1338" result="shape"/>
<feColorMatrix in="SourceAlpha" type="matrix" values="0 0 0 0 0 0 0 0 0 0 0 0 0 0 0 0 0 0 127 0" result="hardAlpha"/>
<feOffset dy="9.82284"/>
<feGaussianBlur stdDeviation="6.13928"/>
<feComposite in2="hardAlpha" operator="arithmetic" k2="-1" k3="1"/>
<feColorMatrix type="matrix" values="0 0 0 0 0.243137 0 0 0 0 0.584314 0 0 0 0 1 0 0 0 0.6 0"/>
<feBlend mode="normal" in2="shape" result="effect2_innerShadow_211_1338"/>
<feColorMatrix in="SourceAlpha" type="matrix" values="0 0 0 0 0 0 0 0 0 0 0 0 0 0 0 0 0 0 127 0" result="hardAlpha"/>
<feOffset/>
<feGaussianBlur stdDeviation="2.45571"/>
<feComposite in2="hardAlpha" operator="arithmetic" k2="-1" k3="1"/>
<feColorMatrix type="matrix" values="0 0 0 0 1 0 0 0 0 1 0 0 0 0 1 0 0 0 0.5 0"/>
<feBlend mode="normal" in2="effect2_innerShadow_211_1338" result="effect3_innerShadow_211_1338"/>
</filter>
<filter id="filter1_dii_211_1338" x="67.4781" y="23.4011" width="37.756" height="35.0935" filterUnits="userSpaceOnUse" color-interpolation-filters="sRGB">
<feFlood flood-opacity="0" result="BackgroundImageFix"/>
<feColorMatrix in="SourceAlpha" type="matrix" values="0 0 0 0 0 0 0 0 0 0 0 0 0 0 0 0 0 0 127 0" result="hardAlpha"/>
<feOffset dy="9.82284"/>
<feGaussianBlur stdDeviation="7.36713"/>
<feComposite in2="hardAlpha" operator="out"/>
<feColorMatrix type="matrix" values="0 0 0 0 0.243137 0 0 0 0 0.584314 0 0 0 0 1 0 0 0 0.6 0"/>
<feBlend mode="normal" in2="BackgroundImageFix" result="effect1_dropShadow_211_1338"/>
<feBlend mode="normal" in="SourceGraphic" in2="effect1_dropShadow_211_1338" result="shape"/>
<feColorMatrix in="SourceAlpha" type="matrix" values="0 0 0 0 0 0 0 0 0 0 0 0 0 0 0 0 0 0 127 0" result="hardAlpha"/>
<feOffset dy="9.82284"/>
<feGaussianBlur stdDeviation="6.13928"/>
<feComposite in2="hardAlpha" operator="arithmetic" k2="-1" k3="1"/>
<feColorMatrix type="matrix" values="0 0 0 0 0.243137 0 0 0 0 0.584314 0 0 0 0 1 0 0 0 0.6 0"/>
<feBlend mode="normal" in2="shape" result="effect2_innerShadow_211_1338"/>
<feColorMatrix in="SourceAlpha" type="matrix" values="0 0 0 0 0 0 0 0 0 0 0 0 0 0 0 0 0 0 127 0" result="hardAlpha"/>
<feOffset/>
<feGaussianBlur stdDeviation="2.45571"/>
<feComposite in2="hardAlpha" operator="arithmetic" k2="-1" k3="1"/>
<feColorMatrix type="matrix" values="0 0 0 0 1 0 0 0 0 1 0 0 0 0 1 0 0 0 0.5 0"/>
<feBlend mode="normal" in2="effect2_innerShadow_211_1338" result="effect3_innerShadow_211_1338"/>
</filter>
<filter id="filter2_dii_211_1338" x="67.4781" y="51.1511" width="37.756" height="35.0935" filterUnits="userSpaceOnUse" color-interpolation-filters="sRGB">
<feFlood flood-opacity="0" result="BackgroundImageFix"/>
<feColorMatrix in="SourceAlpha" type="matrix" values="0 0 0 0 0 0 0 0 0 0 0 0 0 0 0 0 0 0 127 0" result="hardAlpha"/>
<feOffset dy="9.82284"/>
<feGaussianBlur stdDeviation="7.36713"/>
<feComposite in2="hardAlpha" operator="out"/>
<feColorMatrix type="matrix" values="0 0 0 0 0.243137 0 0 0 0 0.584314 0 0 0 0 1 0 0 0 0.6 0"/>
<feBlend mode="normal" in2="BackgroundImageFix" result="effect1_dropShadow_211_1338"/>
<feBlend mode="normal" in="SourceGraphic" in2="effect1_dropShadow_211_1338" result="shape"/>
<feColorMatrix in="SourceAlpha" type="matrix" values="0 0 0 0 0 0 0 0 0 0 0 0 0 0 0 0 0 0 127 0" result="hardAlpha"/>
<feOffset dy="9.82284"/>
<feGaussianBlur stdDeviation="6.13928"/>
<feComposite in2="hardAlpha" operator="arithmetic" k2="-1" k3="1"/>
<feColorMatrix type="matrix" values="0 0 0 0 0.243137 0 0 0 0 0.584314 0 0 0 0 1 0 0 0 0.6 0"/>
<feBlend mode="normal" in2="shape" result="effect2_innerShadow_211_1338"/>
<feColorMatrix in="SourceAlpha" type="matrix" values="0 0 0 0 0 0 0 0 0 0 0 0 0 0 0 0 0 0 127 0" result="hardAlpha"/>
<feOffset/>
<feGaussianBlur stdDeviation="2.45571"/>
<feComposite in2="hardAlpha" operator="arithmetic" k2="-1" k3="1"/>
<feColorMatrix type="matrix" values="0 0 0 0 1 0 0 0 0 1 0 0 0 0 1 0 0 0 0.5 0"/>
<feBlend mode="normal" in2="effect2_innerShadow_211_1338" result="effect3_innerShadow_211_1338"/>
</filter>
<filter id="filter3_dii_211_1338" x="49.3281" y="69.3015" width="35.0935" height="37.7556" filterUnits="userSpaceOnUse" color-interpolation-filters="sRGB">
<feFlood flood-opacity="0" result="BackgroundImageFix"/>
<feColorMatrix in="SourceAlpha" type="matrix" values="0 0 0 0 0 0 0 0 0 0 0 0 0 0 0 0 0 0 127 0" result="hardAlpha"/>
<feOffset dy="9.82284"/>
<feGaussianBlur stdDeviation="7.36713"/>
<feComposite in2="hardAlpha" operator="out"/>
<feColorMatrix type="matrix" values="0 0 0 0 0.243137 0 0 0 0 0.584314 0 0 0 0 1 0 0 0 0.6 0"/>
<feBlend mode="normal" in2="BackgroundImageFix" result="effect1_dropShadow_211_1338"/>
<feBlend mode="normal" in="SourceGraphic" in2="effect1_dropShadow_211_1338" result="shape"/>
<feColorMatrix in="SourceAlpha" type="matrix" values="0 0 0 0 0 0 0 0 0 0 0 0 0 0 0 0 0 0 127 0" result="hardAlpha"/>
<feOffset dy="9.82284"/>
<feGaussianBlur stdDeviation="6.13928"/>
<feComposite in2="hardAlpha" operator="arithmetic" k2="-1" k3="1"/>
<feColorMatrix type="matrix" values="0 0 0 0 0.243137 0 0 0 0 0.584314 0 0 0 0 1 0 0 0 0.6 0"/>
<feBlend mode="normal" in2="shape" result="effect2_innerShadow_211_1338"/>
<feColorMatrix in="SourceAlpha" type="matrix" values="0 0 0 0 0 0 0 0 0 0 0 0 0 0 0 0 0 0 127 0" result="hardAlpha"/>
<feOffset/>
<feGaussianBlur stdDeviation="2.45571"/>
<feComposite in2="hardAlpha" operator="arithmetic" k2="-1" k3="1"/>
<feColorMatrix type="matrix" values="0 0 0 0 1 0 0 0 0 1 0 0 0 0 1 0 0 0 0.5 0"/>
<feBlend mode="normal" in2="effect2_innerShadow_211_1338" result="effect3_innerShadow_211_1338"/>
</filter>
<filter id="filter4_dii_211_1338" x="21.6156" y="69.3015" width="35.0935" height="37.7556" filterUnits="userSpaceOnUse" color-interpolation-filters="sRGB">
<feFlood flood-opacity="0" result="BackgroundImageFix"/>
<feColorMatrix in="SourceAlpha" type="matrix" values="0 0 0 0 0 0 0 0 0 0 0 0 0 0 0 0 0 0 127 0" result="hardAlpha"/>
<feOffset dy="9.82284"/>
<feGaussianBlur stdDeviation="7.36713"/>
<feComposite in2="hardAlpha" operator="out"/>
<feColorMatrix type="matrix" values="0 0 0 0 0.243137 0 0 0 0 0.584314 0 0 0 0 1 0 0 0 0.6 0"/>
<feBlend mode="normal" in2="BackgroundImageFix" result="effect1_dropShadow_211_1338"/>
<feBlend mode="normal" in="SourceGraphic" in2="effect1_dropShadow_211_1338" result="shape"/>
<feColorMatrix in="SourceAlpha" type="matrix" values="0 0 0 0 0 0 0 0 0 0 0 0 0 0 0 0 0 0 127 0" result="hardAlpha"/>
<feOffset dy="9.82284"/>
<feGaussianBlur stdDeviation="6.13928"/>
<feComposite in2="hardAlpha" operator="arithmetic" k2="-1" k3="1"/>
<feColorMatrix type="matrix" values="0 0 0 0 0.243137 0 0 0 0 0.584314 0 0 0 0 1 0 0 0 0.6 0"/>
<feBlend mode="normal" in2="shape" result="effect2_innerShadow_211_1338"/>
<feColorMatrix in="SourceAlpha" type="matrix" values="0 0 0 0 0 0 0 0 0 0 0 0 0 0 0 0 0 0 127 0" result="hardAlpha"/>
<feOffset/>
<feGaussianBlur stdDeviation="2.45571"/>
<feComposite in2="hardAlpha" operator="arithmetic" k2="-1" k3="1"/>
<feColorMatrix type="matrix" values="0 0 0 0 1 0 0 0 0 1 0 0 0 0 1 0 0 0 0.5 0"/>
<feBlend mode="normal" in2="effect2_innerShadow_211_1338" result="effect3_innerShadow_211_1338"/>
</filter>
<filter id="filter5_dii_211_1338" x="0.765617" y="37.2761" width="36.9685" height="35.0935" filterUnits="userSpaceOnUse" color-interpolation-filters="sRGB">
<feFlood flood-opacity="0" result="BackgroundImageFix"/>
<feColorMatrix in="SourceAlpha" type="matrix" values="0 0 0 0 0 0 0 0 0 0 0 0 0 0 0 0 0 0 127 0" result="hardAlpha"/>
<feOffset dy="9.82284"/>
<feGaussianBlur stdDeviation="7.36713"/>
<feComposite in2="hardAlpha" operator="out"/>
<feColorMatrix type="matrix" values="0 0 0 0 0.243137 0 0 0 0 0.584314 0 0 0 0 1 0 0 0 0.6 0"/>
<feBlend mode="normal" in2="BackgroundImageFix" result="effect1_dropShadow_211_1338"/>
<feBlend mode="normal" in="SourceGraphic" in2="effect1_dropShadow_211_1338" result="shape"/>
<feColorMatrix in="SourceAlpha" type="matrix" values="0 0 0 0 0 0 0 0 0 0 0 0 0 0 0 0 0 0 127 0" result="hardAlpha"/>
<feOffset dy="9.82284"/>
<feGaussianBlur stdDeviation="6.13928"/>
<feComposite in2="hardAlpha" operator="arithmetic" k2="-1" k3="1"/>
<feColorMatrix type="matrix" values="0 0 0 0 0.243137 0 0 0 0 0.584314 0 0 0 0 1 0 0 0 0.6 0"/>
<feBlend mode="normal" in2="shape" result="effect2_innerShadow_211_1338"/>
<feColorMatrix in="SourceAlpha" type="matrix" values="0 0 0 0 0 0 0 0 0 0 0 0 0 0 0 0 0 0 127 0" result="hardAlpha"/>
<feOffset/>
<feGaussianBlur stdDeviation="2.45571"/>
<feComposite in2="hardAlpha" operator="arithmetic" k2="-1" k3="1"/>
<feColorMatrix type="matrix" values="0 0 0 0 1 0 0 0 0 1 0 0 0 0 1 0 0 0 0.5 0"/>
<feBlend mode="normal" in2="effect2_innerShadow_211_1338" result="effect3_innerShadow_211_1338"/>
</filter>
<filter id="filter6_dii_211_1338" x="18.5406" y="20.364" width="68.9185" height="68.8806" filterUnits="userSpaceOnUse" color-interpolation-filters="sRGB">
<feFlood flood-opacity="0" result="BackgroundImageFix"/>
<feColorMatrix in="SourceAlpha" type="matrix" values="0 0 0 0 0 0 0 0 0 0 0 0 0 0 0 0 0 0 127 0" result="hardAlpha"/>
<feOffset dy="9.82284"/>
<feGaussianBlur stdDeviation="7.36713"/>
<feComposite in2="hardAlpha" operator="out"/>
<feColorMatrix type="matrix" values="0 0 0 0 0.243137 0 0 0 0 0.584314 0 0 0 0 1 0 0 0 0.6 0"/>
<feBlend mode="normal" in2="BackgroundImageFix" result="effect1_dropShadow_211_1338"/>
<feBlend mode="normal" in="SourceGraphic" in2="effect1_dropShadow_211_1338" result="shape"/>
<feColorMatrix in="SourceAlpha" type="matrix" values="0 0 0 0 0 0 0 0 0 0 0 0 0 0 0 0 0 0 127 0" result="hardAlpha"/>
<feOffset dy="9.82284"/>
<feGaussianBlur stdDeviation="6.13928"/>
<feComposite in2="hardAlpha" operator="arithmetic" k2="-1" k3="1"/>
<feColorMatrix type="matrix" values="0 0 0 0 0.243137 0 0 0 0 0.584314 0 0 0 0 1 0 0 0 0.6 0"/>
<feBlend mode="normal" in2="shape" result="effect2_innerShadow_211_1338"/>
<feColorMatrix in="SourceAlpha" type="matrix" values="0 0 0 0 0 0 0 0 0 0 0 0 0 0 0 0 0 0 127 0" result="hardAlpha"/>
<feOffset/>
<feGaussianBlur stdDeviation="2.45571"/>
<feComposite in2="hardAlpha" operator="arithmetic" k2="-1" k3="1"/>
<feColorMatrix type="matrix" values="0 0 0 0 1 0 0 0 0 1 0 0 0 0 1 0 0 0 0.5 0"/>
<feBlend mode="normal" in2="effect2_innerShadow_211_1338" result="effect3_innerShadow_211_1338"/>
</filter>
<radialGradient id="paint0_radial_211_1338" cx="0" cy="0" r="1" gradientUnits="userSpaceOnUse" gradientTransform="translate(42.4077 21.8792) rotate(78.7233) scale(54.1665 103.427)">
<stop stop-color="white" stop-opacity="0.4"/>
<stop offset="1" stop-color="#3E95FF" stop-opacity="0"/>
</radialGradient>
<radialGradient id="paint1_radial_211_1338" cx="0" cy="0" r="1" gradientUnits="userSpaceOnUse" gradientTransform="translate(38.1693 8.45019) rotate(82.2925) scale(7.4042 9.7978)">
<stop stop-color="white" stop-opacity="0.4"/>
<stop offset="1" stop-color="#3E95FF" stop-opacity="0"/>
</radialGradient>
<radialGradient id="paint2_radial_211_1338" cx="0" cy="0" r="1" gradientUnits="userSpaceOnUse" gradientTransform="translate(52.0069 8.3599) rotate(81.4945) scale(6.71394 9.77838)">
<stop stop-color="white" stop-opacity="0.4"/>
<stop offset="1" stop-color="#3E95FF" stop-opacity="0"/>
</radialGradient>
<radialGradient id="paint3_radial_211_1338" cx="0" cy="0" r="1" gradientUnits="userSpaceOnUse" gradientTransform="translate(65.8819 8.45019) rotate(82.2925) scale(7.4042 9.7978)">
<stop stop-color="white" stop-opacity="0.4"/>
<stop offset="1" stop-color="#3E95FF" stop-opacity="0"/>
</radialGradient>
<radialGradient id="paint4_radial_211_1338" cx="0" cy="0" r="1" gradientUnits="userSpaceOnUse" gradientTransform="translate(84.8931 28.9574) rotate(73.6283) scale(5.19053 13.9764)">
<stop stop-color="white" stop-opacity="0.4"/>
<stop offset="1" stop-color="#3E95FF" stop-opacity="0"/>
</radialGradient>
<radialGradient id="paint5_radial_211_1338" cx="0" cy="0" r="1" gradientUnits="userSpaceOnUse" gradientTransform="translate(85.4259 42.8324) rotate(75.1115) scale(5.15307 12.7402)">
<stop stop-color="white" stop-opacity="0.4"/>
<stop offset="1" stop-color="#3E95FF" stop-opacity="0"/>
</radialGradient>
<radialGradient id="paint6_radial_211_1338" cx="0" cy="0" r="1" gradientUnits="userSpaceOnUse" gradientTransform="translate(84.8931 56.7074) rotate(73.6283) scale(5.19053 13.9764)">
<stop stop-color="white" stop-opacity="0.4"/>
<stop offset="1" stop-color="#3E95FF" stop-opacity="0"/>
</radialGradient>
<radialGradient id="paint7_radial_211_1338" cx="0" cy="0" r="1" gradientUnits="userSpaceOnUse" gradientTransform="translate(65.8819 75.1631) rotate(82.2925) scale(7.4042 9.7978)">
<stop stop-color="white" stop-opacity="0.4"/>
<stop offset="1" stop-color="#3E95FF" stop-opacity="0"/>
</radialGradient>
<radialGradient id="paint8_radial_211_1338" cx="0" cy="0" r="1" gradientUnits="userSpaceOnUse" gradientTransform="translate(52.0443 75.8599) rotate(81.4945) scale(6.71394 9.77838)">
<stop stop-color="white" stop-opacity="0.4"/>
<stop offset="1" stop-color="#3E95FF" stop-opacity="0"/>
</radialGradient>
<radialGradient id="paint9_radial_211_1338" cx="0" cy="0" r="1" gradientUnits="userSpaceOnUse" gradientTransform="translate(38.1693 75.1631) rotate(82.2925) scale(7.4042 9.7978)">
<stop stop-color="white" stop-opacity="0.4"/>
<stop offset="1" stop-color="#3E95FF" stop-opacity="0"/>
</radialGradient>
<radialGradient id="paint10_radial_211_1338" cx="0" cy="0" r="1" gradientUnits="userSpaceOnUse" gradientTransform="translate(18.1806 28.9574) rotate(73.6283) scale(5.19053 13.9764)">
<stop stop-color="white" stop-opacity="0.4"/>
<stop offset="1" stop-color="#3E95FF" stop-opacity="0"/>
</radialGradient>
<radialGradient id="paint11_radial_211_1338" cx="0" cy="0" r="1" gradientUnits="userSpaceOnUse" gradientTransform="translate(17.9259 42.8324) rotate(75.1115) scale(5.15307 12.7402)">
<stop stop-color="white" stop-opacity="0.4"/>
<stop offset="1" stop-color="#3E95FF" stop-opacity="0"/>
</radialGradient>
<radialGradient id="paint12_radial_211_1338" cx="0" cy="0" r="1" gradientUnits="userSpaceOnUse" gradientTransform="translate(18.1806 56.7074) rotate(73.6283) scale(5.19054 13.9764)">
<stop stop-color="white" stop-opacity="0.4"/>
<stop offset="1" stop-color="#3E95FF" stop-opacity="0"/>
</radialGradient>
<radialGradient id="paint13_radial_211_1338" cx="0" cy="0" r="1" gradientUnits="userSpaceOnUse" gradientTransform="translate(46.0356 29.7942) rotate(78.7128) scale(35.5819 68.0005)">
<stop stop-color="white" stop-opacity="0.4"/>
<stop offset="1" stop-color="#3E95FF" stop-opacity="0"/>
</radialGradient>
</defs>
</svg>
