<svg width="100" height="91" viewBox="0 0 100 91" fill="none" xmlns="http://www.w3.org/2000/svg">
<g id="vuesax/bulk/edit">
<g id="edit">
<g id="Vector" opacity="0.2">
<path d="M58.05 11.25H28.2C15.2625 11.25 7.5 18.975 7.5 31.95V61.7625C7.5 74.775 15.2625 82.5 28.2 82.5H58.0125C70.9875 82.5 78.7125 74.775 78.7125 61.8V31.95C78.75 18.975 70.9875 11.25 58.05 11.25Z" fill="#511DD6"/>
<path d="M58.05 11.25H28.2C15.2625 11.25 7.5 18.975 7.5 31.95V61.7625C7.5 74.775 15.2625 82.5 28.2 82.5H58.0125C70.9875 82.5 78.7125 74.775 78.7125 61.8V31.95C78.75 18.975 70.9875 11.25 58.05 11.25Z" fill="url(#paint0_radial_211_1427)" style="mix-blend-mode:plus-lighter"/>
</g>
<g id="Vector_2" filter="url(#filter0_dii_211_1427)">
<path d="M78.8249 11.1755C72.1124 4.42555 65.5499 4.27555 58.6499 11.1755L54.4124 15.3755C54.0374 15.7505 53.9249 16.2755 54.0749 16.763C56.6999 25.9505 64.0499 33.3005 73.2374 35.9255C73.3499 35.963 73.5374 35.963 73.6499 35.963C74.0249 35.963 74.3999 35.813 74.6624 35.5505L78.8249 31.3505C82.2374 27.938 83.9249 24.6755 83.9249 21.338C83.9249 17.963 82.2374 14.6255 78.8249 11.1755Z" fill="#511DD6"/>
<path d="M78.8249 11.1755C72.1124 4.42555 65.5499 4.27555 58.6499 11.1755L54.4124 15.3755C54.0374 15.7505 53.9249 16.2755 54.0749 16.763C56.6999 25.9505 64.0499 33.3005 73.2374 35.9255C73.3499 35.963 73.5374 35.963 73.6499 35.963C74.0249 35.963 74.3999 35.813 74.6624 35.5505L78.8249 31.3505C82.2374 27.938 83.9249 24.6755 83.9249 21.338C83.9249 17.963 82.2374 14.6255 78.8249 11.1755Z" fill="url(#paint1_radial_211_1427)" style="mix-blend-mode:plus-lighter"/>
</g>
<g id="Vector_3" filter="url(#filter1_dii_211_1427)">
<path d="M66.9749 39.0744C65.9624 38.5869 64.9874 38.0994 64.0874 37.5369C63.3374 37.0869 62.5874 36.5994 61.8749 36.0744C61.2749 35.6994 60.5999 35.1369 59.9249 34.5744C59.8499 34.5369 59.6249 34.3494 59.3249 34.0494C58.1624 33.1119 56.9249 31.8369 55.7624 30.4494C55.6874 30.3744 55.4624 30.1494 55.2749 29.8119C54.8999 29.3994 54.3374 28.6869 53.8499 27.8994C53.4374 27.3744 52.9499 26.6244 52.4999 25.8369C51.9374 24.8994 51.4499 23.9619 50.9999 22.9869C50.5124 21.9369 50.1374 20.9619 49.7999 20.0244L29.6249 40.1994C28.3124 41.5119 27.0374 43.9869 26.7749 45.8244L25.1624 56.9994C24.8249 59.3619 25.4624 61.5744 26.9249 63.0369C28.1624 64.2744 29.8499 64.9119 31.7249 64.9119C32.1374 64.9119 32.5499 64.8744 32.9624 64.8369L44.0999 63.2619C45.9374 62.9994 48.4124 61.7619 49.7249 60.4119L69.8999 40.2369C68.9624 39.9369 68.0249 39.5244 66.9749 39.0744Z" fill="#511DD6"/>
<path d="M66.9749 39.0744C65.9624 38.5869 64.9874 38.0994 64.0874 37.5369C63.3374 37.0869 62.5874 36.5994 61.8749 36.0744C61.2749 35.6994 60.5999 35.1369 59.9249 34.5744C59.8499 34.5369 59.6249 34.3494 59.3249 34.0494C58.1624 33.1119 56.9249 31.8369 55.7624 30.4494C55.6874 30.3744 55.4624 30.1494 55.2749 29.8119C54.8999 29.3994 54.3374 28.6869 53.8499 27.8994C53.4374 27.3744 52.9499 26.6244 52.4999 25.8369C51.9374 24.8994 51.4499 23.9619 50.9999 22.9869C50.5124 21.9369 50.1374 20.9619 49.7999 20.0244L29.6249 40.1994C28.3124 41.5119 27.0374 43.9869 26.7749 45.8244L25.1624 56.9994C24.8249 59.3619 25.4624 61.5744 26.9249 63.0369C28.1624 64.2744 29.8499 64.9119 31.7249 64.9119C32.1374 64.9119 32.5499 64.8744 32.9624 64.8369L44.0999 63.2619C45.9374 62.9994 48.4124 61.7619 49.7249 60.4119L69.8999 40.2369C68.9624 39.9369 68.0249 39.5244 66.9749 39.0744Z" fill="url(#paint2_radial_211_1427)" style="mix-blend-mode:plus-lighter"/>
</g>
</g>
</g>
<defs>
<filter id="filter0_dii_211_1427" x="38.7379" y="0.965732" width="60.4598" height="60.4517" filterUnits="userSpaceOnUse" color-interpolation-filters="sRGB">
<feFlood flood-opacity="0" result="BackgroundImageFix"/>
<feColorMatrix in="SourceAlpha" type="matrix" values="0 0 0 0 0 0 0 0 0 0 0 0 0 0 0 0 0 0 127 0" result="hardAlpha"/>
<feOffset dy="10.1818"/>
<feGaussianBlur stdDeviation="7.63636"/>
<feComposite in2="hardAlpha" operator="out"/>
<feColorMatrix type="matrix" values="0 0 0 0 0.317647 0 0 0 0 0.113725 0 0 0 0 0.839216 0 0 0 0.6 0"/>
<feBlend mode="normal" in2="BackgroundImageFix" result="effect1_dropShadow_211_1427"/>
<feBlend mode="normal" in="SourceGraphic" in2="effect1_dropShadow_211_1427" result="shape"/>
<feColorMatrix in="SourceAlpha" type="matrix" values="0 0 0 0 0 0 0 0 0 0 0 0 0 0 0 0 0 0 127 0" result="hardAlpha"/>
<feOffset dy="10.1818"/>
<feGaussianBlur stdDeviation="6.36364"/>
<feComposite in2="hardAlpha" operator="arithmetic" k2="-1" k3="1"/>
<feColorMatrix type="matrix" values="0 0 0 0 0.317647 0 0 0 0 0.113725 0 0 0 0 0.839216 0 0 0 0.6 0"/>
<feBlend mode="normal" in2="shape" result="effect2_innerShadow_211_1427"/>
<feColorMatrix in="SourceAlpha" type="matrix" values="0 0 0 0 0 0 0 0 0 0 0 0 0 0 0 0 0 0 127 0" result="hardAlpha"/>
<feOffset/>
<feGaussianBlur stdDeviation="2.54545"/>
<feComposite in2="hardAlpha" operator="arithmetic" k2="-1" k3="1"/>
<feColorMatrix type="matrix" values="0 0 0 0 1 0 0 0 0 1 0 0 0 0 1 0 0 0 0.5 0"/>
<feBlend mode="normal" in2="effect2_innerShadow_211_1427" result="effect3_innerShadow_211_1427"/>
</filter>
<filter id="filter1_dii_211_1427" x="9.80125" y="14.9335" width="75.3714" height="75.4331" filterUnits="userSpaceOnUse" color-interpolation-filters="sRGB">
<feFlood flood-opacity="0" result="BackgroundImageFix"/>
<feColorMatrix in="SourceAlpha" type="matrix" values="0 0 0 0 0 0 0 0 0 0 0 0 0 0 0 0 0 0 127 0" result="hardAlpha"/>
<feOffset dy="10.1818"/>
<feGaussianBlur stdDeviation="7.63636"/>
<feComposite in2="hardAlpha" operator="out"/>
<feColorMatrix type="matrix" values="0 0 0 0 0.317647 0 0 0 0 0.113725 0 0 0 0 0.839216 0 0 0 0.6 0"/>
<feBlend mode="normal" in2="BackgroundImageFix" result="effect1_dropShadow_211_1427"/>
<feBlend mode="normal" in="SourceGraphic" in2="effect1_dropShadow_211_1427" result="shape"/>
<feColorMatrix in="SourceAlpha" type="matrix" values="0 0 0 0 0 0 0 0 0 0 0 0 0 0 0 0 0 0 127 0" result="hardAlpha"/>
<feOffset dy="10.1818"/>
<feGaussianBlur stdDeviation="6.36364"/>
<feComposite in2="hardAlpha" operator="arithmetic" k2="-1" k3="1"/>
<feColorMatrix type="matrix" values="0 0 0 0 0.317647 0 0 0 0 0.113725 0 0 0 0 0.839216 0 0 0 0.6 0"/>
<feBlend mode="normal" in2="shape" result="effect2_innerShadow_211_1427"/>
<feColorMatrix in="SourceAlpha" type="matrix" values="0 0 0 0 0 0 0 0 0 0 0 0 0 0 0 0 0 0 127 0" result="hardAlpha"/>
<feOffset/>
<feGaussianBlur stdDeviation="2.54545"/>
<feComposite in2="hardAlpha" operator="arithmetic" k2="-1" k3="1"/>
<feColorMatrix type="matrix" values="0 0 0 0 1 0 0 0 0 1 0 0 0 0 1 0 0 0 0.5 0"/>
<feBlend mode="normal" in2="effect2_innerShadow_211_1427" result="effect3_innerShadow_211_1427"/>
</filter>
<radialGradient id="paint0_radial_211_1427" cx="0" cy="0" r="1" gradientUnits="userSpaceOnUse" gradientTransform="translate(30.5347 19.4191) rotate(78.729) scale(64.3214 122.757)">
<stop stop-color="white" stop-opacity="0.7"/>
<stop offset="1" stop-color="#511DD6" stop-opacity="0"/>
</radialGradient>
<radialGradient id="paint1_radial_211_1427" cx="0" cy="0" r="1" gradientUnits="userSpaceOnUse" gradientTransform="translate(63.6868 9.48552) rotate(78.7204) scale(26.999 51.565)">
<stop stop-color="white" stop-opacity="0.7"/>
<stop offset="1" stop-color="#511DD6" stop-opacity="0"/>
</radialGradient>
<radialGradient id="paint2_radial_211_1427" cx="0" cy="0" r="1" gradientUnits="userSpaceOnUse" gradientTransform="translate(39.5735 25.1709) rotate(78.7383) scale(40.5212 77.2738)">
<stop stop-color="white" stop-opacity="0.7"/>
<stop offset="1" stop-color="#511DD6" stop-opacity="0"/>
</radialGradient>
</defs>
</svg>
