<svg width="106" height="105" viewBox="0 0 106 105" fill="none" xmlns="http://www.w3.org/2000/svg">
<g id="Frame 2117131602">
<g id="image 15 (Traced)" filter="url(#filter0_dii_211_1453)">
<path fill-rule="evenodd" clip-rule="evenodd" d="M39.0944 23.3881C39.3095 23.5 39.5269 23.7635 39.6798 24.0969C39.8988 24.5752 39.922 24.8118 39.9153 26.4987C39.906 28.7838 39.7283 29.489 39.079 29.8155C38.5941 30.0594 36.6447 30.1 36.3449 29.8724C35.7173 29.396 35.5909 24.9425 36.1646 23.5218L36.2907 23.21H37.5215C38.42 23.21 38.8447 23.258 39.0944 23.3881ZM23.0858 55.9663C21.9897 56.0508 21.7638 56.1688 21.0241 57.0415C20.0031 58.2468 19.386 59.4411 18.8942 61.1642C18.5494 62.3726 18.5237 65.3626 18.8476 66.5867C19.7895 70.1458 22.8157 73.1723 26.4083 74.1481C27.2918 74.3881 27.4731 74.3931 35.6817 74.4022L44.0539 74.4115L44.3259 74.0933C44.4754 73.9183 44.5978 73.6783 44.5978 73.5599C44.5978 73.1732 44.3398 72.7634 44.0436 72.6793C43.8837 72.6341 41.6624 72.597 39.1072 72.597C36.5519 72.597 34.4739 72.5659 34.4894 72.528C34.5048 72.49 34.835 72.1942 35.2227 71.8707C37.0809 70.3209 38.4253 67.7208 38.7473 65.0546L38.8712 64.0279L38.0958 63.1527C37.6694 62.6712 36.8009 61.6291 36.166 60.8369C35.531 60.0447 34.7278 59.1354 34.3811 58.8163C32.8809 57.4358 31.2189 56.5738 29.224 56.1415C28.3427 55.9506 24.6544 55.8452 23.0858 55.9663ZM29.6464 59.0514C29.8787 59.1162 30.0688 59.1946 30.0688 59.2253C30.0688 59.2559 29.6854 59.761 29.2168 60.3475C28.6059 61.1125 28.258 61.4495 27.9868 61.5396C26.5447 62.0189 25.7462 63.6931 26.3369 64.999C26.9067 66.2587 28.5656 66.9055 29.7072 66.3131C30.9091 65.6893 31.4435 64.4302 31.0743 63.0917C30.9416 62.6103 30.9771 62.547 32.0395 61.3701L32.5514 60.8031L32.8329 61.1433C33.61 62.0827 34.0262 63.7756 33.8002 65.079C33.6181 66.13 32.9993 67.3088 32.2853 67.9654C30.9192 69.2215 28.9245 69.7608 27.358 69.2976C24.6822 68.5061 22.9 65.922 23.3162 63.437C23.636 61.5284 25.0416 59.7622 26.727 59.1513C27.3876 58.9118 28.9554 58.8581 29.6464 59.0514Z" fill="#FF1010"/>
<path fill-rule="evenodd" clip-rule="evenodd" d="M39.0944 23.3881C39.3095 23.5 39.5269 23.7635 39.6798 24.0969C39.8988 24.5752 39.922 24.8118 39.9153 26.4987C39.906 28.7838 39.7283 29.489 39.079 29.8155C38.5941 30.0594 36.6447 30.1 36.3449 29.8724C35.7173 29.396 35.5909 24.9425 36.1646 23.5218L36.2907 23.21H37.5215C38.42 23.21 38.8447 23.258 39.0944 23.3881ZM23.0858 55.9663C21.9897 56.0508 21.7638 56.1688 21.0241 57.0415C20.0031 58.2468 19.386 59.4411 18.8942 61.1642C18.5494 62.3726 18.5237 65.3626 18.8476 66.5867C19.7895 70.1458 22.8157 73.1723 26.4083 74.1481C27.2918 74.3881 27.4731 74.3931 35.6817 74.4022L44.0539 74.4115L44.3259 74.0933C44.4754 73.9183 44.5978 73.6783 44.5978 73.5599C44.5978 73.1732 44.3398 72.7634 44.0436 72.6793C43.8837 72.6341 41.6624 72.597 39.1072 72.597C36.5519 72.597 34.4739 72.5659 34.4894 72.528C34.5048 72.49 34.835 72.1942 35.2227 71.8707C37.0809 70.3209 38.4253 67.7208 38.7473 65.0546L38.8712 64.0279L38.0958 63.1527C37.6694 62.6712 36.8009 61.6291 36.166 60.8369C35.531 60.0447 34.7278 59.1354 34.3811 58.8163C32.8809 57.4358 31.2189 56.5738 29.224 56.1415C28.3427 55.9506 24.6544 55.8452 23.0858 55.9663ZM29.6464 59.0514C29.8787 59.1162 30.0688 59.1946 30.0688 59.2253C30.0688 59.2559 29.6854 59.761 29.2168 60.3475C28.6059 61.1125 28.258 61.4495 27.9868 61.5396C26.5447 62.0189 25.7462 63.6931 26.3369 64.999C26.9067 66.2587 28.5656 66.9055 29.7072 66.3131C30.9091 65.6893 31.4435 64.4302 31.0743 63.0917C30.9416 62.6103 30.9771 62.547 32.0395 61.3701L32.5514 60.8031L32.8329 61.1433C33.61 62.0827 34.0262 63.7756 33.8002 65.079C33.6181 66.13 32.9993 67.3088 32.2853 67.9654C30.9192 69.2215 28.9245 69.7608 27.358 69.2976C24.6822 68.5061 22.9 65.922 23.3162 63.437C23.636 61.5284 25.0416 59.7622 26.727 59.1513C27.3876 58.9118 28.9554 58.8581 29.6464 59.0514Z" fill="url(#paint0_radial_211_1453)" style="mix-blend-mode:plus-lighter"/>
</g>
<g id="image 15 (Traced)_2" opacity="0.3">
<path fill-rule="evenodd" clip-rule="evenodd" d="M49.7171 16.6145C48.8183 16.9632 48.1495 17.6074 47.792 18.4689C47.5946 18.9446 47.5593 20.2986 47.7356 20.6303C47.8374 20.8218 47.6715 21.0215 46.4358 22.1946L45.0194 23.5392L44.6677 23.3314C42.9384 22.3097 41.5272 21.712 40.0468 21.3744C39.0182 21.1399 35.9487 21.105 35.3378 21.321C34.2127 21.7186 33.7846 23.2411 33.7864 26.8375C33.7876 29.4402 34.0623 30.7734 34.7568 31.5474C35.2817 32.1324 35.8346 32.2678 37.4444 32.2058C38.1576 32.1784 38.7411 32.1729 38.7411 32.1938C38.7411 32.4816 35.253 38.8254 33.8592 41.0726C33.2982 41.9769 32.6899 43.0741 32.5074 43.5107C31.8837 45.002 32.0059 46.3077 32.8903 47.6017C33.2485 48.1259 33.2508 48.1372 32.9865 48.0588C31.2557 47.5449 28.6486 47.5395 26.8062 48.0461C24.9171 48.5653 22.9194 49.7158 21.1107 51.3258C19.7261 52.5584 19.3608 53.4067 19.9676 53.9808C20.2229 54.2222 20.296 54.2273 23.4973 54.2273C25.5521 54.2273 27.4249 54.2908 28.5395 54.3983C30.1704 54.5556 30.4043 54.6077 31.4538 55.0462C32.8597 55.6336 34.3093 56.5791 35.3634 57.5958C35.8029 58.0197 36.9849 59.3607 37.9902 60.5757C39.9601 62.9568 40.5936 63.5357 41.5568 63.8345C41.8975 63.9402 42.3511 64.1766 42.5647 64.3599C42.7784 64.5432 43.1838 64.8006 43.4658 64.9319C43.9766 65.1699 44.0221 65.1708 57.4478 65.2013L70.9173 65.2318L71.1585 66.2155C71.8988 69.2349 74.1179 71.9746 76.9784 73.4008C79.1011 74.4592 78.903 74.4375 86.8897 74.49C90.7303 74.5153 94.0375 74.506 94.2391 74.4692C94.9105 74.3472 95.2595 73.6485 94.945 73.0567C94.7304 72.653 94.2258 72.5986 90.6921 72.5986H87.2636L87.8087 72.1612C90.3915 70.0888 91.7401 67.2064 91.8222 63.5831L91.8453 62.5625L93.3658 62.5313C95.4582 62.4883 96.0114 62.3634 96.5612 61.8099L97 61.3682L96.9402 60.6044C96.9019 60.1151 96.753 59.5353 96.5255 58.9903C96.1638 58.1239 94.7174 54.2065 94.7174 54.0935C94.7174 54.0593 94.9164 53.8926 95.1595 53.7228C95.6828 53.3577 95.9563 52.8361 95.9563 52.2031C95.9563 51.5861 95.4775 50.0962 95.0728 49.4538C94.512 48.5635 93.9341 48.3351 91.7811 48.1525C91.1282 48.0972 91.02 48.0538 90.8612 47.7832C90.5559 47.2626 88.8931 45.54 87.9813 44.7997C86.8803 43.9056 85.3127 42.8636 84.2992 42.3523C83.4907 41.9444 83.1166 41.6776 83.1166 41.5086C83.1166 41.4559 83.1909 41.4128 83.2816 41.4128C83.5775 41.4128 84.2239 40.7335 84.42 40.2165C84.8181 39.1669 84.411 37.587 83.5949 37.0148C82.9101 36.5346 82.9551 36.5364 71.6322 36.5364C59.6399 36.5364 60.2086 36.5048 58.9165 37.2434C58.1146 37.7018 57.1789 38.6752 56.8096 39.4352C56.555 39.9594 56.5172 40.1635 56.5541 40.819C56.6068 41.7593 56.8713 42.1866 57.6353 42.5654L58.1695 42.8303L66.8419 42.9033C75.9239 42.9799 78.2816 43.0807 80.0589 43.4684C85.2864 44.6088 89.3256 47.9239 92.062 53.3201C92.9468 55.065 94.2668 58.4406 94.2668 58.9584C94.2668 59.4332 93.2874 58.0446 92.0084 55.7566C89.8279 51.8558 88.1349 49.724 85.8399 47.9889C84.6425 47.0837 82.7085 46.0031 81.7088 45.6807C79.462 44.9563 80.2719 45.007 69.8265 44.9361C64.5153 44.9001 60.169 44.9153 59.9917 44.9706C59.6011 45.0921 59.4273 45.4949 59.5851 45.9127C59.6482 46.08 60.0361 46.603 60.4469 47.0751C62.2598 49.1579 63.0688 51.0667 63.0688 53.2609C63.0688 55.092 62.5821 56.345 61.4378 57.4602C61.0533 57.8349 60.4456 58.2908 60.0872 58.4734C59.521 58.7619 59.2499 58.8181 58.0143 58.9041C57.2324 58.9585 55.1989 58.9842 53.4954 58.9613C49.8986 58.9129 49.5041 58.8324 48.0417 57.8476C46.6597 56.9168 45.5334 55.4497 44.4355 53.15C42.6642 49.4397 42.0183 46.7317 42.2386 43.9389C42.3656 42.3277 42.6019 41.5532 44.2525 37.3375C45.0477 35.3065 45.9956 32.7941 46.3588 31.7546L47.0193 29.8644L49.5534 29.8237C51.7741 29.7879 52.1398 29.7562 52.51 29.5665C53.3098 29.1566 53.6129 27.951 53.1103 27.1788C52.7543 26.6317 52.3307 26.5119 50.5108 26.4438C48.931 26.3847 48.784 26.36 48.2444 26.0617C47.9271 25.8863 47.3963 25.4663 47.0647 25.1283L46.462 24.5139L47.6194 23.3446L48.7767 22.1753L49.4062 22.495C50.6568 23.1301 52.2799 22.8398 53.1673 21.8222C53.7291 21.178 53.9406 20.5967 53.9435 19.6899C53.9455 19.0538 53.8863 18.7697 53.6549 18.302C53.298 17.5809 52.531 16.8811 51.8359 16.6427C51.2331 16.4358 50.2125 16.4222 49.7171 16.6145ZM39.0944 23.4464C39.3094 23.5584 39.5269 23.8218 39.6798 24.1552C39.8988 24.6335 39.922 24.8701 39.9153 26.557C39.906 28.8421 39.7283 29.5473 39.079 29.8738C38.5941 30.1177 36.6447 30.1583 36.3448 29.9307C35.7173 29.4543 35.5909 25.0008 36.1646 23.5801L36.2907 23.2683H37.5215C38.42 23.2683 38.8447 23.3164 39.0944 23.4464ZM78.161 49.3461C79.1763 49.6031 81.4663 50.6564 81.7875 51.0142C81.8983 51.1375 81.9423 51.2871 81.8917 51.3694C81.8223 51.4825 81.6563 51.4773 81.0809 51.3444C77.8849 50.6057 75.157 50.4496 73.6559 50.9196C73.1913 51.065 72.4817 51.3666 72.0791 51.59C71.1894 52.0834 69.7009 53.5627 69.1601 54.4909C68.3515 55.8785 67.6879 58.2348 67.6869 59.7212L67.6866 60.2821L67.2924 59.8975L66.8982 59.5128V58.4084C66.8982 54.4092 69.2722 50.8109 72.7548 49.5314C74.3206 48.9562 76.3461 48.8867 78.161 49.3461ZM75.9366 62.8072L77.3726 62.881V63.1914C77.3726 63.4188 77.3048 63.5189 77.1192 63.5656C76.9799 63.6008 75.6747 63.6647 74.219 63.7079L71.5723 63.7863L71.3752 63.369C71.2668 63.1394 71.1781 62.9023 71.1781 62.8421C71.1781 62.7153 73.7767 62.6963 75.9366 62.8072ZM86.9196 63.8382C86.8552 65.1008 86.586 65.9906 86.0035 66.8673C84.9626 68.4341 83.4878 69.3257 81.6596 69.4935C79.5359 69.6885 77.303 68.4713 76.3698 66.6097C76.1779 66.2273 76.0211 65.8814 76.0211 65.8413C76.0211 65.801 76.6976 65.7881 77.5245 65.8124L79.028 65.8567L79.6511 66.2887C80.4774 66.8618 81.3718 66.9721 82.1431 66.5962C82.8061 66.273 83.5312 65.5581 83.7996 64.963C84.0561 64.3941 84.0837 63.4309 83.8523 63.1228C83.7613 63.0018 83.6853 62.8644 83.6834 62.8176C83.6814 62.7708 84.4214 62.7326 85.328 62.7326H86.9761L86.9196 63.8382Z" fill="#FF1010"/>
<path fill-rule="evenodd" clip-rule="evenodd" d="M49.7171 16.6145C48.8183 16.9632 48.1495 17.6074 47.792 18.4689C47.5946 18.9446 47.5593 20.2986 47.7356 20.6303C47.8374 20.8218 47.6715 21.0215 46.4358 22.1946L45.0194 23.5392L44.6677 23.3314C42.9384 22.3097 41.5272 21.712 40.0468 21.3744C39.0182 21.1399 35.9487 21.105 35.3378 21.321C34.2127 21.7186 33.7846 23.2411 33.7864 26.8375C33.7876 29.4402 34.0623 30.7734 34.7568 31.5474C35.2817 32.1324 35.8346 32.2678 37.4444 32.2058C38.1576 32.1784 38.7411 32.1729 38.7411 32.1938C38.7411 32.4816 35.253 38.8254 33.8592 41.0726C33.2982 41.9769 32.6899 43.0741 32.5074 43.5107C31.8837 45.002 32.0059 46.3077 32.8903 47.6017C33.2485 48.1259 33.2508 48.1372 32.9865 48.0588C31.2557 47.5449 28.6486 47.5395 26.8062 48.0461C24.9171 48.5653 22.9194 49.7158 21.1107 51.3258C19.7261 52.5584 19.3608 53.4067 19.9676 53.9808C20.2229 54.2222 20.296 54.2273 23.4973 54.2273C25.5521 54.2273 27.4249 54.2908 28.5395 54.3983C30.1704 54.5556 30.4043 54.6077 31.4538 55.0462C32.8597 55.6336 34.3093 56.5791 35.3634 57.5958C35.8029 58.0197 36.9849 59.3607 37.9902 60.5757C39.9601 62.9568 40.5936 63.5357 41.5568 63.8345C41.8975 63.9402 42.3511 64.1766 42.5647 64.3599C42.7784 64.5432 43.1838 64.8006 43.4658 64.9319C43.9766 65.1699 44.0221 65.1708 57.4478 65.2013L70.9173 65.2318L71.1585 66.2155C71.8988 69.2349 74.1179 71.9746 76.9784 73.4008C79.1011 74.4592 78.903 74.4375 86.8897 74.49C90.7303 74.5153 94.0375 74.506 94.2391 74.4692C94.9105 74.3472 95.2595 73.6485 94.945 73.0567C94.7304 72.653 94.2258 72.5986 90.6921 72.5986H87.2636L87.8087 72.1612C90.3915 70.0888 91.7401 67.2064 91.8222 63.5831L91.8453 62.5625L93.3658 62.5313C95.4582 62.4883 96.0114 62.3634 96.5612 61.8099L97 61.3682L96.9402 60.6044C96.9019 60.1151 96.753 59.5353 96.5255 58.9903C96.1638 58.1239 94.7174 54.2065 94.7174 54.0935C94.7174 54.0593 94.9164 53.8926 95.1595 53.7228C95.6828 53.3577 95.9563 52.8361 95.9563 52.2031C95.9563 51.5861 95.4775 50.0962 95.0728 49.4538C94.512 48.5635 93.9341 48.3351 91.7811 48.1525C91.1282 48.0972 91.02 48.0538 90.8612 47.7832C90.5559 47.2626 88.8931 45.54 87.9813 44.7997C86.8803 43.9056 85.3127 42.8636 84.2992 42.3523C83.4907 41.9444 83.1166 41.6776 83.1166 41.5086C83.1166 41.4559 83.1909 41.4128 83.2816 41.4128C83.5775 41.4128 84.2239 40.7335 84.42 40.2165C84.8181 39.1669 84.411 37.587 83.5949 37.0148C82.9101 36.5346 82.9551 36.5364 71.6322 36.5364C59.6399 36.5364 60.2086 36.5048 58.9165 37.2434C58.1146 37.7018 57.1789 38.6752 56.8096 39.4352C56.555 39.9594 56.5172 40.1635 56.5541 40.819C56.6068 41.7593 56.8713 42.1866 57.6353 42.5654L58.1695 42.8303L66.8419 42.9033C75.9239 42.9799 78.2816 43.0807 80.0589 43.4684C85.2864 44.6088 89.3256 47.9239 92.062 53.3201C92.9468 55.065 94.2668 58.4406 94.2668 58.9584C94.2668 59.4332 93.2874 58.0446 92.0084 55.7566C89.8279 51.8558 88.1349 49.724 85.8399 47.9889C84.6425 47.0837 82.7085 46.0031 81.7088 45.6807C79.462 44.9563 80.2719 45.007 69.8265 44.9361C64.5153 44.9001 60.169 44.9153 59.9917 44.9706C59.6011 45.0921 59.4273 45.4949 59.5851 45.9127C59.6482 46.08 60.0361 46.603 60.4469 47.0751C62.2598 49.1579 63.0688 51.0667 63.0688 53.2609C63.0688 55.092 62.5821 56.345 61.4378 57.4602C61.0533 57.8349 60.4456 58.2908 60.0872 58.4734C59.521 58.7619 59.2499 58.8181 58.0143 58.9041C57.2324 58.9585 55.1989 58.9842 53.4954 58.9613C49.8986 58.9129 49.5041 58.8324 48.0417 57.8476C46.6597 56.9168 45.5334 55.4497 44.4355 53.15C42.6642 49.4397 42.0183 46.7317 42.2386 43.9389C42.3656 42.3277 42.6019 41.5532 44.2525 37.3375C45.0477 35.3065 45.9956 32.7941 46.3588 31.7546L47.0193 29.8644L49.5534 29.8237C51.7741 29.7879 52.1398 29.7562 52.51 29.5665C53.3098 29.1566 53.6129 27.951 53.1103 27.1788C52.7543 26.6317 52.3307 26.5119 50.5108 26.4438C48.931 26.3847 48.784 26.36 48.2444 26.0617C47.9271 25.8863 47.3963 25.4663 47.0647 25.1283L46.462 24.5139L47.6194 23.3446L48.7767 22.1753L49.4062 22.495C50.6568 23.1301 52.2799 22.8398 53.1673 21.8222C53.7291 21.178 53.9406 20.5967 53.9435 19.6899C53.9455 19.0538 53.8863 18.7697 53.6549 18.302C53.298 17.5809 52.531 16.8811 51.8359 16.6427C51.2331 16.4358 50.2125 16.4222 49.7171 16.6145ZM39.0944 23.4464C39.3094 23.5584 39.5269 23.8218 39.6798 24.1552C39.8988 24.6335 39.922 24.8701 39.9153 26.557C39.906 28.8421 39.7283 29.5473 39.079 29.8738C38.5941 30.1177 36.6447 30.1583 36.3448 29.9307C35.7173 29.4543 35.5909 25.0008 36.1646 23.5801L36.2907 23.2683H37.5215C38.42 23.2683 38.8447 23.3164 39.0944 23.4464ZM78.161 49.3461C79.1763 49.6031 81.4663 50.6564 81.7875 51.0142C81.8983 51.1375 81.9423 51.2871 81.8917 51.3694C81.8223 51.4825 81.6563 51.4773 81.0809 51.3444C77.8849 50.6057 75.157 50.4496 73.6559 50.9196C73.1913 51.065 72.4817 51.3666 72.0791 51.59C71.1894 52.0834 69.7009 53.5627 69.1601 54.4909C68.3515 55.8785 67.6879 58.2348 67.6869 59.7212L67.6866 60.2821L67.2924 59.8975L66.8982 59.5128V58.4084C66.8982 54.4092 69.2722 50.8109 72.7548 49.5314C74.3206 48.9562 76.3461 48.8867 78.161 49.3461ZM75.9366 62.8072L77.3726 62.881V63.1914C77.3726 63.4188 77.3048 63.5189 77.1192 63.5656C76.9799 63.6008 75.6747 63.6647 74.219 63.7079L71.5723 63.7863L71.3752 63.369C71.2668 63.1394 71.1781 62.9023 71.1781 62.8421C71.1781 62.7153 73.7767 62.6963 75.9366 62.8072ZM86.9196 63.8382C86.8552 65.1008 86.586 65.9906 86.0035 66.8673C84.9626 68.4341 83.4878 69.3257 81.6596 69.4935C79.5359 69.6885 77.303 68.4713 76.3698 66.6097C76.1779 66.2273 76.0211 65.8814 76.0211 65.8413C76.0211 65.801 76.6976 65.7881 77.5245 65.8124L79.028 65.8567L79.6511 66.2887C80.4774 66.8618 81.3718 66.9721 82.1431 66.5962C82.8061 66.273 83.5312 65.5581 83.7996 64.963C84.0561 64.3941 84.0837 63.4309 83.8523 63.1228C83.7613 63.0018 83.6853 62.8644 83.6834 62.8176C83.6814 62.7708 84.4214 62.7326 85.328 62.7326H86.9761L86.9196 63.8382Z" fill="url(#paint1_radial_211_1453)" style="mix-blend-mode:plus-lighter"/>
</g>
<g id="Rectangle 103" filter="url(#filter1_dii_211_1453)">
<rect x="55.8289" y="36.0342" width="31.113" height="6.93736" rx="3.46868" fill="#FF1010"/>
<rect x="55.8289" y="36.0342" width="31.113" height="6.93736" rx="3.46868" fill="url(#paint2_radial_211_1453)" style="mix-blend-mode:plus-lighter"/>
</g>
</g>
<defs>
<filter id="filter0_dii_211_1453" x="0.422136" y="17.1442" width="62.373" height="87.5957" filterUnits="userSpaceOnUse" color-interpolation-filters="sRGB">
<feFlood flood-opacity="0" result="BackgroundImageFix"/>
<feColorMatrix in="SourceAlpha" type="matrix" values="0 0 0 0 0 0 0 0 0 0 0 0 0 0 0 0 0 0 127 0" result="hardAlpha"/>
<feOffset dy="12.1315"/>
<feGaussianBlur stdDeviation="9.09862"/>
<feComposite in2="hardAlpha" operator="out"/>
<feColorMatrix type="matrix" values="0 0 0 0 1 0 0 0 0 0.0627451 0 0 0 0 0.0627451 0 0 0 0.6 0"/>
<feBlend mode="normal" in2="BackgroundImageFix" result="effect1_dropShadow_211_1453"/>
<feBlend mode="normal" in="SourceGraphic" in2="effect1_dropShadow_211_1453" result="shape"/>
<feColorMatrix in="SourceAlpha" type="matrix" values="0 0 0 0 0 0 0 0 0 0 0 0 0 0 0 0 0 0 127 0" result="hardAlpha"/>
<feOffset dy="12.1315"/>
<feGaussianBlur stdDeviation="7.58219"/>
<feComposite in2="hardAlpha" operator="arithmetic" k2="-1" k3="1"/>
<feColorMatrix type="matrix" values="0 0 0 0 1 0 0 0 0 0.0627451 0 0 0 0 0.0627451 0 0 0 0.6 0"/>
<feBlend mode="normal" in2="shape" result="effect2_innerShadow_211_1453"/>
<feColorMatrix in="SourceAlpha" type="matrix" values="0 0 0 0 0 0 0 0 0 0 0 0 0 0 0 0 0 0 127 0" result="hardAlpha"/>
<feOffset/>
<feGaussianBlur stdDeviation="3.03288"/>
<feComposite in2="hardAlpha" operator="arithmetic" k2="-1" k3="1"/>
<feColorMatrix type="matrix" values="0 0 0 0 1 0 0 0 0 1 0 0 0 0 1 0 0 0 0.5 0"/>
<feBlend mode="normal" in2="effect2_innerShadow_211_1453" result="effect3_innerShadow_211_1453"/>
</filter>
<filter id="filter1_dii_211_1453" x="37.6316" y="29.9684" width="67.5075" height="43.332" filterUnits="userSpaceOnUse" color-interpolation-filters="sRGB">
<feFlood flood-opacity="0" result="BackgroundImageFix"/>
<feColorMatrix in="SourceAlpha" type="matrix" values="0 0 0 0 0 0 0 0 0 0 0 0 0 0 0 0 0 0 127 0" result="hardAlpha"/>
<feOffset dy="12.1315"/>
<feGaussianBlur stdDeviation="9.09862"/>
<feComposite in2="hardAlpha" operator="out"/>
<feColorMatrix type="matrix" values="0 0 0 0 1 0 0 0 0 0.0627451 0 0 0 0 0.0627451 0 0 0 0.6 0"/>
<feBlend mode="normal" in2="BackgroundImageFix" result="effect1_dropShadow_211_1453"/>
<feBlend mode="normal" in="SourceGraphic" in2="effect1_dropShadow_211_1453" result="shape"/>
<feColorMatrix in="SourceAlpha" type="matrix" values="0 0 0 0 0 0 0 0 0 0 0 0 0 0 0 0 0 0 127 0" result="hardAlpha"/>
<feOffset dy="12.1315"/>
<feGaussianBlur stdDeviation="7.58219"/>
<feComposite in2="hardAlpha" operator="arithmetic" k2="-1" k3="1"/>
<feColorMatrix type="matrix" values="0 0 0 0 1 0 0 0 0 0.0627451 0 0 0 0 0.0627451 0 0 0 0.6 0"/>
<feBlend mode="normal" in2="shape" result="effect2_innerShadow_211_1453"/>
<feColorMatrix in="SourceAlpha" type="matrix" values="0 0 0 0 0 0 0 0 0 0 0 0 0 0 0 0 0 0 127 0" result="hardAlpha"/>
<feOffset/>
<feGaussianBlur stdDeviation="3.03288"/>
<feComposite in2="hardAlpha" operator="arithmetic" k2="-1" k3="1"/>
<feColorMatrix type="matrix" values="0 0 0 0 1 0 0 0 0 1 0 0 0 0 1 0 0 0 0.5 0"/>
<feBlend mode="normal" in2="effect2_innerShadow_211_1453" result="effect3_innerShadow_211_1453"/>
</filter>
<radialGradient id="paint0_radial_211_1453" cx="0" cy="0" r="1" gradientUnits="userSpaceOnUse" gradientTransform="translate(27.0225 29.0804) rotate(84.2231) scale(45.5625 45.4306)">
<stop stop-color="white" stop-opacity="0.7"/>
<stop offset="1" stop-color="#FF1010" stop-opacity="0"/>
</radialGradient>
<radialGradient id="paint1_radial_211_1453" cx="0" cy="0" r="1" gradientUnits="userSpaceOnUse" gradientTransform="translate(44.6936 23.1314) rotate(75.1212) scale(53.1551 131.341)">
<stop stop-color="white" stop-opacity="0.7"/>
<stop offset="1" stop-color="#FF1010" stop-opacity="0"/>
</radialGradient>
<radialGradient id="paint2_radial_211_1453" cx="0" cy="0" r="1" gradientUnits="userSpaceOnUse" gradientTransform="translate(65.8928 36.8296) rotate(48.1947) scale(8.23966 40.765)">
<stop stop-color="white" stop-opacity="0.7"/>
<stop offset="1" stop-color="#FF1010" stop-opacity="0"/>
</radialGradient>
</defs>
</svg>
