<svg width="42" height="40" viewBox="0 0 42 40" fill="none" xmlns="http://www.w3.org/2000/svg">
<g id="vuesax/bulk/battery-full">
<g id="battery-full">
<g id="Vector" opacity="0.2">
<path d="M21.55 7.9834H12.25C5.41671 7.9834 3.33337 10.0667 3.33337 16.9001V23.1001C3.33337 29.9334 5.41671 32.0167 12.25 32.0167H21.55C28.3834 32.0167 30.4667 29.9334 30.4667 23.1001V16.9001C30.4667 10.0667 28.3834 7.9834 21.55 7.9834Z" fill="#FFA310"/>
<path d="M21.55 7.9834H12.25C5.41671 7.9834 3.33337 10.0667 3.33337 16.9001V23.1001C3.33337 29.9334 5.41671 32.0167 12.25 32.0167H21.55C28.3834 32.0167 30.4667 29.9334 30.4667 23.1001V16.9001C30.4667 10.0667 28.3834 7.9834 21.55 7.9834Z" fill="url(#paint0_radial_207_749)" style="mix-blend-mode:plus-lighter"/>
</g>
<g id="Vector_2" filter="url(#filter0_dii_207_749)">
<path d="M34.0332 15.0011C33.7999 14.9844 33.4999 14.9678 33.1665 14.9678C32.5165 14.9678 31.9999 15.4844 31.9999 16.1344V23.8844C31.9999 24.5344 32.5165 25.0511 33.1665 25.0511C33.4999 25.0511 33.7832 25.0344 34.0665 25.0178C36.6665 24.7178 36.6665 22.8844 36.6665 21.5511V18.4511C36.6665 17.1178 36.6665 15.2844 34.0332 15.0011Z" fill="#FFA310"/>
<path d="M34.0332 15.0011C33.7999 14.9844 33.4999 14.9678 33.1665 14.9678C32.5165 14.9678 31.9999 15.4844 31.9999 16.1344V23.8844C31.9999 24.5344 32.5165 25.0511 33.1665 25.0511C33.4999 25.0511 33.7832 25.0344 34.0665 25.0178C36.6665 24.7178 36.6665 22.8844 36.6665 21.5511V18.4511C36.6665 17.1178 36.6665 15.2844 34.0332 15.0011Z" fill="url(#paint1_radial_207_749)" style="mix-blend-mode:plus-lighter"/>
</g>
<g id="Vector_3" filter="url(#filter1_dii_207_749)">
<path d="M10.6333 24.5832C10.5333 24.5832 10.4333 24.5665 10.3333 24.5498C9.66663 24.3832 9.24996 23.6998 9.41663 23.0332C9.91663 21.0498 9.91663 18.9498 9.41663 16.9665C9.24996 16.2998 9.64996 15.6165 10.3333 15.4498C11 15.2832 11.6666 15.6998 11.8333 16.3665C12.4333 18.7498 12.4333 21.2665 11.8333 23.6332C11.7 24.1998 11.1833 24.5832 10.6333 24.5832Z" fill="#FFA310"/>
<path d="M10.6333 24.5832C10.5333 24.5832 10.4333 24.5665 10.3333 24.5498C9.66663 24.3832 9.24996 23.6998 9.41663 23.0332C9.91663 21.0498 9.91663 18.9498 9.41663 16.9665C9.24996 16.2998 9.64996 15.6165 10.3333 15.4498C11 15.2832 11.6666 15.6998 11.8333 16.3665C12.4333 18.7498 12.4333 21.2665 11.8333 23.6332C11.7 24.1998 11.1833 24.5832 10.6333 24.5832Z" fill="url(#paint2_radial_207_749)" style="mix-blend-mode:plus-lighter"/>
</g>
<g id="Vector_4" filter="url(#filter2_dii_207_749)">
<path d="M16.4665 24.5832C16.3665 24.5832 16.2665 24.5665 16.1665 24.5498C15.4999 24.3832 15.0832 23.6998 15.2499 23.0332C15.7499 21.0498 15.7499 18.9498 15.2499 16.9665C15.0832 16.2998 15.4832 15.6165 16.1665 15.4498C16.8332 15.2832 17.5165 15.6832 17.6832 16.3665C18.2832 18.7498 18.2832 21.2665 17.6832 23.6332C17.5332 24.1998 17.0165 24.5832 16.4665 24.5832Z" fill="#FFA310"/>
<path d="M16.4665 24.5832C16.3665 24.5832 16.2665 24.5665 16.1665 24.5498C15.4999 24.3832 15.0832 23.6998 15.2499 23.0332C15.7499 21.0498 15.7499 18.9498 15.2499 16.9665C15.0832 16.2998 15.4832 15.6165 16.1665 15.4498C16.8332 15.2832 17.5165 15.6832 17.6832 16.3665C18.2832 18.7498 18.2832 21.2665 17.6832 23.6332C17.5332 24.1998 17.0165 24.5832 16.4665 24.5832Z" fill="url(#paint3_radial_207_749)" style="mix-blend-mode:plus-lighter"/>
</g>
<g id="Vector_5" filter="url(#filter3_dii_207_749)">
<path d="M22.2999 24.5832C22.1999 24.5832 22.0999 24.5665 21.9999 24.5498C21.3333 24.3832 20.9166 23.6998 21.0833 23.0332C21.5833 21.0498 21.5833 18.9498 21.0833 16.9665C20.9166 16.2998 21.3166 15.6165 21.9999 15.4498C22.6666 15.2832 23.3499 15.6832 23.5166 16.3665C24.1166 18.7498 24.1166 21.2665 23.5166 23.6332C23.3666 24.1998 22.8499 24.5832 22.2999 24.5832Z" fill="#FFA310"/>
<path d="M22.2999 24.5832C22.1999 24.5832 22.0999 24.5665 21.9999 24.5498C21.3333 24.3832 20.9166 23.6998 21.0833 23.0332C21.5833 21.0498 21.5833 18.9498 21.0833 16.9665C20.9166 16.2998 21.3166 15.6165 21.9999 15.4498C22.6666 15.2832 23.3499 15.6832 23.5166 16.3665C24.1166 18.7498 24.1166 21.2665 23.5166 23.6332C23.3666 24.1998 22.8499 24.5832 22.2999 24.5832Z" fill="url(#paint4_radial_207_749)" style="mix-blend-mode:plus-lighter"/>
</g>
</g>
</g>
<defs>
<filter id="filter0_dii_207_749" x="27.1999" y="13.3678" width="14.2666" height="19.683" filterUnits="userSpaceOnUse" color-interpolation-filters="sRGB">
<feFlood flood-opacity="0" result="BackgroundImageFix"/>
<feColorMatrix in="SourceAlpha" type="matrix" values="0 0 0 0 0 0 0 0 0 0 0 0 0 0 0 0 0 0 127 0" result="hardAlpha"/>
<feOffset dy="3.2"/>
<feGaussianBlur stdDeviation="2.4"/>
<feComposite in2="hardAlpha" operator="out"/>
<feColorMatrix type="matrix" values="0 0 0 0 1 0 0 0 0 0.639216 0 0 0 0 0.0627451 0 0 0 0.6 0"/>
<feBlend mode="normal" in2="BackgroundImageFix" result="effect1_dropShadow_207_749"/>
<feBlend mode="normal" in="SourceGraphic" in2="effect1_dropShadow_207_749" result="shape"/>
<feColorMatrix in="SourceAlpha" type="matrix" values="0 0 0 0 0 0 0 0 0 0 0 0 0 0 0 0 0 0 127 0" result="hardAlpha"/>
<feOffset dy="3.2"/>
<feGaussianBlur stdDeviation="2"/>
<feComposite in2="hardAlpha" operator="arithmetic" k2="-1" k3="1"/>
<feColorMatrix type="matrix" values="0 0 0 0 1 0 0 0 0 0.639216 0 0 0 0 0.0627451 0 0 0 0.6 0"/>
<feBlend mode="normal" in2="shape" result="effect2_innerShadow_207_749"/>
<feColorMatrix in="SourceAlpha" type="matrix" values="0 0 0 0 0 0 0 0 0 0 0 0 0 0 0 0 0 0 127 0" result="hardAlpha"/>
<feOffset/>
<feGaussianBlur stdDeviation="0.8"/>
<feComposite in2="hardAlpha" operator="arithmetic" k2="-1" k3="1"/>
<feColorMatrix type="matrix" values="0 0 0 0 1 0 0 0 0 1 0 0 0 0 1 0 0 0 0.5 0"/>
<feBlend mode="normal" in2="effect2_innerShadow_207_749" result="effect3_innerShadow_207_749"/>
</filter>
<filter id="filter1_dii_207_749" x="4.57891" y="13.8131" width="12.5044" height="18.7699" filterUnits="userSpaceOnUse" color-interpolation-filters="sRGB">
<feFlood flood-opacity="0" result="BackgroundImageFix"/>
<feColorMatrix in="SourceAlpha" type="matrix" values="0 0 0 0 0 0 0 0 0 0 0 0 0 0 0 0 0 0 127 0" result="hardAlpha"/>
<feOffset dy="3.2"/>
<feGaussianBlur stdDeviation="2.4"/>
<feComposite in2="hardAlpha" operator="out"/>
<feColorMatrix type="matrix" values="0 0 0 0 1 0 0 0 0 0.639216 0 0 0 0 0.0627451 0 0 0 0.6 0"/>
<feBlend mode="normal" in2="BackgroundImageFix" result="effect1_dropShadow_207_749"/>
<feBlend mode="normal" in="SourceGraphic" in2="effect1_dropShadow_207_749" result="shape"/>
<feColorMatrix in="SourceAlpha" type="matrix" values="0 0 0 0 0 0 0 0 0 0 0 0 0 0 0 0 0 0 127 0" result="hardAlpha"/>
<feOffset dy="3.2"/>
<feGaussianBlur stdDeviation="2"/>
<feComposite in2="hardAlpha" operator="arithmetic" k2="-1" k3="1"/>
<feColorMatrix type="matrix" values="0 0 0 0 1 0 0 0 0 0.639216 0 0 0 0 0.0627451 0 0 0 0.6 0"/>
<feBlend mode="normal" in2="shape" result="effect2_innerShadow_207_749"/>
<feColorMatrix in="SourceAlpha" type="matrix" values="0 0 0 0 0 0 0 0 0 0 0 0 0 0 0 0 0 0 127 0" result="hardAlpha"/>
<feOffset/>
<feGaussianBlur stdDeviation="0.8"/>
<feComposite in2="hardAlpha" operator="arithmetic" k2="-1" k3="1"/>
<feColorMatrix type="matrix" values="0 0 0 0 1 0 0 0 0 1 0 0 0 0 1 0 0 0 0.5 0"/>
<feBlend mode="normal" in2="effect2_innerShadow_207_749" result="effect3_innerShadow_207_749"/>
</filter>
<filter id="filter2_dii_207_749" x="10.4122" y="13.8121" width="12.521" height="18.7709" filterUnits="userSpaceOnUse" color-interpolation-filters="sRGB">
<feFlood flood-opacity="0" result="BackgroundImageFix"/>
<feColorMatrix in="SourceAlpha" type="matrix" values="0 0 0 0 0 0 0 0 0 0 0 0 0 0 0 0 0 0 127 0" result="hardAlpha"/>
<feOffset dy="3.2"/>
<feGaussianBlur stdDeviation="2.4"/>
<feComposite in2="hardAlpha" operator="out"/>
<feColorMatrix type="matrix" values="0 0 0 0 1 0 0 0 0 0.639216 0 0 0 0 0.0627451 0 0 0 0.6 0"/>
<feBlend mode="normal" in2="BackgroundImageFix" result="effect1_dropShadow_207_749"/>
<feBlend mode="normal" in="SourceGraphic" in2="effect1_dropShadow_207_749" result="shape"/>
<feColorMatrix in="SourceAlpha" type="matrix" values="0 0 0 0 0 0 0 0 0 0 0 0 0 0 0 0 0 0 127 0" result="hardAlpha"/>
<feOffset dy="3.2"/>
<feGaussianBlur stdDeviation="2"/>
<feComposite in2="hardAlpha" operator="arithmetic" k2="-1" k3="1"/>
<feColorMatrix type="matrix" values="0 0 0 0 1 0 0 0 0 0.639216 0 0 0 0 0.0627451 0 0 0 0.6 0"/>
<feBlend mode="normal" in2="shape" result="effect2_innerShadow_207_749"/>
<feColorMatrix in="SourceAlpha" type="matrix" values="0 0 0 0 0 0 0 0 0 0 0 0 0 0 0 0 0 0 127 0" result="hardAlpha"/>
<feOffset/>
<feGaussianBlur stdDeviation="0.8"/>
<feComposite in2="hardAlpha" operator="arithmetic" k2="-1" k3="1"/>
<feColorMatrix type="matrix" values="0 0 0 0 1 0 0 0 0 1 0 0 0 0 1 0 0 0 0.5 0"/>
<feBlend mode="normal" in2="effect2_innerShadow_207_749" result="effect3_innerShadow_207_749"/>
</filter>
<filter id="filter3_dii_207_749" x="16.2455" y="13.8121" width="12.521" height="18.7709" filterUnits="userSpaceOnUse" color-interpolation-filters="sRGB">
<feFlood flood-opacity="0" result="BackgroundImageFix"/>
<feColorMatrix in="SourceAlpha" type="matrix" values="0 0 0 0 0 0 0 0 0 0 0 0 0 0 0 0 0 0 127 0" result="hardAlpha"/>
<feOffset dy="3.2"/>
<feGaussianBlur stdDeviation="2.4"/>
<feComposite in2="hardAlpha" operator="out"/>
<feColorMatrix type="matrix" values="0 0 0 0 1 0 0 0 0 0.639216 0 0 0 0 0.0627451 0 0 0 0.6 0"/>
<feBlend mode="normal" in2="BackgroundImageFix" result="effect1_dropShadow_207_749"/>
<feBlend mode="normal" in="SourceGraphic" in2="effect1_dropShadow_207_749" result="shape"/>
<feColorMatrix in="SourceAlpha" type="matrix" values="0 0 0 0 0 0 0 0 0 0 0 0 0 0 0 0 0 0 127 0" result="hardAlpha"/>
<feOffset dy="3.2"/>
<feGaussianBlur stdDeviation="2"/>
<feComposite in2="hardAlpha" operator="arithmetic" k2="-1" k3="1"/>
<feColorMatrix type="matrix" values="0 0 0 0 1 0 0 0 0 0.639216 0 0 0 0 0.0627451 0 0 0 0.6 0"/>
<feBlend mode="normal" in2="shape" result="effect2_innerShadow_207_749"/>
<feColorMatrix in="SourceAlpha" type="matrix" values="0 0 0 0 0 0 0 0 0 0 0 0 0 0 0 0 0 0 127 0" result="hardAlpha"/>
<feOffset/>
<feGaussianBlur stdDeviation="0.8"/>
<feComposite in2="hardAlpha" operator="arithmetic" k2="-1" k3="1"/>
<feColorMatrix type="matrix" values="0 0 0 0 1 0 0 0 0 1 0 0 0 0 1 0 0 0 0.5 0"/>
<feBlend mode="normal" in2="effect2_innerShadow_207_749" result="effect3_innerShadow_207_749"/>
</filter>
<radialGradient id="paint0_radial_207_749" cx="0" cy="0" r="1" gradientUnits="userSpaceOnUse" gradientTransform="translate(12.11 10.7389) rotate(77.3132) scale(21.8103 46.5281)">
<stop stop-color="white" stop-opacity="0.3"/>
<stop offset="1" stop-color="#FFA310" stop-opacity="0"/>
</radialGradient>
<radialGradient id="paint1_radial_207_749" cx="0" cy="0" r="1" gradientUnits="userSpaceOnUse" gradientTransform="translate(33.5094 16.1239) rotate(84.7275) scale(8.96518 8.16794)">
<stop stop-color="white" stop-opacity="0.3"/>
<stop offset="1" stop-color="#FFA310" stop-opacity="0"/>
</radialGradient>
<radialGradient id="paint2_radial_207_749" cx="0" cy="0" r="1" gradientUnits="userSpaceOnUse" gradientTransform="translate(10.3184 16.4645) rotate(86.3863) scale(8.13487 5.09492)">
<stop stop-color="white" stop-opacity="0.3"/>
<stop offset="1" stop-color="#FFA310" stop-opacity="0"/>
</radialGradient>
<radialGradient id="paint3_radial_207_749" cx="0" cy="0" r="1" gradientUnits="userSpaceOnUse" gradientTransform="translate(16.157 16.4636) rotate(86.366) scale(8.13592 5.12404)">
<stop stop-color="white" stop-opacity="0.3"/>
<stop offset="1" stop-color="#FFA310" stop-opacity="0"/>
</radialGradient>
<radialGradient id="paint4_radial_207_749" cx="0" cy="0" r="1" gradientUnits="userSpaceOnUse" gradientTransform="translate(21.9904 16.4636) rotate(86.366) scale(8.13592 5.12404)">
<stop stop-color="white" stop-opacity="0.3"/>
<stop offset="1" stop-color="#FFA310" stop-opacity="0"/>
</radialGradient>
</defs>
</svg>
