<svg width="46" height="46" viewBox="0 0 46 46" fill="none" xmlns="http://www.w3.org/2000/svg">
<g id="vuesax/bulk/medal-star">
<g id="medal-star">
<g id="Vector" opacity="0.2">
<path d="M34.6667 14.9997C34.6667 17.4163 33.95 19.633 32.7167 21.483C30.9167 24.1497 28.0667 26.033 24.75 26.5163C24.1834 26.6163 23.6 26.6663 23 26.6663C22.4 26.6663 21.8167 26.6163 21.25 26.5163C17.9334 26.033 15.0834 24.1497 13.2834 21.483C12.05 19.633 11.3334 17.4163 11.3334 14.9997C11.3334 8.54967 16.55 3.33301 23 3.33301C29.45 3.33301 34.6667 8.54967 34.6667 14.9997Z" fill="#3E95FF"/>
<path d="M34.6667 14.9997C34.6667 17.4163 33.95 19.633 32.7167 21.483C30.9167 24.1497 28.0667 26.033 24.75 26.5163C24.1834 26.6163 23.6 26.6663 23 26.6663C22.4 26.6663 21.8167 26.6163 21.25 26.5163C17.9334 26.033 15.0834 24.1497 13.2834 21.483C12.05 19.633 11.3334 17.4163 11.3334 14.9997C11.3334 8.54967 16.55 3.33301 23 3.33301C29.45 3.33301 34.6667 8.54967 34.6667 14.9997Z" fill="url(#paint0_radial_207_741)" style="mix-blend-mode:plus-lighter"/>
</g>
<g id="Vector_2" filter="url(#filter0_dii_207_741)">
<path d="M38.4166 30.7843L35.6666 31.4343C35.0499 31.5843 34.5666 32.051 34.4333 32.6677L33.8499 35.1177C33.5333 36.451 31.8333 36.851 30.9499 35.801L22.9999 26.6677L15.0499 35.8176C14.1666 36.8676 12.4666 36.4676 12.1499 35.1343L11.5666 32.6843C11.4166 32.0676 10.9333 31.5843 10.3333 31.451L7.58326 30.801C6.31659 30.501 5.86659 28.9176 6.78326 28.001L13.2833 21.501C15.0833 24.1676 17.9333 26.051 21.2499 26.5343C21.8166 26.6343 22.3999 26.6843 22.9999 26.6843C23.5999 26.6843 24.1833 26.6343 24.7499 26.5343C28.0666 26.051 30.9166 24.1676 32.7166 21.501L39.2166 28.001C40.1333 28.901 39.6833 30.4843 38.4166 30.7843Z" fill="#3E95FF"/>
<path d="M38.4166 30.7843L35.6666 31.4343C35.0499 31.5843 34.5666 32.051 34.4333 32.6677L33.8499 35.1177C33.5333 36.451 31.8333 36.851 30.9499 35.801L22.9999 26.6677L15.0499 35.8176C14.1666 36.8676 12.4666 36.4676 12.1499 35.1343L11.5666 32.6843C11.4166 32.0676 10.9333 31.5843 10.3333 31.451L7.58326 30.801C6.31659 30.501 5.86659 28.9176 6.78326 28.001L13.2833 21.501C15.0833 24.1676 17.9333 26.051 21.2499 26.5343C21.8166 26.6343 22.3999 26.6843 22.9999 26.6843C23.5999 26.6843 24.1833 26.6343 24.7499 26.5343C28.0666 26.051 30.9166 24.1676 32.7166 21.501L39.2166 28.001C40.1333 28.901 39.6833 30.4843 38.4166 30.7843Z" fill="url(#paint1_radial_207_741)" style="mix-blend-mode:plus-lighter"/>
</g>
<g id="Vector_3" filter="url(#filter1_dii_207_741)">
<path d="M23.9667 9.96699L24.95 11.9336C25.0833 12.2003 25.4333 12.467 25.75 12.517L27.5333 12.817C28.6667 13.0003 28.9333 13.8337 28.1167 14.6503L26.7333 16.0336C26.5 16.267 26.3667 16.717 26.45 17.0503L26.85 18.767C27.1667 20.117 26.45 20.6503 25.25 19.9336L23.5833 18.9503C23.2833 18.767 22.7833 18.767 22.4833 18.9503L20.8167 19.9336C19.6167 20.6336 18.9 20.117 19.2167 18.767L19.6167 17.0503C19.6833 16.7337 19.5667 16.267 19.3333 16.0336L17.95 14.6503C17.1333 13.8337 17.4 13.017 18.5333 12.817L20.3167 12.517C20.6167 12.467 20.9667 12.2003 21.1 11.9336L22.0833 9.96699C22.5667 8.90033 23.4333 8.90033 23.9667 9.96699Z" fill="#3E95FF"/>
<path d="M23.9667 9.96699L24.95 11.9336C25.0833 12.2003 25.4333 12.467 25.75 12.517L27.5333 12.817C28.6667 13.0003 28.9333 13.8337 28.1167 14.6503L26.7333 16.0336C26.5 16.267 26.3667 16.717 26.45 17.0503L26.85 18.767C27.1667 20.117 26.45 20.6503 25.25 19.9336L23.5833 18.9503C23.2833 18.767 22.7833 18.767 22.4833 18.9503L20.8167 19.9336C19.6167 20.6336 18.9 20.117 19.2167 18.767L19.6167 17.0503C19.6833 16.7337 19.5667 16.267 19.3333 16.0336L17.95 14.6503C17.1333 13.8337 17.4 13.017 18.5333 12.817L20.3167 12.517C20.6167 12.467 20.9667 12.2003 21.1 11.9336L22.0833 9.96699C22.5667 8.90033 23.4333 8.90033 23.9667 9.96699Z" fill="url(#paint2_radial_207_741)" style="mix-blend-mode:plus-lighter"/>
</g>
</g>
</g>
<defs>
<filter id="filter0_dii_207_741" x="0.844406" y="19.6828" width="44.3111" height="25.8232" filterUnits="userSpaceOnUse" color-interpolation-filters="sRGB">
<feFlood flood-opacity="0" result="BackgroundImageFix"/>
<feColorMatrix in="SourceAlpha" type="matrix" values="0 0 0 0 0 0 0 0 0 0 0 0 0 0 0 0 0 0 127 0" result="hardAlpha"/>
<feOffset dy="3.63636"/>
<feGaussianBlur stdDeviation="2.72727"/>
<feComposite in2="hardAlpha" operator="out"/>
<feColorMatrix type="matrix" values="0 0 0 0 0.243137 0 0 0 0 0.584314 0 0 0 0 1 0 0 0 0.6 0"/>
<feBlend mode="normal" in2="BackgroundImageFix" result="effect1_dropShadow_207_741"/>
<feBlend mode="normal" in="SourceGraphic" in2="effect1_dropShadow_207_741" result="shape"/>
<feColorMatrix in="SourceAlpha" type="matrix" values="0 0 0 0 0 0 0 0 0 0 0 0 0 0 0 0 0 0 127 0" result="hardAlpha"/>
<feOffset dy="3.63636"/>
<feGaussianBlur stdDeviation="2.27273"/>
<feComposite in2="hardAlpha" operator="arithmetic" k2="-1" k3="1"/>
<feColorMatrix type="matrix" values="0 0 0 0 0.243137 0 0 0 0 0.584314 0 0 0 0 1 0 0 0 0.6 0"/>
<feBlend mode="normal" in2="shape" result="effect2_innerShadow_207_741"/>
<feColorMatrix in="SourceAlpha" type="matrix" values="0 0 0 0 0 0 0 0 0 0 0 0 0 0 0 0 0 0 127 0" result="hardAlpha"/>
<feOffset/>
<feGaussianBlur stdDeviation="0.909091"/>
<feComposite in2="hardAlpha" operator="arithmetic" k2="-1" k3="1"/>
<feColorMatrix type="matrix" values="0 0 0 0 1 0 0 0 0 1 0 0 0 0 1 0 0 0 0.5 0"/>
<feBlend mode="normal" in2="effect2_innerShadow_207_741" result="effect3_innerShadow_207_741"/>
</filter>
<filter id="filter1_dii_207_741" x="12.0214" y="7.34881" width="22.0238" height="21.995" filterUnits="userSpaceOnUse" color-interpolation-filters="sRGB">
<feFlood flood-opacity="0" result="BackgroundImageFix"/>
<feColorMatrix in="SourceAlpha" type="matrix" values="0 0 0 0 0 0 0 0 0 0 0 0 0 0 0 0 0 0 127 0" result="hardAlpha"/>
<feOffset dy="3.63636"/>
<feGaussianBlur stdDeviation="2.72727"/>
<feComposite in2="hardAlpha" operator="out"/>
<feColorMatrix type="matrix" values="0 0 0 0 0.243137 0 0 0 0 0.584314 0 0 0 0 1 0 0 0 0.6 0"/>
<feBlend mode="normal" in2="BackgroundImageFix" result="effect1_dropShadow_207_741"/>
<feBlend mode="normal" in="SourceGraphic" in2="effect1_dropShadow_207_741" result="shape"/>
<feColorMatrix in="SourceAlpha" type="matrix" values="0 0 0 0 0 0 0 0 0 0 0 0 0 0 0 0 0 0 127 0" result="hardAlpha"/>
<feOffset dy="3.63636"/>
<feGaussianBlur stdDeviation="2.27273"/>
<feComposite in2="hardAlpha" operator="arithmetic" k2="-1" k3="1"/>
<feColorMatrix type="matrix" values="0 0 0 0 0.243137 0 0 0 0 0.584314 0 0 0 0 1 0 0 0 0.6 0"/>
<feBlend mode="normal" in2="shape" result="effect2_innerShadow_207_741"/>
<feColorMatrix in="SourceAlpha" type="matrix" values="0 0 0 0 0 0 0 0 0 0 0 0 0 0 0 0 0 0 127 0" result="hardAlpha"/>
<feOffset/>
<feGaussianBlur stdDeviation="0.909091"/>
<feComposite in2="hardAlpha" operator="arithmetic" k2="-1" k3="1"/>
<feColorMatrix type="matrix" values="0 0 0 0 1 0 0 0 0 1 0 0 0 0 1 0 0 0 0.5 0"/>
<feBlend mode="normal" in2="effect2_innerShadow_207_741" result="effect3_innerShadow_207_741"/>
</filter>
<radialGradient id="paint0_radial_207_741" cx="0" cy="0" r="1" gradientUnits="userSpaceOnUse" gradientTransform="translate(18.8809 6.00826) rotate(78.7233) scale(21.0648 40.2214)">
<stop stop-color="white" stop-opacity="0.4"/>
<stop offset="1" stop-color="#3E95FF" stop-opacity="0"/>
</radialGradient>
<radialGradient id="paint1_radial_207_741" cx="0" cy="0" r="1" gradientUnits="userSpaceOnUse" gradientTransform="translate(17.1033 23.2109) rotate(65.9357) scale(14.461 53.6083)">
<stop stop-color="white" stop-opacity="0.4"/>
<stop offset="1" stop-color="#3E95FF" stop-opacity="0"/>
</radialGradient>
<radialGradient id="paint2_radial_207_741" cx="0" cy="0" r="1" gradientUnits="userSpaceOnUse" gradientTransform="translate(21.0712 10.438) rotate(78.6946) scale(10.009 19.1574)">
<stop stop-color="white" stop-opacity="0.4"/>
<stop offset="1" stop-color="#3E95FF" stop-opacity="0"/>
</radialGradient>
</defs>
</svg>
