<svg width="50" height="50" viewBox="0 0 50 50" fill="none" xmlns="http://www.w3.org/2000/svg">
<g id="vuesax/bulk/shield-tick">
<g id="shield-tick">
<g id="Vector" opacity="0.2">
<path d="M22.8816 4.75193L11.6779 8.94822C9.53896 9.76304 7.78711 12.289 7.78711 14.5908V31.0908C7.78711 32.7408 8.86674 34.9204 10.1908 35.8982L21.3945 44.2704C23.3704 45.7575 26.6093 45.7575 28.5853 44.2704L39.789 35.8982C41.113 34.9001 42.1927 32.7408 42.1927 31.0908V14.5908C42.1927 12.3093 40.4408 9.76304 38.3019 8.96859L27.0982 4.7723C25.9575 4.32415 24.0427 4.32415 22.8816 4.75193Z" fill="#02D946"/>
<path d="M22.8816 4.75193L11.6779 8.94822C9.53896 9.76304 7.78711 12.289 7.78711 14.5908V31.0908C7.78711 32.7408 8.86674 34.9204 10.1908 35.8982L21.3945 44.2704C23.3704 45.7575 26.6093 45.7575 28.5853 44.2704L39.789 35.8982C41.113 34.9001 42.1927 32.7408 42.1927 31.0908V14.5908C42.1927 12.3093 40.4408 9.76304 38.3019 8.96859L27.0982 4.7723C25.9575 4.32415 24.0427 4.32415 22.8816 4.75193Z" fill="url(#paint0_radial_205_673)" style="mix-blend-mode:plus-lighter"/>
</g>
<g id="Vector_2" filter="url(#filter0_dii_205_673)">
<path d="M22.2703 29.5421C21.8833 29.5421 21.4963 29.3996 21.1907 29.094L17.9111 25.8144C17.3203 25.2236 17.3203 24.2458 17.9111 23.6551C18.5018 23.0644 19.4796 23.0644 20.0703 23.6551L22.2703 25.8551L29.95 18.1755C30.5407 17.5847 31.5185 17.5847 32.1092 18.1755C32.7 18.7662 32.7 19.744 32.1092 20.3347L23.35 29.094C23.0444 29.3996 22.6574 29.5421 22.2703 29.5421Z" fill="#02D946"/>
<path d="M22.2703 29.5421C21.8833 29.5421 21.4963 29.3996 21.1907 29.094L17.9111 25.8144C17.3203 25.2236 17.3203 24.2458 17.9111 23.6551C18.5018 23.0644 19.4796 23.0644 20.0703 23.6551L22.2703 25.8551L29.95 18.1755C30.5407 17.5847 31.5185 17.5847 32.1092 18.1755C32.7 18.7662 32.7 19.744 32.1092 20.3347L23.35 29.094C23.0444 29.3996 22.6574 29.5421 22.2703 29.5421Z" fill="url(#paint1_radial_205_673)" style="mix-blend-mode:plus-lighter"/>
</g>
</g>
</g>
<defs>
<filter id="filter0_dii_205_673" x="11.6014" y="16.3102" width="26.8176" height="23.5429" filterUnits="userSpaceOnUse" color-interpolation-filters="sRGB">
<feFlood flood-opacity="0" result="BackgroundImageFix"/>
<feColorMatrix in="SourceAlpha" type="matrix" values="0 0 0 0 0 0 0 0 0 0 0 0 0 0 0 0 0 0 127 0" result="hardAlpha"/>
<feOffset dy="4.44444"/>
<feGaussianBlur stdDeviation="2.93333"/>
<feComposite in2="hardAlpha" operator="out"/>
<feColorMatrix type="matrix" values="0 0 0 0 0.00784314 0 0 0 0 0.85098 0 0 0 0 0.27451 0 0 0 0.6 0"/>
<feBlend mode="normal" in2="BackgroundImageFix" result="effect1_dropShadow_205_673"/>
<feBlend mode="normal" in="SourceGraphic" in2="effect1_dropShadow_205_673" result="shape"/>
<feColorMatrix in="SourceAlpha" type="matrix" values="0 0 0 0 0 0 0 0 0 0 0 0 0 0 0 0 0 0 127 0" result="hardAlpha"/>
<feOffset dy="4.44444"/>
<feGaussianBlur stdDeviation="2.77778"/>
<feComposite in2="hardAlpha" operator="arithmetic" k2="-1" k3="1"/>
<feColorMatrix type="matrix" values="0 0 0 0 0.00784314 0 0 0 0 0.85098 0 0 0 0 0.27451 0 0 0 0.6 0"/>
<feBlend mode="normal" in2="shape" result="effect2_innerShadow_205_673"/>
<feColorMatrix in="SourceAlpha" type="matrix" values="0 0 0 0 0 0 0 0 0 0 0 0 0 0 0 0 0 0 127 0" result="hardAlpha"/>
<feOffset/>
<feGaussianBlur stdDeviation="1.11111"/>
<feComposite in2="hardAlpha" operator="arithmetic" k2="-1" k3="1"/>
<feColorMatrix type="matrix" values="0 0 0 0 1 0 0 0 0 1 0 0 0 0 1 0 0 0 0.5 0"/>
<feBlend mode="normal" in2="effect2_innerShadow_205_673" result="effect3_innerShadow_205_673"/>
</filter>
<radialGradient id="paint0_radial_205_673" cx="0" cy="0" r="1" gradientUnits="userSpaceOnUse" gradientTransform="translate(18.9161 9.1289) rotate(80.49) scale(36.762 59.6439)">
<stop stop-color="white" stop-opacity="0.7"/>
<stop offset="1" stop-color="#02D946" stop-opacity="0"/>
</radialGradient>
<radialGradient id="paint1_radial_205_673" cx="0" cy="0" r="1" gradientUnits="userSpaceOnUse" gradientTransform="translate(22.3472 19.0864) rotate(75.7114) scale(10.7895 25.6935)">
<stop stop-color="white" stop-opacity="0.7"/>
<stop offset="1" stop-color="#02D946" stop-opacity="0"/>
</radialGradient>
</defs>
</svg>
