<svg width="50" height="41" viewBox="0 0 50 41" fill="none" xmlns="http://www.w3.org/2000/svg">
<g id="vuesax/bulk/sun-fog">
<g id="sun-fog">
<g id="Group">
<g id="Vector" filter="url(#filter0_dii_207_717)">
<path d="M35.7998 21.4167C36.2665 21.4167 36.6665 21.0167 36.6332 20.55C36.1832 14.5167 31.1499 9.75 24.9999 9.75C18.8499 9.75 13.8166 14.5 13.3666 20.55C13.3332 21.0167 13.7332 21.4167 14.1999 21.4167H35.7998Z" fill="#511DD6"/>
<path d="M35.7998 21.4167C36.2665 21.4167 36.6665 21.0167 36.6332 20.55C36.1832 14.5167 31.1499 9.75 24.9999 9.75C18.8499 9.75 13.8166 14.5 13.3666 20.55C13.3332 21.0167 13.7332 21.4167 14.1999 21.4167H35.7998Z" fill="url(#paint0_radial_207_717)" style="mix-blend-mode:plus-lighter"/>
</g>
</g>
<g id="Vector_2" filter="url(#filter1_dii_207_717)">
<path d="M41.6666 22.667H41.5333C40.6166 22.667 39.8666 21.917 39.8666 21.0003C39.8666 20.0837 40.6166 19.3337 41.5333 19.3337C42.4499 19.3337 43.2667 20.0837 43.2667 21.0003C43.2667 21.917 42.5833 22.667 41.6666 22.667ZM8.46665 22.667H8.33329C7.41663 22.667 6.66663 21.917 6.66663 21.0003C6.66663 20.0837 7.41663 19.3337 8.33329 19.3337C9.24996 19.3337 10.0666 20.0837 10.0666 21.0003C10.0666 21.917 9.38332 22.667 8.46665 22.667ZM36.6833 10.9837C36.25 10.9837 35.8333 10.817 35.4999 10.5003C34.8499 9.85032 34.8499 8.80031 35.4999 8.15031L35.7166 7.93366C36.3666 7.28366 37.4167 7.28366 38.0667 7.93366C38.7167 8.58366 38.7167 9.63367 38.0667 10.2837L37.85 10.5003C37.5333 10.817 37.1166 10.9837 36.6833 10.9837ZM13.3166 10.9837C12.8833 10.9837 12.4667 10.817 12.1333 10.5003L11.9167 10.2837C11.2667 9.63367 11.2667 8.58366 11.9167 7.93366C12.5667 7.28366 13.6166 7.28366 14.2666 7.93366L14.4833 8.15031C15.1333 8.80031 15.1333 9.85032 14.4833 10.5003C14.1666 10.817 13.7333 10.9837 13.3166 10.9837ZM25 6.06698C24.0833 6.06698 23.3333 5.38366 23.3333 4.467V4.33366C23.3333 3.41699 24.0833 2.66699 25 2.66699C25.9166 2.66699 26.6666 3.41699 26.6666 4.33366C26.6666 5.25033 25.9166 6.06698 25 6.06698Z" fill="#511DD6"/>
<path d="M41.6666 22.667H41.5333C40.6166 22.667 39.8666 21.917 39.8666 21.0003C39.8666 20.0837 40.6166 19.3337 41.5333 19.3337C42.4499 19.3337 43.2667 20.0837 43.2667 21.0003C43.2667 21.917 42.5833 22.667 41.6666 22.667ZM8.46665 22.667H8.33329C7.41663 22.667 6.66663 21.917 6.66663 21.0003C6.66663 20.0837 7.41663 19.3337 8.33329 19.3337C9.24996 19.3337 10.0666 20.0837 10.0666 21.0003C10.0666 21.917 9.38332 22.667 8.46665 22.667ZM36.6833 10.9837C36.25 10.9837 35.8333 10.817 35.4999 10.5003C34.8499 9.85032 34.8499 8.80031 35.4999 8.15031L35.7166 7.93366C36.3666 7.28366 37.4167 7.28366 38.0667 7.93366C38.7167 8.58366 38.7167 9.63367 38.0667 10.2837L37.85 10.5003C37.5333 10.817 37.1166 10.9837 36.6833 10.9837ZM13.3166 10.9837C12.8833 10.9837 12.4667 10.817 12.1333 10.5003L11.9167 10.2837C11.2667 9.63367 11.2667 8.58366 11.9167 7.93366C12.5667 7.28366 13.6166 7.28366 14.2666 7.93366L14.4833 8.15031C15.1333 8.80031 15.1333 9.85032 14.4833 10.5003C14.1666 10.817 13.7333 10.9837 13.3166 10.9837ZM25 6.06698C24.0833 6.06698 23.3333 5.38366 23.3333 4.467V4.33366C23.3333 3.41699 24.0833 2.66699 25 2.66699C25.9166 2.66699 26.6666 3.41699 26.6666 4.33366C26.6666 5.25033 25.9166 6.06698 25 6.06698Z" fill="url(#paint1_radial_207_717)" style="mix-blend-mode:plus-lighter"/>
</g>
<g id="Vector_3" opacity="0.2">
<path d="M38.3333 27.25H11.6666C10.9833 27.25 10.4166 26.6833 10.4166 26C10.4166 25.3167 10.9833 24.75 11.6666 24.75H38.3333C39.0166 24.75 39.5833 25.3167 39.5833 26C39.5833 26.6833 39.0166 27.25 38.3333 27.25Z" fill="#511DD6"/>
<path d="M38.3333 27.25H11.6666C10.9833 27.25 10.4166 26.6833 10.4166 26C10.4166 25.3167 10.9833 24.75 11.6666 24.75H38.3333C39.0166 24.75 39.5833 25.3167 39.5833 26C39.5833 26.6833 39.0166 27.25 38.3333 27.25Z" fill="url(#paint2_radial_207_717)" style="mix-blend-mode:plus-lighter"/>
</g>
<g id="Vector_4" opacity="0.2">
<path d="M35 32.25H15C14.3167 32.25 13.75 31.6833 13.75 31C13.75 30.3167 14.3167 29.75 15 29.75H35C35.6833 29.75 36.25 30.3167 36.25 31C36.25 31.6833 35.6833 32.25 35 32.25Z" fill="#511DD6"/>
<path d="M35 32.25H15C14.3167 32.25 13.75 31.6833 13.75 31C13.75 30.3167 14.3167 29.75 15 29.75H35C35.6833 29.75 36.25 30.3167 36.25 31C36.25 31.6833 35.6833 32.25 35 32.25Z" fill="url(#paint3_radial_207_717)" style="mix-blend-mode:plus-lighter"/>
</g>
<g id="Vector_5" opacity="0.2">
<path d="M30 37.25H20C19.3167 37.25 18.75 36.6833 18.75 36C18.75 35.3167 19.3167 34.75 20 34.75H30C30.6833 34.75 31.25 35.3167 31.25 36C31.25 36.6833 30.6833 37.25 30 37.25Z" fill="#511DD6"/>
<path d="M30 37.25H20C19.3167 37.25 18.75 36.6833 18.75 36C18.75 35.3167 19.3167 34.75 20 34.75H30C30.6833 34.75 31.25 35.3167 31.25 36C31.25 36.6833 30.6833 37.25 30 37.25Z" fill="url(#paint4_radial_207_717)" style="mix-blend-mode:plus-lighter"/>
</g>
</g>
</g>
<defs>
<filter id="filter0_dii_207_717" x="6.69796" y="7.52778" width="36.6038" height="25.0003" filterUnits="userSpaceOnUse" color-interpolation-filters="sRGB">
<feFlood flood-opacity="0" result="BackgroundImageFix"/>
<feColorMatrix in="SourceAlpha" type="matrix" values="0 0 0 0 0 0 0 0 0 0 0 0 0 0 0 0 0 0 127 0" result="hardAlpha"/>
<feOffset dy="4.44444"/>
<feGaussianBlur stdDeviation="3.33333"/>
<feComposite in2="hardAlpha" operator="out"/>
<feColorMatrix type="matrix" values="0 0 0 0 0.317647 0 0 0 0 0.113725 0 0 0 0 0.839216 0 0 0 0.6 0"/>
<feBlend mode="normal" in2="BackgroundImageFix" result="effect1_dropShadow_207_717"/>
<feBlend mode="normal" in="SourceGraphic" in2="effect1_dropShadow_207_717" result="shape"/>
<feColorMatrix in="SourceAlpha" type="matrix" values="0 0 0 0 0 0 0 0 0 0 0 0 0 0 0 0 0 0 127 0" result="hardAlpha"/>
<feOffset dy="4.44444"/>
<feGaussianBlur stdDeviation="2.77778"/>
<feComposite in2="hardAlpha" operator="arithmetic" k2="-1" k3="1"/>
<feColorMatrix type="matrix" values="0 0 0 0 0.317647 0 0 0 0 0.113725 0 0 0 0 0.839216 0 0 0 0.6 0"/>
<feBlend mode="normal" in2="shape" result="effect2_innerShadow_207_717"/>
<feColorMatrix in="SourceAlpha" type="matrix" values="0 0 0 0 0 0 0 0 0 0 0 0 0 0 0 0 0 0 127 0" result="hardAlpha"/>
<feOffset/>
<feGaussianBlur stdDeviation="1.11111"/>
<feComposite in2="hardAlpha" operator="arithmetic" k2="-1" k3="1"/>
<feColorMatrix type="matrix" values="0 0 0 0 1 0 0 0 0 1 0 0 0 0 1 0 0 0 0.5 0"/>
<feBlend mode="normal" in2="effect2_innerShadow_207_717" result="effect3_innerShadow_207_717"/>
</filter>
<filter id="filter1_dii_207_717" x="-4.00543e-05" y="0.44477" width="49.9333" height="33.3333" filterUnits="userSpaceOnUse" color-interpolation-filters="sRGB">
<feFlood flood-opacity="0" result="BackgroundImageFix"/>
<feColorMatrix in="SourceAlpha" type="matrix" values="0 0 0 0 0 0 0 0 0 0 0 0 0 0 0 0 0 0 127 0" result="hardAlpha"/>
<feOffset dy="4.44444"/>
<feGaussianBlur stdDeviation="3.33333"/>
<feComposite in2="hardAlpha" operator="out"/>
<feColorMatrix type="matrix" values="0 0 0 0 0.317647 0 0 0 0 0.113725 0 0 0 0 0.839216 0 0 0 0.6 0"/>
<feBlend mode="normal" in2="BackgroundImageFix" result="effect1_dropShadow_207_717"/>
<feBlend mode="normal" in="SourceGraphic" in2="effect1_dropShadow_207_717" result="shape"/>
<feColorMatrix in="SourceAlpha" type="matrix" values="0 0 0 0 0 0 0 0 0 0 0 0 0 0 0 0 0 0 127 0" result="hardAlpha"/>
<feOffset dy="4.44444"/>
<feGaussianBlur stdDeviation="2.77778"/>
<feComposite in2="hardAlpha" operator="arithmetic" k2="-1" k3="1"/>
<feColorMatrix type="matrix" values="0 0 0 0 0.317647 0 0 0 0 0.113725 0 0 0 0 0.839216 0 0 0 0.6 0"/>
<feBlend mode="normal" in2="shape" result="effect2_innerShadow_207_717"/>
<feColorMatrix in="SourceAlpha" type="matrix" values="0 0 0 0 0 0 0 0 0 0 0 0 0 0 0 0 0 0 127 0" result="hardAlpha"/>
<feOffset/>
<feGaussianBlur stdDeviation="1.11111"/>
<feComposite in2="hardAlpha" operator="arithmetic" k2="-1" k3="1"/>
<feColorMatrix type="matrix" values="0 0 0 0 1 0 0 0 0 1 0 0 0 0 1 0 0 0 0.5 0"/>
<feBlend mode="normal" in2="effect2_innerShadow_207_717" result="effect3_innerShadow_207_717"/>
</filter>
<radialGradient id="paint0_radial_207_717" cx="0" cy="0" r="1" gradientUnits="userSpaceOnUse" gradientTransform="translate(20.8918 11.0876) rotate(68.3112) scale(11.116 38.0071)">
<stop stop-color="white" stop-opacity="0.7"/>
<stop offset="1" stop-color="#511DD6" stop-opacity="0"/>
</radialGradient>
<radialGradient id="paint1_radial_207_717" cx="0" cy="0" r="1" gradientUnits="userSpaceOnUse" gradientTransform="translate(18.5054 4.96006) rotate(69.9531) scale(18.8489 60.4345)">
<stop stop-color="white" stop-opacity="0.7"/>
<stop offset="1" stop-color="#511DD6" stop-opacity="0"/>
</radialGradient>
<radialGradient id="paint2_radial_207_717" cx="0" cy="0" r="1" gradientUnits="userSpaceOnUse" gradientTransform="translate(19.851 25.0366) rotate(23.2612) scale(5.60454 20.2464)">
<stop stop-color="white" stop-opacity="0.7"/>
<stop offset="1" stop-color="#511DD6" stop-opacity="0"/>
</radialGradient>
<radialGradient id="paint3_radial_207_717" cx="0" cy="0" r="1" gradientUnits="userSpaceOnUse" gradientTransform="translate(21.0279 30.0366) rotate(29.128) scale(4.54712 19.2507)">
<stop stop-color="white" stop-opacity="0.7"/>
<stop offset="1" stop-color="#511DD6" stop-opacity="0"/>
</radialGradient>
<radialGradient id="paint4_radial_207_717" cx="0" cy="0" r="1" gradientUnits="userSpaceOnUse" gradientTransform="translate(22.7933 35.0366) rotate(45.0864) scale(3.12546 15.5595)">
<stop stop-color="white" stop-opacity="0.7"/>
<stop offset="1" stop-color="#511DD6" stop-opacity="0"/>
</radialGradient>
</defs>
</svg>
