<svg width="116" height="125" viewBox="0 0 116 125" fill="none" xmlns="http://www.w3.org/2000/svg">
<g opacity="0.2">
<path d="M92.7806 97.7203C88.3473 100.987 82.5139 102.667 75.5606 102.667H36.4539C35.3339 102.667 34.214 102.62 33.1406 102.48L65.3406 70.2803L92.7806 97.7203Z" fill="#FF1010"/>
<path d="M92.7806 97.7203C88.3473 100.987 82.5139 102.667 75.5606 102.667H36.4539C35.3339 102.667 34.214 102.62 33.1406 102.48L65.3406 70.2803L92.7806 97.7203Z" fill="url(#paint0_radial_157_1550)" style="mix-blend-mode:plus-lighter"/>
</g>
<g opacity="0.2">
<path d="M102.66 36.4471V75.5538C102.66 82.5071 100.98 88.3405 97.7135 92.7738L70.2734 65.3338L102.473 33.1338C102.613 34.2071 102.66 35.3271 102.66 36.4471Z" fill="#FF1010"/>
<path d="M102.66 36.4471V75.5538C102.66 82.5071 100.98 88.3405 97.7135 92.7738L70.2734 65.3338L102.473 33.1338C102.613 34.2071 102.66 35.3271 102.66 36.4471Z" fill="url(#paint1_radial_157_1550)" style="mix-blend-mode:plus-lighter"/>
</g>
<g opacity="0.2">
<path d="M70.28 65.333L97.72 92.773C96.3667 94.733 94.7334 96.3664 92.7734 97.7197L65.3333 70.2797L33.1334 102.48C30.1467 102.293 27.44 101.686 24.9667 100.753C14.98 97.113 9.33334 88.2464 9.33334 75.553V36.4463C9.33334 19.4597 19.46 9.33301 36.4467 9.33301H75.5534C88.2467 9.33301 97.1133 14.9797 100.753 24.9663C101.687 27.4397 102.293 30.1463 102.48 33.133L70.28 65.333Z" fill="#FF1010"/>
<path d="M70.28 65.333L97.72 92.773C96.3667 94.733 94.7334 96.3664 92.7734 97.7197L65.3333 70.2797L33.1334 102.48C30.1467 102.293 27.44 101.686 24.9667 100.753C14.98 97.113 9.33334 88.2464 9.33334 75.553V36.4463C9.33334 19.4597 19.46 9.33301 36.4467 9.33301H75.5534C88.2467 9.33301 97.1133 14.9797 100.753 24.9663C101.687 27.4397 102.293 30.1463 102.48 33.133L70.28 65.333Z" fill="url(#paint2_radial_157_1550)" style="mix-blend-mode:plus-lighter"/>
</g>
<g filter="url(#filter0_dii_157_1550)">
<path d="M70.2873 65.3335L97.7273 92.7735C96.374 94.7335 94.7406 96.3668 92.7806 97.7201L65.3406 70.2801L33.1406 102.48C30.154 102.293 27.4473 101.687 24.974 100.753L26.7939 98.9335L100.761 24.9668C101.694 27.4401 102.301 30.1468 102.487 33.1335L70.2873 65.3335Z" fill="#FF1010"/>
<path d="M70.2873 65.3335L97.7273 92.7735C96.374 94.7335 94.7406 96.3668 92.7806 97.7201L65.3406 70.2801L33.1406 102.48C30.154 102.293 27.4473 101.687 24.974 100.753L26.7939 98.9335L100.761 24.9668C101.694 27.4401 102.301 30.1468 102.487 33.1335L70.2873 65.3335Z" fill="url(#paint3_radial_157_1550)" style="mix-blend-mode:plus-lighter"/>
</g>
<g filter="url(#filter1_dii_157_1550)">
<path d="M57.1236 37.0066C55.3503 29.3066 48.537 25.8533 42.5637 25.8066C36.5903 25.8066 29.777 29.26 28.0037 36.96C26.0437 45.5 31.2703 52.64 35.9836 57.12C37.8503 58.8933 40.1837 59.7333 42.5637 59.7333C44.9437 59.7333 47.277 58.8466 49.1437 57.12C53.857 52.64 59.0836 45.5 57.1236 37.0066ZM42.7036 44.2866C40.137 44.2866 38.037 42.1866 38.037 39.62C38.037 37.0533 40.0903 34.9533 42.7036 34.9533H42.7504C45.317 34.9533 47.417 37.0533 47.417 39.62C47.417 42.1866 45.2703 44.2866 42.7036 44.2866Z" fill="#FF1010"/>
<path d="M57.1236 37.0066C55.3503 29.3066 48.537 25.8533 42.5637 25.8066C36.5903 25.8066 29.777 29.26 28.0037 36.96C26.0437 45.5 31.2703 52.64 35.9836 57.12C37.8503 58.8933 40.1837 59.7333 42.5637 59.7333C44.9437 59.7333 47.277 58.8466 49.1437 57.12C53.857 52.64 59.0836 45.5 57.1236 37.0066ZM42.7036 44.2866C40.137 44.2866 38.037 42.1866 38.037 39.62C38.037 37.0533 40.0903 34.9533 42.7036 34.9533H42.7504C45.317 34.9533 47.417 37.0533 47.417 39.62C47.417 42.1866 45.2703 44.2866 42.7036 44.2866Z" fill="url(#paint4_radial_157_1550)" style="mix-blend-mode:plus-lighter"/>
</g>
<defs>
<filter id="filter0_dii_157_1550" x="11.534" y="20.4868" width="104.393" height="104.394" filterUnits="userSpaceOnUse" color-interpolation-filters="sRGB">
<feFlood flood-opacity="0" result="BackgroundImageFix"/>
<feColorMatrix in="SourceAlpha" type="matrix" values="0 0 0 0 0 0 0 0 0 0 0 0 0 0 0 0 0 0 127 0" result="hardAlpha"/>
<feOffset dy="8.96"/>
<feGaussianBlur stdDeviation="6.72"/>
<feComposite in2="hardAlpha" operator="out"/>
<feColorMatrix type="matrix" values="0 0 0 0 1 0 0 0 0 0.0627451 0 0 0 0 0.0627451 0 0 0 0.6 0"/>
<feBlend mode="normal" in2="BackgroundImageFix" result="effect1_dropShadow_157_1550"/>
<feBlend mode="normal" in="SourceGraphic" in2="effect1_dropShadow_157_1550" result="shape"/>
<feColorMatrix in="SourceAlpha" type="matrix" values="0 0 0 0 0 0 0 0 0 0 0 0 0 0 0 0 0 0 127 0" result="hardAlpha"/>
<feOffset dy="8.96"/>
<feGaussianBlur stdDeviation="5.6"/>
<feComposite in2="hardAlpha" operator="arithmetic" k2="-1" k3="1"/>
<feColorMatrix type="matrix" values="0 0 0 0 1 0 0 0 0 0.0627451 0 0 0 0 0.0627451 0 0 0 0.6 0"/>
<feBlend mode="normal" in2="shape" result="effect2_innerShadow_157_1550"/>
<feColorMatrix in="SourceAlpha" type="matrix" values="0 0 0 0 0 0 0 0 0 0 0 0 0 0 0 0 0 0 127 0" result="hardAlpha"/>
<feOffset/>
<feGaussianBlur stdDeviation="2.24"/>
<feComposite in2="hardAlpha" operator="arithmetic" k2="-1" k3="1"/>
<feColorMatrix type="matrix" values="0 0 0 0 1 0 0 0 0 1 0 0 0 0 1 0 0 0 0.5 0"/>
<feBlend mode="normal" in2="effect2_innerShadow_157_1550" result="effect3_innerShadow_157_1550"/>
</filter>
<filter id="filter1_dii_157_1550" x="14.1407" y="21.3266" width="56.8458" height="60.8068" filterUnits="userSpaceOnUse" color-interpolation-filters="sRGB">
<feFlood flood-opacity="0" result="BackgroundImageFix"/>
<feColorMatrix in="SourceAlpha" type="matrix" values="0 0 0 0 0 0 0 0 0 0 0 0 0 0 0 0 0 0 127 0" result="hardAlpha"/>
<feOffset dy="8.96"/>
<feGaussianBlur stdDeviation="6.72"/>
<feComposite in2="hardAlpha" operator="out"/>
<feColorMatrix type="matrix" values="0 0 0 0 1 0 0 0 0 0.0627451 0 0 0 0 0.0627451 0 0 0 0.6 0"/>
<feBlend mode="normal" in2="BackgroundImageFix" result="effect1_dropShadow_157_1550"/>
<feBlend mode="normal" in="SourceGraphic" in2="effect1_dropShadow_157_1550" result="shape"/>
<feColorMatrix in="SourceAlpha" type="matrix" values="0 0 0 0 0 0 0 0 0 0 0 0 0 0 0 0 0 0 127 0" result="hardAlpha"/>
<feOffset dy="8.96"/>
<feGaussianBlur stdDeviation="5.6"/>
<feComposite in2="hardAlpha" operator="arithmetic" k2="-1" k3="1"/>
<feColorMatrix type="matrix" values="0 0 0 0 1 0 0 0 0 0.0627451 0 0 0 0 0.0627451 0 0 0 0.6 0"/>
<feBlend mode="normal" in2="shape" result="effect2_innerShadow_157_1550"/>
<feColorMatrix in="SourceAlpha" type="matrix" values="0 0 0 0 0 0 0 0 0 0 0 0 0 0 0 0 0 0 127 0" result="hardAlpha"/>
<feOffset/>
<feGaussianBlur stdDeviation="2.24"/>
<feComposite in2="hardAlpha" operator="arithmetic" k2="-1" k3="1"/>
<feColorMatrix type="matrix" values="0 0 0 0 1 0 0 0 0 1 0 0 0 0 1 0 0 0 0.5 0"/>
<feBlend mode="normal" in2="effect2_innerShadow_157_1550" result="effect3_innerShadow_157_1550"/>
</filter>
<radialGradient id="paint0_radial_157_1550" cx="0" cy="0" r="1" gradientUnits="userSpaceOnUse" gradientTransform="translate(52.432 73.9935) rotate(69.8372) scale(30.5453 98.4055)">
<stop stop-color="white" stop-opacity="0.7"/>
<stop offset="1" stop-color="#FF1010" stop-opacity="0"/>
</radialGradient>
<radialGradient id="paint1_radial_157_1550" cx="0" cy="0" r="1" gradientUnits="userSpaceOnUse" gradientTransform="translate(80.7494 39.9717) rotate(83.8201) scale(53.1107 56.5956)">
<stop stop-color="white" stop-opacity="0.7"/>
<stop offset="1" stop-color="#FF1010" stop-opacity="0"/>
</radialGradient>
<radialGradient id="paint2_radial_157_1550" cx="0" cy="0" r="1" gradientUnits="userSpaceOnUse" gradientTransform="translate(39.4629 20.0126) rotate(78.7233) scale(84.0905 160.564)">
<stop stop-color="white" stop-opacity="0.7"/>
<stop offset="1" stop-color="#FF1010" stop-opacity="0"/>
</radialGradient>
<radialGradient id="paint3_radial_157_1550" cx="0" cy="0" r="1" gradientUnits="userSpaceOnUse" gradientTransform="translate(50.0467 33.854) rotate(78.7233) scale(69.9771 133.615)">
<stop stop-color="white" stop-opacity="0.7"/>
<stop offset="1" stop-color="#FF1010" stop-opacity="0"/>
</radialGradient>
<radialGradient id="paint4_radial_157_1550" cx="0" cy="0" r="1" gradientUnits="userSpaceOnUse" gradientTransform="translate(37.2736 29.6965) rotate(80.0116) scale(30.4991 51.8729)">
<stop stop-color="white" stop-opacity="0.7"/>
<stop offset="1" stop-color="#FF1010" stop-opacity="0"/>
</radialGradient>
</defs>
</svg>
