<svg width="112" height="113" viewBox="0 0 112 113" fill="none" xmlns="http://www.w3.org/2000/svg">
<g id="vuesax/bulk/setting-3">
<g id="vuesax/bulk/setting-3_2">
<g id="setting-3">
<g id="Vector" opacity="0.2">
<path d="M75.5533 9.33301H36.4467C19.46 9.33301 9.33333 19.4597 9.33333 36.4463V75.5063C9.33333 92.5397 19.46 102.666 36.4467 102.666H75.5067C92.4933 102.666 102.62 92.5397 102.62 75.553V36.4463C102.667 19.4597 92.54 9.33301 75.5533 9.33301Z" fill="#3E95FF"/>
<path d="M75.5533 9.33301H36.4467C19.46 9.33301 9.33333 19.4597 9.33333 36.4463V75.5063C9.33333 92.5397 19.46 102.666 36.4467 102.666H75.5067C92.4933 102.666 102.62 92.5397 102.62 75.553V36.4463C102.667 19.4597 92.54 9.33301 75.5533 9.33301Z" fill="url(#paint0_radial_157_1535)" style="mix-blend-mode:plus-lighter"/>
</g>
<g id="Vector_2" filter="url(#filter0_dii_157_1535)">
<path d="M72.6979 89.8338C70.7846 89.8338 69.1979 88.2471 69.1979 86.3338V68.1338C69.1979 66.2205 70.7846 64.6338 72.6979 64.6338C74.6112 64.6338 76.1979 66.2205 76.1979 68.1338V86.3338C76.1979 88.2471 74.6112 89.8338 72.6979 89.8338Z" fill="#3E95FF"/>
<path d="M72.6979 89.8338C70.7846 89.8338 69.1979 88.2471 69.1979 86.3338V68.1338C69.1979 66.2205 70.7846 64.6338 72.6979 64.6338C74.6112 64.6338 76.1979 66.2205 76.1979 68.1338V86.3338C76.1979 88.2471 74.6112 89.8338 72.6979 89.8338Z" fill="url(#paint1_radial_157_1535)" style="mix-blend-mode:plus-lighter"/>
</g>
<g id="Vector_3" filter="url(#filter1_dii_157_1535)">
<path d="M39.3021 47.367C37.3887 47.367 35.8021 45.7803 35.8021 43.867V25.667C35.8021 23.7537 37.3887 22.167 39.3021 22.167C41.2154 22.167 42.8021 23.7537 42.8021 25.667V43.867C42.8021 45.7803 41.2621 47.367 39.3021 47.367Z" fill="#3E95FF"/>
<path d="M39.3021 47.367C37.3887 47.367 35.8021 45.7803 35.8021 43.867V25.667C35.8021 23.7537 37.3887 22.167 39.3021 22.167C41.2154 22.167 42.8021 23.7537 42.8021 25.667V43.867C42.8021 45.7803 41.2621 47.367 39.3021 47.367Z" fill="url(#paint2_radial_157_1535)" style="mix-blend-mode:plus-lighter"/>
</g>
<g id="Union" filter="url(#filter2_dii_157_1535)">
<path fill-rule="evenodd" clip-rule="evenodd" d="M69.1979 34.6998V25.666C69.1979 23.7527 70.7846 22.166 72.6979 22.166C74.6112 22.166 76.1979 23.7527 76.1979 25.666V34.6882C81.509 36.1959 85.4073 41.0682 85.4073 46.8991C85.4073 53.9458 79.7139 59.6391 72.7139 59.6391C65.6673 59.6391 59.9739 53.8991 59.9739 46.8991C59.9739 41.1171 63.8902 36.2267 69.1979 34.6998Z" fill="#3E95FF"/>
<path fill-rule="evenodd" clip-rule="evenodd" d="M69.1979 34.6998V25.666C69.1979 23.7527 70.7846 22.166 72.6979 22.166C74.6112 22.166 76.1979 23.7527 76.1979 25.666V34.6882C81.509 36.1959 85.4073 41.0682 85.4073 46.8991C85.4073 53.9458 79.7139 59.6391 72.7139 59.6391C65.6673 59.6391 59.9739 53.8991 59.9739 46.8991C59.9739 41.1171 63.8902 36.2267 69.1979 34.6998Z" fill="url(#paint3_radial_157_1535)" style="mix-blend-mode:plus-lighter"/>
</g>
<g id="Union_2" filter="url(#filter3_dii_157_1535)">
<path fill-rule="evenodd" clip-rule="evenodd" d="M26.5951 65.1463C26.5951 58.0996 32.2885 52.4062 39.2885 52.4062C46.3351 52.4062 52.0285 58.1463 52.0285 65.1463C52.0285 70.9291 48.1111 75.8202 42.8021 77.3463V86.3333C42.8021 88.2467 41.2621 89.8333 39.3021 89.8333C37.3888 89.8333 35.8021 88.2467 35.8021 86.3333V77.3564C30.4922 75.848 26.5951 70.9763 26.5951 65.1463Z" fill="#3E95FF"/>
<path fill-rule="evenodd" clip-rule="evenodd" d="M26.5951 65.1463C26.5951 58.0996 32.2885 52.4062 39.2885 52.4062C46.3351 52.4062 52.0285 58.1463 52.0285 65.1463C52.0285 70.9291 48.1111 75.8202 42.8021 77.3463V86.3333C42.8021 88.2467 41.2621 89.8333 39.3021 89.8333C37.3888 89.8333 35.8021 88.2467 35.8021 86.3333V77.3564C30.4922 75.848 26.5951 70.9763 26.5951 65.1463Z" fill="url(#paint4_radial_157_1535)" style="mix-blend-mode:plus-lighter"/>
</g>
</g>
</g>
</g>
<defs>
<filter id="filter0_dii_157_1535" x="55.7579" y="60.1538" width="33.88" height="52.0802" filterUnits="userSpaceOnUse" color-interpolation-filters="sRGB">
<feFlood flood-opacity="0" result="BackgroundImageFix"/>
<feColorMatrix in="SourceAlpha" type="matrix" values="0 0 0 0 0 0 0 0 0 0 0 0 0 0 0 0 0 0 127 0" result="hardAlpha"/>
<feOffset dy="8.96"/>
<feGaussianBlur stdDeviation="6.72"/>
<feComposite in2="hardAlpha" operator="out"/>
<feColorMatrix type="matrix" values="0 0 0 0 0.243137 0 0 0 0 0.584314 0 0 0 0 1 0 0 0 0.6 0"/>
<feBlend mode="normal" in2="BackgroundImageFix" result="effect1_dropShadow_157_1535"/>
<feBlend mode="normal" in="SourceGraphic" in2="effect1_dropShadow_157_1535" result="shape"/>
<feColorMatrix in="SourceAlpha" type="matrix" values="0 0 0 0 0 0 0 0 0 0 0 0 0 0 0 0 0 0 127 0" result="hardAlpha"/>
<feOffset dy="8.96"/>
<feGaussianBlur stdDeviation="5.6"/>
<feComposite in2="hardAlpha" operator="arithmetic" k2="-1" k3="1"/>
<feColorMatrix type="matrix" values="0 0 0 0 0.243137 0 0 0 0 0.584314 0 0 0 0 1 0 0 0 0.6 0"/>
<feBlend mode="normal" in2="shape" result="effect2_innerShadow_157_1535"/>
<feColorMatrix in="SourceAlpha" type="matrix" values="0 0 0 0 0 0 0 0 0 0 0 0 0 0 0 0 0 0 127 0" result="hardAlpha"/>
<feOffset/>
<feGaussianBlur stdDeviation="2.24"/>
<feComposite in2="hardAlpha" operator="arithmetic" k2="-1" k3="1"/>
<feColorMatrix type="matrix" values="0 0 0 0 1 0 0 0 0 1 0 0 0 0 1 0 0 0 0.5 0"/>
<feBlend mode="normal" in2="effect2_innerShadow_157_1535" result="effect3_innerShadow_157_1535"/>
</filter>
<filter id="filter1_dii_157_1535" x="22.3621" y="17.687" width="33.88" height="52.0802" filterUnits="userSpaceOnUse" color-interpolation-filters="sRGB">
<feFlood flood-opacity="0" result="BackgroundImageFix"/>
<feColorMatrix in="SourceAlpha" type="matrix" values="0 0 0 0 0 0 0 0 0 0 0 0 0 0 0 0 0 0 127 0" result="hardAlpha"/>
<feOffset dy="8.96"/>
<feGaussianBlur stdDeviation="6.72"/>
<feComposite in2="hardAlpha" operator="out"/>
<feColorMatrix type="matrix" values="0 0 0 0 0.243137 0 0 0 0 0.584314 0 0 0 0 1 0 0 0 0.6 0"/>
<feBlend mode="normal" in2="BackgroundImageFix" result="effect1_dropShadow_157_1535"/>
<feBlend mode="normal" in="SourceGraphic" in2="effect1_dropShadow_157_1535" result="shape"/>
<feColorMatrix in="SourceAlpha" type="matrix" values="0 0 0 0 0 0 0 0 0 0 0 0 0 0 0 0 0 0 127 0" result="hardAlpha"/>
<feOffset dy="8.96"/>
<feGaussianBlur stdDeviation="5.6"/>
<feComposite in2="hardAlpha" operator="arithmetic" k2="-1" k3="1"/>
<feColorMatrix type="matrix" values="0 0 0 0 0.243137 0 0 0 0 0.584314 0 0 0 0 1 0 0 0 0.6 0"/>
<feBlend mode="normal" in2="shape" result="effect2_innerShadow_157_1535"/>
<feColorMatrix in="SourceAlpha" type="matrix" values="0 0 0 0 0 0 0 0 0 0 0 0 0 0 0 0 0 0 127 0" result="hardAlpha"/>
<feOffset/>
<feGaussianBlur stdDeviation="2.24"/>
<feComposite in2="hardAlpha" operator="arithmetic" k2="-1" k3="1"/>
<feColorMatrix type="matrix" values="0 0 0 0 1 0 0 0 0 1 0 0 0 0 1 0 0 0 0.5 0"/>
<feBlend mode="normal" in2="effect2_innerShadow_157_1535" result="effect3_innerShadow_157_1535"/>
</filter>
<filter id="filter2_dii_157_1535" x="46.5339" y="17.686" width="52.3133" height="64.3527" filterUnits="userSpaceOnUse" color-interpolation-filters="sRGB">
<feFlood flood-opacity="0" result="BackgroundImageFix"/>
<feColorMatrix in="SourceAlpha" type="matrix" values="0 0 0 0 0 0 0 0 0 0 0 0 0 0 0 0 0 0 127 0" result="hardAlpha"/>
<feOffset dy="8.96"/>
<feGaussianBlur stdDeviation="6.72"/>
<feComposite in2="hardAlpha" operator="out"/>
<feColorMatrix type="matrix" values="0 0 0 0 0.243137 0 0 0 0 0.584314 0 0 0 0 1 0 0 0 0.6 0"/>
<feBlend mode="normal" in2="BackgroundImageFix" result="effect1_dropShadow_157_1535"/>
<feBlend mode="normal" in="SourceGraphic" in2="effect1_dropShadow_157_1535" result="shape"/>
<feColorMatrix in="SourceAlpha" type="matrix" values="0 0 0 0 0 0 0 0 0 0 0 0 0 0 0 0 0 0 127 0" result="hardAlpha"/>
<feOffset dy="8.96"/>
<feGaussianBlur stdDeviation="5.6"/>
<feComposite in2="hardAlpha" operator="arithmetic" k2="-1" k3="1"/>
<feColorMatrix type="matrix" values="0 0 0 0 0.243137 0 0 0 0 0.584314 0 0 0 0 1 0 0 0 0.6 0"/>
<feBlend mode="normal" in2="shape" result="effect2_innerShadow_157_1535"/>
<feColorMatrix in="SourceAlpha" type="matrix" values="0 0 0 0 0 0 0 0 0 0 0 0 0 0 0 0 0 0 127 0" result="hardAlpha"/>
<feOffset/>
<feGaussianBlur stdDeviation="2.24"/>
<feComposite in2="hardAlpha" operator="arithmetic" k2="-1" k3="1"/>
<feColorMatrix type="matrix" values="0 0 0 0 1 0 0 0 0 1 0 0 0 0 1 0 0 0 0.5 0"/>
<feBlend mode="normal" in2="effect2_innerShadow_157_1535" result="effect3_innerShadow_157_1535"/>
</filter>
<filter id="filter3_dii_157_1535" x="13.1551" y="47.9263" width="52.3133" height="64.3068" filterUnits="userSpaceOnUse" color-interpolation-filters="sRGB">
<feFlood flood-opacity="0" result="BackgroundImageFix"/>
<feColorMatrix in="SourceAlpha" type="matrix" values="0 0 0 0 0 0 0 0 0 0 0 0 0 0 0 0 0 0 127 0" result="hardAlpha"/>
<feOffset dy="8.96"/>
<feGaussianBlur stdDeviation="6.72"/>
<feComposite in2="hardAlpha" operator="out"/>
<feColorMatrix type="matrix" values="0 0 0 0 0.243137 0 0 0 0 0.584314 0 0 0 0 1 0 0 0 0.6 0"/>
<feBlend mode="normal" in2="BackgroundImageFix" result="effect1_dropShadow_157_1535"/>
<feBlend mode="normal" in="SourceGraphic" in2="effect1_dropShadow_157_1535" result="shape"/>
<feColorMatrix in="SourceAlpha" type="matrix" values="0 0 0 0 0 0 0 0 0 0 0 0 0 0 0 0 0 0 127 0" result="hardAlpha"/>
<feOffset dy="8.96"/>
<feGaussianBlur stdDeviation="5.6"/>
<feComposite in2="hardAlpha" operator="arithmetic" k2="-1" k3="1"/>
<feColorMatrix type="matrix" values="0 0 0 0 0.243137 0 0 0 0 0.584314 0 0 0 0 1 0 0 0 0.6 0"/>
<feBlend mode="normal" in2="shape" result="effect2_innerShadow_157_1535"/>
<feColorMatrix in="SourceAlpha" type="matrix" values="0 0 0 0 0 0 0 0 0 0 0 0 0 0 0 0 0 0 127 0" result="hardAlpha"/>
<feOffset/>
<feGaussianBlur stdDeviation="2.24"/>
<feComposite in2="hardAlpha" operator="arithmetic" k2="-1" k3="1"/>
<feColorMatrix type="matrix" values="0 0 0 0 1 0 0 0 0 1 0 0 0 0 1 0 0 0 0.5 0"/>
<feBlend mode="normal" in2="effect2_innerShadow_157_1535" result="effect3_innerShadow_157_1535"/>
</filter>
<radialGradient id="paint0_radial_157_1535" cx="0" cy="0" r="1" gradientUnits="userSpaceOnUse" gradientTransform="translate(39.5083 20.034) rotate(78.7287) scale(84.2574 160.809)">
<stop stop-color="white" stop-opacity="0.4"/>
<stop offset="1" stop-color="#3E95FF" stop-opacity="0"/>
</radialGradient>
<radialGradient id="paint1_radial_157_1535" cx="0" cy="0" r="1" gradientUnits="userSpaceOnUse" gradientTransform="translate(71.4622 67.5231) rotate(86.8297) scale(22.3449 12.2851)">
<stop stop-color="white" stop-opacity="0.4"/>
<stop offset="1" stop-color="#3E95FF" stop-opacity="0"/>
</radialGradient>
<radialGradient id="paint2_radial_157_1535" cx="0" cy="0" r="1" gradientUnits="userSpaceOnUse" gradientTransform="translate(38.0663 25.0563) rotate(86.8297) scale(22.3449 12.2851)">
<stop stop-color="white" stop-opacity="0.4"/>
<stop offset="1" stop-color="#3E95FF" stop-opacity="0"/>
</radialGradient>
<radialGradient id="paint3_radial_157_1535" cx="0" cy="0" r="1" gradientUnits="userSpaceOnUse" gradientTransform="translate(68.2007 37.122) rotate(78.7232) scale(22.9604 43.8413)">
<stop stop-color="white" stop-opacity="0.4"/>
<stop offset="1" stop-color="#3E95FF" stop-opacity="0"/>
</radialGradient>
<radialGradient id="paint4_radial_157_1535" cx="0" cy="0" r="1" gradientUnits="userSpaceOnUse" gradientTransform="translate(34.8219 55.3223) rotate(78.7234) scale(22.9608 43.8414)">
<stop stop-color="white" stop-opacity="0.4"/>
<stop offset="1" stop-color="#3E95FF" stop-opacity="0"/>
</radialGradient>
</defs>
</svg>
