<svg width="106" height="115" viewBox="0 0 106 115" fill="none" xmlns="http://www.w3.org/2000/svg">
<g id="vuesax/bulk/favorite-chart">
<g id="favorite-chart">
<g id="Vector" opacity="0.2">
<path d="M91.6667 32.5418V63.1668C90.4584 62.5835 89.125 62.1668 87.625 61.9168L86.3334 61.7085L85.25 59.4585C82.9583 54.7918 79.2084 52.0835 75 52.0835C70.7917 52.0835 67.0417 54.7918 64.7501 59.4585L63.625 61.7085L62.375 61.9168C57.4167 62.7502 53.8333 65.5002 52.5416 69.4168C51.2916 73.3752 52.5834 77.7085 56.125 81.2918L57.4167 82.5835L57.2917 83.0835C56.4584 86.7918 56.7917 89.6252 57.5834 91.6668H32.5417C17.375 91.6668 8.33337 82.6252 8.33337 67.4585V32.5418C8.33337 17.3752 17.375 8.3335 32.5417 8.3335H67.4584C82.6251 8.3335 91.6667 17.3752 91.6667 32.5418Z" fill="#511DD6"/>
<path d="M91.6667 32.5418V63.1668C90.4584 62.5835 89.125 62.1668 87.625 61.9168L86.3334 61.7085L85.25 59.4585C82.9583 54.7918 79.2084 52.0835 75 52.0835C70.7917 52.0835 67.0417 54.7918 64.7501 59.4585L63.625 61.7085L62.375 61.9168C57.4167 62.7502 53.8333 65.5002 52.5416 69.4168C51.2916 73.3752 52.5834 77.7085 56.125 81.2918L57.4167 82.5835L57.2917 83.0835C56.4584 86.7918 56.7917 89.6252 57.5834 91.6668H32.5417C17.375 91.6668 8.33337 82.6252 8.33337 67.4585V32.5418C8.33337 17.3752 17.375 8.3335 32.5417 8.3335H67.4584C82.6251 8.3335 91.6667 17.3752 91.6667 32.5418Z" fill="url(#paint0_radial_194_2125)" style="mix-blend-mode:plus-lighter"/>
</g>
<g id="Vector_2" filter="url(#filter0_dii_194_2125)">
<path d="M79.6668 62.252L81.0001 64.9603C81.6668 66.2936 83.3752 67.5436 84.7918 67.7936L86.5835 68.0853C92.0418 69.002 93.2918 73.002 89.4168 76.9186L87.7501 78.5853C86.6251 79.7103 86.0419 81.877 86.3752 83.4603L86.5835 84.4603C88.0835 91.0436 84.5834 93.5853 78.8751 90.1269L77.6669 89.3769C76.2085 88.5019 73.7917 88.5019 72.3334 89.3769L71.1252 90.1269C65.3752 93.5853 61.9168 91.0436 63.4168 84.4603L63.6251 83.4603C63.9584 81.9186 63.3751 79.7103 62.2501 78.5853L60.5835 76.9186C56.7085 72.9603 57.9585 69.002 63.4168 68.0853L65.2084 67.7936C66.6668 67.5436 68.3335 66.2936 69.0001 64.9603L70.3335 62.252C72.9168 57.0436 77.0835 57.0436 79.6668 62.252Z" fill="#511DD6"/>
<path d="M79.6668 62.252L81.0001 64.9603C81.6668 66.2936 83.3752 67.5436 84.7918 67.7936L86.5835 68.0853C92.0418 69.002 93.2918 73.002 89.4168 76.9186L87.7501 78.5853C86.6251 79.7103 86.0419 81.877 86.3752 83.4603L86.5835 84.4603C88.0835 91.0436 84.5834 93.5853 78.8751 90.1269L77.6669 89.3769C76.2085 88.5019 73.7917 88.5019 72.3334 89.3769L71.1252 90.1269C65.3752 93.5853 61.9168 91.0436 63.4168 84.4603L63.6251 83.4603C63.9584 81.9186 63.3751 79.7103 62.2501 78.5853L60.5835 76.9186C56.7085 72.9603 57.9585 69.002 63.4168 68.0853L65.2084 67.7936C66.6668 67.5436 68.3335 66.2936 69.0001 64.9603L70.3335 62.252C72.9168 57.0436 77.0835 57.0436 79.6668 62.252Z" fill="url(#paint1_radial_194_2125)" style="mix-blend-mode:plus-lighter"/>
</g>
<g id="Vector (Stroke)" filter="url(#filter1_dii_194_2125)">
<path fill-rule="evenodd" clip-rule="evenodd" d="M67.2062 32.9878C68.5703 34.0452 68.8189 36.0082 67.7615 37.3722L58.118 49.8127C55.6393 52.9474 51.0692 53.5191 47.8809 51.0554L47.8592 51.0386L40.2484 45.0498C39.7782 44.6927 39.1224 44.7815 38.7654 45.2422C38.765 45.2426 38.7657 45.2417 38.7654 45.2422L28.8507 58.1146C27.7975 59.4819 25.8353 59.7366 24.468 58.6834C23.1007 57.6303 22.846 55.6681 23.8992 54.3008L33.8188 41.4219C36.2935 38.2194 40.8818 37.6406 44.0774 40.1099L44.0991 40.1267L51.7099 46.1156C52.185 46.4764 52.8545 46.3835 53.209 45.9439L62.8218 33.5431C63.8792 32.1791 65.8422 31.9304 67.2062 32.9878Z" fill="#511DD6"/>
<path fill-rule="evenodd" clip-rule="evenodd" d="M67.2062 32.9878C68.5703 34.0452 68.8189 36.0082 67.7615 37.3722L58.118 49.8127C55.6393 52.9474 51.0692 53.5191 47.8809 51.0554L47.8592 51.0386L40.2484 45.0498C39.7782 44.6927 39.1224 44.7815 38.7654 45.2422C38.765 45.2426 38.7657 45.2417 38.7654 45.2422L28.8507 58.1146C27.7975 59.4819 25.8353 59.7366 24.468 58.6834C23.1007 57.6303 22.846 55.6681 23.8992 54.3008L33.8188 41.4219C36.2935 38.2194 40.8818 37.6406 44.0774 40.1099L44.0991 40.1267L51.7099 46.1156C52.185 46.4764 52.8545 46.3835 53.209 45.9439L62.8218 33.5431C63.8792 32.1791 65.8422 31.9304 67.2062 32.9878Z" fill="url(#paint2_radial_194_2125)" style="mix-blend-mode:plus-lighter"/>
</g>
</g>
</g>
<defs>
<filter id="filter0_dii_194_2125" x="44.6975" y="53.8002" width="60.6052" height="60.5999" filterUnits="userSpaceOnUse" color-interpolation-filters="sRGB">
<feFlood flood-opacity="0" result="BackgroundImageFix"/>
<feColorMatrix in="SourceAlpha" type="matrix" values="0 0 0 0 0 0 0 0 0 0 0 0 0 0 0 0 0 0 127 0" result="hardAlpha"/>
<feOffset dy="9.09091"/>
<feGaussianBlur stdDeviation="6.81818"/>
<feComposite in2="hardAlpha" operator="out"/>
<feColorMatrix type="matrix" values="0 0 0 0 0.317647 0 0 0 0 0.113725 0 0 0 0 0.839216 0 0 0 0.6 0"/>
<feBlend mode="normal" in2="BackgroundImageFix" result="effect1_dropShadow_194_2125"/>
<feBlend mode="normal" in="SourceGraphic" in2="effect1_dropShadow_194_2125" result="shape"/>
<feColorMatrix in="SourceAlpha" type="matrix" values="0 0 0 0 0 0 0 0 0 0 0 0 0 0 0 0 0 0 127 0" result="hardAlpha"/>
<feOffset dy="9.09091"/>
<feGaussianBlur stdDeviation="5.68182"/>
<feComposite in2="hardAlpha" operator="arithmetic" k2="-1" k3="1"/>
<feColorMatrix type="matrix" values="0 0 0 0 0.317647 0 0 0 0 0.113725 0 0 0 0 0.839216 0 0 0 0.6 0"/>
<feBlend mode="normal" in2="shape" result="effect2_innerShadow_194_2125"/>
<feColorMatrix in="SourceAlpha" type="matrix" values="0 0 0 0 0 0 0 0 0 0 0 0 0 0 0 0 0 0 127 0" result="hardAlpha"/>
<feOffset/>
<feGaussianBlur stdDeviation="2.27273"/>
<feComposite in2="hardAlpha" operator="arithmetic" k2="-1" k3="1"/>
<feColorMatrix type="matrix" values="0 0 0 0 1 0 0 0 0 1 0 0 0 0 1 0 0 0 0.5 0"/>
<feBlend mode="normal" in2="effect2_innerShadow_194_2125" result="effect3_innerShadow_194_2125"/>
</filter>
<filter id="filter1_dii_194_2125" x="9.61339" y="27.7871" width="72.4398" height="54.2732" filterUnits="userSpaceOnUse" color-interpolation-filters="sRGB">
<feFlood flood-opacity="0" result="BackgroundImageFix"/>
<feColorMatrix in="SourceAlpha" type="matrix" values="0 0 0 0 0 0 0 0 0 0 0 0 0 0 0 0 0 0 127 0" result="hardAlpha"/>
<feOffset dy="9.09091"/>
<feGaussianBlur stdDeviation="6.81818"/>
<feComposite in2="hardAlpha" operator="out"/>
<feColorMatrix type="matrix" values="0 0 0 0 0.317647 0 0 0 0 0.113725 0 0 0 0 0.839216 0 0 0 0.6 0"/>
<feBlend mode="normal" in2="BackgroundImageFix" result="effect1_dropShadow_194_2125"/>
<feBlend mode="normal" in="SourceGraphic" in2="effect1_dropShadow_194_2125" result="shape"/>
<feColorMatrix in="SourceAlpha" type="matrix" values="0 0 0 0 0 0 0 0 0 0 0 0 0 0 0 0 0 0 127 0" result="hardAlpha"/>
<feOffset dy="9.09091"/>
<feGaussianBlur stdDeviation="5.68182"/>
<feComposite in2="hardAlpha" operator="arithmetic" k2="-1" k3="1"/>
<feColorMatrix type="matrix" values="0 0 0 0 0.317647 0 0 0 0 0.113725 0 0 0 0 0.839216 0 0 0 0.6 0"/>
<feBlend mode="normal" in2="shape" result="effect2_innerShadow_194_2125"/>
<feColorMatrix in="SourceAlpha" type="matrix" values="0 0 0 0 0 0 0 0 0 0 0 0 0 0 0 0 0 0 127 0" result="hardAlpha"/>
<feOffset/>
<feGaussianBlur stdDeviation="2.27273"/>
<feComposite in2="hardAlpha" operator="arithmetic" k2="-1" k3="1"/>
<feColorMatrix type="matrix" values="0 0 0 0 1 0 0 0 0 1 0 0 0 0 1 0 0 0 0.5 0"/>
<feBlend mode="normal" in2="effect2_innerShadow_194_2125" result="effect3_innerShadow_194_2125"/>
</filter>
<radialGradient id="paint0_radial_194_2125" cx="0" cy="0" r="1" gradientUnits="userSpaceOnUse" gradientTransform="translate(35.2887 17.888) rotate(78.7233) scale(75.2313 143.648)">
<stop stop-color="white" stop-opacity="0.7"/>
<stop offset="1" stop-color="#511DD6" stop-opacity="0"/>
</radialGradient>
<radialGradient id="paint1_radial_194_2125" cx="0" cy="0" r="1" gradientUnits="userSpaceOnUse" gradientTransform="translate(69.1157 62.1667) rotate(78.7214) scale(30.0868 57.4574)">
<stop stop-color="white" stop-opacity="0.7"/>
<stop offset="1" stop-color="#511DD6" stop-opacity="0"/>
</radialGradient>
<radialGradient id="paint2_radial_194_2125" cx="0" cy="0" r="1" gradientUnits="userSpaceOnUse" gradientTransform="translate(37.8597 35.4282) rotate(71.5534) scale(25.1994 75.3114)">
<stop stop-color="white" stop-opacity="0.7"/>
<stop offset="1" stop-color="#511DD6" stop-opacity="0"/>
</radialGradient>
</defs>
</svg>
