<svg width="110" height="101" viewBox="0 0 110 101" fill="none" xmlns="http://www.w3.org/2000/svg">
<g id="vuesax/bulk/money-send">
<g id="vuesax/bulk/money-send_2">
<g id="money-send">
<g id="Vector" opacity="0.2">
<path d="M8.33325 51.0002C8.33325 28.0002 26.9999 9.3335 49.9999 9.3335C56.4512 9.3335 62.5481 10.8157 68 13.4394C71.3159 15.0351 67.2266 20.1358 70 22.4995L75.5 31.9995C77.8635 34.7727 85.9647 29.6838 87.5604 32.9995C90.1843 38.4516 91.6666 44.5486 91.6666 51.0002C91.6666 74.0002 72.9999 92.6668 49.9999 92.6668C26.9999 92.6668 8.33325 74.0002 8.33325 51.0002Z" fill="#FF1010"/>
<path d="M8.33325 51.0002C8.33325 28.0002 26.9999 9.3335 49.9999 9.3335C56.4512 9.3335 62.5481 10.8157 68 13.4394C71.3159 15.0351 67.2266 20.1358 70 22.4995L75.5 31.9995C77.8635 34.7727 85.9647 29.6838 87.5604 32.9995C90.1843 38.4516 91.6666 44.5486 91.6666 51.0002C91.6666 74.0002 72.9999 92.6668 49.9999 92.6668C26.9999 92.6668 8.33325 74.0002 8.33325 51.0002Z" fill="url(#paint0_radial_194_2234)" style="mix-blend-mode:plus-lighter"/>
</g>
<g id="&#226;&#130;&#186;" filter="url(#filter0_dii_194_2234)">
<path d="M44.2744 73.6454C40.8409 73.5284 38.4692 70.4077 38.4692 66.9722V32.4888C38.4692 30.1939 40.3296 28.3335 42.6245 28.3335C44.9194 28.3335 46.7798 30.1939 46.7798 32.4888V64.2866C46.7798 64.6415 47.0683 64.9244 47.4215 64.9601C47.6455 64.9601 47.8696 64.9601 48.0937 64.9601C48.3177 64.9395 48.5316 64.9292 48.7353 64.9292C50.487 64.7644 52.0657 64.3214 53.4711 63.6002C54.8766 62.879 56.0784 61.9208 57.0765 60.7257C58.095 59.5099 58.869 58.0984 59.3986 56.4912C59.5434 56.068 59.6692 55.634 59.7759 55.1894C60.2936 53.0316 62.0224 51.2058 64.2414 51.2058C66.4604 51.2058 68.2954 53.0142 67.9797 55.2107C67.6542 57.4747 67.0447 59.6221 66.151 61.6529C64.7659 64.8468 62.6883 67.4946 59.918 69.5964C57.1682 71.6776 53.7359 72.9551 49.6213 73.4291C47.8696 73.6351 46.0873 73.7072 44.2744 73.6454ZM38.1107 57.0526C35.6731 58.0527 33 56.26 33 53.6252C33 52.1239 33.9061 50.771 35.2944 50.1995L49.8709 44.1988C52.3154 43.1925 54.9988 44.9898 54.9988 47.6333C54.9988 49.14 54.0885 50.4975 52.6945 51.0694L38.1107 57.0526ZM38.1107 44.2564C35.6731 45.2565 33 43.4639 33 40.829C33 39.3277 33.9061 37.9749 35.2944 37.4033L49.8709 31.4027C52.3154 30.3964 54.9988 32.1936 54.9988 34.8371C54.9988 36.3439 54.0885 37.7014 52.6945 38.2733L38.1107 44.2564Z" fill="#FF1010"/>
<path d="M44.2744 73.6454C40.8409 73.5284 38.4692 70.4077 38.4692 66.9722V32.4888C38.4692 30.1939 40.3296 28.3335 42.6245 28.3335C44.9194 28.3335 46.7798 30.1939 46.7798 32.4888V64.2866C46.7798 64.6415 47.0683 64.9244 47.4215 64.9601C47.6455 64.9601 47.8696 64.9601 48.0937 64.9601C48.3177 64.9395 48.5316 64.9292 48.7353 64.9292C50.487 64.7644 52.0657 64.3214 53.4711 63.6002C54.8766 62.879 56.0784 61.9208 57.0765 60.7257C58.095 59.5099 58.869 58.0984 59.3986 56.4912C59.5434 56.068 59.6692 55.634 59.7759 55.1894C60.2936 53.0316 62.0224 51.2058 64.2414 51.2058C66.4604 51.2058 68.2954 53.0142 67.9797 55.2107C67.6542 57.4747 67.0447 59.6221 66.151 61.6529C64.7659 64.8468 62.6883 67.4946 59.918 69.5964C57.1682 71.6776 53.7359 72.9551 49.6213 73.4291C47.8696 73.6351 46.0873 73.7072 44.2744 73.6454ZM38.1107 57.0526C35.6731 58.0527 33 56.26 33 53.6252C33 52.1239 33.9061 50.771 35.2944 50.1995L49.8709 44.1988C52.3154 43.1925 54.9988 44.9898 54.9988 47.6333C54.9988 49.14 54.0885 50.4975 52.6945 51.0694L38.1107 57.0526ZM38.1107 44.2564C35.6731 45.2565 33 43.4639 33 40.829C33 39.3277 33.9061 37.9749 35.2944 37.4033L49.8709 31.4027C52.3154 30.3964 54.9988 32.1936 54.9988 34.8371C54.9988 36.3439 54.0885 37.7014 52.6945 38.2733L38.1107 44.2564Z" fill="url(#paint1_radial_194_2234)" style="mix-blend-mode:plus-lighter"/>
</g>
</g>
</g>
<g id="Vector_2" filter="url(#filter1_dii_194_2234)">
<path d="M87.375 5.16699H75.125C69.8333 5.16699 66.6666 8.33366 66.6666 13.6253V25.8753C66.6666 31.167 69.8333 34.3337 75.125 34.3337H87.375C92.6666 34.3337 95.8333 31.167 95.8333 25.8753V13.6253C95.8333 8.33366 92.6666 5.16699 87.375 5.16699ZM88.2916 18.9587C87.7916 19.4587 87.125 19.7087 86.4583 19.7087C85.7916 19.7087 85.125 19.4587 84.625 18.9587L83.875 18.2087V27.542C83.875 29.0003 82.7083 30.167 81.25 30.167C79.7916 30.167 78.625 29.0003 78.625 27.542V18.2087L77.875 18.9587C76.875 19.9587 75.2083 19.9587 74.2083 18.9587C73.2083 17.9587 73.2083 16.292 74.2083 15.292L79.4166 10.0837C79.625 9.87533 79.9166 9.70866 80.2083 9.58366C80.2916 9.54199 80.375 9.54199 80.4583 9.50033C80.6666 9.41699 80.875 9.37533 81.125 9.37533C81.2083 9.37533 81.2916 9.37533 81.375 9.37533C81.6666 9.37533 81.9166 9.41699 82.2083 9.54199C82.25 9.54199 82.25 9.54199 82.2916 9.54199C82.5833 9.66699 82.8333 9.83366 83.0416 10.042C83.0833 10.0837 83.0833 10.0837 83.125 10.0837L88.3333 15.292C89.3333 16.292 89.3333 17.9587 88.2916 18.9587Z" fill="#FF1010"/>
<path d="M87.375 5.16699H75.125C69.8333 5.16699 66.6666 8.33366 66.6666 13.6253V25.8753C66.6666 31.167 69.8333 34.3337 75.125 34.3337H87.375C92.6666 34.3337 95.8333 31.167 95.8333 25.8753V13.6253C95.8333 8.33366 92.6666 5.16699 87.375 5.16699ZM88.2916 18.9587C87.7916 19.4587 87.125 19.7087 86.4583 19.7087C85.7916 19.7087 85.125 19.4587 84.625 18.9587L83.875 18.2087V27.542C83.875 29.0003 82.7083 30.167 81.25 30.167C79.7916 30.167 78.625 29.0003 78.625 27.542V18.2087L77.875 18.9587C76.875 19.9587 75.2083 19.9587 74.2083 18.9587C73.2083 17.9587 73.2083 16.292 74.2083 15.292L79.4166 10.0837C79.625 9.87533 79.9166 9.70866 80.2083 9.58366C80.2916 9.54199 80.375 9.54199 80.4583 9.50033C80.6666 9.41699 80.875 9.37533 81.125 9.37533C81.2083 9.37533 81.2916 9.37533 81.375 9.37533C81.6666 9.37533 81.9166 9.41699 82.2083 9.54199C82.25 9.54199 82.25 9.54199 82.2916 9.54199C82.5833 9.66699 82.8333 9.83366 83.0416 10.042C83.0833 10.0837 83.0833 10.0837 83.125 10.0837L88.3333 15.292C89.3333 16.292 89.3333 17.9587 88.2916 18.9587Z" fill="url(#paint2_radial_194_2234)" style="mix-blend-mode:plus-lighter"/>
</g>
</g>
<defs>
<filter id="filter0_dii_194_2234" x="19.3636" y="23.788" width="62.2879" height="72.6062" filterUnits="userSpaceOnUse" color-interpolation-filters="sRGB">
<feFlood flood-opacity="0" result="BackgroundImageFix"/>
<feColorMatrix in="SourceAlpha" type="matrix" values="0 0 0 0 0 0 0 0 0 0 0 0 0 0 0 0 0 0 127 0" result="hardAlpha"/>
<feOffset dy="9.09091"/>
<feGaussianBlur stdDeviation="6.81818"/>
<feComposite in2="hardAlpha" operator="out"/>
<feColorMatrix type="matrix" values="0 0 0 0 1 0 0 0 0 0.0627451 0 0 0 0 0.0627451 0 0 0 0.6 0"/>
<feBlend mode="normal" in2="BackgroundImageFix" result="effect1_dropShadow_194_2234"/>
<feBlend mode="normal" in="SourceGraphic" in2="effect1_dropShadow_194_2234" result="shape"/>
<feColorMatrix in="SourceAlpha" type="matrix" values="0 0 0 0 0 0 0 0 0 0 0 0 0 0 0 0 0 0 127 0" result="hardAlpha"/>
<feOffset dy="9.09091"/>
<feGaussianBlur stdDeviation="5.68182"/>
<feComposite in2="hardAlpha" operator="arithmetic" k2="-1" k3="1"/>
<feColorMatrix type="matrix" values="0 0 0 0 1 0 0 0 0 0.0627451 0 0 0 0 0.0627451 0 0 0 0.6 0"/>
<feBlend mode="normal" in2="shape" result="effect2_innerShadow_194_2234"/>
<feColorMatrix in="SourceAlpha" type="matrix" values="0 0 0 0 0 0 0 0 0 0 0 0 0 0 0 0 0 0 127 0" result="hardAlpha"/>
<feOffset/>
<feGaussianBlur stdDeviation="2.27273"/>
<feComposite in2="hardAlpha" operator="arithmetic" k2="-1" k3="1"/>
<feColorMatrix type="matrix" values="0 0 0 0 1 0 0 0 0 1 0 0 0 0 1 0 0 0 0.5 0"/>
<feBlend mode="normal" in2="effect2_innerShadow_194_2234" result="effect3_innerShadow_194_2234"/>
</filter>
<filter id="filter1_dii_194_2234" x="53.0303" y="0.621538" width="56.4394" height="56.4392" filterUnits="userSpaceOnUse" color-interpolation-filters="sRGB">
<feFlood flood-opacity="0" result="BackgroundImageFix"/>
<feColorMatrix in="SourceAlpha" type="matrix" values="0 0 0 0 0 0 0 0 0 0 0 0 0 0 0 0 0 0 127 0" result="hardAlpha"/>
<feOffset dy="9.09091"/>
<feGaussianBlur stdDeviation="6.81818"/>
<feComposite in2="hardAlpha" operator="out"/>
<feColorMatrix type="matrix" values="0 0 0 0 1 0 0 0 0 0.0627451 0 0 0 0 0.0627451 0 0 0 0.6 0"/>
<feBlend mode="normal" in2="BackgroundImageFix" result="effect1_dropShadow_194_2234"/>
<feBlend mode="normal" in="SourceGraphic" in2="effect1_dropShadow_194_2234" result="shape"/>
<feColorMatrix in="SourceAlpha" type="matrix" values="0 0 0 0 0 0 0 0 0 0 0 0 0 0 0 0 0 0 127 0" result="hardAlpha"/>
<feOffset dy="9.09091"/>
<feGaussianBlur stdDeviation="5.68182"/>
<feComposite in2="hardAlpha" operator="arithmetic" k2="-1" k3="1"/>
<feColorMatrix type="matrix" values="0 0 0 0 1 0 0 0 0 0.0627451 0 0 0 0 0.0627451 0 0 0 0.6 0"/>
<feBlend mode="normal" in2="shape" result="effect2_innerShadow_194_2234"/>
<feColorMatrix in="SourceAlpha" type="matrix" values="0 0 0 0 0 0 0 0 0 0 0 0 0 0 0 0 0 0 127 0" result="hardAlpha"/>
<feOffset/>
<feGaussianBlur stdDeviation="2.27273"/>
<feComposite in2="hardAlpha" operator="arithmetic" k2="-1" k3="1"/>
<feColorMatrix type="matrix" values="0 0 0 0 1 0 0 0 0 1 0 0 0 0 1 0 0 0 0.5 0"/>
<feBlend mode="normal" in2="effect2_innerShadow_194_2234" result="effect3_innerShadow_194_2234"/>
</filter>
<radialGradient id="paint0_radial_194_2234" cx="0" cy="0" r="1" gradientUnits="userSpaceOnUse" gradientTransform="translate(35.2886 18.888) rotate(78.7233) scale(75.2313 143.648)">
<stop stop-color="white" stop-opacity="0.7"/>
<stop offset="1" stop-color="#FF1010" stop-opacity="0"/>
</radialGradient>
<radialGradient id="paint1_radial_194_2234" cx="0" cy="0" r="1" gradientUnits="userSpaceOnUse" gradientTransform="translate(44.4051 33.5311) rotate(81.1844) scale(40.6155 61.2434)">
<stop stop-color="white" stop-opacity="0.7"/>
<stop offset="1" stop-color="#FF1010" stop-opacity="0"/>
</radialGradient>
<radialGradient id="paint2_radial_194_2234" cx="0" cy="0" r="1" gradientUnits="userSpaceOnUse" gradientTransform="translate(76.101 8.51106) rotate(78.7233) scale(26.3309 50.2768)">
<stop stop-color="white" stop-opacity="0.7"/>
<stop offset="1" stop-color="#FF1010" stop-opacity="0"/>
</radialGradient>
</defs>
</svg>
