<svg width="100" height="100" viewBox="0 0 100 100" fill="none" xmlns="http://www.w3.org/2000/svg">
<g id="vuesax/bulk/personalcard">
<g id="personalcard">
<g id="personalcard_2">
<g id="Vector" opacity="0.1">
<path d="M75 12.5H25C15.7917 12.5 8.33337 19.9167 8.33337 29.0417V70.9583C8.33337 80.0833 15.7917 87.5 25 87.5H75C84.2084 87.5 91.6667 80.0833 91.6667 70.9583V29.0417C91.6667 19.9167 84.2084 12.5 75 12.5Z" fill="#FFA310"/>
<path d="M75 12.5H25C15.7917 12.5 8.33337 19.9167 8.33337 29.0417V70.9583C8.33337 80.0833 15.7917 87.5 25 87.5H75C84.2084 87.5 91.6667 80.0833 91.6667 70.9583V29.0417C91.6667 19.9167 84.2084 12.5 75 12.5Z" fill="url(#paint0_radial_194_2188)" style="mix-blend-mode:plus-lighter"/>
</g>
<g id="Vector_2">
<path d="M79.1667 36.4585H58.3334C56.625 36.4585 55.2084 35.0418 55.2084 33.3335C55.2084 31.6252 56.625 30.2085 58.3334 30.2085H79.1667C80.875 30.2085 82.2917 31.6252 82.2917 33.3335C82.2917 35.0418 80.875 36.4585 79.1667 36.4585Z" fill="#FFA310"/>
<path d="M79.1667 36.4585H58.3334C56.625 36.4585 55.2084 35.0418 55.2084 33.3335C55.2084 31.6252 56.625 30.2085 58.3334 30.2085H79.1667C80.875 30.2085 82.2917 31.6252 82.2917 33.3335C82.2917 35.0418 80.875 36.4585 79.1667 36.4585Z" fill="url(#paint1_radial_194_2188)" style="mix-blend-mode:plus-lighter"/>
</g>
<g id="Vector_3" opacity="0.4">
<path d="M79.1667 53.125H62.5C60.7917 53.125 59.375 51.7083 59.375 50C59.375 48.2917 60.7917 46.875 62.5 46.875H79.1667C80.875 46.875 82.2917 48.2917 82.2917 50C82.2917 51.7083 80.875 53.125 79.1667 53.125Z" fill="#FFA310"/>
<path d="M79.1667 53.125H62.5C60.7917 53.125 59.375 51.7083 59.375 50C59.375 48.2917 60.7917 46.875 62.5 46.875H79.1667C80.875 46.875 82.2917 48.2917 82.2917 50C82.2917 51.7083 80.875 53.125 79.1667 53.125Z" fill="url(#paint2_radial_194_2188)" style="mix-blend-mode:plus-lighter"/>
</g>
<g id="Vector_4" opacity="0.2">
<path d="M79.1667 69.792H70.8334C69.125 69.792 67.7084 68.3753 67.7084 66.667C67.7084 64.9587 69.125 63.542 70.8334 63.542H79.1667C80.875 63.542 82.2917 64.9587 82.2917 66.667C82.2917 68.3753 80.875 69.792 79.1667 69.792Z" fill="#FFA310"/>
<path d="M79.1667 69.792H70.8334C69.125 69.792 67.7084 68.3753 67.7084 66.667C67.7084 64.9587 69.125 63.542 70.8334 63.542H79.1667C80.875 63.542 82.2917 64.9587 82.2917 66.667C82.2917 68.3753 80.875 69.792 79.1667 69.792Z" fill="url(#paint3_radial_194_2188)" style="mix-blend-mode:plus-lighter"/>
</g>
<g id="Vector_5" filter="url(#filter0_dii_194_2188)">
<path d="M35.4164 49.1245C40.7321 49.1245 45.0414 44.8153 45.0414 39.4995C45.0414 34.1838 40.7321 29.8745 35.4164 29.8745C30.1006 29.8745 25.7914 34.1838 25.7914 39.4995C25.7914 44.8153 30.1006 49.1245 35.4164 49.1245Z" fill="#FFA310"/>
<path d="M35.4164 49.1245C40.7321 49.1245 45.0414 44.8153 45.0414 39.4995C45.0414 34.1838 40.7321 29.8745 35.4164 29.8745C30.1006 29.8745 25.7914 34.1838 25.7914 39.4995C25.7914 44.8153 30.1006 49.1245 35.4164 49.1245Z" fill="url(#paint4_radial_194_2188)" style="mix-blend-mode:plus-lighter"/>
</g>
<g id="Vector_6" filter="url(#filter1_dii_194_2188)">
<path d="M38.7501 54.624C36.5418 54.4157 34.2501 54.4157 32.0418 54.624C25.0418 55.2907 19.4168 60.8324 18.7501 67.8324C18.7084 68.4157 18.8751 68.999 19.2918 69.4157C19.7084 69.8324 20.2501 70.124 20.8334 70.124H50.0001C50.5834 70.124 51.1668 69.874 51.5418 69.4574C51.9168 69.0407 52.1251 68.4574 52.0834 67.874C51.3751 60.8324 45.7918 55.2907 38.7501 54.624Z" fill="#FFA310"/>
<path d="M38.7501 54.624C36.5418 54.4157 34.2501 54.4157 32.0418 54.624C25.0418 55.2907 19.4168 60.8324 18.7501 67.8324C18.7084 68.4157 18.8751 68.999 19.2918 69.4157C19.7084 69.8324 20.2501 70.124 20.8334 70.124H50.0001C50.5834 70.124 51.1668 69.874 51.5418 69.4574C51.9168 69.0407 52.1251 68.4574 52.0834 67.874C51.3751 60.8324 45.7918 55.2907 38.7501 54.624Z" fill="url(#paint5_radial_194_2188)" style="mix-blend-mode:plus-lighter"/>
</g>
</g>
</g>
</g>
<defs>
<filter id="filter0_dii_194_2188" x="13.7914" y="25.8745" width="43.25" height="43.2505" filterUnits="userSpaceOnUse" color-interpolation-filters="sRGB">
<feFlood flood-opacity="0" result="BackgroundImageFix"/>
<feColorMatrix in="SourceAlpha" type="matrix" values="0 0 0 0 0 0 0 0 0 0 0 0 0 0 0 0 0 0 127 0" result="hardAlpha"/>
<feOffset dy="8"/>
<feGaussianBlur stdDeviation="6"/>
<feComposite in2="hardAlpha" operator="out"/>
<feColorMatrix type="matrix" values="0 0 0 0 1 0 0 0 0 0.639216 0 0 0 0 0.0627451 0 0 0 0.6 0"/>
<feBlend mode="normal" in2="BackgroundImageFix" result="effect1_dropShadow_194_2188"/>
<feBlend mode="normal" in="SourceGraphic" in2="effect1_dropShadow_194_2188" result="shape"/>
<feColorMatrix in="SourceAlpha" type="matrix" values="0 0 0 0 0 0 0 0 0 0 0 0 0 0 0 0 0 0 127 0" result="hardAlpha"/>
<feOffset dy="8"/>
<feGaussianBlur stdDeviation="5"/>
<feComposite in2="hardAlpha" operator="arithmetic" k2="-1" k3="1"/>
<feColorMatrix type="matrix" values="0 0 0 0 1 0 0 0 0 0.639216 0 0 0 0 0.0627451 0 0 0 0.6 0"/>
<feBlend mode="normal" in2="shape" result="effect2_innerShadow_194_2188"/>
<feColorMatrix in="SourceAlpha" type="matrix" values="0 0 0 0 0 0 0 0 0 0 0 0 0 0 0 0 0 0 127 0" result="hardAlpha"/>
<feOffset/>
<feGaussianBlur stdDeviation="2"/>
<feComposite in2="hardAlpha" operator="arithmetic" k2="-1" k3="1"/>
<feColorMatrix type="matrix" values="0 0 0 0 1 0 0 0 0 1 0 0 0 0 1 0 0 0 0.5 0"/>
<feBlend mode="normal" in2="effect2_innerShadow_194_2188" result="effect3_innerShadow_194_2188"/>
</filter>
<filter id="filter1_dii_194_2188" x="6.7439" y="50.4678" width="57.3448" height="39.6562" filterUnits="userSpaceOnUse" color-interpolation-filters="sRGB">
<feFlood flood-opacity="0" result="BackgroundImageFix"/>
<feColorMatrix in="SourceAlpha" type="matrix" values="0 0 0 0 0 0 0 0 0 0 0 0 0 0 0 0 0 0 127 0" result="hardAlpha"/>
<feOffset dy="8"/>
<feGaussianBlur stdDeviation="6"/>
<feComposite in2="hardAlpha" operator="out"/>
<feColorMatrix type="matrix" values="0 0 0 0 1 0 0 0 0 0.639216 0 0 0 0 0.0627451 0 0 0 0.6 0"/>
<feBlend mode="normal" in2="BackgroundImageFix" result="effect1_dropShadow_194_2188"/>
<feBlend mode="normal" in="SourceGraphic" in2="effect1_dropShadow_194_2188" result="shape"/>
<feColorMatrix in="SourceAlpha" type="matrix" values="0 0 0 0 0 0 0 0 0 0 0 0 0 0 0 0 0 0 127 0" result="hardAlpha"/>
<feOffset dy="8"/>
<feGaussianBlur stdDeviation="5"/>
<feComposite in2="hardAlpha" operator="arithmetic" k2="-1" k3="1"/>
<feColorMatrix type="matrix" values="0 0 0 0 1 0 0 0 0 0.639216 0 0 0 0 0.0627451 0 0 0 0.6 0"/>
<feBlend mode="normal" in2="shape" result="effect2_innerShadow_194_2188"/>
<feColorMatrix in="SourceAlpha" type="matrix" values="0 0 0 0 0 0 0 0 0 0 0 0 0 0 0 0 0 0 127 0" result="hardAlpha"/>
<feOffset/>
<feGaussianBlur stdDeviation="2"/>
<feComposite in2="hardAlpha" operator="arithmetic" k2="-1" k3="1"/>
<feColorMatrix type="matrix" values="0 0 0 0 1 0 0 0 0 1 0 0 0 0 1 0 0 0 0.5 0"/>
<feBlend mode="normal" in2="effect2_innerShadow_194_2188" result="effect3_innerShadow_194_2188"/>
</filter>
<radialGradient id="paint0_radial_194_2188" cx="0" cy="0" r="1" gradientUnits="userSpaceOnUse" gradientTransform="translate(35.2887 21.099) rotate(77.5077) scale(68.0111 143.008)">
<stop stop-color="white" stop-opacity="0.3"/>
<stop offset="1" stop-color="#FFA310" stop-opacity="0"/>
</radialGradient>
<radialGradient id="paint1_radial_194_2188" cx="0" cy="0" r="1" gradientUnits="userSpaceOnUse" gradientTransform="translate(63.9689 30.9251) rotate(49.1711) scale(7.31289 36.0208)">
<stop stop-color="white" stop-opacity="0.3"/>
<stop offset="1" stop-color="#FFA310" stop-opacity="0"/>
</radialGradient>
<radialGradient id="paint2_radial_194_2188" cx="0" cy="0" r="1" gradientUnits="userSpaceOnUse" gradientTransform="translate(66.7877 47.5916) rotate(53.8285) scale(6.85461 32.5169)">
<stop stop-color="white" stop-opacity="0.3"/>
<stop offset="1" stop-color="#FFA310" stop-opacity="0"/>
</radialGradient>
<radialGradient id="paint3_radial_194_2188" cx="0" cy="0" r="1" gradientUnits="userSpaceOnUse" gradientTransform="translate(72.4256 64.2586) rotate(65.0493) scale(6.103 23.2409)">
<stop stop-color="white" stop-opacity="0.3"/>
<stop offset="1" stop-color="#FFA310" stop-opacity="0"/>
</radialGradient>
<radialGradient id="paint4_radial_194_2188" cx="0" cy="0" r="1" gradientUnits="userSpaceOnUse" gradientTransform="translate(32.0181 32.0816) rotate(78.7233) scale(17.3784 33.1827)">
<stop stop-color="white" stop-opacity="0.3"/>
<stop offset="1" stop-color="#FFA310" stop-opacity="0"/>
</radialGradient>
<radialGradient id="paint5_radial_194_2188" cx="0" cy="0" r="1" gradientUnits="userSpaceOnUse" gradientTransform="translate(29.5297 56.2628) rotate(66.9901) scale(15.0594 53.9473)">
<stop stop-color="white" stop-opacity="0.3"/>
<stop offset="1" stop-color="#FFA310" stop-opacity="0"/>
</radialGradient>
</defs>
</svg>
