<svg width="110" height="105" viewBox="0 0 110 105" fill="none" xmlns="http://www.w3.org/2000/svg">
<g id="vuesax/bulk/share">
<g id="share">
<g id="Vector" opacity="0.2">
<path d="M89.8332 53.0403C88.2915 53.0403 86.9998 51.8736 86.8331 50.3319C85.8331 41.1653 80.9165 32.9153 73.3331 27.6653C71.9581 26.7069 71.6248 24.8319 72.5831 23.4569C73.5415 22.0819 75.4165 21.7486 76.7915 22.7069C85.8331 28.9986 91.6665 38.8319 92.8748 49.7069C93.0415 51.3736 91.8332 52.8736 90.1665 53.0403C90.0415 53.0403 89.9582 53.0403 89.8332 53.0403Z" fill="#3E95FF"/>
<path d="M89.8332 53.0403C88.2915 53.0403 86.9998 51.8736 86.8331 50.3319C85.8331 41.1653 80.9165 32.9153 73.3331 27.6653C71.9581 26.7069 71.6248 24.8319 72.5831 23.4569C73.5415 22.0819 75.4165 21.7486 76.7915 22.7069C85.8331 28.9986 91.6665 38.8319 92.8748 49.7069C93.0415 51.3736 91.8332 52.8736 90.1665 53.0403C90.0415 53.0403 89.9582 53.0403 89.8332 53.0403Z" fill="url(#paint0_radial_194_2133)" style="mix-blend-mode:plus-lighter"/>
</g>
<g id="Vector_2" opacity="0.2">
<path d="M20.5835 53.2503C20.5001 53.2503 20.3751 53.2503 20.2918 53.2503C18.6251 53.0837 17.4168 51.5837 17.5835 49.917C18.7085 39.042 24.4585 29.2087 33.4168 22.8754C34.7501 21.917 36.6668 22.2504 37.6251 23.5837C38.5835 24.9587 38.2501 26.8337 36.9168 27.792C29.4168 33.1254 24.5418 41.3754 23.6251 50.5004C23.4585 52.0837 22.1251 53.2503 20.5835 53.2503Z" fill="#3E95FF"/>
<path d="M20.5835 53.2503C20.5001 53.2503 20.3751 53.2503 20.2918 53.2503C18.6251 53.0837 17.4168 51.5837 17.5835 49.917C18.7085 39.042 24.4585 29.2087 33.4168 22.8754C34.7501 21.917 36.6668 22.2504 37.6251 23.5837C38.5835 24.9587 38.2501 26.8337 36.9168 27.792C29.4168 33.1254 24.5418 41.3754 23.6251 50.5004C23.4585 52.0837 22.1251 53.2503 20.5835 53.2503Z" fill="url(#paint1_radial_194_2133)" style="mix-blend-mode:plus-lighter"/>
</g>
<g id="Vector_3" opacity="0.2">
<path d="M71.6249 87.9177C66.4999 90.3761 60.9999 91.6261 55.2499 91.6261C49.2499 91.6261 43.5416 90.2927 38.2083 87.5844C36.7083 86.8761 36.1249 85.0427 36.8749 83.5427C37.5833 82.0427 39.4166 81.4594 40.9166 82.1677C43.5416 83.5011 46.3333 84.4177 49.1666 84.9594C52.9999 85.7094 56.9166 85.7511 60.7499 85.0844C63.5833 84.5844 66.3749 83.7094 68.9583 82.4594C70.4999 81.7511 72.3333 82.3344 72.9999 83.8761C73.7499 85.3761 73.1666 87.2094 71.6249 87.9177Z" fill="#3E95FF"/>
<path d="M71.6249 87.9177C66.4999 90.3761 60.9999 91.6261 55.2499 91.6261C49.2499 91.6261 43.5416 90.2927 38.2083 87.5844C36.7083 86.8761 36.1249 85.0427 36.8749 83.5427C37.5833 82.0427 39.4166 81.4594 40.9166 82.1677C43.5416 83.5011 46.3333 84.4177 49.1666 84.9594C52.9999 85.7094 56.9166 85.7511 60.7499 85.0844C63.5833 84.5844 66.3749 83.7094 68.9583 82.4594C70.4999 81.7511 72.3333 82.3344 72.9999 83.8761C73.7499 85.3761 73.1666 87.2094 71.6249 87.9177Z" fill="url(#paint2_radial_194_2133)" style="mix-blend-mode:plus-lighter"/>
</g>
<g id="Vector_4" filter="url(#filter0_dii_194_2133)">
<path d="M55.2083 8.37402C48.7499 8.37402 43.4583 13.624 43.4583 20.124C43.4583 26.624 48.7083 31.874 55.2083 31.874C61.7083 31.874 66.9583 26.624 66.9583 20.124C66.9583 13.624 61.7083 8.37402 55.2083 8.37402Z" fill="#3E95FF"/>
<path d="M55.2083 8.37402C48.7499 8.37402 43.4583 13.624 43.4583 20.124C43.4583 26.624 48.7083 31.874 55.2083 31.874C61.7083 31.874 66.9583 26.624 66.9583 20.124C66.9583 13.624 61.7083 8.37402 55.2083 8.37402Z" fill="url(#paint3_radial_194_2133)" style="mix-blend-mode:plus-lighter"/>
</g>
<g id="Vector_5" filter="url(#filter1_dii_194_2133)">
<path d="M26.0416 57.792C19.5833 57.792 14.2916 63.042 14.2916 69.542C14.2916 76.042 19.5416 81.292 26.0416 81.292C32.5416 81.292 37.7916 76.042 37.7916 69.542C37.7916 63.042 32.5 57.792 26.0416 57.792Z" fill="#3E95FF"/>
<path d="M26.0416 57.792C19.5833 57.792 14.2916 63.042 14.2916 69.542C14.2916 76.042 19.5416 81.292 26.0416 81.292C32.5416 81.292 37.7916 76.042 37.7916 69.542C37.7916 63.042 32.5 57.792 26.0416 57.792Z" fill="url(#paint4_radial_194_2133)" style="mix-blend-mode:plus-lighter"/>
</g>
<g id="Vector_6" filter="url(#filter2_dii_194_2133)">
<path d="M83.9584 57.792C77.5 57.792 72.2084 63.042 72.2084 69.542C72.2084 76.042 77.4584 81.292 83.9584 81.292C90.4584 81.292 95.7084 76.042 95.7084 69.542C95.7084 63.042 90.4584 57.792 83.9584 57.792Z" fill="#3E95FF"/>
<path d="M83.9584 57.792C77.5 57.792 72.2084 63.042 72.2084 69.542C72.2084 76.042 77.4584 81.292 83.9584 81.292C90.4584 81.292 95.7084 76.042 95.7084 69.542C95.7084 63.042 90.4584 57.792 83.9584 57.792Z" fill="url(#paint5_radial_194_2133)" style="mix-blend-mode:plus-lighter"/>
</g>
</g>
</g>
<defs>
<filter id="filter0_dii_194_2133" x="29.8219" y="3.82857" width="50.7727" height="50.7727" filterUnits="userSpaceOnUse" color-interpolation-filters="sRGB">
<feFlood flood-opacity="0" result="BackgroundImageFix"/>
<feColorMatrix in="SourceAlpha" type="matrix" values="0 0 0 0 0 0 0 0 0 0 0 0 0 0 0 0 0 0 127 0" result="hardAlpha"/>
<feOffset dy="9.09091"/>
<feGaussianBlur stdDeviation="6.81818"/>
<feComposite in2="hardAlpha" operator="out"/>
<feColorMatrix type="matrix" values="0 0 0 0 0.243137 0 0 0 0 0.584314 0 0 0 0 1 0 0 0 0.6 0"/>
<feBlend mode="normal" in2="BackgroundImageFix" result="effect1_dropShadow_194_2133"/>
<feBlend mode="normal" in="SourceGraphic" in2="effect1_dropShadow_194_2133" result="shape"/>
<feColorMatrix in="SourceAlpha" type="matrix" values="0 0 0 0 0 0 0 0 0 0 0 0 0 0 0 0 0 0 127 0" result="hardAlpha"/>
<feOffset dy="9.09091"/>
<feGaussianBlur stdDeviation="5.68182"/>
<feComposite in2="hardAlpha" operator="arithmetic" k2="-1" k3="1"/>
<feColorMatrix type="matrix" values="0 0 0 0 0.243137 0 0 0 0 0.584314 0 0 0 0 1 0 0 0 0.6 0"/>
<feBlend mode="normal" in2="shape" result="effect2_innerShadow_194_2133"/>
<feColorMatrix in="SourceAlpha" type="matrix" values="0 0 0 0 0 0 0 0 0 0 0 0 0 0 0 0 0 0 127 0" result="hardAlpha"/>
<feOffset/>
<feGaussianBlur stdDeviation="2.27273"/>
<feComposite in2="hardAlpha" operator="arithmetic" k2="-1" k3="1"/>
<feColorMatrix type="matrix" values="0 0 0 0 1 0 0 0 0 1 0 0 0 0 1 0 0 0 0.5 0"/>
<feBlend mode="normal" in2="effect2_innerShadow_194_2133" result="effect3_innerShadow_194_2133"/>
</filter>
<filter id="filter1_dii_194_2133" x="0.655264" y="53.2465" width="50.7727" height="50.7727" filterUnits="userSpaceOnUse" color-interpolation-filters="sRGB">
<feFlood flood-opacity="0" result="BackgroundImageFix"/>
<feColorMatrix in="SourceAlpha" type="matrix" values="0 0 0 0 0 0 0 0 0 0 0 0 0 0 0 0 0 0 127 0" result="hardAlpha"/>
<feOffset dy="9.09091"/>
<feGaussianBlur stdDeviation="6.81818"/>
<feComposite in2="hardAlpha" operator="out"/>
<feColorMatrix type="matrix" values="0 0 0 0 0.243137 0 0 0 0 0.584314 0 0 0 0 1 0 0 0 0.6 0"/>
<feBlend mode="normal" in2="BackgroundImageFix" result="effect1_dropShadow_194_2133"/>
<feBlend mode="normal" in="SourceGraphic" in2="effect1_dropShadow_194_2133" result="shape"/>
<feColorMatrix in="SourceAlpha" type="matrix" values="0 0 0 0 0 0 0 0 0 0 0 0 0 0 0 0 0 0 127 0" result="hardAlpha"/>
<feOffset dy="9.09091"/>
<feGaussianBlur stdDeviation="5.68182"/>
<feComposite in2="hardAlpha" operator="arithmetic" k2="-1" k3="1"/>
<feColorMatrix type="matrix" values="0 0 0 0 0.243137 0 0 0 0 0.584314 0 0 0 0 1 0 0 0 0.6 0"/>
<feBlend mode="normal" in2="shape" result="effect2_innerShadow_194_2133"/>
<feColorMatrix in="SourceAlpha" type="matrix" values="0 0 0 0 0 0 0 0 0 0 0 0 0 0 0 0 0 0 127 0" result="hardAlpha"/>
<feOffset/>
<feGaussianBlur stdDeviation="2.27273"/>
<feComposite in2="hardAlpha" operator="arithmetic" k2="-1" k3="1"/>
<feColorMatrix type="matrix" values="0 0 0 0 1 0 0 0 0 1 0 0 0 0 1 0 0 0 0.5 0"/>
<feBlend mode="normal" in2="effect2_innerShadow_194_2133" result="effect3_innerShadow_194_2133"/>
</filter>
<filter id="filter2_dii_194_2133" x="58.572" y="53.2465" width="50.7727" height="50.7727" filterUnits="userSpaceOnUse" color-interpolation-filters="sRGB">
<feFlood flood-opacity="0" result="BackgroundImageFix"/>
<feColorMatrix in="SourceAlpha" type="matrix" values="0 0 0 0 0 0 0 0 0 0 0 0 0 0 0 0 0 0 127 0" result="hardAlpha"/>
<feOffset dy="9.09091"/>
<feGaussianBlur stdDeviation="6.81818"/>
<feComposite in2="hardAlpha" operator="out"/>
<feColorMatrix type="matrix" values="0 0 0 0 0.243137 0 0 0 0 0.584314 0 0 0 0 1 0 0 0 0.6 0"/>
<feBlend mode="normal" in2="BackgroundImageFix" result="effect1_dropShadow_194_2133"/>
<feBlend mode="normal" in="SourceGraphic" in2="effect1_dropShadow_194_2133" result="shape"/>
<feColorMatrix in="SourceAlpha" type="matrix" values="0 0 0 0 0 0 0 0 0 0 0 0 0 0 0 0 0 0 127 0" result="hardAlpha"/>
<feOffset dy="9.09091"/>
<feGaussianBlur stdDeviation="5.68182"/>
<feComposite in2="hardAlpha" operator="arithmetic" k2="-1" k3="1"/>
<feColorMatrix type="matrix" values="0 0 0 0 0.243137 0 0 0 0 0.584314 0 0 0 0 1 0 0 0 0.6 0"/>
<feBlend mode="normal" in2="shape" result="effect2_innerShadow_194_2133"/>
<feColorMatrix in="SourceAlpha" type="matrix" values="0 0 0 0 0 0 0 0 0 0 0 0 0 0 0 0 0 0 127 0" result="hardAlpha"/>
<feOffset/>
<feGaussianBlur stdDeviation="2.27273"/>
<feComposite in2="hardAlpha" operator="arithmetic" k2="-1" k3="1"/>
<feColorMatrix type="matrix" values="0 0 0 0 1 0 0 0 0 1 0 0 0 0 1 0 0 0 0.5 0"/>
<feBlend mode="normal" in2="effect2_innerShadow_194_2133" result="effect3_innerShadow_194_2133"/>
</filter>
<radialGradient id="paint0_radial_194_2133" cx="0" cy="0" r="1" gradientUnits="userSpaceOnUse" gradientTransform="translate(78.7818 25.7007) rotate(82.3309) scale(27.5863 36.3271)">
<stop stop-color="white" stop-opacity="0.4"/>
<stop offset="1" stop-color="#3E95FF" stop-opacity="0"/>
</radialGradient>
<radialGradient id="paint1_radial_194_2133" cx="0" cy="0" r="1" gradientUnits="userSpaceOnUse" gradientTransform="translate(24.2335 25.8717) rotate(82.4316) scale(27.6192 35.9042)">
<stop stop-color="white" stop-opacity="0.4"/>
<stop offset="1" stop-color="#3E95FF" stop-opacity="0"/>
</radialGradient>
<radialGradient id="paint2_radial_194_2133" cx="0" cy="0" r="1" gradientUnits="userSpaceOnUse" gradientTransform="translate(48.4445 82.9869) rotate(53.0747) scale(10.8067 51.6766)">
<stop stop-color="white" stop-opacity="0.4"/>
<stop offset="1" stop-color="#3E95FF" stop-opacity="0"/>
</radialGradient>
<radialGradient id="paint3_radial_194_2133" cx="0" cy="0" r="1" gradientUnits="userSpaceOnUse" gradientTransform="translate(51.0597 11.0684) rotate(78.7233) scale(21.2152 40.5087)">
<stop stop-color="white" stop-opacity="0.4"/>
<stop offset="1" stop-color="#3E95FF" stop-opacity="0"/>
</radialGradient>
<radialGradient id="paint4_radial_194_2133" cx="0" cy="0" r="1" gradientUnits="userSpaceOnUse" gradientTransform="translate(21.893 60.4864) rotate(78.7233) scale(21.2152 40.5087)">
<stop stop-color="white" stop-opacity="0.4"/>
<stop offset="1" stop-color="#3E95FF" stop-opacity="0"/>
</radialGradient>
<radialGradient id="paint5_radial_194_2133" cx="0" cy="0" r="1" gradientUnits="userSpaceOnUse" gradientTransform="translate(79.8098 60.4864) rotate(78.7232) scale(21.2152 40.5087)">
<stop stop-color="white" stop-opacity="0.4"/>
<stop offset="1" stop-color="#3E95FF" stop-opacity="0"/>
</radialGradient>
</defs>
</svg>
