<svg width="108" height="100" viewBox="0 0 108 100" fill="none" xmlns="http://www.w3.org/2000/svg">
<g id="vuesax/bulk/candle-2">
<g id="candle-2">
<g id="Group">
<g id="Vector" filter="url(#filter0_dii_211_1112)">
<path d="M94.3125 65.625C94.3125 67.1625 93.0375 68.4375 91.5 68.4375H65.25V69.375C65.25 75 61.875 76.875 57.75 76.875H35.25C31.125 76.875 27.75 75 27.75 69.375V68.4375H16.5C14.9625 68.4375 13.6875 67.1625 13.6875 65.625C13.6875 64.0875 14.9625 62.8125 16.5 62.8125H27.75V61.875C27.75 56.25 31.125 54.375 35.25 54.375H57.75C61.875 54.375 65.25 56.25 65.25 61.875V62.8125H91.5C93.0375 62.8125 94.3125 64.0875 94.3125 65.625Z" fill="#3E95FF"/>
<path d="M94.3125 65.625C94.3125 67.1625 93.0375 68.4375 91.5 68.4375H65.25V69.375C65.25 75 61.875 76.875 57.75 76.875H35.25C31.125 76.875 27.75 75 27.75 69.375V68.4375H16.5C14.9625 68.4375 13.6875 67.1625 13.6875 65.625C13.6875 64.0875 14.9625 62.8125 16.5 62.8125H27.75V61.875C27.75 56.25 31.125 54.375 35.25 54.375H57.75C61.875 54.375 65.25 56.25 65.25 61.875V62.8125H91.5C93.0375 62.8125 94.3125 64.0875 94.3125 65.625Z" fill="url(#paint0_radial_211_1112)" style="mix-blend-mode:plus-lighter"/>
</g>
</g>
<g id="Vector_2" opacity="0.2">
<path d="M94.3125 24.375C94.3125 25.9125 93.0375 27.1875 91.5 27.1875H80.25V28.125C80.25 33.75 76.875 35.625 72.75 35.625H50.25C46.125 35.625 42.75 33.75 42.75 28.125V27.1875H16.5C14.9625 27.1875 13.6875 25.9125 13.6875 24.375C13.6875 22.8375 14.9625 21.5625 16.5 21.5625H42.75V20.625C42.75 15 46.125 13.125 50.25 13.125H72.75C76.875 13.125 80.25 15 80.25 20.625V21.5625H91.5C93.0375 21.5625 94.3125 22.8375 94.3125 24.375Z" fill="#3E95FF"/>
<path d="M94.3125 24.375C94.3125 25.9125 93.0375 27.1875 91.5 27.1875H80.25V28.125C80.25 33.75 76.875 35.625 72.75 35.625H50.25C46.125 35.625 42.75 33.75 42.75 28.125V27.1875H16.5C14.9625 27.1875 13.6875 25.9125 13.6875 24.375C13.6875 22.8375 14.9625 21.5625 16.5 21.5625H42.75V20.625C42.75 15 46.125 13.125 50.25 13.125H72.75C76.875 13.125 80.25 15 80.25 20.625V21.5625H91.5C93.0375 21.5625 94.3125 22.8375 94.3125 24.375Z" fill="url(#paint1_radial_211_1112)" style="mix-blend-mode:plus-lighter"/>
</g>
</g>
</g>
<defs>
<filter id="filter0_dii_211_1112" x="0.247501" y="49.895" width="107.505" height="49.38" filterUnits="userSpaceOnUse" color-interpolation-filters="sRGB">
<feFlood flood-opacity="0" result="BackgroundImageFix"/>
<feColorMatrix in="SourceAlpha" type="matrix" values="0 0 0 0 0 0 0 0 0 0 0 0 0 0 0 0 0 0 127 0" result="hardAlpha"/>
<feOffset dy="8.96"/>
<feGaussianBlur stdDeviation="6.72"/>
<feComposite in2="hardAlpha" operator="out"/>
<feColorMatrix type="matrix" values="0 0 0 0 0.243137 0 0 0 0 0.584314 0 0 0 0 1 0 0 0 0.6 0"/>
<feBlend mode="normal" in2="BackgroundImageFix" result="effect1_dropShadow_211_1112"/>
<feBlend mode="normal" in="SourceGraphic" in2="effect1_dropShadow_211_1112" result="shape"/>
<feColorMatrix in="SourceAlpha" type="matrix" values="0 0 0 0 0 0 0 0 0 0 0 0 0 0 0 0 0 0 127 0" result="hardAlpha"/>
<feOffset dy="8.96"/>
<feGaussianBlur stdDeviation="5.6"/>
<feComposite in2="hardAlpha" operator="arithmetic" k2="-1" k3="1"/>
<feColorMatrix type="matrix" values="0 0 0 0 0.243137 0 0 0 0 0.584314 0 0 0 0 1 0 0 0 0.6 0"/>
<feBlend mode="normal" in2="shape" result="effect2_innerShadow_211_1112"/>
<feColorMatrix in="SourceAlpha" type="matrix" values="0 0 0 0 0 0 0 0 0 0 0 0 0 0 0 0 0 0 127 0" result="hardAlpha"/>
<feOffset/>
<feGaussianBlur stdDeviation="2.24"/>
<feComposite in2="hardAlpha" operator="arithmetic" k2="-1" k3="1"/>
<feColorMatrix type="matrix" values="0 0 0 0 1 0 0 0 0 1 0 0 0 0 1 0 0 0 0.5 0"/>
<feBlend mode="normal" in2="effect2_innerShadow_211_1112" result="effect3_innerShadow_211_1112"/>
</filter>
<radialGradient id="paint0_radial_211_1112" cx="0" cy="0" r="1" gradientUnits="userSpaceOnUse" gradientTransform="translate(39.7668 56.9547) rotate(54.4539) scale(24.4827 115.306)">
<stop stop-color="white" stop-opacity="0.4"/>
<stop offset="1" stop-color="#3E95FF" stop-opacity="0"/>
</radialGradient>
<radialGradient id="paint1_radial_211_1112" cx="0" cy="0" r="1" gradientUnits="userSpaceOnUse" gradientTransform="translate(39.7668 15.7047) rotate(54.4539) scale(24.4827 115.306)">
<stop stop-color="white" stop-opacity="0.4"/>
<stop offset="1" stop-color="#3E95FF" stop-opacity="0"/>
</radialGradient>
</defs>
</svg>
