<svg width="98" height="104" viewBox="0 0 98 104" fill="none" xmlns="http://www.w3.org/2000/svg">
<g id="vuesax/bulk/global">
<g id="global">
<g id="Vector" filter="url(#filter0_dii_211_1084)">
<path d="M32.6877 78.4119C32.5752 78.4119 32.4252 78.4869 32.3127 78.4869C25.0377 74.8869 19.1127 68.9244 15.4752 61.6494C15.4752 61.5369 15.5502 61.3869 15.5502 61.2744C20.1252 62.6244 24.8502 63.6369 29.5377 64.4244C30.3627 69.1494 31.3377 73.8369 32.6877 78.4119Z" fill="#3E95FF"/>
<path d="M32.6877 78.4119C32.5752 78.4119 32.4252 78.4869 32.3127 78.4869C25.0377 74.8869 19.1127 68.9244 15.4752 61.6494C15.4752 61.5369 15.5502 61.3869 15.5502 61.2744C20.1252 62.6244 24.8502 63.6369 29.5377 64.4244C30.3627 69.1494 31.3377 73.8369 32.6877 78.4119Z" fill="url(#paint0_radial_211_1084)" style="mix-blend-mode:plus-lighter"/>
</g>
<g id="Vector_2" filter="url(#filter1_dii_211_1084)">
<path d="M82.5251 61.6869C78.8126 69.1494 72.6251 75.1869 65.0876 78.8244C66.5126 74.0619 67.7126 69.2619 68.5001 64.4244C73.2251 63.6369 77.8751 62.6244 82.4501 61.2744C82.4126 61.4244 82.5251 61.5744 82.5251 61.6869Z" fill="#3E95FF"/>
<path d="M82.5251 61.6869C78.8126 69.1494 72.6251 75.1869 65.0876 78.8244C66.5126 74.0619 67.7126 69.2619 68.5001 64.4244C73.2251 63.6369 77.8751 62.6244 82.4501 61.2744C82.4126 61.4244 82.5251 61.5744 82.5251 61.6869Z" fill="url(#paint1_radial_211_1084)" style="mix-blend-mode:plus-lighter"/>
</g>
<g id="Vector_3" filter="url(#filter2_dii_211_1084)">
<path d="M82.8251 28.9143C78.1001 27.4893 73.3376 26.3268 68.5001 25.5018C67.7126 20.6643 66.5501 15.8643 65.0876 11.1768C72.8501 14.8893 79.1126 21.1518 82.8251 28.9143Z" fill="#3E95FF"/>
<path d="M82.8251 28.9143C78.1001 27.4893 73.3376 26.3268 68.5001 25.5018C67.7126 20.6643 66.5501 15.8643 65.0876 11.1768C72.8501 14.8893 79.1126 21.1518 82.8251 28.9143Z" fill="url(#paint2_radial_211_1084)" style="mix-blend-mode:plus-lighter"/>
</g>
<g id="Vector_4" filter="url(#filter3_dii_211_1084)">
<path d="M32.6874 11.5861C31.3374 16.1611 30.3624 20.8111 29.5749 25.5361C24.7374 26.2861 19.9374 27.4861 15.1749 28.9111C18.8124 21.3736 24.8499 15.1861 32.3124 11.4736C32.4249 11.4736 32.5749 11.5861 32.6874 11.5861Z" fill="#3E95FF"/>
<path d="M32.6874 11.5861C31.3374 16.1611 30.3624 20.8111 29.5749 25.5361C24.7374 26.2861 19.9374 27.4861 15.1749 28.9111C18.8124 21.3736 24.8499 15.1861 32.3124 11.4736C32.4249 11.4736 32.5749 11.5861 32.6874 11.5861Z" fill="url(#paint3_radial_211_1084)" style="mix-blend-mode:plus-lighter"/>
</g>
<g id="Vector_5" opacity="0.2">
<path d="M62.0876 24.7125C53.3876 23.7375 44.6126 23.7375 35.9126 24.7125C36.8501 19.575 38.0501 14.4375 39.7376 9.4875C39.8126 9.1875 39.7751 8.9625 39.8126 8.6625C42.7751 7.95 45.8126 7.5 49.0001 7.5C52.1501 7.5 55.2251 7.95 58.1501 8.6625C58.1876 8.9625 58.1876 9.1875 58.2626 9.4875C59.9501 14.475 61.1501 19.575 62.0876 24.7125Z" fill="#3E95FF"/>
<path d="M62.0876 24.7125C53.3876 23.7375 44.6126 23.7375 35.9126 24.7125C36.8501 19.575 38.0501 14.4375 39.7376 9.4875C39.8126 9.1875 39.7751 8.9625 39.8126 8.6625C42.7751 7.95 45.8126 7.5 49.0001 7.5C52.1501 7.5 55.2251 7.95 58.1501 8.6625C58.1876 8.9625 58.1876 9.1875 58.2626 9.4875C59.9501 14.475 61.1501 19.575 62.0876 24.7125Z" fill="url(#paint4_radial_211_1084)" style="mix-blend-mode:plus-lighter"/>
</g>
<g id="Vector_6" opacity="0.2">
<path d="M28.7125 58.0871C23.5375 57.1496 18.4375 55.9496 13.4875 54.2621C13.1875 54.1871 12.9625 54.2246 12.6625 54.1871C11.95 51.2246 11.5 48.1871 11.5 44.9996C11.5 41.8496 11.95 38.7746 12.6625 35.8496C12.9625 35.8121 13.1875 35.8121 13.4875 35.7371C18.475 34.0871 23.5375 32.8496 28.7125 31.9121C27.775 40.6121 27.775 49.3871 28.7125 58.0871Z" fill="#3E95FF"/>
<path d="M28.7125 58.0871C23.5375 57.1496 18.4375 55.9496 13.4875 54.2621C13.1875 54.1871 12.9625 54.2246 12.6625 54.1871C11.95 51.2246 11.5 48.1871 11.5 44.9996C11.5 41.8496 11.95 38.7746 12.6625 35.8496C12.9625 35.8121 13.1875 35.8121 13.4875 35.7371C18.475 34.0871 23.5375 32.8496 28.7125 31.9121C27.775 40.6121 27.775 49.3871 28.7125 58.0871Z" fill="url(#paint5_radial_211_1084)" style="mix-blend-mode:plus-lighter"/>
</g>
<g id="Vector_7" opacity="0.2">
<path d="M86.5001 44.9996C86.5001 48.1871 86.0501 51.2246 85.3376 54.1871C85.0376 54.2246 84.8126 54.1871 84.5126 54.2621C79.5251 55.9121 74.4251 57.1496 69.2876 58.0871C70.2626 49.3871 70.2626 40.6121 69.2876 31.9121C74.4251 32.8496 79.5626 34.0496 84.5126 35.7371C84.8126 35.8121 85.0376 35.8496 85.3376 35.8496C86.0501 38.8121 86.5001 41.8496 86.5001 44.9996Z" fill="#3E95FF"/>
<path d="M86.5001 44.9996C86.5001 48.1871 86.0501 51.2246 85.3376 54.1871C85.0376 54.2246 84.8126 54.1871 84.5126 54.2621C79.5251 55.9121 74.4251 57.1496 69.2876 58.0871C70.2626 49.3871 70.2626 40.6121 69.2876 31.9121C74.4251 32.8496 79.5626 34.0496 84.5126 35.7371C84.8126 35.8121 85.0376 35.8496 85.3376 35.8496C86.0501 38.8121 86.5001 41.8496 86.5001 44.9996Z" fill="url(#paint6_radial_211_1084)" style="mix-blend-mode:plus-lighter"/>
</g>
<g id="Vector_8" opacity="0.2">
<path d="M62.0876 65.2881C61.1501 70.4631 59.9501 75.5631 58.2626 80.5131C58.1876 80.8131 58.1876 81.0381 58.1501 81.3381C55.2251 82.0506 52.1501 82.5006 49.0001 82.5006C45.8126 82.5006 42.7751 82.0506 39.8126 81.3381C39.7751 81.0381 39.8126 80.8131 39.7376 80.5131C38.0876 75.5256 36.8501 70.4631 35.9126 65.2881C40.2626 65.7756 44.6126 66.1131 49.0001 66.1131C53.3876 66.1131 57.7751 65.7756 62.0876 65.2881Z" fill="#3E95FF"/>
<path d="M62.0876 65.2881C61.1501 70.4631 59.9501 75.5631 58.2626 80.5131C58.1876 80.8131 58.1876 81.0381 58.1501 81.3381C55.2251 82.0506 52.1501 82.5006 49.0001 82.5006C45.8126 82.5006 42.7751 82.0506 39.8126 81.3381C39.7751 81.0381 39.8126 80.8131 39.7376 80.5131C38.0876 75.5256 36.8501 70.4631 35.9126 65.2881C40.2626 65.7756 44.6126 66.1131 49.0001 66.1131C53.3876 66.1131 57.7751 65.7756 62.0876 65.2881Z" fill="url(#paint7_radial_211_1084)" style="mix-blend-mode:plus-lighter"/>
</g>
<g id="Vector_9" filter="url(#filter4_dii_211_1084)">
<path d="M63.1125 59.1125C53.7334 60.2958 44.2666 60.2958 34.8875 59.1125C33.7042 49.7334 33.7042 40.2666 34.8875 30.8875C44.2666 29.7042 53.7334 29.7042 63.1125 30.8875C64.2958 40.2666 64.2958 49.7334 63.1125 59.1125Z" fill="#3E95FF"/>
<path d="M63.1125 59.1125C53.7334 60.2958 44.2666 60.2958 34.8875 59.1125C33.7042 49.7334 33.7042 40.2666 34.8875 30.8875C44.2666 29.7042 53.7334 29.7042 63.1125 30.8875C64.2958 40.2666 64.2958 49.7334 63.1125 59.1125Z" fill="url(#paint8_radial_211_1084)" style="mix-blend-mode:plus-lighter"/>
</g>
</g>
</g>
<defs>
<filter id="filter0_dii_211_1084" x="0.740959" y="56.363" width="46.681" height="46.6814" filterUnits="userSpaceOnUse" color-interpolation-filters="sRGB">
<feFlood flood-opacity="0" result="BackgroundImageFix"/>
<feColorMatrix in="SourceAlpha" type="matrix" values="0 0 0 0 0 0 0 0 0 0 0 0 0 0 0 0 0 0 127 0" result="hardAlpha"/>
<feOffset dy="9.82284"/>
<feGaussianBlur stdDeviation="7.36713"/>
<feComposite in2="hardAlpha" operator="out"/>
<feColorMatrix type="matrix" values="0 0 0 0 0.243137 0 0 0 0 0.584314 0 0 0 0 1 0 0 0 0.6 0"/>
<feBlend mode="normal" in2="BackgroundImageFix" result="effect1_dropShadow_211_1084"/>
<feBlend mode="normal" in="SourceGraphic" in2="effect1_dropShadow_211_1084" result="shape"/>
<feColorMatrix in="SourceAlpha" type="matrix" values="0 0 0 0 0 0 0 0 0 0 0 0 0 0 0 0 0 0 127 0" result="hardAlpha"/>
<feOffset dy="9.82284"/>
<feGaussianBlur stdDeviation="6.13928"/>
<feComposite in2="hardAlpha" operator="arithmetic" k2="-1" k3="1"/>
<feColorMatrix type="matrix" values="0 0 0 0 0.243137 0 0 0 0 0.584314 0 0 0 0 1 0 0 0 0.6 0"/>
<feBlend mode="normal" in2="shape" result="effect2_innerShadow_211_1084"/>
<feColorMatrix in="SourceAlpha" type="matrix" values="0 0 0 0 0 0 0 0 0 0 0 0 0 0 0 0 0 0 127 0" result="hardAlpha"/>
<feOffset/>
<feGaussianBlur stdDeviation="2.45571"/>
<feComposite in2="hardAlpha" operator="arithmetic" k2="-1" k3="1"/>
<feColorMatrix type="matrix" values="0 0 0 0 1 0 0 0 0 1 0 0 0 0 1 0 0 0 0.5 0"/>
<feBlend mode="normal" in2="effect2_innerShadow_211_1084" result="effect3_innerShadow_211_1084"/>
</filter>
<filter id="filter1_dii_211_1084" x="50.3534" y="56.363" width="46.906" height="47.0183" filterUnits="userSpaceOnUse" color-interpolation-filters="sRGB">
<feFlood flood-opacity="0" result="BackgroundImageFix"/>
<feColorMatrix in="SourceAlpha" type="matrix" values="0 0 0 0 0 0 0 0 0 0 0 0 0 0 0 0 0 0 127 0" result="hardAlpha"/>
<feOffset dy="9.82284"/>
<feGaussianBlur stdDeviation="7.36713"/>
<feComposite in2="hardAlpha" operator="out"/>
<feColorMatrix type="matrix" values="0 0 0 0 0.243137 0 0 0 0 0.584314 0 0 0 0 1 0 0 0 0.6 0"/>
<feBlend mode="normal" in2="BackgroundImageFix" result="effect1_dropShadow_211_1084"/>
<feBlend mode="normal" in="SourceGraphic" in2="effect1_dropShadow_211_1084" result="shape"/>
<feColorMatrix in="SourceAlpha" type="matrix" values="0 0 0 0 0 0 0 0 0 0 0 0 0 0 0 0 0 0 127 0" result="hardAlpha"/>
<feOffset dy="9.82284"/>
<feGaussianBlur stdDeviation="6.13928"/>
<feComposite in2="hardAlpha" operator="arithmetic" k2="-1" k3="1"/>
<feColorMatrix type="matrix" values="0 0 0 0 0.243137 0 0 0 0 0.584314 0 0 0 0 1 0 0 0 0.6 0"/>
<feBlend mode="normal" in2="shape" result="effect2_innerShadow_211_1084"/>
<feColorMatrix in="SourceAlpha" type="matrix" values="0 0 0 0 0 0 0 0 0 0 0 0 0 0 0 0 0 0 127 0" result="hardAlpha"/>
<feOffset/>
<feGaussianBlur stdDeviation="2.45571"/>
<feComposite in2="hardAlpha" operator="arithmetic" k2="-1" k3="1"/>
<feColorMatrix type="matrix" values="0 0 0 0 1 0 0 0 0 1 0 0 0 0 1 0 0 0 0.5 0"/>
<feBlend mode="normal" in2="effect2_innerShadow_211_1084" result="effect3_innerShadow_211_1084"/>
</filter>
<filter id="filter2_dii_211_1084" x="50.3534" y="6.26534" width="47.2061" height="47.2058" filterUnits="userSpaceOnUse" color-interpolation-filters="sRGB">
<feFlood flood-opacity="0" result="BackgroundImageFix"/>
<feColorMatrix in="SourceAlpha" type="matrix" values="0 0 0 0 0 0 0 0 0 0 0 0 0 0 0 0 0 0 127 0" result="hardAlpha"/>
<feOffset dy="9.82284"/>
<feGaussianBlur stdDeviation="7.36713"/>
<feComposite in2="hardAlpha" operator="out"/>
<feColorMatrix type="matrix" values="0 0 0 0 0.243137 0 0 0 0 0.584314 0 0 0 0 1 0 0 0 0.6 0"/>
<feBlend mode="normal" in2="BackgroundImageFix" result="effect1_dropShadow_211_1084"/>
<feBlend mode="normal" in="SourceGraphic" in2="effect1_dropShadow_211_1084" result="shape"/>
<feColorMatrix in="SourceAlpha" type="matrix" values="0 0 0 0 0 0 0 0 0 0 0 0 0 0 0 0 0 0 127 0" result="hardAlpha"/>
<feOffset dy="9.82284"/>
<feGaussianBlur stdDeviation="6.13928"/>
<feComposite in2="hardAlpha" operator="arithmetic" k2="-1" k3="1"/>
<feColorMatrix type="matrix" values="0 0 0 0 0.243137 0 0 0 0 0.584314 0 0 0 0 1 0 0 0 0.6 0"/>
<feBlend mode="normal" in2="shape" result="effect2_innerShadow_211_1084"/>
<feColorMatrix in="SourceAlpha" type="matrix" values="0 0 0 0 0 0 0 0 0 0 0 0 0 0 0 0 0 0 127 0" result="hardAlpha"/>
<feOffset/>
<feGaussianBlur stdDeviation="2.45571"/>
<feComposite in2="hardAlpha" operator="arithmetic" k2="-1" k3="1"/>
<feColorMatrix type="matrix" values="0 0 0 0 1 0 0 0 0 1 0 0 0 0 1 0 0 0 0.5 0"/>
<feBlend mode="normal" in2="effect2_innerShadow_211_1084" result="effect3_innerShadow_211_1084"/>
</filter>
<filter id="filter3_dii_211_1084" x="0.440666" y="6.56221" width="46.981" height="46.906" filterUnits="userSpaceOnUse" color-interpolation-filters="sRGB">
<feFlood flood-opacity="0" result="BackgroundImageFix"/>
<feColorMatrix in="SourceAlpha" type="matrix" values="0 0 0 0 0 0 0 0 0 0 0 0 0 0 0 0 0 0 127 0" result="hardAlpha"/>
<feOffset dy="9.82284"/>
<feGaussianBlur stdDeviation="7.36713"/>
<feComposite in2="hardAlpha" operator="out"/>
<feColorMatrix type="matrix" values="0 0 0 0 0.243137 0 0 0 0 0.584314 0 0 0 0 1 0 0 0 0.6 0"/>
<feBlend mode="normal" in2="BackgroundImageFix" result="effect1_dropShadow_211_1084"/>
<feBlend mode="normal" in="SourceGraphic" in2="effect1_dropShadow_211_1084" result="shape"/>
<feColorMatrix in="SourceAlpha" type="matrix" values="0 0 0 0 0 0 0 0 0 0 0 0 0 0 0 0 0 0 127 0" result="hardAlpha"/>
<feOffset dy="9.82284"/>
<feGaussianBlur stdDeviation="6.13928"/>
<feComposite in2="hardAlpha" operator="arithmetic" k2="-1" k3="1"/>
<feColorMatrix type="matrix" values="0 0 0 0 0.243137 0 0 0 0 0.584314 0 0 0 0 1 0 0 0 0.6 0"/>
<feBlend mode="normal" in2="shape" result="effect2_innerShadow_211_1084"/>
<feColorMatrix in="SourceAlpha" type="matrix" values="0 0 0 0 0 0 0 0 0 0 0 0 0 0 0 0 0 0 127 0" result="hardAlpha"/>
<feOffset/>
<feGaussianBlur stdDeviation="2.45571"/>
<feComposite in2="hardAlpha" operator="arithmetic" k2="-1" k3="1"/>
<feColorMatrix type="matrix" values="0 0 0 0 1 0 0 0 0 1 0 0 0 0 1 0 0 0 0.5 0"/>
<feBlend mode="normal" in2="effect2_innerShadow_211_1084" result="effect3_innerShadow_211_1084"/>
</filter>
<filter id="filter4_dii_211_1084" x="19.2657" y="25.0886" width="59.4685" height="59.4685" filterUnits="userSpaceOnUse" color-interpolation-filters="sRGB">
<feFlood flood-opacity="0" result="BackgroundImageFix"/>
<feColorMatrix in="SourceAlpha" type="matrix" values="0 0 0 0 0 0 0 0 0 0 0 0 0 0 0 0 0 0 127 0" result="hardAlpha"/>
<feOffset dy="9.82284"/>
<feGaussianBlur stdDeviation="7.36713"/>
<feComposite in2="hardAlpha" operator="out"/>
<feColorMatrix type="matrix" values="0 0 0 0 0.243137 0 0 0 0 0.584314 0 0 0 0 1 0 0 0 0.6 0"/>
<feBlend mode="normal" in2="BackgroundImageFix" result="effect1_dropShadow_211_1084"/>
<feBlend mode="normal" in="SourceGraphic" in2="effect1_dropShadow_211_1084" result="shape"/>
<feColorMatrix in="SourceAlpha" type="matrix" values="0 0 0 0 0 0 0 0 0 0 0 0 0 0 0 0 0 0 127 0" result="hardAlpha"/>
<feOffset dy="9.82284"/>
<feGaussianBlur stdDeviation="6.13928"/>
<feComposite in2="hardAlpha" operator="arithmetic" k2="-1" k3="1"/>
<feColorMatrix type="matrix" values="0 0 0 0 0.243137 0 0 0 0 0.584314 0 0 0 0 1 0 0 0 0.6 0"/>
<feBlend mode="normal" in2="shape" result="effect2_innerShadow_211_1084"/>
<feColorMatrix in="SourceAlpha" type="matrix" values="0 0 0 0 0 0 0 0 0 0 0 0 0 0 0 0 0 0 127 0" result="hardAlpha"/>
<feOffset/>
<feGaussianBlur stdDeviation="2.45571"/>
<feComposite in2="hardAlpha" operator="arithmetic" k2="-1" k3="1"/>
<feColorMatrix type="matrix" values="0 0 0 0 1 0 0 0 0 1 0 0 0 0 1 0 0 0 0.5 0"/>
<feBlend mode="normal" in2="effect2_innerShadow_211_1084" result="effect3_innerShadow_211_1084"/>
</filter>
<radialGradient id="paint0_radial_211_1084" cx="0" cy="0" r="1" gradientUnits="userSpaceOnUse" gradientTransform="translate(21.0428 63.2479) rotate(78.7233) scale(15.539 29.6705)">
<stop stop-color="white" stop-opacity="0.4"/>
<stop offset="1" stop-color="#3E95FF" stop-opacity="0"/>
</radialGradient>
<radialGradient id="paint1_radial_211_1084" cx="0" cy="0" r="1" gradientUnits="userSpaceOnUse" gradientTransform="translate(70.728 63.2866) rotate(78.7937) scale(15.8398 30.0657)">
<stop stop-color="white" stop-opacity="0.4"/>
<stop offset="1" stop-color="#3E95FF" stop-opacity="0"/>
</radialGradient>
<radialGradient id="paint2_radial_211_1084" cx="0" cy="0" r="1" gradientUnits="userSpaceOnUse" gradientTransform="translate(70.8251 13.2104) rotate(78.7233) scale(16.013 30.5755)">
<stop stop-color="white" stop-opacity="0.4"/>
<stop offset="1" stop-color="#3E95FF" stop-opacity="0"/>
</radialGradient>
<radialGradient id="paint3_radial_211_1084" cx="0" cy="0" r="1" gradientUnits="userSpaceOnUse" gradientTransform="translate(20.8396 13.4729) rotate(78.676) scale(15.7447 30.1826)">
<stop stop-color="white" stop-opacity="0.4"/>
<stop offset="1" stop-color="#3E95FF" stop-opacity="0"/>
</radialGradient>
<radialGradient id="paint4_radial_211_1084" cx="0" cy="0" r="1" gradientUnits="userSpaceOnUse" gradientTransform="translate(44.3793 9.47348) rotate(73.1315) scale(15.9242 44.0285)">
<stop stop-color="white" stop-opacity="0.4"/>
<stop offset="1" stop-color="#3E95FF" stop-opacity="0"/>
</radialGradient>
<radialGradient id="paint5_radial_211_1084" cx="0" cy="0" r="1" gradientUnits="userSpaceOnUse" gradientTransform="translate(17.0676 34.9132) rotate(82.5298) scale(23.3723 29.9978)">
<stop stop-color="white" stop-opacity="0.4"/>
<stop offset="1" stop-color="#3E95FF" stop-opacity="0"/>
</radialGradient>
<radialGradient id="paint6_radial_211_1084" cx="0" cy="0" r="1" gradientUnits="userSpaceOnUse" gradientTransform="translate(74.8552 34.9132) rotate(82.5298) scale(23.3723 29.9978)">
<stop stop-color="white" stop-opacity="0.4"/>
<stop offset="1" stop-color="#3E95FF" stop-opacity="0"/>
</radialGradient>
<radialGradient id="paint7_radial_211_1084" cx="0" cy="0" r="1" gradientUnits="userSpaceOnUse" gradientTransform="translate(44.3793 67.2616) rotate(73.1315) scale(15.9242 44.0285)">
<stop stop-color="white" stop-opacity="0.4"/>
<stop offset="1" stop-color="#3E95FF" stop-opacity="0"/>
</radialGradient>
<radialGradient id="paint8_radial_211_1084" cx="0" cy="0" r="1" gradientUnits="userSpaceOnUse" gradientTransform="translate(43.7039 33.4396) rotate(78.7233) scale(27.0833 51.7133)">
<stop stop-color="white" stop-opacity="0.4"/>
<stop offset="1" stop-color="#3E95FF" stop-opacity="0"/>
</radialGradient>
</defs>
</svg>
