<svg width="92" height="107" viewBox="0 0 92 107" fill="none" xmlns="http://www.w3.org/2000/svg">
<g id="Speaker">
<g id="Vector" opacity="0.2">
<path d="M71.3942 53.6785C71.3942 53.6785 33.5376 59.2507 28.7856 59.7465C24.0335 60.2427 16.5094 56.5148 13.8334 49.1583C11.1573 41.8023 14.5214 34.1103 18.4814 31.4383C22.4415 28.7622 54.8658 8.79395 54.8658 8.79395" fill="#3E95FF"/>
<path d="M71.3942 53.6785C71.3942 53.6785 33.5376 59.2507 28.7856 59.7465C24.0335 60.2427 16.5094 56.5148 13.8334 49.1583C11.1573 41.8023 14.5214 34.1103 18.4814 31.4383C22.4415 28.7622 54.8658 8.79395 54.8658 8.79395" fill="url(#paint0_radial_209_1046)" style="mix-blend-mode:plus-lighter"/>
</g>
<g id="Vector_2" filter="url(#filter0_dii_209_1046)">
<path d="M29.776 59.6132L35.8441 76.2854C37.484 80.7896 42.4601 83.1136 46.9643 81.4696C51.4684 79.8338 53.7883 74.8535 52.1521 70.3535L47.4243 57.3652" fill="#3E95FF"/>
<path d="M29.776 59.6132L35.8441 76.2854C37.484 80.7896 42.4601 83.1136 46.9643 81.4696C51.4684 79.8338 53.7883 74.8535 52.1521 70.3535L47.4243 57.3652" fill="url(#paint1_radial_209_1046)" style="mix-blend-mode:plus-lighter"/>
</g>
<g id="Vector_3" filter="url(#filter1_dii_209_1046)">
<path fill-rule="evenodd" clip-rule="evenodd" d="M74.2156 27.18C78.7518 39.64 77.8918 51.3962 72.2916 53.4324C66.6914 55.4724 58.4753 47.0203 53.9391 34.5601C49.4033 22.0959 50.2675 10.3437 55.8635 8.30373C61.4633 6.2637 69.6794 14.7158 74.2156 27.18Z" fill="#3E95FF"/>
<path fill-rule="evenodd" clip-rule="evenodd" d="M74.2156 27.18C78.7518 39.64 77.8918 51.3962 72.2916 53.4324C66.6914 55.4724 58.4753 47.0203 53.9391 34.5601C49.4033 22.0959 50.2675 10.3437 55.8635 8.30373C61.4633 6.2637 69.6794 14.7158 74.2156 27.18Z" fill="url(#paint2_radial_209_1046)" style="mix-blend-mode:plus-lighter"/>
</g>
</g>
<defs>
<filter id="filter0_dii_209_1046" x="15.0417" y="52.4538" width="52.369" height="54.1004" filterUnits="userSpaceOnUse" color-interpolation-filters="sRGB">
<feFlood flood-opacity="0" result="BackgroundImageFix"/>
<feColorMatrix in="SourceAlpha" type="matrix" values="0 0 0 0 0 0 0 0 0 0 0 0 0 0 0 0 0 0 127 0" result="hardAlpha"/>
<feOffset dy="9.82284"/>
<feGaussianBlur stdDeviation="7.36713"/>
<feComposite in2="hardAlpha" operator="out"/>
<feColorMatrix type="matrix" values="0 0 0 0 0.243137 0 0 0 0 0.584314 0 0 0 0 1 0 0 0 0.6 0"/>
<feBlend mode="normal" in2="BackgroundImageFix" result="effect1_dropShadow_209_1046"/>
<feBlend mode="normal" in="SourceGraphic" in2="effect1_dropShadow_209_1046" result="shape"/>
<feColorMatrix in="SourceAlpha" type="matrix" values="0 0 0 0 0 0 0 0 0 0 0 0 0 0 0 0 0 0 127 0" result="hardAlpha"/>
<feOffset dy="9.82284"/>
<feGaussianBlur stdDeviation="6.13928"/>
<feComposite in2="hardAlpha" operator="arithmetic" k2="-1" k3="1"/>
<feColorMatrix type="matrix" values="0 0 0 0 0.243137 0 0 0 0 0.584314 0 0 0 0 1 0 0 0 0.6 0"/>
<feBlend mode="normal" in2="shape" result="effect2_innerShadow_209_1046"/>
<feColorMatrix in="SourceAlpha" type="matrix" values="0 0 0 0 0 0 0 0 0 0 0 0 0 0 0 0 0 0 127 0" result="hardAlpha"/>
<feOffset/>
<feGaussianBlur stdDeviation="2.45571"/>
<feComposite in2="hardAlpha" operator="arithmetic" k2="-1" k3="1"/>
<feColorMatrix type="matrix" values="0 0 0 0 1 0 0 0 0 1 0 0 0 0 1 0 0 0 0.5 0"/>
<feBlend mode="normal" in2="effect2_innerShadow_209_1046" result="effect3_innerShadow_209_1046"/>
</filter>
<filter id="filter1_dii_209_1046" x="36.2959" y="3.08858" width="55.5646" height="75.2048" filterUnits="userSpaceOnUse" color-interpolation-filters="sRGB">
<feFlood flood-opacity="0" result="BackgroundImageFix"/>
<feColorMatrix in="SourceAlpha" type="matrix" values="0 0 0 0 0 0 0 0 0 0 0 0 0 0 0 0 0 0 127 0" result="hardAlpha"/>
<feOffset dy="9.82284"/>
<feGaussianBlur stdDeviation="7.36713"/>
<feComposite in2="hardAlpha" operator="out"/>
<feColorMatrix type="matrix" values="0 0 0 0 0.243137 0 0 0 0 0.584314 0 0 0 0 1 0 0 0 0.6 0"/>
<feBlend mode="normal" in2="BackgroundImageFix" result="effect1_dropShadow_209_1046"/>
<feBlend mode="normal" in="SourceGraphic" in2="effect1_dropShadow_209_1046" result="shape"/>
<feColorMatrix in="SourceAlpha" type="matrix" values="0 0 0 0 0 0 0 0 0 0 0 0 0 0 0 0 0 0 127 0" result="hardAlpha"/>
<feOffset dy="9.82284"/>
<feGaussianBlur stdDeviation="6.13928"/>
<feComposite in2="hardAlpha" operator="arithmetic" k2="-1" k3="1"/>
<feColorMatrix type="matrix" values="0 0 0 0 0.243137 0 0 0 0 0.584314 0 0 0 0 1 0 0 0 0.6 0"/>
<feBlend mode="normal" in2="shape" result="effect2_innerShadow_209_1046"/>
<feColorMatrix in="SourceAlpha" type="matrix" values="0 0 0 0 0 0 0 0 0 0 0 0 0 0 0 0 0 0 127 0" result="hardAlpha"/>
<feOffset/>
<feGaussianBlur stdDeviation="2.45571"/>
<feComposite in2="hardAlpha" operator="arithmetic" k2="-1" k3="1"/>
<feColorMatrix type="matrix" values="0 0 0 0 1 0 0 0 0 1 0 0 0 0 1 0 0 0 0.5 0"/>
<feBlend mode="normal" in2="effect2_innerShadow_209_1046" result="effect3_innerShadow_209_1046"/>
</filter>
<radialGradient id="paint0_radial_209_1046" cx="0" cy="0" r="1" gradientUnits="userSpaceOnUse" gradientTransform="translate(31.803 14.6409) rotate(77.1116) scale(46.3164 100.27)">
<stop stop-color="white" stop-opacity="0.4"/>
<stop offset="1" stop-color="#3E95FF" stop-opacity="0"/>
</radialGradient>
<radialGradient id="paint1_radial_209_1046" cx="0" cy="0" r="1" gradientUnits="userSpaceOnUse" gradientTransform="translate(37.1835 60.1894) rotate(79.4978) scale(22.1797 39.5781)">
<stop stop-color="white" stop-opacity="0.4"/>
<stop offset="1" stop-color="#3E95FF" stop-opacity="0"/>
</radialGradient>
<radialGradient id="paint2_radial_209_1046" cx="0" cy="0" r="1" gradientUnits="userSpaceOnUse" gradientTransform="translate(59.4713 13.2438) rotate(83.5092) scale(40.7535 45.5753)">
<stop stop-color="white" stop-opacity="0.4"/>
<stop offset="1" stop-color="#3E95FF" stop-opacity="0"/>
</radialGradient>
</defs>
</svg>
