<svg width="159" height="31" viewBox="0 0 159 31" fill="none" xmlns="http://www.w3.org/2000/svg">
<g id="Frame 9">
<path id="Vector" d="M88.7974 3.53636C93.123 3.22079 97.6992 4.30071 101.056 7.17343C101.478 7.5352 102.598 8.37328 102.643 8.94526C102.565 9.11599 102.518 9.25804 102.378 9.38683C102.298 9.32309 102.186 9.21856 102.091 9.17301C101.902 9.08289 101.865 9.067 101.677 9.14532C101.37 9.53969 101.452 10.1572 101.465 10.6291C101.391 10.6906 101.318 10.7529 101.245 10.8161C101.045 10.9922 100.877 11.1179 100.892 11.4095C100.928 12.1262 101.975 12.9213 102.472 13.3996C101.404 14.5536 101.78 13.8005 100.932 13.9365C99.9686 14.6647 101.013 15.2391 100.688 16.0356C100.62 16.2007 100.589 16.3134 100.581 16.496C100.777 16.9914 101.372 17.3172 101.808 17.5947C100.991 20.4289 100.731 23.4848 99.6796 26.2543C99.7709 23.7668 99.5356 21.4048 99.0542 18.9666C99.3536 18.6799 99.906 18.111 99.9903 17.6932C100.042 17.4368 99.9745 17.3036 99.8485 17.0845C99.7043 16.834 99.6554 16.7219 99.6618 16.4253C99.6701 16.0406 99.7068 15.6777 99.57 15.3117C99.4022 15.1406 99.3675 15.1156 99.1378 15.0507C98.9633 15.1105 98.7997 15.1842 98.6123 15.1483C98.457 15.1185 98.2982 14.827 98.2016 14.7005C98.4563 14.3121 98.8733 13.6944 98.9087 13.2243C98.9253 13.0024 98.8324 12.8981 98.7032 12.7358C98.4876 12.4647 98.3878 12.3156 98.3506 11.9584C98.3161 11.6263 98.3118 11.3415 98.0631 11.0931C97.8163 11.0204 97.644 11.1133 97.4143 11.199L97.3086 11.2394L97.1865 11.1806C97.1379 10.7468 97.4673 10.2644 97.5068 9.81479C97.5267 9.59 97.4945 9.43074 97.3545 9.25002C97.2773 9.21348 96.8662 9.03619 96.8388 8.97295C96.6594 8.56055 97.0099 8.02625 96.5603 7.45213C96.3271 7.41477 96.2193 7.54487 96.0247 7.66546C95.781 7.53651 95.6575 7.14213 95.4938 6.90128C95.2951 6.78151 95.2063 6.76725 94.9754 6.78298C94.5345 7.13607 94.7919 7.56567 94.6625 8.04525C94.5201 8.05852 94.4096 8.08294 94.2755 8.13258C94.0156 8.81959 94.7237 9.12025 94.7216 9.75008C94.6158 9.89999 94.382 10.1767 94.4083 10.3656C94.479 10.8734 95.1694 11.2725 95.5415 11.5539C95.6339 11.752 95.6172 11.8794 95.6044 12.0916C95.4476 12.115 95.1668 12.1668 95.0377 12.2636C94.8373 12.4136 94.8296 12.5186 94.7806 12.7467C94.8202 12.9418 94.8835 13.0473 95.0015 13.202C95.6311 14.0286 95.0408 14.0152 95.3141 14.7199C95.6724 15.1485 96.0501 15.0526 96.5251 15.2214C96.6889 15.2797 96.7717 15.3966 96.8002 15.5678C96.8375 15.7934 96.7582 15.9522 96.6357 16.1301C96.3229 16.1103 96.1607 16.104 95.9183 16.3056C95.6396 17.2628 96.6617 17.3452 96.7187 18.13C96.7322 18.314 96.7545 18.4415 96.8243 18.6161C97.1828 18.9914 97.7511 19.0212 98.2392 19.0702C98.9043 21.6822 99.0223 24.3483 98.8628 27.0275C98.1889 25.6588 97.7677 24.2192 97.3715 22.7524C96.986 21.3255 96.6684 19.6626 95.883 18.4C95.7198 18.1377 95.5628 17.91 95.2523 17.8438C95.2327 17.8629 95.2102 17.8795 95.1933 17.9011C94.8371 18.3623 95.1117 19.8432 95.1742 20.386C94.5658 19.2838 93.816 18.2245 92.8954 17.3598C92.4342 16.9266 91.4234 16.0646 90.7801 16.0882L90.6472 16.3054L90.6889 16.2851C90.8363 16.8836 91.3547 17.4823 91.6714 18.0155C92.3879 19.2219 93.0127 20.4579 93.8994 21.5575C94.7649 22.6307 96.4618 23.7765 97.0494 24.8612C97.2386 25.2105 97.3689 25.6114 97.5088 25.9833C96.5803 24.8118 95.6962 24.0511 94.3675 23.3652C93.7359 23.0657 92.7838 22.7159 92.075 22.7993C91.9033 22.8195 91.8879 22.8268 91.7727 22.9617C91.989 23.7154 97.5878 27.3623 98.591 28.2223L98.6733 28.2942C96.1205 29.0256 93.5052 29.6173 90.8291 29.3786C89.758 29.283 88.5058 28.9848 87.8089 28.1032C86.2761 26.1642 88.2541 22.6656 88.4882 20.4999C88.6658 18.8575 88.3462 17.2212 87.2766 15.9255C85.1261 13.3201 80.0839 12.4857 76.8705 12.1542C78.0625 10.1214 79.3941 8.51844 81.344 7.1713C86.1947 3.81982 92.9526 3.37022 98.1488 6.21377C98.9256 6.63896 100.982 8.32478 101.613 8.44242L101.619 8.32953C100.923 7.62859 99.9408 7.01663 99.1104 6.47757C95.5643 4.17553 91.0272 3.60272 86.9376 4.48815C83.9182 5.14189 80.8264 6.74071 78.7551 9.06978C77.928 9.99961 77.2708 11.0481 76.5999 12.0916L75.9669 12.1196C76.5943 10.9301 77.2531 9.80415 78.1272 8.77421C80.7588 5.67407 84.7878 3.86274 88.7974 3.53636Z" fill="#F36A18"/>
<path id="Subtract" fill-rule="evenodd" clip-rule="evenodd" d="M55.1603 9.18051C54.8855 9.1343 54.5955 9.12644 54.3173 9.13692C53.9203 9.26849 53.766 9.38597 53.5733 9.75905C53.3408 10.2091 53.183 10.7014 53.0256 11.1922C52.9236 11.5102 52.8219 11.8276 52.7001 12.1325C52.6331 12.1328 52.5662 12.1323 52.4996 12.1318C51.9436 12.1279 51.4074 12.1241 50.9604 12.5287C50.7817 12.6906 50.7428 12.8038 50.7101 13.0358C50.8092 13.2775 50.9562 13.415 51.1993 13.5052C51.4445 13.5963 51.7325 13.6149 52.0034 13.6324C52.0635 13.6363 52.1227 13.6401 52.1804 13.6447C52.0463 14.065 51.9271 14.461 51.8134 14.8384C51.2272 16.7847 50.7899 18.237 49.2335 19.9855C49.2168 20.0042 49.2 20.0231 49.183 20.0423C48.8374 20.4311 48.4197 20.9012 47.9602 21.1305C47.8681 21.1764 47.7824 21.1931 47.6822 21.2114C47.5193 21.0962 47.5185 21.0906 47.494 20.9109C47.4932 20.9053 47.4924 20.8995 47.4916 20.8936C47.4096 20.2992 47.7593 19.347 48.1392 18.3125C48.7718 16.59 49.4883 14.6391 48.4357 13.7308C48.0577 13.4048 47.5154 13.3576 47.0379 13.4231C45.6864 13.6082 44.4463 15.0971 43.605 16.1072C43.5839 16.1325 43.563 16.1576 43.5424 16.1823C43.5822 16.0913 43.6275 15.9935 43.6751 15.8908C43.9497 15.2985 44.3008 14.5412 44.0974 13.9506C44.024 13.7374 43.8667 13.5922 43.6612 13.5108C43.1266 13.2988 42.3857 13.5039 41.8609 13.6699C41.38 16.1194 40.2875 19.5438 38.0608 20.9637C37.8904 21.0723 37.7541 21.112 37.556 21.1374C37.3546 21.0427 37.2743 20.9933 37.2104 20.7692C36.9528 19.8661 37.7907 17.8943 38.4866 16.2569C39.0087 15.0283 39.4508 13.9879 39.2901 13.7284C38.8269 13.4508 38.2517 13.3357 37.7157 13.4551C37.4331 13.5182 37.0412 13.7913 36.9209 14.0626C36.8847 14.1443 36.8736 14.2339 36.8628 14.3218C36.8609 14.3365 36.8591 14.3513 36.8572 14.3659C36.6943 14.3047 36.6525 14.2657 36.5449 14.1652C36.5332 14.1543 36.5207 14.1426 36.5072 14.1301C35.9883 13.6501 35.3667 13.3897 34.6546 13.4114C33.324 13.4518 32.0311 14.3912 31.1666 15.3492C29.8671 16.7894 28.9707 18.8501 29.0731 20.8125C29.1082 21.485 29.293 22.1845 29.8164 22.6451C30.2638 23.0386 30.9031 23.2113 31.491 23.1702C32.8116 23.0778 33.8265 21.9707 34.6715 21.0489C34.6896 21.0291 34.7077 21.0094 34.7257 20.9897C34.6236 21.5684 34.5674 22.144 34.9026 22.6675C35.0832 22.9495 35.3621 23.1007 35.6843 23.162C36.6773 23.3513 37.6492 22.846 38.4258 22.2766C38.8717 21.9496 39.28 21.5635 39.6578 21.1608C39.6496 21.1986 39.6415 21.2354 39.6336 21.2714C39.5223 21.7774 39.4489 22.1112 39.7763 22.6012C39.9625 22.88 40.2334 23.1474 40.5768 23.2104C40.8827 23.2664 41.1988 23.1273 41.4213 22.9231C41.7475 22.624 41.9525 21.9058 42.1163 21.3324C42.1664 21.1568 42.2127 20.9947 42.2574 20.8624C42.6665 19.6508 43.2442 18.524 43.9237 17.4431L43.9441 17.4134C44.3955 16.7571 45.2763 15.4766 46.0689 15.3129C46.1646 15.2933 46.1737 15.3008 46.2241 15.3427C46.2425 15.358 46.2664 15.3778 46.3019 15.4026C46.4921 16.0748 46.0938 17.1825 45.671 18.3581C45.016 20.1798 44.3023 22.1644 45.6292 22.9439C46.1269 23.2364 46.755 23.2495 47.2953 23.0844C48.4467 22.7324 49.5082 21.5648 50.1939 20.6157C50.1942 20.6789 50.1941 20.7426 50.1939 20.8067C50.1923 21.4887 50.1905 22.2124 50.693 22.736C50.8235 22.872 50.9813 22.983 51.1353 23.0913L51.1519 23.103C52.4955 23.1902 53.4268 22.9474 54.4557 22.0359C54.8767 21.6569 55.2813 21.261 55.6694 20.8483C55.7283 21.5524 55.886 22.2604 56.4496 22.7465C56.8686 23.1081 57.4387 23.219 57.9786 23.1705C59.3497 23.0477 60.4129 21.982 61.2474 20.9825L61.2397 21.1097C61.208 21.7058 61.2647 22.3154 61.674 22.7907C61.9321 23.0904 62.2953 23.2158 62.6838 23.2166C63.9212 23.2192 65.0823 22.311 65.8967 21.4526C66.6985 20.6072 67.5427 19.453 67.9066 18.3377C67.8523 18.1529 67.7293 18.0122 67.5464 17.9257C67.3564 17.8358 67.2809 17.8644 67.1182 17.9258C67.1019 17.9319 67.0848 17.9384 67.0665 17.9451C66.8313 18.1829 66.5746 18.6018 66.2946 19.0587C65.7462 19.9536 65.1084 20.9946 64.3667 21.1067C64.1581 21.1384 64.0841 21.0712 63.9563 20.9552C63.9425 20.9427 63.928 20.9295 63.9126 20.9159C63.5493 20.0783 63.9879 18.9763 64.3182 18.1463C64.3373 18.0982 64.3561 18.051 64.3744 18.0048C64.4385 17.8424 64.5391 17.6165 64.657 17.3517C65.1607 16.2201 65.981 14.3775 65.6293 13.7382C65.511 13.5233 65.2963 13.4189 65.0609 13.3882C64.6773 13.3383 64.1325 13.4338 63.8119 13.6547C63.5962 13.8032 63.4934 14.0762 63.4037 14.3147C63.3977 14.3306 63.3918 14.3463 63.3859 14.3618C63.1851 14.2607 63.0239 14.1238 62.8618 13.9861C62.7478 13.8893 62.6332 13.792 62.5041 13.7064C61.8898 13.2999 60.8472 13.3728 60.1768 13.5749C58.6017 14.0499 57.3394 15.5011 56.6311 16.9114C56.5698 17.0337 56.5034 17.1691 56.4322 17.3143C55.7792 18.647 54.7208 20.8067 53.3855 21.1929C53.1712 21.2548 52.9975 21.2293 52.7921 21.1493C52.5682 20.782 52.7312 20.1129 52.839 19.6707C52.8476 19.6351 52.8559 19.601 52.8637 19.5687C53.3409 17.5675 54.0665 15.5663 54.8038 13.6478C54.878 13.6457 54.9526 13.6441 55.0274 13.6425C55.8616 13.6244 56.713 13.6059 57.3471 12.9681C57.5076 12.8068 57.5896 12.6654 57.6062 12.4347C57.4687 12.203 57.3606 12.1052 57.0919 12.0439C56.5876 11.9286 56.05 12.0408 55.5432 12.1466C55.4717 12.1616 55.4008 12.1764 55.3307 12.1904C55.3753 12.0842 55.4319 11.9616 55.4936 11.8278C55.8009 11.1614 56.2355 10.2193 55.9523 9.66697C55.8004 9.37089 55.4716 9.23277 55.1603 9.18051ZM35.0526 14.9029C35.0805 14.9068 35.1044 14.9099 35.1259 14.9127C35.2153 14.9242 35.2618 14.9303 35.3697 14.9707C35.6066 15.0595 35.7393 15.2022 35.8404 15.4316C36.0509 15.9099 35.7799 16.6503 35.5963 17.1517C35.5814 17.1923 35.5671 17.2314 35.5537 17.2686C35.0171 18.7572 34.0663 20.6447 32.5658 21.3464L32.5621 21.3463H32.5621C32.4058 21.3393 32.2644 21.333 32.1178 21.2688C31.8661 21.1585 31.7105 20.9429 31.6312 20.6874C31.3476 19.7742 31.9613 18.3307 32.377 17.5108C32.9629 16.3555 33.7769 15.3123 35.0526 14.9029ZM61.5696 14.9056C61.5883 14.9074 61.6086 14.9089 61.6299 14.9105C61.7165 14.9171 61.8185 14.9248 61.893 14.9523C62.0923 15.0261 62.2931 15.1915 62.3823 15.3888C62.6488 15.9783 62.2937 16.8972 62.053 17.5202L62.0528 17.5207C62.0328 17.5725 62.0136 17.6222 61.9956 17.6696C61.4834 19.016 60.4663 20.7443 59.1065 21.351C58.9508 21.3389 58.7582 21.3215 58.6192 21.2475C58.44 21.1518 58.3104 20.9639 58.2402 20.7772C57.9104 19.8994 58.4608 18.5024 58.8494 17.6954C59.4299 16.4902 60.2698 15.3674 61.5696 14.9056Z" fill="#533C8E"/>
<path id="Subtract_2" fill-rule="evenodd" clip-rule="evenodd" d="M150.32 8.36598C150.032 8.23769 149.732 8.19836 149.421 8.18018C149.387 8.18776 149.353 8.19498 149.319 8.20218C149.043 8.2611 148.77 8.31919 148.599 8.57177C148.246 9.09544 148.018 9.87301 147.807 10.5918C147.715 10.9042 147.627 11.2055 147.533 11.4701C147.191 12.4397 146.799 13.3888 146.357 14.3172C145.812 13.7718 145.266 13.4873 144.479 13.4837C143.128 13.4773 141.885 14.3442 140.981 15.2778C140.592 15.6786 140.247 16.1142 139.945 16.5847C139.806 16.8032 139.638 17.0958 139.446 17.4293C138.577 18.9398 137.227 21.2883 135.889 21.3824C135.718 21.2543 135.671 21.1796 135.655 20.9599C135.583 19.9226 136.534 17.8035 137.131 16.473C137.238 16.2352 137.333 16.0225 137.409 15.8457C137.447 15.7582 137.495 15.6589 137.546 15.5536C137.69 15.2581 137.855 14.9162 137.876 14.6588C137.898 14.3937 137.832 14.1584 137.647 13.9623C137.35 13.6487 136.865 13.5093 136.444 13.5081C136.174 13.5075 135.817 13.5684 135.613 13.7654C135.261 14.1072 135.097 14.7232 134.951 15.2714C134.897 15.4737 134.846 15.6668 134.789 15.8334C134.644 16.2521 134.469 16.6943 134.288 17.1502C133.738 18.5382 133.137 20.0533 133.209 21.419C133.238 21.972 133.358 22.6364 133.816 23.0047C134.187 23.303 134.688 23.3119 135.137 23.2408C136.556 23.016 137.709 21.8664 138.576 20.796C138.602 21.4912 138.758 22.2094 139.281 22.7134C139.725 23.1405 140.348 23.2863 140.949 23.256C142.106 23.1975 143.111 22.3275 143.836 21.4866C144.03 21.2622 144.216 21.032 144.384 20.7878C144.383 20.8409 144.382 20.8939 144.381 20.947C144.363 21.6167 144.346 22.2827 144.837 22.8158C145.115 23.1181 145.506 23.2583 145.911 23.2688C146.88 23.294 147.736 22.6485 148.414 22.0257L149.421 20.9928C149.617 21.7827 149.94 22.4542 150.655 22.9074C151.515 23.4523 152.636 23.4443 153.596 23.2062C155.565 22.7184 157.556 20.9641 158.601 19.2688C158.611 19.2525 158.621 19.2365 158.63 19.2209C158.755 19.02 158.846 18.8737 158.756 18.6233C158.691 18.4427 158.517 18.3029 158.35 18.2272C157.995 18.3341 157.657 18.7342 157.248 19.2195C156.49 20.1181 155.485 21.3089 153.666 21.4725C153.274 21.5078 152.8 21.5266 152.439 21.35C152.222 21.2437 152.082 21.0484 152.012 20.8221C151.927 20.5474 151.929 20.2251 151.931 19.9258C151.931 19.8609 151.932 19.7971 151.931 19.7351C153.664 19.5863 155.345 19.2803 156.541 17.8792C157.113 17.2086 157.557 16.2693 157.462 15.368C157.456 15.3018 157.446 15.236 157.433 15.1707C157.418 15.1055 157.401 15.0411 157.382 14.9775C157.362 14.9138 157.34 14.8514 157.315 14.7901C157.288 14.7287 157.259 14.6687 157.228 14.6102C157.196 14.5516 157.162 14.4948 157.125 14.4398C157.086 14.3846 157.046 14.3315 157.003 14.2803C156.961 14.2292 156.916 14.1803 156.869 14.1335C156.821 14.0869 156.771 14.0427 156.72 14.0008C156.151 13.5381 155.419 13.4108 154.706 13.5108C153.384 13.6959 151.987 14.685 151.209 15.7578C150.933 16.1372 150.615 16.7435 150.262 17.4175C149.415 19.031 148.364 21.0319 147.213 21.2346C147.188 21.227 147.165 21.2215 147.144 21.2165C147.07 21.199 147.016 21.1862 146.972 21.097C146.597 20.3216 147.876 17.2586 149.08 14.3784C150.077 11.9928 151.021 9.73272 150.929 9.00186C150.889 8.68449 150.585 8.48395 150.32 8.36598ZM155.16 14.8792C155.173 14.8837 155.187 14.8879 155.201 14.8922C155.229 14.9008 155.256 14.9095 155.283 14.9207C155.483 15.0019 155.612 15.14 155.684 15.3447C155.768 15.5795 155.689 15.8195 155.596 16.0376C155.055 17.3097 153.849 18.0563 152.618 18.5241L152.348 18.573L152.24 18.4783L152.239 18.4356C152.236 18.3572 152.235 18.3252 152.264 18.2177C152.566 17.1011 154.133 15.3334 155.16 14.8792ZM144.601 14.8976L144.631 14.8964C144.684 14.8941 144.706 14.8932 144.78 14.8992C145.069 14.9228 145.32 15.0185 145.482 15.2744C145.704 15.6241 145.588 16.1078 145.481 16.4756C145.037 18.0059 143.544 20.6756 142.111 21.4388C142.082 21.4386 142.051 21.4388 142.019 21.4391H142.019C141.895 21.4401 141.76 21.4411 141.648 21.4141C141.43 21.362 141.275 21.2324 141.18 21.0297C140.927 20.4855 141.234 19.6531 141.449 19.0712L141.449 19.0708C141.47 19.0141 141.49 18.9597 141.508 18.9082C142.073 17.341 143.039 15.6341 144.601 14.8976Z" fill="#533C8E"/>
<path id="Subtract_3" fill-rule="evenodd" clip-rule="evenodd" d="M131.461 8.68154C129.988 7.98994 128.135 7.87361 126.534 8.02124C124.124 8.32485 121.513 9.47243 119.979 11.4191C119.546 11.9681 119.16 12.6679 119.272 13.3918C119.35 13.9022 119.741 14.4335 120.161 14.7201C120.301 14.8155 120.419 14.8402 120.588 14.8504C120.825 14.7594 120.946 14.6431 121.055 14.4171C121.157 14.2072 121.242 13.9877 121.328 13.7681C121.436 13.4898 121.544 13.2113 121.686 12.9516C122.4 11.6491 123.659 10.8464 125.005 10.309C124.29 11.9259 120.262 21.5484 120.677 22.6999C120.8 23.0407 121.196 23.2493 121.519 23.3496C121.934 23.4787 122.355 23.5219 122.776 23.4061C123.247 22.8895 123.531 21.8196 123.771 20.9142C123.862 20.5724 123.946 20.254 124.032 19.9978C124.107 19.802 124.18 19.6054 124.253 19.4087C124.438 18.9157 124.622 18.4218 124.827 17.9385L125.81 17.5961C126.156 19.5067 126.922 21.9044 128.588 23.0804C128.952 23.3373 129.34 23.4795 129.767 23.5912C130.93 23.3147 131.728 22.7932 132.46 21.8484C131.349 21.7385 130.519 21.3931 129.805 20.4898C129.098 19.5952 128.681 18.4758 128.369 17.3906C130.364 16.72 132.227 15.8202 133.194 13.8388C133.639 12.928 133.874 11.7427 133.546 10.763C133.22 9.79078 132.362 9.10459 131.461 8.68154ZM129.214 9.96645C128.747 9.84848 128.242 9.79851 127.761 9.80129C127.09 11.0708 126.553 12.701 126.043 14.2485C125.812 14.9509 125.586 15.6363 125.356 16.2632C126.272 16.1336 127.033 15.9273 127.881 15.5575C129.156 14.872 130.338 13.9379 130.756 12.4782C130.902 11.9693 130.908 11.4111 130.641 10.9404C130.339 10.4098 129.792 10.1121 129.214 9.96645Z" fill="#533C8E"/>
<path id="Subtract_4" fill-rule="evenodd" clip-rule="evenodd" d="M28.8035 13.6001C28.4837 13.3164 28.1271 13.2685 27.7169 13.25C27.6819 13.2728 27.6484 13.2934 27.6163 13.3131C27.4649 13.4062 27.3453 13.4797 27.2619 13.6673C27.0766 14.0841 26.9785 14.5927 26.8856 15.0741C26.8517 15.2499 26.8185 15.4222 26.7819 15.585C26.4312 17.1494 25.8733 19.2125 24.724 20.4014C24.4355 20.6999 24.1271 20.9857 23.6988 20.9891C23.4719 20.8286 23.3872 20.5972 23.3395 20.3301C23.1731 19.3987 23.6185 17.9979 24.0198 16.7357C24.3169 15.8012 24.5898 14.9427 24.5725 14.4069C24.5633 14.121 24.4573 13.9046 24.2325 13.7214C23.94 13.4832 23.2083 13.3509 22.8486 13.4273C22.6876 13.4617 22.6073 13.539 22.5177 13.6735C22.2577 14.0641 22.1208 14.6547 22.0122 15.1233C22.0066 15.1474 22.0011 15.1711 21.9957 15.1945C21.9669 15.318 21.9389 15.4398 21.9112 15.5599C21.4966 17.3596 21.1664 18.7924 19.8509 20.2426C19.8397 20.2549 19.8286 20.2672 19.8175 20.2795C19.4571 20.6771 19.1079 21.0623 18.5737 21.2098C18.5599 21.2063 18.5466 21.2031 18.5339 21.1999C18.3559 21.156 18.2815 21.1377 18.1889 20.9377C17.8755 20.2618 18.7593 18.1326 19.486 16.3819C19.9496 15.2651 20.3493 14.3022 20.3334 13.969C20.3248 13.7889 20.1173 13.6499 19.9707 13.5833C19.575 13.4034 18.8839 13.3449 18.4823 13.5335C18.1307 13.6984 17.9724 14.0443 17.8528 14.3914C17.2684 13.8212 16.7318 13.3973 15.8639 13.4176C15.2932 13.4309 14.7361 13.6165 14.2243 13.8579C14.1087 13.923 13.9948 13.9909 13.8825 14.0617C13.7703 14.1324 13.6599 14.2058 13.5512 14.2821C13.4426 14.3582 13.3359 14.437 13.2312 14.5185C13.1264 14.6 13.0238 14.6839 12.9232 14.7703C12.8226 14.8568 12.7241 14.9458 12.6279 15.0372C12.5317 15.1285 12.4377 15.2222 12.3461 15.3182C12.2544 15.4141 12.1653 15.5123 12.0785 15.6127C11.9918 15.713 11.9075 15.8155 11.8257 15.92C11.744 16.0246 11.6649 16.131 11.5885 16.2394C11.512 16.3478 11.4383 16.4581 11.3673 16.5702C11.2962 16.6823 11.2279 16.796 11.1625 16.9113C11.097 17.0268 11.0345 17.1438 10.9749 17.2623C10.9151 17.3808 10.8584 17.5007 10.8046 17.6219C10.7509 17.7433 10.7001 17.8658 10.6524 17.9896C10.6047 18.1133 10.56 18.2383 10.5184 18.3643C10.4768 18.4902 10.4383 18.6172 10.403 18.7451C10.1099 19.8029 9.97146 21.179 10.5326 22.1657C10.8072 22.6486 11.2491 23.0256 11.7885 23.174C12.5145 23.3739 13.2689 23.1057 13.8874 22.7259C14.637 22.2657 15.1936 21.6563 15.7121 20.955C15.6381 21.4952 15.5634 22.0954 15.9099 22.5643C16.1732 22.9207 16.6217 23.1363 17.0557 23.186C18.0216 23.2967 19.0138 22.5986 19.7126 21.9961C20.3112 21.4802 20.8106 20.8888 21.3108 20.2798C21.3236 21.1471 21.3606 22.1732 22.0083 22.8348C22.2709 23.1034 22.623 23.2317 22.9963 23.2176C24.2005 23.172 25.4718 21.9368 26.2191 21.072C27.4385 19.6615 29.337 16.4635 29.2185 14.5482C29.1966 14.1938 29.0746 13.8405 28.8035 13.6001ZM16.1744 14.9112C16.1582 14.9088 16.1421 14.9064 16.1261 14.9037C14.8031 15.3755 13.9583 16.5259 13.3787 17.7605C13.0253 18.5134 12.5025 19.8048 12.7741 20.6329C12.8454 20.8498 12.9863 21.0573 13.1975 21.1567C13.292 21.2012 13.4169 21.2217 13.5283 21.24C13.5531 21.244 13.5773 21.248 13.6003 21.2521C15.211 20.4415 16.2447 18.5488 16.7997 16.8959C16.9398 16.4787 17.1343 15.8582 16.9163 15.4352C16.7748 15.1606 16.5759 15.0018 16.27 14.9283C16.2385 14.9206 16.2064 14.9159 16.1744 14.9112Z" fill="#533C8E"/>
<path id="Vector_2" d="M4.94009 8.01667C5.43302 7.99881 6.00822 8.02093 6.41371 8.3419C6.44234 8.36452 6.46965 8.3886 6.49565 8.41416C6.52175 8.43972 6.54644 8.46659 6.56971 8.49478C6.59286 8.52296 6.61449 8.55223 6.63459 8.58259C6.6548 8.61307 6.67326 8.64453 6.68997 8.67697C6.70679 8.70931 6.72186 8.74246 6.73519 8.77643C6.74852 8.8104 6.75999 8.84502 6.7696 8.88031C6.77921 8.91548 6.78697 8.95109 6.79286 8.98714C6.79876 9.02307 6.80275 9.05928 6.80482 9.09576C6.86856 10.0829 6.29281 11.366 5.98182 12.296C5.56149 13.5529 3.08045 20.3227 3.203 21.1021C3.6902 21.4314 6.85562 20.6817 7.66223 20.5693C8.0358 20.5172 8.55536 20.4687 8.85979 20.7423C9.13374 20.9886 9.17945 21.7627 9.21091 22.1225C9.24548 22.5182 9.2191 22.7727 8.95007 23.0843C8.61025 23.2105 8.43968 23.1233 8.09086 23.047C6.20783 22.9393 2.50238 24.0471 0.964337 23.4753C0.567157 23.3275 0.286241 23.056 0.119102 22.667C-0.0542808 22.2634 -0.0134013 21.8825 0.0840383 21.4667C0.33741 20.3856 0.751336 19.3208 1.10688 18.2692L3.00622 12.6194C3.45872 11.2394 3.67442 9.76262 4.17035 8.40974C4.38131 8.17609 4.65151 8.11416 4.94009 8.01667Z" fill="#533C8E"/>
<path id="Vector_3" d="M75.8572 12.4232C78.8484 12.3582 84.0689 13.414 86.4044 15.3818C88.2391 16.9277 88.6397 19.3184 88.0733 21.5583C87.6527 23.2215 86.8228 24.9282 87.0014 26.6864C87.0871 27.5297 87.4668 28.2567 88.1489 28.7673C90.086 30.217 93.8283 29.7205 96.0148 29.2752C96.6966 29.1364 97.3929 28.8284 98.0737 28.7448C98.3558 28.7101 98.5472 28.7815 98.774 28.9521C98.8421 29.0943 98.878 29.0902 98.8148 29.24C98.7597 29.3704 98.5388 29.4684 98.4186 29.518C97.8433 29.7546 97.167 29.8347 96.5558 29.9529C94.1311 30.4215 90.6116 31.0359 88.2885 30.0403C87.5744 29.7344 86.9914 29.2049 86.5625 28.5616C84.404 25.3252 88.3329 21.5587 86.7802 17.7158C86.1162 16.5032 85.1814 15.7321 83.9262 15.1904C82.6236 14.6281 77.1769 13.1856 76.0159 13.6524C76.049 13.7181 77.3753 13.9809 77.6265 14.0673C78.738 14.4494 80.1143 14.9139 81.0292 15.6494C84.0658 18.0909 79.5656 22.6017 81.518 26.3386C82.1234 27.4974 83.2512 28.2539 84.5665 28.3031C84.9484 28.3173 85.4601 28.2488 85.814 28.3717C85.9897 28.4328 85.9954 28.441 86.0757 28.6139C86.0528 28.6341 86.0316 28.6565 86.0067 28.6744C85.6459 28.9329 84.6537 28.8338 84.2119 28.781C83.0134 28.6378 81.9396 28.134 81.1872 27.1639C79.1165 24.4938 81.0459 21.3942 81.3869 18.5654C81.8368 14.8313 76.867 15.6197 75.4832 13.5844C75.3518 13.3912 75.3072 13.2163 75.3628 12.9851C75.4204 12.7449 75.6723 12.5594 75.8572 12.4232Z" fill="#F36A18"/>
<path id="Vector_4" d="M104.959 12.6538C105.215 12.9551 105.511 15.1261 105.613 15.6473C104.565 19.0949 102.685 22.3353 100.864 25.4191C101.01 24.8619 101.138 24.299 101.273 23.7392C101.792 21.7565 102.169 19.768 102.567 17.7594C102.964 17.6787 103.684 17.5253 103.96 17.2104C104.17 16.9705 104.155 16.786 104.145 16.4793C104.135 16.1795 104.862 15.5495 104.959 15.0743C104.9 14.8215 104.87 14.7807 104.694 14.5885C104.45 14.472 104.257 14.502 103.998 14.5241L103.887 14.5344C103.697 14.3626 103.883 13.939 103.722 13.6533C103.522 13.5876 103.394 13.65 103.206 13.7172L103.127 13.7462L103.044 13.6726C103.276 13.3708 104.415 13.0121 104.849 12.7272L104.959 12.6538Z" fill="#F36A18"/>
<path id="Vector_5" d="M111.398 17.5151C111.451 17.5227 111.537 17.5751 111.586 17.5989C111.576 17.6238 111.568 17.65 111.555 17.6736C111.13 18.4353 106.618 21.1081 105.571 21.9379C104.944 22.4345 103.482 23.8034 102.797 24.0556C103.817 22.4656 107.258 20.0741 108.903 19.0314C109.496 18.6911 110.085 18.3446 110.67 17.9918C107.836 19.0494 105.951 21.0375 103.602 22.759C103.679 22.6152 103.762 22.4743 103.85 22.3365C105.362 19.9751 108.72 18.126 111.398 17.5151Z" fill="#533C8E"/>
<path id="Vector_6" d="M137.57 9.20703C137.803 9.18687 138.015 9.17639 138.244 9.23292C138.62 9.32598 138.98 9.57208 139.169 9.91452C139.387 10.3094 139.388 10.7893 139.239 11.2069C139.008 11.8502 138.569 12.1366 137.968 12.3994C137.74 12.4319 137.553 12.4377 137.326 12.3855C136.942 12.2972 136.588 12.1035 136.388 11.7547C136.164 11.3654 136.168 10.8878 136.311 10.4713C136.537 9.8167 136.967 9.49408 137.57 9.20703Z" fill="#533C8E"/>
<path id="Vector_7" d="M107.621 23.3828C107.664 23.4162 107.708 23.5003 107.739 23.5463C107.7 23.6389 107.698 23.6561 107.631 23.7506C106.844 24.8696 102.986 27.6561 101.646 27.9492C102.995 26.7058 104.626 25.7588 106.04 24.5827C105.619 24.7991 105.232 25.087 104.841 25.3519C103.193 26.6094 101.509 27.7785 99.7269 28.8358C100.427 27.4218 103.992 25.1019 105.455 24.3166C106.155 23.941 106.873 23.6443 107.621 23.3828Z" fill="#533C8E"/>
<path id="Vector_8" d="M91.1326 16.5684C91.2192 16.5918 91.2212 16.5905 91.32 16.628C93.6496 17.5134 95.1815 20.8438 96.1214 22.968C95.0411 21.8075 92.752 17.6134 91.7341 17.0388L91.726 17.1664C93.3687 19.1691 94.7023 21.3276 96.1795 23.444C93.2952 20.9444 93.152 19.591 91.2058 16.677L91.1326 16.5684Z" fill="#533C8E"/>
<path id="Vector_9" d="M108.816 14.8843C108.912 14.89 108.993 14.9216 109.084 14.9503L109.128 15.1481C108.699 16.7721 105.373 20.138 104.101 21.5625C104.826 19.9154 106.04 18.6536 107.192 17.2974C107.612 16.7993 108.025 16.2952 108.43 15.7849L108.369 15.7563L108.597 15.5421L108.589 15.5351L108.395 15.7735L108.29 15.775C108.238 15.8855 108.191 15.9516 108.106 16.0417C107.047 17.1667 106.056 18.375 105.044 19.5441C105.937 17.4126 106.947 16.2663 108.816 14.8843Z" fill="#533C8E"/>
<path id="Vector_10" d="M95.3926 18.2446C96.3045 19.0296 97.2334 23.5849 97.721 25.0079C98.0856 26.0719 98.5343 27.0714 99.0318 28.0769C99.2641 26.0188 99.2887 24.0499 99.0573 21.989C99 21.4788 98.5125 19.4528 98.6921 19.1017L98.8029 19.1977C99.1838 20.9982 99.4275 22.8826 99.4429 24.7236C99.426 26.0472 99.4111 27.1446 98.9269 28.3892C98.5139 27.2038 97.8793 26.0994 97.4639 24.9097C97.0297 23.6661 96.5633 22.4086 96.162 21.1559C95.9618 20.5301 95.8659 19.8371 95.6226 19.2331C95.4876 19.9842 95.9947 21.4747 96.3394 22.1627C96.5179 22.5187 96.8757 23.2492 96.8503 23.6298C95.775 21.8461 95.3459 20.3075 95.3926 18.2446Z" fill="#533C8E"/>
<path id="Vector_11" d="M106.326 10.6021C106.443 10.6294 106.509 10.6348 106.611 10.6912C107.149 10.9879 107.276 11.9091 107.403 12.4512C106.228 15.8704 104.957 19.3552 103.236 22.5438C102.395 24.102 101.367 25.5927 100.431 27.097C100.472 26.1227 102.222 23.7868 102.758 22.8135C104.582 19.5065 105.954 15.8986 107.237 12.3552C107.098 12.268 106.984 12.1799 106.868 12.0637C106.455 11.65 106.333 11.1672 106.326 10.6021Z" fill="#533C8E"/>
<path id="Vector_12" d="M104.989 22.7627C105.199 23.1831 104.937 23.8375 104.82 24.2776C104.305 24.7472 103.625 25.1178 103.049 25.5147C102.3 26.0305 101.598 26.5915 100.906 27.1807L100.848 27.0542C101.716 25.1909 103.442 24.0264 104.989 22.7627Z" fill="#F36A18"/>
<path id="Vector_13" d="M92.3007 23.129C92.5812 23.1162 92.8643 23.1528 93.1374 23.2172C94.9035 23.6338 96.8972 25.2089 97.8223 26.7408C97.6296 26.7608 94.1407 23.731 93.0465 23.5365L93.2765 23.7195C94.5101 24.4514 97.2003 26.3024 98.0687 27.3725C97.4903 27.1555 92.7216 23.6644 92.3007 23.129Z" fill="#533C8E"/>
<path id="Vector_14" d="M100.851 14.1592C101.122 14.1893 101.293 14.2136 101.516 14.3925C102.06 14.8282 102.138 15.99 102.22 16.6446C101.901 16.1673 101.429 15.9227 101.079 15.4834C100.77 15.0952 100.804 14.6248 100.851 14.1592Z" fill="#533C8E"/>
<path id="Vector_15" d="M103.93 1.78613C103.956 1.7917 103.982 1.79498 104.007 1.80301C104.234 1.87461 104.332 1.94637 104.446 2.15528C104.83 2.86178 104.647 3.73967 104.436 4.46748L104.353 4.47272C104.308 4.39391 104.266 4.31347 104.226 4.23154C103.852 3.44721 103.646 2.62978 103.93 1.78613Z" fill="#533C8E"/>
<path id="Vector_16" d="M105.9 2.08643C106.035 2.20276 106.128 2.26355 106.145 2.45902C106.208 3.20632 105.285 4.01327 104.79 4.46991C104.721 4.51775 104.765 4.49956 104.649 4.49415C104.807 3.41752 105.073 2.79457 105.9 2.08643Z" fill="#533C8E"/>
<path id="Vector_17" d="M104.264 14.7051C104.47 14.7996 104.53 14.8668 104.645 15.0613C104.658 15.2155 104.639 15.2795 104.566 15.4226C104.278 15.9942 103.575 16.2089 103.008 16.3596L102.83 16.4425L102.792 16.3227C103.097 15.6341 103.579 15.031 104.264 14.7051Z" fill="#533C8E"/>
<path id="Vector_18" d="M104.731 9.95929C104.81 9.95585 104.942 9.94667 105.017 9.95847C105.236 9.99353 105.273 10.0635 105.385 10.2331C105.378 10.3312 105.377 10.42 105.342 10.5154C105.163 11.0128 104.591 11.3582 104.163 11.6204L104.053 11.6633C103.899 11.5191 103.854 11.3784 103.777 11.187C103.894 10.7043 104.374 10.285 104.731 9.95929Z" fill="#533C8E"/>
<path id="Vector_19" d="M98.9767 15.271C99.0329 15.2887 99.1119 15.3098 99.1597 15.3436C99.2938 15.4385 99.3251 15.524 99.3624 15.6788C99.5404 16.4145 99.0038 17.1618 98.644 17.7615L98.6405 17.8747L98.5737 17.9317C98.543 17.8134 98.5176 17.7081 98.5048 17.5863C98.4182 16.7586 98.4167 15.9285 98.9767 15.271Z" fill="#533C8E"/>
<path id="Vector_20" d="M102.472 5.41992C102.603 5.46252 102.738 5.50611 102.851 5.58836C103.181 5.82889 103.346 6.4343 103.401 6.81557C103.438 7.06805 103.501 7.35315 103.349 7.56369C103.001 7.236 102.529 6.86489 102.349 6.41415C102.193 6.02337 102.307 5.77956 102.472 5.41992Z" fill="#533C8E"/>
<path id="Vector_21" d="M109.148 5.60107C109.328 5.68627 109.377 5.72199 109.474 5.91189C109.816 6.58661 109.429 7.56347 109.161 8.20116L109.058 8.21033C108.88 7.2574 108.648 6.49584 109.148 5.60107Z" fill="#533C8E"/>
<path id="Vector_22" d="M101.196 11.0566C101.381 11.0755 101.533 11.0881 101.691 11.1931C102.384 11.6524 102.595 12.4371 102.777 13.1958C102.331 12.8711 101.831 12.5186 101.501 12.0704C101.266 11.7505 101.148 11.4522 101.196 11.0566Z" fill="#533C8E"/>
<path id="Vector_23" d="M110.676 6.22656L110.885 6.28227C110.957 6.39631 111.013 6.42367 110.984 6.56638C110.844 7.24176 110.078 7.80145 109.55 8.17978C109.506 8.21058 109.447 8.20812 109.394 8.21959L109.361 8.08655C109.608 7.31041 110.021 6.70909 110.676 6.22656Z" fill="#533C8E"/>
<path id="Vector_24" d="M104.74 11.6011C104.923 11.6257 104.993 11.6707 105.148 11.7625L105.136 11.9279C104.768 12.5363 104.091 12.8252 103.445 13.0437L103.197 13.065L103.125 12.9594C103.53 12.3046 104.056 11.9225 104.74 11.6011Z" fill="#533C8E"/>
<path id="Vector_25" d="M96.2984 7.76367C96.4042 7.81184 96.4439 7.86788 96.5197 7.9534C96.6447 8.56848 96.5146 10.032 96.2312 10.5869C96.1389 10.1155 95.9046 9.69558 95.8422 9.20617C95.7698 8.63795 95.9621 8.21015 96.2984 7.76367Z" fill="#533C8E"/>
<path id="Vector_26" d="M104.536 5.77686C104.658 5.82372 104.761 5.88385 104.874 5.94857C104.912 6.02705 104.944 6.07948 104.953 6.17271C105.011 6.80401 104.323 7.6878 103.997 8.21391L103.894 8.30173L103.816 8.2049C103.877 7.44219 104.082 6.39751 104.536 5.77686Z" fill="#533C8E"/>
<path id="Vector_27" d="M101.834 9.43896C101.927 9.47108 101.995 9.49025 102.082 9.54284C102.443 9.7601 102.697 10.319 102.74 10.7235C102.769 10.997 102.73 11.0597 102.557 11.2686C102.354 11.3376 102.462 11.3199 102.234 11.3152C102.063 11.1769 101.94 11.0632 101.854 10.8557C101.666 10.4029 101.646 9.88954 101.834 9.43896Z" fill="#533C8E"/>
<path id="Vector_28" d="M96.2089 16.3599C96.4172 16.3975 96.5868 16.4787 96.7596 16.5983C97.1266 16.8521 98.0935 17.6092 98.1641 18.0381C97.554 17.6711 96.5411 17.6703 96.1963 16.9176C96.0895 16.6844 96.1144 16.5876 96.2089 16.3599Z" fill="#533C8E"/>
<path id="Vector_29" d="M94.4785 8.31348C95.0726 8.54237 95.5355 8.95412 95.7822 9.55019C95.9138 9.86773 96.0161 10.2342 95.9807 10.5791C95.4183 9.94572 94.4759 9.25314 94.4785 8.31348Z" fill="#533C8E"/>
<path id="Vector_30" d="M103.124 3.53564C103.37 3.55891 103.526 3.58463 103.721 3.74848C104.157 4.115 104.209 4.85887 104.217 5.38219C103.966 5.27553 103.753 5.17231 103.567 4.96635C103.205 4.56476 103.091 4.06405 103.124 3.53564Z" fill="#533C8E"/>
<path id="Vector_31" d="M95.1195 12.3706C95.2069 12.3783 95.2244 12.378 95.3217 12.3981C95.6976 12.4763 96.091 12.6701 96.3033 13.0019C96.513 13.3296 96.4316 13.5052 96.3446 13.8582C96.0156 13.7633 95.7402 13.6457 95.4969 13.3951C95.199 13.0886 95.0984 12.7902 95.1195 12.3706Z" fill="#533C8E"/>
<path id="Vector_32" d="M105.546 4.07138C105.756 4.0704 105.854 4.07531 106.033 4.19083L106.063 4.38056C105.842 4.87587 105.389 5.15948 104.943 5.43343C104.786 5.43786 104.657 5.41656 104.504 5.38248L104.452 5.24174C104.603 4.76396 105.168 4.38351 105.546 4.07138Z" fill="#533C8E"/>
<path id="Vector_33" d="M107.932 9.1377C108.143 9.22552 108.227 9.27549 108.355 9.46588C108.501 10.1291 108.092 10.7473 107.821 11.3332C107.782 11.3961 107.722 11.4407 107.668 11.4909C107.634 11.4289 107.609 11.3953 107.6 11.3178C107.524 10.718 107.637 9.66184 107.932 9.1377Z" fill="#533C8E"/>
<path id="Vector_34" d="M105.208 0.424805C105.365 0.50427 105.494 0.613719 105.555 0.784939C105.689 1.15867 105.591 1.67594 105.418 2.02051C105.34 2.17551 105.331 2.24056 105.159 2.29479C105.073 2.02575 105.157 1.75147 105.205 1.48063L105.126 1.46294C105.028 1.62416 105.005 1.76032 104.973 1.94399C104.944 2.1121 104.936 2.19074 104.851 2.34099L104.786 2.33215C104.686 2.21303 104.684 2.24874 104.671 2.11193C104.612 1.48243 104.849 0.919621 105.208 0.424805Z" fill="#533C8E"/>
<path id="Vector_35" d="M95.2527 11.0113C95.105 10.8634 94.9206 10.7059 94.819 10.5224C94.7339 10.3689 94.7402 10.3605 94.79 10.186C94.8186 10.1764 94.8463 10.1634 94.876 10.1569C95.3008 10.0643 95.6518 10.3537 95.9806 10.5789C96.1083 10.9019 96.3354 11.2261 96.5076 11.5306C96.0601 11.3938 95.6461 11.2756 95.2527 11.0113Z" fill="#533C8E"/>
<path id="Vector_36" d="M105.625 5.95264L105.872 6.03505C105.977 6.21069 106.003 6.2764 105.939 6.49153C105.779 7.03288 105.156 7.45069 104.709 7.74954L104.551 7.7946L104.525 7.68204C104.784 7.05663 105.121 6.41436 105.625 5.95264Z" fill="#533C8E"/>
<path id="Vector_37" d="M98.2796 12.7773C98.332 12.7823 98.3871 12.7749 98.4367 12.7923C98.5693 12.8385 98.5942 12.8653 98.6161 12.981C98.7252 13.5589 98.1259 14.3177 97.7939 14.7643L97.6569 14.8646L97.5575 14.7764C97.617 14.0395 97.8506 13.3795 98.2796 12.7773Z" fill="#533C8E"/>
<path id="Vector_38" d="M106.904 9.16113C107.043 9.24961 107.151 9.32744 107.258 9.45573C107.687 9.96513 107.443 10.9346 107.352 11.5264C107.149 11.1633 106.957 10.7326 106.835 10.3354C106.694 9.87517 106.679 9.59008 106.904 9.16113Z" fill="#533C8E"/>
<path id="Vector_39" d="M109.619 10.4634C109.75 10.5066 109.834 10.5658 109.948 10.6415C109.976 10.7657 110.017 10.807 109.948 10.9256C109.634 11.4663 108.935 11.6834 108.365 11.8148L108.206 11.8517L108.185 11.7706C108.56 11.2679 109.076 10.7796 109.619 10.4634Z" fill="#533C8E"/>
<path id="Vector_40" d="M95.397 14.0288C95.6087 14.0304 95.8238 14.0316 96.0312 14.0781C96.655 14.2184 97.0059 14.5685 97.3294 15.0963C96.7936 15.0119 96.0402 14.9508 95.6219 14.581C95.4199 14.4025 95.4179 14.2878 95.397 14.0288Z" fill="#533C8E"/>
<path id="Vector_41" d="M108.133 7.15918C108.213 7.17032 108.272 7.17524 108.351 7.20244C108.587 7.28452 108.728 7.50948 108.812 7.73346C108.953 8.11178 108.952 8.70917 108.795 9.0811C108.577 8.87351 108.397 8.65084 108.253 8.38475C108.03 7.97317 107.985 7.59976 108.133 7.15918Z" fill="#533C8E"/>
<path id="Vector_42" d="M110.219 7.9668C110.396 8.0225 110.43 8.052 110.559 8.17358L110.563 8.37527C110.308 8.83027 109.877 9.04557 109.411 9.23858C109.306 9.21924 109.205 9.18205 109.103 9.14993L109.074 8.95889C109.325 8.49193 109.764 8.21388 110.219 7.9668Z" fill="#533C8E"/>
<path id="Vector_43" d="M97.0359 15.5513C97.0618 15.5568 97.0887 15.5591 97.1136 15.5681C97.7349 15.7906 98.0747 17.1946 98.3044 17.7837C97.9908 17.5558 97.6756 17.2499 97.4364 16.9441C97.0669 16.4719 96.986 16.1387 97.0359 15.5513Z" fill="#533C8E"/>
<path id="Vector_44" d="M103.364 13.9277C103.5 14.0357 103.496 13.9892 103.521 14.1383C103.637 14.8277 102.921 15.7607 102.576 16.3166L102.51 16.254C102.656 15.4708 102.727 14.464 103.364 13.9277Z" fill="#533C8E"/>
<path id="Vector_45" d="M96.8368 9.41895C96.9428 9.42992 97.0334 9.46138 97.1349 9.49268C97.1865 9.58574 97.1958 9.59 97.2238 9.70797C97.3366 10.1839 96.9169 10.8955 96.6889 11.3045L96.5108 11.2276C96.4583 11.1452 96.4426 11.1336 96.4195 11.0232C96.3266 10.5803 96.5919 9.77711 96.8368 9.41895Z" fill="#533C8E"/>
<path id="Vector_46" d="M97.8374 11.2393C97.9698 11.381 98.0089 11.408 98.045 11.5968C98.1613 12.2084 97.9806 12.748 97.6444 13.2556C97.4417 13.0585 97.3473 12.9515 97.3388 12.6603C97.3239 12.1503 97.4953 11.6177 97.8374 11.2393Z" fill="#533C8E"/>
<path id="Vector_47" d="M102.983 9.06689C103.116 9.11457 103.199 9.1421 103.275 9.27023C103.583 9.78487 103.226 10.7506 103.098 11.288L103.058 11.2839C102.959 11.1502 102.974 11.1995 102.937 11.0491C102.779 10.4037 102.636 9.6633 102.983 9.06689Z" fill="#533C8E"/>
<path id="Vector_48" d="M108.787 9.92139C108.957 9.97136 109.034 10.0099 109.158 10.1372C109.141 10.7364 108.464 11.2366 108.057 11.6467L107.915 11.7584L107.878 11.6108C108.083 10.9898 108.33 10.4005 108.787 9.92139Z" fill="#533C8E"/>
<path id="Vector_49" d="M102.212 7.07666C102.361 7.0978 102.494 7.13007 102.63 7.19512C103.207 7.47071 103.487 8.04647 103.702 8.6142C103.344 8.47149 102.962 8.29191 102.669 8.03811C102.337 7.75056 102.233 7.50807 102.212 7.07666Z" fill="#533C8E"/>
<path id="Vector_50" d="M103.59 5.50537C103.745 5.56468 103.832 5.6294 103.963 5.7282C104.248 6.30396 103.87 7.17284 103.703 7.76449L103.665 7.78235L103.566 7.71205C103.576 6.99736 103.302 6.17698 103.59 5.50537Z" fill="#533C8E"/>
<path id="Vector_51" d="M110.436 4.7793C110.605 4.95527 110.702 5.1527 110.676 5.4006C110.629 5.84331 110.354 6.15807 110.013 6.41645C109.859 6.23802 109.78 6.12022 109.791 5.87232C109.811 5.40503 110.096 5.06701 110.436 4.7793Z" fill="#533C8E"/>
<path id="Vector_52" d="M104.082 9.32715L104.287 9.4271L104.344 9.62699C104.231 10.2609 103.825 10.732 103.448 11.2342L103.391 11.3231L103.328 11.2774C103.409 10.4723 103.516 9.92814 104.082 9.32715Z" fill="#533C8E"/>
<path id="Vector_53" d="M100.894 16.0244C100.996 16.0274 101.052 16.0269 101.159 16.041C101.477 16.0826 101.767 16.2525 101.939 16.5307C102.09 16.7742 102.155 17.0634 102.08 17.3398C101.701 17.1692 101.216 16.9051 100.983 16.5518C100.847 16.3462 100.835 16.2576 100.894 16.0244Z" fill="#533C8E"/>
<path id="Vector_54" d="M103.323 16.4355C103.542 16.4295 103.691 16.4827 103.895 16.5512L103.94 16.6421C103.93 16.6685 103.924 16.6965 103.91 16.7213C103.726 17.06 103.222 17.2217 102.888 17.3516C102.678 17.3763 102.486 17.3991 102.303 17.2916L102.333 17.1412C102.619 16.835 102.966 16.648 103.323 16.4355Z" fill="#533C8E"/>
<path id="Vector_55" d="M105.33 7.61621C105.512 7.6516 105.545 7.66226 105.685 7.78203L105.656 7.94128C105.307 8.36139 104.818 8.56046 104.31 8.72234C104.184 8.71349 104.116 8.6863 104.001 8.63927L104.014 8.51327C104.375 8.13626 104.885 7.8859 105.33 7.61621Z" fill="#533C8E"/>
<path id="Vector_56" d="M99.4135 17.0181C99.6502 17.1364 99.6524 17.1152 99.7387 17.3621C99.6515 17.8817 99.3234 18.2104 98.9652 18.5748L98.7974 18.5585L98.735 18.3629C98.8277 17.7859 98.9906 17.427 99.4135 17.0181Z" fill="#533C8E"/>
<path id="Vector_57" d="M108.951 11.8887C109.091 11.9323 109.173 11.9808 109.288 12.0715L109.274 12.2316C108.869 12.5865 108.349 12.6643 107.828 12.7059C107.71 12.6655 107.627 12.6103 107.522 12.5431L107.538 12.4081C107.943 12.1379 108.487 12.0309 108.951 11.8887Z" fill="#533C8E"/>
<path id="Vector_58" d="M97.2272 17.937C97.6375 18.0065 98.0799 18.134 98.4192 18.3827C98.5895 18.5075 98.5479 18.4351 98.5728 18.6194L98.4143 18.7251C98.0029 18.7207 97.378 18.7189 97.0541 18.439C96.9499 18.3491 96.983 18.2932 96.9802 18.1684L97.2272 17.937Z" fill="#533C8E"/>
<path id="Vector_59" d="M102.169 13.8872C102.288 13.9369 102.394 14.007 102.504 14.0738C102.828 14.614 102.541 15.3413 102.415 15.915L102.371 15.962L102.274 15.9544C102.074 15.2812 102.074 14.578 102.169 13.8872Z" fill="#533C8E"/>
<path id="Vector_60" d="M97.9091 15.0181L98.0913 15.0959C98.5206 15.681 98.3502 16.7388 98.2995 17.4271C97.9705 16.572 97.7175 15.9456 97.9091 15.0181Z" fill="#533C8E"/>
<path id="Vector_61" d="M95.0448 7.06543C95.0671 7.07149 95.0902 7.07509 95.1118 7.08345C95.3617 7.18078 95.5137 7.40295 95.6173 7.63889C95.7113 7.85337 95.7607 8.04883 95.6812 8.27216L95.5557 8.27199L95.306 7.96888C95.3551 8.12093 95.3864 8.27036 95.421 8.4265L95.3289 8.48811C95.2316 8.40241 95.1603 8.3236 95.1022 8.20629C94.8942 7.78717 94.9023 7.50192 95.0448 7.06543Z" fill="#533C8E"/>
<path id="Vector_62" d="M95.9353 11.585C96.0469 11.6246 96.1792 11.6643 96.2684 11.7465C96.6726 12.1194 96.7729 13.0052 96.8581 13.5188C96.6891 13.2077 96.4307 12.9619 96.2222 12.6777C95.939 12.2918 95.8648 12.0568 95.9353 11.585Z" fill="#533C8E"/>
<path id="Vector_63" d="M96.947 11.4165C97.0102 11.4678 97.0717 11.5119 97.1198 11.5804C97.3815 11.952 97.1279 12.872 97.053 13.2919C96.977 13.0843 96.8957 12.8741 96.8349 12.6611C96.6938 12.1672 96.6935 11.8669 96.947 11.4165Z" fill="#533C8E"/>
</g>
</svg>
