<svg width="111" height="22" viewBox="0 0 111 22" fill="none" xmlns="http://www.w3.org/2000/svg">
<path d="M62.0717 2.27107C65.0953 2.0408 68.2942 2.8288 70.6405 4.92499C70.9359 5.18897 71.7184 5.8005 71.7499 6.21787C71.6956 6.34245 71.663 6.4461 71.5646 6.54007C71.5089 6.49357 71.4306 6.41729 71.3639 6.38405C71.2322 6.3183 71.2065 6.3067 71.0745 6.36385C70.8603 6.65162 70.9175 7.10223 70.9265 7.44655C70.8749 7.49143 70.8238 7.5369 70.7732 7.58297C70.6331 7.71149 70.5152 7.80319 70.5258 8.01601C70.5516 8.53895 71.2833 9.11915 71.6306 9.46814C70.8837 10.3102 71.1471 9.76069 70.5542 9.85992C69.8806 10.3912 70.6104 10.8104 70.3833 11.3916C70.3362 11.5121 70.3146 11.5943 70.3086 11.7275C70.446 12.0891 70.8618 12.3267 71.1663 12.5293C70.5955 14.5974 70.4133 16.8272 69.6786 18.8481C69.7424 17.033 69.5779 15.3094 69.2414 13.5303C69.4507 13.3211 69.8369 12.906 69.8957 12.6011C69.9319 12.414 69.8847 12.3168 69.7967 12.157C69.6959 11.9742 69.6616 11.8924 69.6661 11.676C69.6719 11.3953 69.6976 11.1305 69.602 10.8634C69.4847 10.7385 69.4604 10.7203 69.2998 10.6729C69.1778 10.7165 69.0635 10.7703 68.9325 10.7442C68.8239 10.7224 68.713 10.5097 68.6454 10.4174C68.8235 10.1339 69.115 9.68322 69.1397 9.34021C69.1513 9.17833 69.0863 9.10217 68.9961 8.98381C68.8454 8.78595 68.7756 8.67715 68.7496 8.41652C68.7254 8.17418 68.7225 7.96639 68.5486 7.78514C68.3761 7.73205 68.2556 7.79984 68.0951 7.86237L68.0212 7.8919L67.9359 7.84898C67.9018 7.53239 68.1322 7.18042 68.1598 6.85236C68.1736 6.68832 68.1512 6.57212 68.0532 6.44025C67.9993 6.41358 67.7119 6.28422 67.6928 6.23807C67.5674 5.93715 67.8124 5.54728 67.4981 5.12835C67.3351 5.10109 67.2598 5.19602 67.1237 5.28401C66.9534 5.18992 66.867 4.90215 66.7526 4.7264C66.6137 4.63901 66.5516 4.6286 66.3902 4.64008C66.082 4.89773 66.262 5.2112 66.1715 5.56115C66.0719 5.57083 65.9947 5.58864 65.9009 5.62487C65.7193 6.12617 66.2143 6.34556 66.2128 6.80513C66.1388 6.91453 65.9754 7.11646 65.9938 7.25431C66.0432 7.62481 66.5258 7.91605 66.7859 8.12133C66.8505 8.26588 66.8389 8.35889 66.8299 8.51371C66.7203 8.53081 66.524 8.56859 66.4338 8.63925C66.2937 8.74864 66.2883 8.82528 66.2541 8.99171C66.2818 9.1341 66.326 9.21109 66.4084 9.32395C66.8486 9.92712 66.4359 9.91731 66.627 10.4315C66.8775 10.7443 67.1414 10.6743 67.4735 10.7975C67.588 10.84 67.6459 10.9253 67.6658 11.0502C67.6919 11.2149 67.6365 11.3307 67.5508 11.4605C67.3322 11.4461 67.2188 11.4415 67.0494 11.5886C66.8545 12.287 67.569 12.3472 67.6089 12.9199C67.6183 13.0541 67.6338 13.1471 67.6826 13.2746C67.9332 13.5484 68.3305 13.5701 68.6717 13.6059C69.1366 15.5118 69.2191 17.4573 69.1076 19.4123C68.6366 18.4135 68.3421 17.3631 68.0652 16.2928C67.7957 15.2516 67.5737 14.0382 67.0246 13.1169C66.9106 12.9255 66.8008 12.7593 66.5838 12.711C66.5701 12.725 66.5544 12.7371 66.5426 12.7528C66.2936 13.0894 66.4855 14.1699 66.5292 14.566C66.1039 13.7618 65.5798 12.9888 64.9362 12.3578C64.6138 12.0417 63.9073 11.4127 63.4576 11.4299L63.3647 11.5885L63.3938 11.5736C63.4969 12.0104 63.8593 12.4473 64.0807 12.8363C64.5815 13.7166 65.0182 14.6185 65.6381 15.4209C66.2431 16.204 67.4293 17.04 67.84 17.8315C67.9723 18.0864 68.0633 18.3789 68.1611 18.6503C67.5121 17.7955 66.8941 17.2404 65.9653 16.7399C65.5238 16.5214 64.8582 16.2661 64.3628 16.327C64.2427 16.3417 64.232 16.3471 64.1515 16.4455C64.3026 16.9954 68.2163 19.6565 68.9176 20.2841L68.9751 20.3366C67.1907 20.8703 65.3625 21.302 63.4919 21.1278C62.7432 21.0581 61.8678 20.8405 61.3807 20.1971C60.3092 18.7823 61.6919 16.2294 61.8555 14.6491C61.9797 13.4507 61.7562 12.2567 61.0086 11.3112C59.5053 9.41016 55.9807 8.80125 53.7345 8.55939C54.5677 7.07605 55.4985 5.90643 56.8616 4.92343C60.2523 2.4779 64.9762 2.14984 68.6085 4.22474C69.1515 4.53499 70.5887 5.76511 71.0298 5.85095L71.0342 5.76858C70.5479 5.25712 69.8612 4.81057 69.2807 4.41723C66.8019 2.73746 63.6303 2.31949 60.7716 2.96557C58.661 3.4426 56.4997 4.60924 55.0518 6.30873C54.4737 6.98722 54.0143 7.75226 53.5453 8.51371L53.1028 8.53416C53.5414 7.66618 54.0019 6.84459 54.6129 6.09305C56.4524 3.83092 59.2688 2.50922 62.0717 2.27107Z" fill="white"/>
<path d="M37.9692 6.35644C38.1635 6.34879 38.3661 6.35501 38.5581 6.38867C38.7755 6.42678 39.0055 6.52745 39.1118 6.74316C39.3494 7.22712 38.8638 8.12155 38.6772 8.58495C39.0736 8.50223 39.5064 8.38159 39.9086 8.47753C40.0963 8.52221 40.172 8.59394 40.268 8.76269C40.2565 8.93094 40.1994 9.03465 40.0874 9.15234C39.6044 9.65938 38.9407 9.63014 38.309 9.64843C37.7937 11.0483 37.2862 12.5085 36.9526 13.9687C36.8801 14.2859 36.7339 14.8325 36.9028 15.1221C37.0464 15.1804 37.1681 15.1994 37.3178 15.1543C38.3528 14.8418 39.1497 12.938 39.5864 12.0303C40.0815 11.0011 40.9639 9.94133 42.0649 9.59472C42.5336 9.44731 43.2625 9.39478 43.6919 9.6914C43.9103 9.84243 44.0692 10.0433 44.3081 10.1689C44.374 9.98755 44.4453 9.76888 44.6059 9.65331C44.83 9.4922 45.2109 9.42259 45.479 9.45898C45.6435 9.48133 45.7937 9.55798 45.8764 9.71484C46.1792 10.2908 45.2361 12.202 44.9995 12.8271C44.7667 13.4421 44.4075 14.3056 44.6762 14.9521C44.7859 15.0539 44.8322 15.1163 44.9936 15.0908C45.7768 14.9672 46.3948 13.2974 46.8813 12.7842C47.0212 12.7303 47.0705 12.6977 47.2163 12.7695C47.344 12.8326 47.4303 12.9356 47.4682 13.0703C47.2139 13.8841 46.6244 14.7268 46.0639 15.3437C45.4947 15.97 44.6827 16.6326 43.8178 16.6309C43.5464 16.6303 43.2921 16.5388 43.1118 16.3203C42.8257 15.9735 42.786 15.5277 42.8081 15.0928L42.8139 15C42.2307 15.7292 41.487 16.5069 40.5288 16.5967C40.1514 16.6321 39.7523 16.551 39.4594 16.2871C39.0657 15.9324 38.9557 15.4159 38.9145 14.9023C38.6432 15.2035 38.3601 15.493 38.0659 15.7695C37.3467 16.4344 36.6954 16.6114 35.7563 16.5478C35.6451 16.4662 35.5304 16.3829 35.436 16.2803C35.0517 15.8623 35.0886 15.2689 35.0864 14.7324C34.6071 15.4249 33.8657 16.2772 33.061 16.5342C32.6833 16.6547 32.2439 16.645 31.896 16.4316C30.3699 15.4957 32.7055 12.1794 32.3667 10.9287C32.2737 10.8612 32.2946 10.8437 32.2036 10.8633C31.641 10.9845 31.0145 11.9462 30.7036 12.418C30.2287 13.2066 29.8245 14.029 29.5385 14.9131C29.4054 15.3246 29.2522 16.1308 28.9545 16.416C28.7991 16.5649 28.5784 16.6666 28.3647 16.626C28.1246 16.5801 27.9344 16.3851 27.8042 16.1816C27.5592 15.7988 27.6361 15.5466 27.7221 15.1309C27.4581 15.4246 27.1723 15.7057 26.8608 15.9443C26.3179 16.3598 25.6379 16.7289 24.9438 16.5908C24.7187 16.546 24.524 16.4351 24.3979 16.2295C24.1638 15.8476 24.2026 15.4279 24.2739 15.0059C23.6757 15.6865 22.9559 16.5278 22.0131 16.5967C21.6022 16.6267 21.155 16.501 20.8422 16.2139C20.4764 15.8778 20.3472 15.3667 20.3227 14.876C20.2512 13.4441 20.8783 11.9405 21.7866 10.8896C22.3908 10.1908 23.2942 9.50526 24.2241 9.47558C24.7217 9.4598 25.1564 9.64994 25.519 9.99999C25.6152 10.0929 25.6379 10.1233 25.7641 10.1728C25.7735 10.0987 25.7795 10.0207 25.809 9.95117C25.8931 9.7532 26.1672 9.55383 26.3647 9.50781C26.7391 9.42085 27.1407 9.50476 27.4643 9.70702C27.7264 10.1487 25.696 13.6912 26.0112 14.8447C26.0558 15.0082 26.1118 15.0442 26.2524 15.1133C26.3909 15.0947 26.4868 15.0656 26.6059 14.9863C28.1621 13.95 28.926 11.4512 29.2622 9.66406C29.6289 9.54299 30.1464 9.39427 30.52 9.54882C30.6636 9.60824 30.7743 9.71359 30.8256 9.86913C30.9925 10.3749 30.6249 11.0484 30.437 11.498C31.0252 10.7614 31.912 9.62305 32.8803 9.48437C33.2141 9.43655 33.5936 9.47106 33.8579 9.70898C35.0355 10.7698 33.0449 13.7797 33.1977 14.9355C33.2166 15.0791 33.2141 15.0803 33.3315 15.167C33.4014 15.1536 33.4616 15.1418 33.5258 15.1084C33.8627 14.9328 34.1674 14.5634 34.4155 14.2725C35.7141 12.7494 35.8981 11.5345 36.4751 9.64648C36.2527 9.62821 35.9988 9.62508 35.7895 9.54394C35.6198 9.4781 35.517 9.37821 35.4477 9.20214C35.4706 9.03293 35.4977 8.95006 35.6225 8.83202C35.9723 8.50155 36.4003 8.54449 36.8383 8.54296C37.0548 7.97698 37.1809 7.35165 37.4487 6.81054C37.5834 6.53835 37.6917 6.45244 37.9692 6.35644ZM43.0395 10.5664C42.1311 10.9032 41.5429 11.7223 41.1372 12.6016C40.8656 13.1902 40.4812 14.21 40.7114 14.8506C40.7604 14.9868 40.8517 15.1235 40.977 15.1934C41.074 15.2473 41.2082 15.2607 41.3169 15.2695C42.2671 14.8266 42.9784 13.5653 43.3364 12.583C43.5004 12.1328 43.8085 11.3848 43.6069 10.9189C43.5446 10.7752 43.4042 10.6544 43.2651 10.6006C43.2005 10.5757 43.106 10.5728 43.0395 10.5664ZM24.5034 10.5644C23.6118 10.8631 23.0418 11.624 22.6323 12.4668C22.3418 13.0649 21.9138 14.1187 22.1118 14.7851C22.1672 14.9714 22.2758 15.1285 22.4516 15.209C22.5549 15.2562 22.6548 15.2605 22.7651 15.2656C23.8134 14.7532 24.478 13.3759 24.853 12.29C24.9782 11.9277 25.2128 11.3273 25.0542 10.9502C24.9836 10.7831 24.8904 10.678 24.7251 10.6133C24.6318 10.5768 24.6034 10.5793 24.5034 10.5644Z" fill="white"/>
<path d="M104.449 5.65918C104.666 5.67245 104.876 5.70131 105.077 5.79492C105.263 5.88099 105.475 6.0274 105.503 6.25879C105.646 7.43594 102.258 14.0506 102.738 15.085C102.776 15.1683 102.828 15.1604 102.906 15.1855C104.046 14.9758 105.045 12.1283 105.699 11.1885C106.243 10.4058 107.22 9.68392 108.144 9.54883C108.642 9.476 109.154 9.56889 109.551 9.90625C109.587 9.93678 109.622 9.96987 109.656 10.0039C109.688 10.0379 109.72 10.0732 109.749 10.1104C109.779 10.1476 109.808 10.1864 109.834 10.2266C109.86 10.2667 109.884 10.3088 109.907 10.3516C109.929 10.3942 109.949 10.4378 109.967 10.4824C109.985 10.5271 110 10.5727 110.014 10.6191C110.028 10.6655 110.039 10.7132 110.049 10.7607C110.058 10.8083 110.065 10.8561 110.07 10.9043C110.136 11.5619 109.826 12.247 109.426 12.7363C108.59 13.7587 107.414 13.9823 106.203 14.0908C106.205 14.3446 106.188 14.64 106.26 14.8838C106.309 15.0489 106.407 15.1919 106.559 15.2695C106.811 15.3984 107.143 15.3841 107.416 15.3584C109.375 15.1744 109.983 13.2126 110.691 12.9902C110.808 13.0454 110.929 13.1477 110.975 13.2793C111.043 13.4762 110.963 13.5855 110.866 13.751C110.135 14.9879 108.743 16.2681 107.368 16.624C106.696 16.7976 105.913 16.8028 105.312 16.4053C104.812 16.0746 104.586 15.5851 104.449 15.0088L103.745 15.7627C103.272 16.2171 102.673 16.6873 101.995 16.6689C101.712 16.6613 101.439 16.5594 101.244 16.3389C100.875 15.9192 100.918 15.3865 100.928 14.8594C100.811 15.0374 100.68 15.2055 100.545 15.3691C100.038 15.9827 99.3354 16.6175 98.5267 16.6602C98.1065 16.6822 97.6716 16.5753 97.3617 16.2637C96.9959 15.896 96.8863 15.3725 96.8675 14.8652C96.2618 15.6462 95.4558 16.4854 94.4642 16.6494C94.15 16.7012 93.7997 16.6942 93.5404 16.4766C93.2206 16.2077 93.1371 15.7227 93.1166 15.3193C93.0496 13.9956 93.8131 12.4797 94.2211 11.2441C94.37 10.7929 94.4599 10.0769 94.7972 9.73535C94.9392 9.59164 95.1891 9.5464 95.3783 9.54688C95.6726 9.54775 96.0109 9.65015 96.2181 9.87891C96.3477 10.022 96.3941 10.1933 96.3793 10.3867C96.3596 10.6413 96.1535 11.0098 96.0531 11.2529C95.7016 12.1033 94.7669 14.092 94.8265 14.9844C94.8373 15.1447 94.8706 15.1995 94.9896 15.293C96.1315 15.2092 97.2864 12.6737 97.8255 11.792C98.0361 11.4489 98.2773 11.1312 98.5492 10.8389C99.1813 10.1576 100.051 9.52463 100.994 9.5293C101.545 9.53196 101.927 9.73972 102.308 10.1377C102.617 9.46022 102.89 8.7671 103.129 8.05957C103.346 7.42235 103.521 6.49334 103.875 5.94531C104.009 5.73864 104.232 5.70996 104.449 5.65918ZM101.079 10.5615C99.9878 11.099 99.3122 12.344 98.9173 13.4873C98.7713 13.91 98.4944 14.6002 98.6888 15.0361C98.7548 15.1837 98.8634 15.2784 99.015 15.3164C99.1135 15.3411 99.2374 15.3332 99.3392 15.334C100.341 14.777 101.384 12.8295 101.695 11.7129C101.769 11.4445 101.85 11.0911 101.696 10.8359C101.582 10.6494 101.406 10.5797 101.204 10.5625C101.144 10.5574 101.133 10.5594 101.079 10.5615ZM108.46 10.5479C107.742 10.8796 106.647 12.1688 106.436 12.9834C106.412 13.0745 106.417 13.0918 106.419 13.1738L106.494 13.2432L106.683 13.207C107.544 12.8657 108.387 12.3208 108.765 11.3926C108.83 11.2336 108.886 11.0588 108.827 10.8877C108.777 10.7384 108.686 10.6374 108.546 10.5781C108.519 10.5661 108.489 10.5578 108.46 10.5479Z" fill="white"/>
<path d="M88.4501 5.54315C89.5693 5.43543 90.8651 5.51999 91.8944 6.0246C92.5241 6.33324 93.1237 6.83389 93.3514 7.54315C93.5809 8.25782 93.417 9.12274 93.1063 9.78729C92.4301 11.2331 91.1274 11.8897 89.7333 12.3791C89.9508 13.1709 90.2431 13.988 90.7372 14.6408C91.236 15.2998 91.8158 15.5517 92.5927 15.632C92.0812 16.3214 91.5227 16.7027 90.7098 16.9045C90.4114 16.823 90.1411 16.7187 89.8866 16.5314C88.7216 15.6734 88.186 13.9236 87.9442 12.5295L87.2567 12.7795C87.0566 13.2726 86.8839 13.7809 86.7011 14.2814C86.4818 14.9637 86.2763 16.2495 85.8231 16.7687C85.529 16.8531 85.2352 16.8218 84.9452 16.7277C84.7199 16.6546 84.4424 16.5025 84.3563 16.2541C84.0661 15.4138 86.8825 8.39188 87.3817 7.2121C86.4413 7.60424 85.5604 8.19045 85.0614 9.14081C84.8836 9.47977 84.7824 9.86286 84.621 10.2101C84.5443 10.3749 84.4593 10.4592 84.2938 10.5256C84.1759 10.5182 84.0935 10.5004 83.996 10.4308C83.7026 10.2218 83.4288 9.83437 83.3739 9.4621C83.2962 8.93411 83.5657 8.42321 83.8681 8.02264C84.9405 6.60226 86.7658 5.76474 88.4501 5.54315ZM89.3085 6.841C88.6262 8.18781 88.1422 10.0915 87.6268 11.5568C88.2678 11.4623 88.7993 11.311 89.3925 11.0412C90.2837 10.541 91.1102 9.85918 91.4022 8.79413C91.5039 8.42291 91.5084 8.0154 91.3212 7.67206C91.1102 7.28509 90.7274 7.06836 90.3241 6.9621C89.9972 6.87605 89.6448 6.83899 89.3085 6.841Z" fill="white"/>
<path d="M19.3749 9.3584C19.6616 9.37191 19.9111 9.40721 20.1347 9.61426C20.324 9.78955 20.4093 10.0473 20.4247 10.3057C20.5075 11.7032 19.1804 14.0371 18.328 15.0664C17.8057 15.6974 16.9169 16.5985 16.0751 16.6318C15.8142 16.6421 15.5682 16.5485 15.3847 16.3525C14.9319 15.8698 14.9053 15.1211 14.8964 14.4883C14.5467 14.9326 14.1975 15.3648 13.7792 15.7412C13.2908 16.1806 12.5976 16.6899 11.9227 16.6094C11.6193 16.5731 11.305 16.4153 11.121 16.1553C10.879 15.8132 10.9315 15.3754 10.9833 14.9814C10.6208 15.493 10.2318 15.9377 9.70789 16.2734C9.27553 16.5506 8.74761 16.7464 8.24012 16.6006C7.86318 16.4922 7.55411 16.2165 7.36219 15.8643C6.97014 15.1443 7.06748 14.1399 7.27235 13.3682C7.29696 13.275 7.3234 13.1825 7.35242 13.0908C7.3815 12.9989 7.41283 12.9076 7.44617 12.8174C7.47954 12.7271 7.51505 12.6374 7.55262 12.5488C7.59017 12.4604 7.63001 12.3726 7.67176 12.2861C7.7134 12.1998 7.75695 12.1144 7.80262 12.0303C7.84835 11.9461 7.89648 11.863 7.94617 11.7812C7.99575 11.6996 8.04708 11.6191 8.10047 11.54C8.15392 11.461 8.20937 11.3829 8.26649 11.3066C8.32358 11.2305 8.38272 11.1561 8.44324 11.083C8.50378 11.0099 8.56581 10.938 8.62977 10.8682C8.69378 10.7982 8.75982 10.7297 8.82703 10.6631C8.8943 10.5964 8.96374 10.5309 9.03406 10.4678C9.10424 10.4049 9.17585 10.3435 9.24891 10.2842C9.32202 10.2248 9.39676 10.1678 9.47254 10.1123C9.54846 10.0567 9.62563 10.0027 9.70399 9.95117C9.78246 9.89953 9.86248 9.85023 9.94324 9.80273C10.3009 9.6267 10.69 9.49123 11.0888 9.48145C11.6953 9.46662 12.0709 9.77546 12.4794 10.1914C12.563 9.93825 12.6741 9.68579 12.9198 9.56543C13.2005 9.42803 13.6833 9.47044 13.9598 9.60156C14.0624 9.65022 14.2077 9.7524 14.2138 9.88379C14.2416 10.5091 12.356 14.1611 12.7147 14.9688C12.784 15.1247 12.8387 15.1291 12.9833 15.167C13.3682 15.056 13.6155 14.7604 13.8759 14.4609C14.8568 13.3321 15.0547 12.2176 15.3759 10.7773C15.4537 10.4282 15.5492 9.96745 15.7401 9.66797C15.8027 9.56988 15.8591 9.51341 15.9716 9.48828C16.223 9.43257 16.7349 9.52929 16.9393 9.70312C17.0963 9.83674 17.1702 9.99463 17.1766 10.2031C17.2051 11.1222 16.1128 13.3427 16.3153 14.5254C16.3487 14.7201 16.4078 14.8888 16.5663 15.0059C16.8656 15.0033 17.0814 14.7949 17.2831 14.5771C18.0863 13.7096 18.4764 12.204 18.7216 11.0625C18.8169 10.6185 18.8797 10.0782 19.0565 9.66309C19.1272 9.49727 19.2354 9.4533 19.3749 9.3584ZM11.2723 10.5654C10.3478 10.9098 9.75748 11.7488 9.35242 12.6494C9.10538 13.1988 8.73968 14.1419 8.92957 14.7461C8.97943 14.9042 9.07796 15.0554 9.22547 15.1279C9.30613 15.1676 9.41858 15.1809 9.50672 15.1973C10.6327 14.6058 11.3551 13.2246 11.743 12.0186C11.841 11.7142 11.9773 11.2618 11.8251 10.9531C11.7261 10.7527 11.5868 10.6367 11.3729 10.583C11.3399 10.5747 11.3057 10.5714 11.2723 10.5654Z" fill="white"/>
<path d="M3.45325 5.54037C3.79782 5.52734 4.1999 5.54347 4.48334 5.77769C4.50336 5.79418 4.52245 5.81176 4.54062 5.83041C4.55887 5.84906 4.57613 5.86867 4.59239 5.88923C4.60858 5.9098 4.6237 5.93116 4.63775 5.95331C4.65187 5.97555 4.66478 5.99851 4.67646 6.02218C4.68822 6.04577 4.69875 6.06996 4.70807 6.09475C4.71739 6.11954 4.7254 6.1448 4.73212 6.17055C4.73884 6.19621 4.74426 6.2222 4.74838 6.2485C4.75251 6.27472 4.7553 6.30115 4.75675 6.32777C4.8013 7.0481 4.39883 7.98434 4.18145 8.66294C3.88763 9.58006 2.15331 14.5199 2.23898 15.0886C2.57955 15.3289 4.79225 14.7819 5.3561 14.6998C5.61723 14.6618 5.98041 14.6264 6.19322 14.8261C6.38472 15.0058 6.41667 15.5707 6.43866 15.8332C6.46283 16.122 6.44439 16.3076 6.25632 16.535C6.01878 16.6271 5.89955 16.5635 5.65571 16.5078C4.33943 16.4292 1.74923 17.2375 0.674096 16.8203C0.396457 16.7124 0.20009 16.5143 0.083255 16.2305C-0.0379437 15.9361 -0.00936782 15.6581 0.0587449 15.3546C0.235859 14.5658 0.525203 13.7888 0.773739 13.0215L2.10143 8.89895C2.41773 7.89192 2.56852 6.81436 2.91518 5.82718C3.06264 5.65669 3.25152 5.6115 3.45325 5.54037Z" fill="white"/>
<path d="M53.0262 8.75598C55.1171 8.70851 58.7663 9.47893 60.3989 10.9148C61.6814 12.0428 61.9614 13.7873 61.5655 15.4217C61.2715 16.6354 60.6914 17.8807 60.8162 19.1636C60.8761 19.779 61.1415 20.3094 61.6183 20.682C62.9724 21.7398 65.5884 21.3776 67.1168 21.0526C67.5934 20.9513 68.0801 20.7266 68.556 20.6656C68.7532 20.6403 68.887 20.6924 69.0455 20.8168C69.0932 20.9206 69.1183 20.9176 69.074 21.0269C69.0356 21.1221 68.8812 21.1936 68.7971 21.2298C68.395 21.4024 67.9222 21.4609 67.495 21.5471C65.8 21.889 63.3398 22.3374 61.7159 21.6109C61.2168 21.3877 60.8092 21.0013 60.5094 20.5319C59.0005 18.1703 61.7469 15.422 60.6616 12.6179C60.1974 11.733 59.544 11.1704 58.6666 10.7752C57.756 10.3648 53.9486 9.31227 53.137 9.65288C53.1602 9.70083 54.0873 9.8926 54.2629 9.95561C55.0399 10.2344 56.002 10.5733 56.6415 11.11C58.7641 12.8916 55.6184 16.1831 56.9832 18.9098C57.4064 19.7554 58.1947 20.3074 59.1142 20.3433C59.3811 20.3537 59.7388 20.3037 59.9862 20.3934C60.109 20.438 60.113 20.4439 60.1691 20.5701C60.1531 20.5848 60.1383 20.6012 60.1209 20.6142C59.8687 20.8029 59.1751 20.7305 58.8663 20.692C58.0285 20.5875 57.2779 20.2199 56.7519 19.512C55.3045 17.5637 56.6532 15.3019 56.8915 13.2378C57.206 10.5131 53.732 11.0884 52.7647 9.60327C52.6728 9.46231 52.6417 9.33462 52.6805 9.16593C52.7208 8.99066 52.8969 8.85533 53.0262 8.75598Z" fill="white"/>
<path d="M73.369 8.92285C73.5481 9.14272 73.7548 10.7268 73.8259 11.1072C73.0938 13.6229 71.7794 15.9873 70.5063 18.2375C70.6084 17.8309 70.6981 17.4202 70.7927 17.0117C71.1553 15.5649 71.4187 14.114 71.6966 12.6484C71.9741 12.5894 72.4779 12.4775 72.6709 12.2477C72.8178 12.0727 72.8073 11.9381 72.8001 11.7143C72.793 11.4955 73.3015 11.0358 73.369 10.6891C73.3274 10.5046 73.3069 10.4748 73.1835 10.3346C73.0134 10.2496 72.8784 10.2715 72.697 10.2876L72.6196 10.2951C72.4866 10.1697 72.6166 9.86066 72.5045 9.65215C72.3646 9.60421 72.2753 9.64976 72.1435 9.69878L72.0882 9.71994L72.0301 9.66626C72.1926 9.44603 72.9886 9.18432 73.292 8.97641L73.369 8.92285Z" fill="white"/>
<path d="M77.8699 12.4707C77.9068 12.4762 77.9671 12.5145 78.0017 12.5318C77.9943 12.55 77.989 12.5691 77.9798 12.5863C77.6831 13.1421 74.529 15.0925 73.7968 15.6979C73.3587 16.0603 72.3368 17.0592 71.8576 17.2432C72.5708 16.083 74.9764 14.3379 76.1263 13.5771C76.5405 13.3288 76.9522 13.0759 77.3612 12.8185C75.3801 13.5902 74.0623 15.0409 72.4201 16.2971C72.4744 16.1921 72.5323 16.0894 72.5937 15.9888C73.6509 14.2657 75.9982 12.9164 77.8699 12.4707Z" fill="white"/>
<path d="M96.1651 6.40824C96.3275 6.39353 96.4762 6.38588 96.6361 6.42713C96.8992 6.49504 97.1504 6.67461 97.2826 6.92449C97.4351 7.21262 97.436 7.5628 97.3314 7.86755C97.1703 8.33692 96.863 8.54591 96.443 8.73768C96.2836 8.76135 96.1528 8.76565 95.9942 8.72751C95.7261 8.66307 95.4788 8.52176 95.3387 8.26722C95.1822 7.98316 95.1847 7.63465 95.2851 7.33074C95.4428 6.85311 95.7433 6.6177 96.1651 6.40824Z" fill="white"/>
<path d="M75.2301 16.752C75.26 16.7763 75.2906 16.8377 75.3121 16.8713C75.2852 16.9388 75.2835 16.9514 75.237 17.0204C74.6865 17.8368 71.9895 19.8701 71.0531 20.084C71.9962 19.1767 73.1364 18.4856 74.1244 17.6275C73.8304 17.7854 73.5599 17.9955 73.2863 18.1888C72.1346 19.1064 70.9575 19.9594 69.7117 20.7309C70.2012 19.6991 72.6927 18.0063 73.7158 17.4333C74.2049 17.1593 74.7067 16.9428 75.2301 16.752Z" fill="white"/>
<path d="M63.704 11.7803C63.7646 11.7974 63.766 11.7964 63.8351 11.8238C65.4635 12.4699 66.5344 14.9 67.1913 16.45C66.4362 15.6032 64.8361 12.5428 64.1245 12.1235L64.1189 12.2167C65.2672 13.678 66.1994 15.253 67.232 16.7973C65.2157 14.9734 65.1156 13.9858 63.7552 11.8595L63.704 11.7803Z" fill="white"/>
<path d="M76.0655 10.5508C76.1324 10.555 76.189 10.578 76.2527 10.599L76.2833 10.7433C75.9837 11.9283 73.6587 14.3844 72.769 15.4238C73.276 14.2219 74.1246 13.3012 74.9298 12.3116C75.2235 11.9482 75.512 11.5803 75.7953 11.208L75.753 11.1871L75.9119 11.0308L75.9068 11.0257L75.7708 11.1996L75.6978 11.2007C75.6612 11.2814 75.6284 11.3296 75.569 11.3953C74.8285 12.2162 74.1358 13.0979 73.4287 13.951C74.0524 12.3957 74.759 11.5592 76.0655 10.5508Z" fill="white"/>
<path d="M66.6818 13.0029C67.3193 13.5757 67.9686 16.8996 68.3095 17.938C68.5643 18.7144 68.878 19.4437 69.2257 20.1774C69.3881 18.6756 69.4053 17.2389 69.2436 15.7352C69.2035 15.3629 68.8628 13.8845 68.9883 13.6283L69.0657 13.6984C69.332 15.0122 69.5023 16.3872 69.5131 17.7306C69.5013 18.6963 69.4909 19.4971 69.1524 20.4053C68.8637 19.5403 68.4201 18.7345 68.1298 17.8664C67.8263 16.9589 67.5002 16.0413 67.2197 15.1272C67.0797 14.6706 67.0127 14.1649 66.8427 13.7242C66.7483 14.2723 67.1028 15.3599 67.3437 15.8619C67.4685 16.1217 67.7186 16.6547 67.7009 16.9324C66.9492 15.6309 66.6492 14.5081 66.6818 13.0029Z" fill="white"/>
<path d="M74.3245 7.42676C74.4065 7.44672 74.4528 7.45067 74.5241 7.49179C74.8997 7.70831 74.9884 8.38046 75.0776 8.77607C74.2564 11.271 73.3677 13.8138 72.1644 16.1405C71.5765 17.2775 70.858 18.3652 70.2039 19.4629C70.2321 18.752 71.4556 17.0475 71.8308 16.3373C73.1057 13.9242 74.0643 11.2915 74.9612 8.70601C74.8643 8.64241 74.7843 8.57809 74.7033 8.49332C74.4147 8.19144 74.3293 7.83911 74.3245 7.42676Z" fill="white"/>
<path d="M73.3899 16.2998C73.5368 16.6066 73.3535 17.0841 73.2716 17.4052C72.9116 17.7479 72.4366 18.0183 72.0339 18.3079C71.5106 18.6842 71.0193 19.0936 70.5359 19.5235L70.4955 19.4312C71.102 18.0716 72.3089 17.2219 73.3899 16.2998Z" fill="white"/>
<path d="M64.5205 16.5673C64.7166 16.558 64.9145 16.5846 65.1054 16.6316C66.34 16.9356 67.7336 18.0849 68.3803 19.2028C68.2456 19.2174 65.8067 17.0065 65.0419 16.8646L65.2027 16.9982C66.065 17.5322 67.9455 18.8828 68.5525 19.6637C68.1482 19.5054 64.8148 16.958 64.5205 16.5673Z" fill="white"/>
<path d="M70.4974 10.0215C70.6872 10.0435 70.8064 10.0612 70.9625 10.1917C71.3424 10.5096 71.3973 11.3574 71.4545 11.835C71.2315 11.4868 70.9015 11.3083 70.6568 10.9877C70.4405 10.7045 70.4644 10.3613 70.4974 10.0215Z" fill="white"/>
<path d="M72.6499 0.993164C72.6678 0.997229 72.6862 0.99962 72.7037 1.00548C72.862 1.05772 72.9308 1.11009 73.0102 1.26252C73.2786 1.77805 73.1511 2.41864 73.0031 2.94971L72.9456 2.95353C72.9141 2.89603 72.8843 2.83733 72.8569 2.77755C72.5952 2.20523 72.4511 1.60876 72.6499 0.993164Z" fill="white"/>
<path d="M74.0269 1.21289C74.1212 1.29778 74.1862 1.34213 74.1978 1.48476C74.2423 2.03006 73.5967 2.61888 73.2506 2.95208C73.2029 2.98699 73.2335 2.97372 73.1525 2.96978C73.2626 2.18417 73.4485 1.72961 74.0269 1.21289Z" fill="white"/>
<path d="M72.8834 10.4199C73.0275 10.4889 73.0691 10.5379 73.1495 10.6798C73.1583 10.7923 73.145 10.8391 73.0946 10.9435C72.8929 11.3606 72.4018 11.5172 72.005 11.6272L71.8806 11.6877L71.8545 11.6003C72.0673 11.0978 72.4042 10.6577 72.8834 10.4199Z" fill="white"/>
<path d="M73.2099 6.95798C73.2647 6.95547 73.3573 6.94877 73.4094 6.95738C73.5628 6.98297 73.5884 7.03402 73.6669 7.15776C73.6618 7.22937 73.661 7.29417 73.637 7.36375C73.5117 7.72673 73.1116 7.97875 72.8126 8.17005L72.7355 8.20137C72.6282 8.09616 72.5963 7.99346 72.5425 7.85382C72.6244 7.5016 72.96 7.19566 73.2099 6.95798Z" fill="white"/>
<path d="M69.1873 10.833C69.2265 10.8459 69.2817 10.8613 69.3152 10.886C69.4089 10.9552 69.4308 11.0176 69.4569 11.1306C69.5813 11.6674 69.2062 12.2127 68.9546 12.6503L68.9522 12.7329L68.9055 12.7745C68.8841 12.6882 68.8663 12.6113 68.8574 12.5225C68.7968 11.9185 68.7958 11.3128 69.1873 10.833Z" fill="white"/>
<path d="M71.6307 3.64551C71.7222 3.67659 71.8165 3.7084 71.8953 3.76841C72.1258 3.94392 72.2413 4.38568 72.2802 4.66389C72.3061 4.84813 72.3498 5.05616 72.2434 5.20979C72.0004 4.97067 71.6705 4.69988 71.5446 4.37098C71.4354 4.08584 71.5155 3.90793 71.6307 3.64551Z" fill="white"/>
<path d="M76.2969 3.77734C76.4234 3.83951 76.4574 3.86558 76.5248 4.00414C76.7644 4.49648 76.4937 5.20928 76.3063 5.67459L76.2343 5.68129C76.1095 4.98594 75.9479 4.43024 76.2969 3.77734Z" fill="white"/>
<path d="M70.7387 7.75781C70.8678 7.77156 70.9741 7.78077 71.0846 7.8574C71.5689 8.19252 71.7164 8.76508 71.8439 9.31875C71.5319 9.08179 71.1827 8.82462 70.9521 8.49751C70.7875 8.26414 70.7047 8.04642 70.7387 7.75781Z" fill="white"/>
<path d="M77.3655 4.2334L77.5114 4.27405C77.5617 4.35726 77.6011 4.37723 77.5805 4.48136C77.4828 4.97417 76.9474 5.38258 76.5782 5.65863C76.5476 5.68111 76.5059 5.67932 76.4694 5.68769L76.446 5.5906C76.6191 5.02426 76.9075 4.58549 77.3655 4.2334Z" fill="white"/>
<path d="M73.2163 8.15527C73.3438 8.17321 73.3928 8.20608 73.5012 8.27303L73.4926 8.39379C73.2355 8.8377 72.7626 9.04848 72.3107 9.20797L72.1371 9.22351L72.0871 9.1464C72.37 8.66865 72.7381 8.38984 73.2163 8.15527Z" fill="white"/>
<path d="M67.315 5.35547C67.389 5.39062 67.4167 5.43151 67.4697 5.49391C67.5571 5.94273 67.4662 7.01061 67.268 7.41555C67.2036 7.07158 67.0398 6.76516 66.9961 6.40804C66.9455 5.99342 67.08 5.68126 67.315 5.35547Z" fill="white"/>
<path d="M73.0732 3.90527C73.1584 3.93947 73.2303 3.98334 73.3093 4.03057C73.336 4.08784 73.3586 4.1261 73.3647 4.19412C73.4057 4.65478 72.9242 5.29966 72.6965 5.68356L72.6244 5.74764L72.5701 5.67698C72.613 5.12045 72.7563 4.35815 73.0732 3.90527Z" fill="white"/>
<path d="M71.1847 6.57715C71.2496 6.60058 71.297 6.61457 71.3581 6.65295C71.6104 6.81148 71.7881 7.21929 71.818 7.51447C71.8382 7.71401 71.8109 7.7598 71.6902 7.91224C71.5484 7.96257 71.6234 7.94966 71.4644 7.94619C71.3444 7.84528 71.2587 7.76231 71.1986 7.61095C71.0673 7.2805 71.0534 6.90593 71.1847 6.57715Z" fill="white"/>
<path d="M67.2525 11.627C67.3981 11.6545 67.5166 11.7136 67.6374 11.8009C67.894 11.9861 68.5699 12.5386 68.6192 12.8516C68.1927 12.5838 67.4847 12.5832 67.2437 12.0339C67.169 11.8638 67.1864 11.7931 67.2525 11.627Z" fill="white"/>
<path d="M66.0429 5.75684C66.4582 5.92386 66.7817 6.2243 66.9542 6.65925C67.0462 6.89095 67.1177 7.1584 67.0929 7.41006C66.6999 6.94786 66.0411 6.44249 66.0429 5.75684Z" fill="white"/>
<path d="M72.0866 2.26953C72.258 2.28651 72.3674 2.30528 72.5037 2.42483C72.8086 2.69228 72.8449 3.23507 72.8506 3.61693C72.6749 3.5391 72.526 3.46378 72.3963 3.3135C72.1433 3.02047 72.0633 2.6551 72.0866 2.26953Z" fill="white"/>
<path d="M66.491 8.7168C66.552 8.72242 66.5643 8.72218 66.6323 8.73689C66.8951 8.79391 67.1701 8.93535 67.3185 9.17745C67.4651 9.41657 67.4082 9.54473 67.3473 9.80226C67.1174 9.73303 66.9248 9.64719 66.7547 9.46438C66.5465 9.24069 66.4762 9.02298 66.491 8.7168Z" fill="white"/>
<path d="M73.7794 2.6612C73.9264 2.66048 73.9949 2.66407 74.1196 2.74836L74.1409 2.8868C73.986 3.24822 73.6693 3.45517 73.358 3.65507C73.2482 3.6583 73.1581 3.64276 73.051 3.61789L73.0143 3.51519C73.1201 3.16657 73.5152 2.88895 73.7794 2.6612Z" fill="white"/>
<path d="M75.4472 6.35742C75.5944 6.4215 75.6533 6.45797 75.743 6.59689C75.8452 7.08086 75.5592 7.53194 75.3694 7.95948C75.3421 8.00539 75.3004 8.03791 75.2625 8.07449C75.2387 8.0293 75.2218 8.00479 75.215 7.94824C75.1623 7.51054 75.2408 6.73988 75.4472 6.35742Z" fill="white"/>
<path d="M73.543 0C73.6529 0.057985 73.7428 0.137849 73.7857 0.262785C73.8791 0.535494 73.8109 0.912936 73.69 1.16436C73.6356 1.27746 73.6291 1.32493 73.5091 1.3645C73.4485 1.16819 73.5071 0.96805 73.5411 0.770423L73.486 0.75751C73.4171 0.875154 73.4009 0.974506 73.3788 1.10853C73.3586 1.23119 73.3532 1.28858 73.2937 1.39822L73.2478 1.39176C73.1785 1.30484 73.1766 1.3309 73.1675 1.23107C73.1263 0.771738 73.2921 0.361061 73.543 0Z" fill="white"/>
<path d="M66.584 7.72529C66.4808 7.61733 66.3519 7.50243 66.2809 7.36853C66.2214 7.2565 66.2258 7.25041 66.2606 7.12308C66.2806 7.11603 66.3 7.10658 66.3207 7.1018C66.6177 7.03425 66.863 7.24538 67.0929 7.40977C67.1821 7.64542 67.3409 7.88202 67.4612 8.10416C67.1485 8.00433 66.859 7.91813 66.584 7.72529Z" fill="white"/>
<path d="M73.8345 4.03418L74.0071 4.09432C74.0806 4.22248 74.099 4.27042 74.0544 4.4274C73.9419 4.82242 73.5064 5.12729 73.194 5.34536L73.0837 5.37824L73.0655 5.2961C73.247 4.83975 73.4819 4.37109 73.8345 4.03418Z" fill="white"/>
<path d="M68.6999 9.01367C68.7366 9.01726 68.7751 9.01188 68.8098 9.02455C68.9024 9.05827 68.9198 9.07788 68.9352 9.16229C69.0115 9.58396 68.5925 10.1376 68.3605 10.4635L68.2647 10.5367L68.1952 10.4724C68.2368 9.93462 68.4001 9.45304 68.6999 9.01367Z" fill="white"/>
<path d="M74.7285 6.375C74.8261 6.43956 74.901 6.49635 74.9764 6.58996C75.2759 6.96166 75.1051 7.66908 75.042 8.10092C74.8998 7.83598 74.7654 7.52167 74.6803 7.23186C74.5818 6.89603 74.5714 6.688 74.7285 6.375Z" fill="white"/>
<path d="M76.6263 7.3252C76.7177 7.35676 76.7769 7.39992 76.8565 7.45515C76.8762 7.54578 76.9046 7.5759 76.8565 7.66246C76.6371 8.057 76.1483 8.21541 75.7495 8.3113L75.6389 8.3382L75.6244 8.27902C75.8863 7.91222 76.2471 7.55594 76.6263 7.3252Z" fill="white"/>
<path d="M66.6849 9.92676C66.8329 9.92795 66.9833 9.92879 67.1283 9.96275C67.5643 10.0651 67.8096 10.3206 68.0357 10.7057C67.6612 10.6441 67.1346 10.5995 66.8422 10.3297C66.701 10.1995 66.6996 10.1158 66.6849 9.92676Z" fill="white"/>
<path d="M75.588 4.91406C75.6437 4.92219 75.6851 4.92578 75.74 4.94563C75.9054 5.00552 76.0039 5.16968 76.0623 5.33311C76.161 5.60917 76.1602 6.04507 76.0505 6.31646C75.8983 6.16498 75.7724 6.00251 75.6716 5.80835C75.5158 5.50802 75.4845 5.23555 75.588 4.91406Z" fill="white"/>
<path d="M77.0459 5.50391C77.1693 5.54456 77.1931 5.56608 77.2837 5.65479L77.2867 5.80196C77.1082 6.13397 76.807 6.29107 76.4809 6.43191C76.4074 6.4178 76.3371 6.39066 76.2659 6.36723L76.2452 6.22782C76.4212 5.88709 76.7275 5.6842 77.0459 5.50391Z" fill="white"/>
<path d="M67.8306 11.0381C67.8487 11.0422 67.8675 11.0438 67.8849 11.0504C68.3192 11.2128 68.5567 12.2372 68.7173 12.667C68.4981 12.5007 68.2777 12.2775 68.1105 12.0544C67.8522 11.7099 67.7957 11.4667 67.8306 11.0381Z" fill="white"/>
<path d="M72.2544 9.85352C72.3495 9.9323 72.3465 9.89835 72.364 10.0071C72.4452 10.5102 71.9447 11.191 71.7032 11.5966L71.6568 11.551C71.759 10.9795 71.8089 10.2448 72.2544 9.85352Z" fill="white"/>
<path d="M67.6914 6.56348C67.7655 6.57149 67.8289 6.59444 67.8997 6.61728C67.9358 6.68519 67.9423 6.68829 67.9619 6.77438C68.0407 7.12169 67.7474 7.64092 67.588 7.93933L67.4635 7.88326C67.4268 7.82313 67.4158 7.81464 67.3997 7.73406C67.3348 7.4109 67.5202 6.82483 67.6914 6.56348Z" fill="white"/>
<path d="M68.3908 7.8916C68.4834 7.99502 68.5108 8.01475 68.5359 8.15247C68.6173 8.59878 68.4909 8.99248 68.2559 9.36287C68.1142 9.21904 68.0483 9.14097 68.0423 8.92852C68.0319 8.55634 68.1517 8.16778 68.3908 7.8916Z" fill="white"/>
<path d="M71.9875 6.30664C72.0805 6.34143 72.1387 6.36152 72.192 6.45501C72.4069 6.83054 72.1578 7.5352 72.0681 7.92735L72.04 7.92437C71.9707 7.82681 71.9814 7.86279 71.9557 7.75304C71.8452 7.2821 71.745 6.74183 71.9875 6.30664Z" fill="white"/>
<path d="M76.0452 6.92871C76.164 6.96518 76.2177 6.99327 76.3041 7.08617C76.2923 7.52338 75.8194 7.88839 75.5348 8.18764L75.4354 8.26918L75.4098 8.16146C75.5528 7.70834 75.7256 7.27829 76.0452 6.92871Z" fill="white"/>
<path d="M71.4488 4.85449C71.553 4.86991 71.6458 4.89347 71.7408 4.94093C72.1443 5.14202 72.3402 5.56215 72.4906 5.97641C72.2402 5.87228 71.9733 5.74124 71.7684 5.55605C71.5361 5.34623 71.4634 5.16928 71.4488 4.85449Z" fill="white"/>
<path d="M72.4124 3.70703C72.5205 3.75031 72.5815 3.79753 72.6728 3.86963C72.8723 4.28975 72.608 4.92376 72.4914 5.35548L72.4647 5.36851L72.3953 5.31722C72.4024 4.79571 72.2109 4.19709 72.4124 3.70703Z" fill="white"/>
<path d="M77.1974 3.17773C77.3154 3.30614 77.3835 3.4502 77.3651 3.63109C77.3323 3.95413 77.1399 4.1838 76.9022 4.37234C76.7942 4.24215 76.7392 4.15618 76.7466 3.9753C76.7606 3.63432 76.9597 3.38768 77.1974 3.17773Z" fill="white"/>
<path d="M72.7558 6.49609L72.8993 6.56903L72.9392 6.71488C72.8601 7.17745 72.5762 7.52117 72.3131 7.88761L72.273 7.95253L72.2293 7.91918C72.2857 7.33168 72.3603 6.93463 72.7558 6.49609Z" fill="white"/>
<path d="M70.5272 11.3828C70.5991 11.385 70.6377 11.3846 70.7124 11.3949C70.9352 11.4252 71.1375 11.5492 71.258 11.7522C71.3635 11.9299 71.4091 12.1409 71.3562 12.3426C71.0919 12.2181 70.7526 12.0254 70.5896 11.7677C70.4947 11.6176 70.4864 11.5529 70.5272 11.3828Z" fill="white"/>
<path d="M72.2251 11.683C72.3782 11.6785 72.4823 11.7174 72.6256 11.7674L72.6567 11.8337C72.6498 11.853 72.6453 11.8734 72.6359 11.8915C72.5074 12.1386 72.1549 12.2566 71.921 12.3514C71.7745 12.3695 71.6406 12.3861 71.5126 12.3076L71.5335 12.1979C71.733 11.9744 71.9762 11.838 72.2251 11.683Z" fill="white"/>
<path d="M73.6284 5.24707C73.7554 5.27289 73.7786 5.28067 73.8764 5.36806L73.8559 5.48427C73.6123 5.79081 73.2701 5.93608 72.9151 6.0542C72.8271 6.04774 72.7794 6.0279 72.6992 5.99358L72.7081 5.90164C72.9606 5.62654 73.3176 5.44386 73.6284 5.24707Z" fill="white"/>
<path d="M69.4926 12.1084C69.6581 12.1947 69.6595 12.1793 69.7199 12.3595C69.659 12.7386 69.4296 12.9784 69.1792 13.2443L69.0619 13.2325L69.0183 13.0897C69.0831 12.6686 69.197 12.4068 69.4926 12.1084Z" fill="white"/>
<path d="M76.1593 8.36523C76.2571 8.39704 76.315 8.43243 76.3952 8.49866L76.3853 8.61547C76.102 8.87443 75.7387 8.93122 75.3748 8.96159C75.2919 8.93206 75.2341 8.89176 75.1608 8.84275L75.172 8.74423C75.4552 8.54708 75.8352 8.46901 76.1593 8.36523Z" fill="white"/>
<path d="M67.9644 12.7783C68.2512 12.829 68.5604 12.922 68.7976 13.1035C68.9166 13.1946 68.8875 13.1418 68.9049 13.2763L68.7942 13.3534C68.5066 13.3502 68.0697 13.3488 67.8433 13.1446C67.7705 13.079 67.7936 13.0382 67.7917 12.9471L67.9644 12.7783Z" fill="white"/>
<path d="M71.4184 9.82422C71.5021 9.86044 71.5758 9.91161 71.6532 9.96039C71.8797 10.3546 71.6787 10.8853 71.5904 11.3038L71.56 11.3382L71.4924 11.3327C71.3521 10.8414 71.3526 10.3283 71.4184 9.82422Z" fill="white"/>
<path d="M68.441 10.6494L68.5683 10.7062C68.8684 11.1331 68.7493 11.905 68.7139 12.4073C68.4839 11.7833 68.3071 11.3262 68.441 10.6494Z" fill="white"/>
<path d="M66.4388 4.8457C66.4543 4.85013 66.4705 4.85276 66.4856 4.85885C66.6603 4.92987 66.7666 5.09199 66.8389 5.26415C66.9047 5.42065 66.9392 5.56328 66.8836 5.72624L66.7959 5.72612L66.6213 5.50494C66.6557 5.61589 66.6776 5.72492 66.7017 5.83886L66.6374 5.88381C66.5693 5.82128 66.5195 5.76378 66.4789 5.67817C66.3335 5.37235 66.3391 5.1642 66.4388 4.8457Z" fill="white"/>
<path d="M67.0612 8.14355C67.1392 8.17249 67.2318 8.20142 67.2941 8.26144C67.5766 8.53355 67.6467 9.17988 67.7063 9.55469C67.5882 9.32765 67.4076 9.14831 67.2618 8.94088C67.0638 8.65932 67.012 8.48788 67.0612 8.14355Z" fill="white"/>
<path d="M67.7684 8.02051C67.8126 8.05793 67.8556 8.09009 67.8892 8.14006C68.0722 8.41122 67.8949 9.08253 67.8425 9.38896C67.7894 9.23748 67.7326 9.08408 67.6901 8.92866C67.5915 8.56832 67.5912 8.34917 67.7684 8.02051Z" fill="white"/>
</svg>
