<svg width="40" height="39" viewBox="0 0 40 39" fill="none" xmlns="http://www.w3.org/2000/svg">
<g filter="url(#filter0_dii_168_1892)">
<path d="M27.125 6.34V4C27.125 3.385 26.615 2.875 26 2.875C25.385 2.875 24.875 3.385 24.875 4V6.25H15.125V4C15.125 3.385 14.615 2.875 14 2.875C13.385 2.875 12.875 3.385 12.875 4V6.34C8.82501 6.715 6.86002 9.13 6.56002 12.715C6.53002 13.15 6.89002 13.51 7.31002 13.51H32.69C33.125 13.51 33.485 13.135 33.44 12.715C33.14 9.13 31.175 6.715 27.125 6.34Z" fill="#FFA310"/>
<path d="M27.125 6.34V4C27.125 3.385 26.615 2.875 26 2.875C25.385 2.875 24.875 3.385 24.875 4V6.25H15.125V4C15.125 3.385 14.615 2.875 14 2.875C13.385 2.875 12.875 3.385 12.875 4V6.34C8.82501 6.715 6.86002 9.13 6.56002 12.715C6.53002 13.15 6.89002 13.51 7.31002 13.51H32.69C33.125 13.51 33.485 13.135 33.44 12.715C33.14 9.13 31.175 6.715 27.125 6.34Z" fill="url(#paint0_radial_168_1892)" style="mix-blend-mode:plus-lighter"/>
</g>
<g opacity="0.4">
<path d="M32 15.7598C32.825 15.7598 33.5 16.4348 33.5 17.2598V26.4998C33.5 30.9998 31.25 33.9998 26 33.9998H14C8.75 33.9998 6.5 30.9998 6.5 26.4998V17.2598C6.5 16.4348 7.175 15.7598 8 15.7598H32Z" fill="#FFA310"/>
<path d="M32 15.7598C32.825 15.7598 33.5 16.4348 33.5 17.2598V26.4998C33.5 30.9998 31.25 33.9998 26 33.9998H14C8.75 33.9998 6.5 30.9998 6.5 26.4998V17.2598C6.5 16.4348 7.175 15.7598 8 15.7598H32Z" fill="url(#paint1_radial_168_1892)" style="mix-blend-mode:plus-lighter"/>
</g>
<g filter="url(#filter1_dii_168_1892)">
<path d="M14.75 23.4998C14.555 23.4998 14.36 23.4549 14.18 23.3799C14 23.3049 13.835 23.1998 13.685 23.0648C13.55 22.9148 13.445 22.7499 13.37 22.5699C13.295 22.3899 13.25 22.1948 13.25 21.9998C13.25 21.8048 13.295 21.6098 13.37 21.4298C13.445 21.2498 13.55 21.0849 13.685 20.9349C13.835 20.7999 14 20.6948 14.18 20.6198C14.54 20.4698 14.96 20.4698 15.32 20.6198C15.5 20.6948 15.665 20.7999 15.815 20.9349C15.95 21.0849 16.055 21.2498 16.13 21.4298C16.205 21.6098 16.25 21.8048 16.25 21.9998C16.25 22.1948 16.205 22.3899 16.13 22.5699C16.055 22.7499 15.95 22.9148 15.815 23.0648C15.665 23.1998 15.5 23.3049 15.32 23.3799C15.14 23.4549 14.945 23.4998 14.75 23.4998Z" fill="#FFA310"/>
<path d="M14.75 23.4998C14.555 23.4998 14.36 23.4549 14.18 23.3799C14 23.3049 13.835 23.1998 13.685 23.0648C13.55 22.9148 13.445 22.7499 13.37 22.5699C13.295 22.3899 13.25 22.1948 13.25 21.9998C13.25 21.8048 13.295 21.6098 13.37 21.4298C13.445 21.2498 13.55 21.0849 13.685 20.9349C13.835 20.7999 14 20.6948 14.18 20.6198C14.54 20.4698 14.96 20.4698 15.32 20.6198C15.5 20.6948 15.665 20.7999 15.815 20.9349C15.95 21.0849 16.055 21.2498 16.13 21.4298C16.205 21.6098 16.25 21.8048 16.25 21.9998C16.25 22.1948 16.205 22.3899 16.13 22.5699C16.055 22.7499 15.95 22.9148 15.815 23.0648C15.665 23.1998 15.5 23.3049 15.32 23.3799C15.14 23.4549 14.945 23.4998 14.75 23.4998Z" fill="url(#paint2_radial_168_1892)" style="mix-blend-mode:plus-lighter"/>
</g>
<g filter="url(#filter2_dii_168_1892)">
<path d="M20 23.4999C19.805 23.4999 19.61 23.4549 19.43 23.3799C19.25 23.3049 19.085 23.1999 18.935 23.0649C18.665 22.7799 18.5 22.3899 18.5 21.9999C18.5 21.6099 18.665 21.2199 18.935 20.9349C19.085 20.7999 19.25 20.6948 19.43 20.6198C19.79 20.4548 20.21 20.4548 20.57 20.6198C20.75 20.6948 20.915 20.7999 21.065 20.9349C21.335 21.2199 21.5 21.6099 21.5 21.9999C21.5 22.3899 21.335 22.7799 21.065 23.0649C20.915 23.1999 20.75 23.3049 20.57 23.3799C20.39 23.4549 20.195 23.4999 20 23.4999Z" fill="#FFA310"/>
<path d="M20 23.4999C19.805 23.4999 19.61 23.4549 19.43 23.3799C19.25 23.3049 19.085 23.1999 18.935 23.0649C18.665 22.7799 18.5 22.3899 18.5 21.9999C18.5 21.6099 18.665 21.2199 18.935 20.9349C19.085 20.7999 19.25 20.6948 19.43 20.6198C19.79 20.4548 20.21 20.4548 20.57 20.6198C20.75 20.6948 20.915 20.7999 21.065 20.9349C21.335 21.2199 21.5 21.6099 21.5 21.9999C21.5 22.3899 21.335 22.7799 21.065 23.0649C20.915 23.1999 20.75 23.3049 20.57 23.3799C20.39 23.4549 20.195 23.4999 20 23.4999Z" fill="url(#paint3_radial_168_1892)" style="mix-blend-mode:plus-lighter"/>
</g>
<g filter="url(#filter3_dii_168_1892)">
<path d="M14.75 28.7498C14.555 28.7498 14.36 28.7049 14.18 28.6299C14 28.5549 13.835 28.4498 13.685 28.3148C13.415 28.0298 13.25 27.6398 13.25 27.2498C13.25 26.8598 13.415 26.4699 13.685 26.1849C13.835 26.0499 14 25.9448 14.18 25.8698C14.54 25.7198 14.96 25.7198 15.32 25.8698C15.5 25.9448 15.665 26.0499 15.815 26.1849C16.085 26.4699 16.25 26.8598 16.25 27.2498C16.25 27.6398 16.085 28.0298 15.815 28.3148C15.665 28.4498 15.5 28.5549 15.32 28.6299C15.14 28.7049 14.945 28.7498 14.75 28.7498Z" fill="#FFA310"/>
<path d="M14.75 28.7498C14.555 28.7498 14.36 28.7049 14.18 28.6299C14 28.5549 13.835 28.4498 13.685 28.3148C13.415 28.0298 13.25 27.6398 13.25 27.2498C13.25 26.8598 13.415 26.4699 13.685 26.1849C13.835 26.0499 14 25.9448 14.18 25.8698C14.54 25.7198 14.96 25.7198 15.32 25.8698C15.5 25.9448 15.665 26.0499 15.815 26.1849C16.085 26.4699 16.25 26.8598 16.25 27.2498C16.25 27.6398 16.085 28.0298 15.815 28.3148C15.665 28.4498 15.5 28.5549 15.32 28.6299C15.14 28.7049 14.945 28.7498 14.75 28.7498Z" fill="url(#paint4_radial_168_1892)" style="mix-blend-mode:plus-lighter"/>
</g>
<defs>
<filter id="filter0_dii_168_1892" x="0.558273" y="0.875" width="38.8855" height="22.6348" filterUnits="userSpaceOnUse" color-interpolation-filters="sRGB">
<feFlood flood-opacity="0" result="BackgroundImageFix"/>
<feColorMatrix in="SourceAlpha" type="matrix" values="0 0 0 0 0 0 0 0 0 0 0 0 0 0 0 0 0 0 127 0" result="hardAlpha"/>
<feOffset dy="4"/>
<feGaussianBlur stdDeviation="3"/>
<feComposite in2="hardAlpha" operator="out"/>
<feColorMatrix type="matrix" values="0 0 0 0 1 0 0 0 0 0.639216 0 0 0 0 0.0627451 0 0 0 0.6 0"/>
<feBlend mode="normal" in2="BackgroundImageFix" result="effect1_dropShadow_168_1892"/>
<feBlend mode="normal" in="SourceGraphic" in2="effect1_dropShadow_168_1892" result="shape"/>
<feColorMatrix in="SourceAlpha" type="matrix" values="0 0 0 0 0 0 0 0 0 0 0 0 0 0 0 0 0 0 127 0" result="hardAlpha"/>
<feOffset dy="4"/>
<feGaussianBlur stdDeviation="2.5"/>
<feComposite in2="hardAlpha" operator="arithmetic" k2="-1" k3="1"/>
<feColorMatrix type="matrix" values="0 0 0 0 1 0 0 0 0 0.639216 0 0 0 0 0.0627451 0 0 0 0.6 0"/>
<feBlend mode="normal" in2="shape" result="effect2_innerShadow_168_1892"/>
<feColorMatrix in="SourceAlpha" type="matrix" values="0 0 0 0 0 0 0 0 0 0 0 0 0 0 0 0 0 0 127 0" result="hardAlpha"/>
<feOffset/>
<feGaussianBlur stdDeviation="1"/>
<feComposite in2="hardAlpha" operator="arithmetic" k2="-1" k3="1"/>
<feColorMatrix type="matrix" values="0 0 0 0 1 0 0 0 0 1 0 0 0 0 1 0 0 0 0.5 0"/>
<feBlend mode="normal" in2="effect2_innerShadow_168_1892" result="effect3_innerShadow_168_1892"/>
</filter>
<filter id="filter1_dii_168_1892" x="7.25" y="18.5073" width="15" height="14.9927" filterUnits="userSpaceOnUse" color-interpolation-filters="sRGB">
<feFlood flood-opacity="0" result="BackgroundImageFix"/>
<feColorMatrix in="SourceAlpha" type="matrix" values="0 0 0 0 0 0 0 0 0 0 0 0 0 0 0 0 0 0 127 0" result="hardAlpha"/>
<feOffset dy="4"/>
<feGaussianBlur stdDeviation="3"/>
<feComposite in2="hardAlpha" operator="out"/>
<feColorMatrix type="matrix" values="0 0 0 0 1 0 0 0 0 0.639216 0 0 0 0 0.0627451 0 0 0 0.6 0"/>
<feBlend mode="normal" in2="BackgroundImageFix" result="effect1_dropShadow_168_1892"/>
<feBlend mode="normal" in="SourceGraphic" in2="effect1_dropShadow_168_1892" result="shape"/>
<feColorMatrix in="SourceAlpha" type="matrix" values="0 0 0 0 0 0 0 0 0 0 0 0 0 0 0 0 0 0 127 0" result="hardAlpha"/>
<feOffset dy="4"/>
<feGaussianBlur stdDeviation="2.5"/>
<feComposite in2="hardAlpha" operator="arithmetic" k2="-1" k3="1"/>
<feColorMatrix type="matrix" values="0 0 0 0 1 0 0 0 0 0.639216 0 0 0 0 0.0627451 0 0 0 0.6 0"/>
<feBlend mode="normal" in2="shape" result="effect2_innerShadow_168_1892"/>
<feColorMatrix in="SourceAlpha" type="matrix" values="0 0 0 0 0 0 0 0 0 0 0 0 0 0 0 0 0 0 127 0" result="hardAlpha"/>
<feOffset/>
<feGaussianBlur stdDeviation="1"/>
<feComposite in2="hardAlpha" operator="arithmetic" k2="-1" k3="1"/>
<feColorMatrix type="matrix" values="0 0 0 0 1 0 0 0 0 1 0 0 0 0 1 0 0 0 0.5 0"/>
<feBlend mode="normal" in2="effect2_innerShadow_168_1892" result="effect3_innerShadow_168_1892"/>
</filter>
<filter id="filter2_dii_168_1892" x="12.5" y="18.4961" width="15" height="15.0039" filterUnits="userSpaceOnUse" color-interpolation-filters="sRGB">
<feFlood flood-opacity="0" result="BackgroundImageFix"/>
<feColorMatrix in="SourceAlpha" type="matrix" values="0 0 0 0 0 0 0 0 0 0 0 0 0 0 0 0 0 0 127 0" result="hardAlpha"/>
<feOffset dy="4"/>
<feGaussianBlur stdDeviation="3"/>
<feComposite in2="hardAlpha" operator="out"/>
<feColorMatrix type="matrix" values="0 0 0 0 1 0 0 0 0 0.639216 0 0 0 0 0.0627451 0 0 0 0.6 0"/>
<feBlend mode="normal" in2="BackgroundImageFix" result="effect1_dropShadow_168_1892"/>
<feBlend mode="normal" in="SourceGraphic" in2="effect1_dropShadow_168_1892" result="shape"/>
<feColorMatrix in="SourceAlpha" type="matrix" values="0 0 0 0 0 0 0 0 0 0 0 0 0 0 0 0 0 0 127 0" result="hardAlpha"/>
<feOffset dy="4"/>
<feGaussianBlur stdDeviation="2.5"/>
<feComposite in2="hardAlpha" operator="arithmetic" k2="-1" k3="1"/>
<feColorMatrix type="matrix" values="0 0 0 0 1 0 0 0 0 0.639216 0 0 0 0 0.0627451 0 0 0 0.6 0"/>
<feBlend mode="normal" in2="shape" result="effect2_innerShadow_168_1892"/>
<feColorMatrix in="SourceAlpha" type="matrix" values="0 0 0 0 0 0 0 0 0 0 0 0 0 0 0 0 0 0 127 0" result="hardAlpha"/>
<feOffset/>
<feGaussianBlur stdDeviation="1"/>
<feComposite in2="hardAlpha" operator="arithmetic" k2="-1" k3="1"/>
<feColorMatrix type="matrix" values="0 0 0 0 1 0 0 0 0 1 0 0 0 0 1 0 0 0 0.5 0"/>
<feBlend mode="normal" in2="effect2_innerShadow_168_1892" result="effect3_innerShadow_168_1892"/>
</filter>
<filter id="filter3_dii_168_1892" x="7.25" y="23.7573" width="15" height="14.9927" filterUnits="userSpaceOnUse" color-interpolation-filters="sRGB">
<feFlood flood-opacity="0" result="BackgroundImageFix"/>
<feColorMatrix in="SourceAlpha" type="matrix" values="0 0 0 0 0 0 0 0 0 0 0 0 0 0 0 0 0 0 127 0" result="hardAlpha"/>
<feOffset dy="4"/>
<feGaussianBlur stdDeviation="3"/>
<feComposite in2="hardAlpha" operator="out"/>
<feColorMatrix type="matrix" values="0 0 0 0 1 0 0 0 0 0.639216 0 0 0 0 0.0627451 0 0 0 0.6 0"/>
<feBlend mode="normal" in2="BackgroundImageFix" result="effect1_dropShadow_168_1892"/>
<feBlend mode="normal" in="SourceGraphic" in2="effect1_dropShadow_168_1892" result="shape"/>
<feColorMatrix in="SourceAlpha" type="matrix" values="0 0 0 0 0 0 0 0 0 0 0 0 0 0 0 0 0 0 127 0" result="hardAlpha"/>
<feOffset dy="4"/>
<feGaussianBlur stdDeviation="2.5"/>
<feComposite in2="hardAlpha" operator="arithmetic" k2="-1" k3="1"/>
<feColorMatrix type="matrix" values="0 0 0 0 1 0 0 0 0 0.639216 0 0 0 0 0.0627451 0 0 0 0.6 0"/>
<feBlend mode="normal" in2="shape" result="effect2_innerShadow_168_1892"/>
<feColorMatrix in="SourceAlpha" type="matrix" values="0 0 0 0 0 0 0 0 0 0 0 0 0 0 0 0 0 0 127 0" result="hardAlpha"/>
<feOffset/>
<feGaussianBlur stdDeviation="1"/>
<feComposite in2="hardAlpha" operator="arithmetic" k2="-1" k3="1"/>
<feColorMatrix type="matrix" values="0 0 0 0 1 0 0 0 0 1 0 0 0 0 1 0 0 0 0.5 0"/>
<feBlend mode="normal" in2="effect2_innerShadow_168_1892" result="effect3_innerShadow_168_1892"/>
</filter>
<radialGradient id="paint0_radial_168_1892" cx="0" cy="0" r="1" gradientUnits="userSpaceOnUse" gradientTransform="translate(15.2548 4.09434) rotate(63.2481) scale(10.5443 42.1988)">
<stop stop-color="white" stop-opacity="0.3"/>
<stop offset="1" stop-color="#FFA310" stop-opacity="0"/>
</radialGradient>
<radialGradient id="paint1_radial_168_1892" cx="0" cy="0" r="1" gradientUnits="userSpaceOnUse" gradientTransform="translate(15.2335 17.851) rotate(73.5555) scale(16.8375 45.5168)">
<stop stop-color="white" stop-opacity="0.3"/>
<stop offset="1" stop-color="#FFA310" stop-opacity="0"/>
</radialGradient>
<radialGradient id="paint2_radial_168_1892" cx="0" cy="0" r="1" gradientUnits="userSpaceOnUse" gradientTransform="translate(14.2204 20.8504) rotate(78.6958) scale(2.70183 5.17083)">
<stop stop-color="white" stop-opacity="0.3"/>
<stop offset="1" stop-color="#FFA310" stop-opacity="0"/>
</radialGradient>
<radialGradient id="paint3_radial_168_1892" cx="0" cy="0" r="1" gradientUnits="userSpaceOnUse" gradientTransform="translate(19.4704 20.8405) rotate(78.737) scale(2.7116 5.17157)">
<stop stop-color="white" stop-opacity="0.3"/>
<stop offset="1" stop-color="#FFA310" stop-opacity="0"/>
</radialGradient>
<radialGradient id="paint4_radial_168_1892" cx="0" cy="0" r="1" gradientUnits="userSpaceOnUse" gradientTransform="translate(14.2204 26.1004) rotate(78.6958) scale(2.70183 5.17083)">
<stop stop-color="white" stop-opacity="0.3"/>
<stop offset="1" stop-color="#FFA310" stop-opacity="0"/>
</radialGradient>
</defs>
</svg>
