<svg width="39" height="43" viewBox="0 0 39 43" fill="none" xmlns="http://www.w3.org/2000/svg">
<g opacity="0.4">
<path d="M14.985 26.97C21.6041 26.97 26.97 21.6041 26.97 14.985C26.97 8.36587 21.6041 3 14.985 3C8.36587 3 3 8.36587 3 14.985C3 21.6041 8.36587 26.97 14.985 26.97Z" fill="#3E95FF"/>
<path d="M14.985 26.97C21.6041 26.97 26.97 21.6041 26.97 14.985C26.97 8.36587 21.6041 3 14.985 3C8.36587 3 3 8.36587 3 14.985C3 21.6041 8.36587 26.97 14.985 26.97Z" fill="url(#paint0_radial_168_1983)" style="mix-blend-mode:plus-lighter"/>
</g>
<g filter="url(#filter0_dii_168_1983)">
<path d="M13.0374 21.9934C11.977 21.9572 11.2446 20.9935 11.2446 19.9325V9.28327C11.2446 8.57454 11.8191 8 12.5278 8C13.2366 8 13.8111 8.57454 13.8111 9.28327V19.1032C13.8111 19.2128 13.9002 19.3001 14.0092 19.3112C14.0784 19.3112 14.1476 19.3112 14.2168 19.3112C14.286 19.3048 14.3521 19.3016 14.415 19.3016C14.956 19.2507 15.4435 19.1139 15.8775 18.8912C16.3116 18.6685 16.6827 18.3725 16.991 18.0035C17.3055 17.628 17.5445 17.1921 17.7081 16.6958C17.7528 16.5651 17.7916 16.431 17.8246 16.2937C17.9845 15.6274 18.5184 15.0635 19.2036 15.0635C19.8889 15.0635 20.4556 15.622 20.3581 16.3003C20.2576 16.9995 20.0694 17.6627 19.7934 18.2898C19.3656 19.2762 18.724 20.0939 17.8685 20.743C17.0193 21.3857 15.9593 21.7802 14.6886 21.9266C14.1476 21.9902 13.5972 22.0125 13.0374 21.9934ZM11.1339 16.8691C10.3811 17.178 9.55556 16.6244 9.55556 15.8107C9.55556 15.347 9.83538 14.9292 10.2641 14.7527L14.7657 12.8996C15.5206 12.5888 16.3493 13.1438 16.3493 13.9602C16.3493 14.4256 16.0682 14.8448 15.6377 15.0214L11.1339 16.8691ZM11.1339 12.9174C10.3811 13.2262 9.55556 12.6726 9.55556 11.8589C9.55556 11.3953 9.83538 10.9775 10.2641 10.801L14.7657 8.94783C15.5206 8.63706 16.3493 9.1921 16.3493 10.0085C16.3493 10.4738 16.0682 10.893 15.6377 11.0696L11.1339 12.9174Z" fill="#3E95FF"/>
<path d="M13.0374 21.9934C11.977 21.9572 11.2446 20.9935 11.2446 19.9325V9.28327C11.2446 8.57454 11.8191 8 12.5278 8C13.2366 8 13.8111 8.57454 13.8111 9.28327V19.1032C13.8111 19.2128 13.9002 19.3001 14.0092 19.3112C14.0784 19.3112 14.1476 19.3112 14.2168 19.3112C14.286 19.3048 14.3521 19.3016 14.415 19.3016C14.956 19.2507 15.4435 19.1139 15.8775 18.8912C16.3116 18.6685 16.6827 18.3725 16.991 18.0035C17.3055 17.628 17.5445 17.1921 17.7081 16.6958C17.7528 16.5651 17.7916 16.431 17.8246 16.2937C17.9845 15.6274 18.5184 15.0635 19.2036 15.0635C19.8889 15.0635 20.4556 15.622 20.3581 16.3003C20.2576 16.9995 20.0694 17.6627 19.7934 18.2898C19.3656 19.2762 18.724 20.0939 17.8685 20.743C17.0193 21.3857 15.9593 21.7802 14.6886 21.9266C14.1476 21.9902 13.5972 22.0125 13.0374 21.9934ZM11.1339 16.8691C10.3811 17.178 9.55556 16.6244 9.55556 15.8107C9.55556 15.347 9.83538 14.9292 10.2641 14.7527L14.7657 12.8996C15.5206 12.5888 16.3493 13.1438 16.3493 13.9602C16.3493 14.4256 16.0682 14.8448 15.6377 15.0214L11.1339 16.8691ZM11.1339 12.9174C10.3811 13.2262 9.55556 12.6726 9.55556 11.8589C9.55556 11.3953 9.83538 10.9775 10.2641 10.801L14.7657 8.94783C15.5206 8.63706 16.3493 9.1921 16.3493 10.0085C16.3493 10.4738 16.0682 10.893 15.6377 11.0696L11.1339 12.9174Z" fill="url(#paint1_radial_168_1983)" style="mix-blend-mode:plus-lighter"/>
</g>
<g filter="url(#filter1_dii_168_1983)">
<path d="M32.955 23.9851C32.955 28.9351 28.935 32.9551 23.985 32.9551C20.925 32.9551 18.24 31.4251 16.62 29.1001C23.16 28.3651 28.365 23.1601 29.1 16.6201C31.425 18.2401 32.955 20.9251 32.955 23.9851Z" fill="#3E95FF"/>
<path d="M32.955 23.9851C32.955 28.9351 28.935 32.9551 23.985 32.9551C20.925 32.9551 18.24 31.4251 16.62 29.1001C23.16 28.3651 28.365 23.1601 29.1 16.6201C31.425 18.2401 32.955 20.9251 32.955 23.9851Z" fill="url(#paint2_radial_168_1983)" style="mix-blend-mode:plus-lighter"/>
</g>
<defs>
<filter id="filter0_dii_168_1983" x="3.55556" y="6" width="22.8135" height="26" filterUnits="userSpaceOnUse" color-interpolation-filters="sRGB">
<feFlood flood-opacity="0" result="BackgroundImageFix"/>
<feColorMatrix in="SourceAlpha" type="matrix" values="0 0 0 0 0 0 0 0 0 0 0 0 0 0 0 0 0 0 127 0" result="hardAlpha"/>
<feOffset dy="4"/>
<feGaussianBlur stdDeviation="3"/>
<feComposite in2="hardAlpha" operator="out"/>
<feColorMatrix type="matrix" values="0 0 0 0 0.243137 0 0 0 0 0.584314 0 0 0 0 1 0 0 0 0.6 0"/>
<feBlend mode="normal" in2="BackgroundImageFix" result="effect1_dropShadow_168_1983"/>
<feBlend mode="normal" in="SourceGraphic" in2="effect1_dropShadow_168_1983" result="shape"/>
<feColorMatrix in="SourceAlpha" type="matrix" values="0 0 0 0 0 0 0 0 0 0 0 0 0 0 0 0 0 0 127 0" result="hardAlpha"/>
<feOffset dy="4"/>
<feGaussianBlur stdDeviation="2.5"/>
<feComposite in2="hardAlpha" operator="arithmetic" k2="-1" k3="1"/>
<feColorMatrix type="matrix" values="0 0 0 0 0.243137 0 0 0 0 0.584314 0 0 0 0 1 0 0 0 0.6 0"/>
<feBlend mode="normal" in2="shape" result="effect2_innerShadow_168_1983"/>
<feColorMatrix in="SourceAlpha" type="matrix" values="0 0 0 0 0 0 0 0 0 0 0 0 0 0 0 0 0 0 127 0" result="hardAlpha"/>
<feOffset/>
<feGaussianBlur stdDeviation="1"/>
<feComposite in2="hardAlpha" operator="arithmetic" k2="-1" k3="1"/>
<feColorMatrix type="matrix" values="0 0 0 0 1 0 0 0 0 1 0 0 0 0 1 0 0 0 0.5 0"/>
<feBlend mode="normal" in2="effect2_innerShadow_168_1983" result="effect3_innerShadow_168_1983"/>
</filter>
<filter id="filter1_dii_168_1983" x="10.62" y="14.6201" width="28.335" height="28.335" filterUnits="userSpaceOnUse" color-interpolation-filters="sRGB">
<feFlood flood-opacity="0" result="BackgroundImageFix"/>
<feColorMatrix in="SourceAlpha" type="matrix" values="0 0 0 0 0 0 0 0 0 0 0 0 0 0 0 0 0 0 127 0" result="hardAlpha"/>
<feOffset dy="4"/>
<feGaussianBlur stdDeviation="3"/>
<feComposite in2="hardAlpha" operator="out"/>
<feColorMatrix type="matrix" values="0 0 0 0 0.243137 0 0 0 0 0.584314 0 0 0 0 1 0 0 0 0.6 0"/>
<feBlend mode="normal" in2="BackgroundImageFix" result="effect1_dropShadow_168_1983"/>
<feBlend mode="normal" in="SourceGraphic" in2="effect1_dropShadow_168_1983" result="shape"/>
<feColorMatrix in="SourceAlpha" type="matrix" values="0 0 0 0 0 0 0 0 0 0 0 0 0 0 0 0 0 0 127 0" result="hardAlpha"/>
<feOffset dy="4"/>
<feGaussianBlur stdDeviation="2.5"/>
<feComposite in2="hardAlpha" operator="arithmetic" k2="-1" k3="1"/>
<feColorMatrix type="matrix" values="0 0 0 0 0.243137 0 0 0 0 0.584314 0 0 0 0 1 0 0 0 0.6 0"/>
<feBlend mode="normal" in2="shape" result="effect2_innerShadow_168_1983"/>
<feColorMatrix in="SourceAlpha" type="matrix" values="0 0 0 0 0 0 0 0 0 0 0 0 0 0 0 0 0 0 127 0" result="hardAlpha"/>
<feOffset/>
<feGaussianBlur stdDeviation="1"/>
<feComposite in2="hardAlpha" operator="arithmetic" k2="-1" k3="1"/>
<feColorMatrix type="matrix" values="0 0 0 0 1 0 0 0 0 1 0 0 0 0 1 0 0 0 0.5 0"/>
<feBlend mode="normal" in2="effect2_innerShadow_168_1983" result="effect3_innerShadow_168_1983"/>
</filter>
<radialGradient id="paint0_radial_168_1983" cx="0" cy="0" r="1" gradientUnits="userSpaceOnUse" gradientTransform="translate(10.7534 5.74825) rotate(78.7233) scale(21.6395 41.3189)">
<stop stop-color="white" stop-opacity="0.4"/>
<stop offset="1" stop-color="#3E95FF" stop-opacity="0"/>
</radialGradient>
<radialGradient id="paint1_radial_168_1983" cx="0" cy="0" r="1" gradientUnits="userSpaceOnUse" gradientTransform="translate(13.0777 9.60515) rotate(81.1844) scale(12.543 18.9134)">
<stop stop-color="white" stop-opacity="0.4"/>
<stop offset="1" stop-color="#3E95FF" stop-opacity="0"/>
</radialGradient>
<radialGradient id="paint2_radial_168_1983" cx="0" cy="0" r="1" gradientUnits="userSpaceOnUse" gradientTransform="translate(21.9038 18.493) rotate(78.7233) scale(14.7468 28.1579)">
<stop stop-color="white" stop-opacity="0.4"/>
<stop offset="1" stop-color="#3E95FF" stop-opacity="0"/>
</radialGradient>
</defs>
</svg>
