<svg width="24" height="25" viewBox="0 0 24 25" fill="none" xmlns="http://www.w3.org/2000/svg">
<rect y="0.5" width="24" height="24" rx="6" fill="#3AE00C" fill-opacity="0.1"/>
<path d="M7.86135 20.2088V4.5H10.6898V17.4161C10.766 17.4161 10.8388 17.4198 10.9081 17.427C10.9844 17.427 11.0607 17.427 11.1369 17.427C11.2132 17.4198 11.286 17.4161 11.3553 17.4161C11.9515 17.358 12.4887 17.2016 12.9671 16.9471C13.4454 16.6925 13.8544 16.3543 14.1941 15.9325C14.5407 15.5034 14.8042 15.0053 14.9844 14.438C15.1716 13.8707 15.2652 13.2489 15.2652 12.5726H18C18 13.9035 17.7608 15.1325 17.2825 16.2598C16.8111 17.387 16.104 18.3216 15.1612 19.0634C14.2253 19.7979 13.0572 20.2488 11.6568 20.4161C11.0607 20.4888 10.4541 20.5143 9.83709 20.4924C9.2201 20.4706 8.56153 20.3761 7.86135 20.2088ZM6 15.3762V12.5508L13.487 9.35446V12.1908L6 15.3762ZM6 10.8599V8.03448L13.487 4.83818V7.67449L6 10.8599Z" fill="#3AE00C"/>
</svg>
