<svg width="39" height="36" viewBox="0 0 39 36" fill="none" xmlns="http://www.w3.org/2000/svg">
<g filter="url(#filter0_dii_168_1947)">
<path d="M33 9.00012V12.6301C33 15.0001 31.5 16.5001 29.13 16.5001H24V6.01512C24 4.35012 25.365 2.98512 27.03 3.00012C28.665 3.01512 30.165 3.67512 31.245 4.75512C32.325 5.85012 33 7.35012 33 9.00012Z" fill="#FF1010"/>
<path d="M33 9.00012V12.6301C33 15.0001 31.5 16.5001 29.13 16.5001H24V6.01512C24 4.35012 25.365 2.98512 27.03 3.00012C28.665 3.01512 30.165 3.67512 31.245 4.75512C32.325 5.85012 33 7.35012 33 9.00012Z" fill="url(#paint0_radial_168_1947)" style="mix-blend-mode:plus-lighter"/>
</g>
<g opacity="0.4">
<path d="M3 10.5V31.5C3 32.745 4.41 33.45 5.4 32.7L7.965 30.78C8.565 30.33 9.405 30.39 9.945 30.93L12.435 33.435C13.02 34.02 13.98 34.02 14.565 33.435L17.085 30.915C17.61 30.39 18.45 30.33 19.035 30.78L21.6 32.7C22.59 33.435 24 32.73 24 31.5V6C24 4.35 25.35 3 27 3H10.5H9C4.5 3 3 5.685 3 9V10.5Z" fill="#FF1010"/>
<path d="M3 10.5V31.5C3 32.745 4.41 33.45 5.4 32.7L7.965 30.78C8.565 30.33 9.405 30.39 9.945 30.93L12.435 33.435C13.02 34.02 13.98 34.02 14.565 33.435L17.085 30.915C17.61 30.39 18.45 30.33 19.035 30.78L21.6 32.7C22.59 33.435 24 32.73 24 31.5V6C24 4.35 25.35 3 27 3H10.5H9C4.5 3 3 5.685 3 9V10.5Z" fill="url(#paint1_radial_168_1947)" style="mix-blend-mode:plus-lighter"/>
</g>
<g filter="url(#filter1_dii_168_1947)">
<path d="M18 18.3901H13.5C12.885 18.3901 12.375 18.9001 12.375 19.5151C12.375 20.1301 12.885 20.6401 13.5 20.6401H18C18.615 20.6401 19.125 20.1301 19.125 19.5151C19.125 18.9001 18.615 18.3901 18 18.3901Z" fill="#FF1010"/>
<path d="M18 18.3901H13.5C12.885 18.3901 12.375 18.9001 12.375 19.5151C12.375 20.1301 12.885 20.6401 13.5 20.6401H18C18.615 20.6401 19.125 20.1301 19.125 19.5151C19.125 18.9001 18.615 18.3901 18 18.3901Z" fill="url(#paint2_radial_168_1947)" style="mix-blend-mode:plus-lighter"/>
</g>
<g filter="url(#filter2_dii_168_1947)">
<path d="M13.5 14.6401H18C18.615 14.6401 19.125 14.1301 19.125 13.5151C19.125 12.9001 18.615 12.3901 18 12.3901H13.5C12.885 12.3901 12.375 12.9001 12.375 13.5151C12.375 14.1301 12.885 14.6401 13.5 14.6401Z" fill="#FF1010"/>
<path d="M13.5 14.6401H18C18.615 14.6401 19.125 14.1301 19.125 13.5151C19.125 12.9001 18.615 12.3901 18 12.3901H13.5C12.885 12.3901 12.375 12.9001 12.375 13.5151C12.375 14.1301 12.885 14.6401 13.5 14.6401Z" fill="url(#paint3_radial_168_1947)" style="mix-blend-mode:plus-lighter"/>
</g>
<g filter="url(#filter3_dii_168_1947)">
<path d="M8.95499 12.0151C8.11499 12.0151 7.45499 12.6901 7.45499 13.5151C7.45499 14.3401 8.12999 15.0151 8.95499 15.0151C9.77999 15.0151 10.455 14.3401 10.455 13.5151C10.455 12.6901 9.77999 12.0151 8.95499 12.0151Z" fill="#FF1010"/>
<path d="M8.95499 12.0151C8.11499 12.0151 7.45499 12.6901 7.45499 13.5151C7.45499 14.3401 8.12999 15.0151 8.95499 15.0151C9.77999 15.0151 10.455 14.3401 10.455 13.5151C10.455 12.6901 9.77999 12.0151 8.95499 12.0151Z" fill="url(#paint4_radial_168_1947)" style="mix-blend-mode:plus-lighter"/>
</g>
<g filter="url(#filter4_dii_168_1947)">
<path d="M8.95499 18.0151C8.11499 18.0151 7.45499 18.6901 7.45499 19.5151C7.45499 20.3401 8.12999 21.0151 8.95499 21.0151C9.77999 21.0151 10.455 20.3401 10.455 19.5151C10.455 18.6901 9.77999 18.0151 8.95499 18.0151Z" fill="#FF1010"/>
<path d="M8.95499 18.0151C8.11499 18.0151 7.45499 18.6901 7.45499 19.5151C7.45499 20.3401 8.12999 21.0151 8.95499 21.0151C9.77999 21.0151 10.455 20.3401 10.455 19.5151C10.455 18.6901 9.77999 18.0151 8.95499 18.0151Z" fill="url(#paint5_radial_168_1947)" style="mix-blend-mode:plus-lighter"/>
</g>
<defs>
<filter id="filter0_dii_168_1947" x="18" y="1" width="21" height="25.5" filterUnits="userSpaceOnUse" color-interpolation-filters="sRGB">
<feFlood flood-opacity="0" result="BackgroundImageFix"/>
<feColorMatrix in="SourceAlpha" type="matrix" values="0 0 0 0 0 0 0 0 0 0 0 0 0 0 0 0 0 0 127 0" result="hardAlpha"/>
<feOffset dy="4"/>
<feGaussianBlur stdDeviation="3"/>
<feComposite in2="hardAlpha" operator="out"/>
<feColorMatrix type="matrix" values="0 0 0 0 1 0 0 0 0 0.0627451 0 0 0 0 0.0627451 0 0 0 0.6 0"/>
<feBlend mode="normal" in2="BackgroundImageFix" result="effect1_dropShadow_168_1947"/>
<feBlend mode="normal" in="SourceGraphic" in2="effect1_dropShadow_168_1947" result="shape"/>
<feColorMatrix in="SourceAlpha" type="matrix" values="0 0 0 0 0 0 0 0 0 0 0 0 0 0 0 0 0 0 127 0" result="hardAlpha"/>
<feOffset dy="4"/>
<feGaussianBlur stdDeviation="2.5"/>
<feComposite in2="hardAlpha" operator="arithmetic" k2="-1" k3="1"/>
<feColorMatrix type="matrix" values="0 0 0 0 1 0 0 0 0 0.0627451 0 0 0 0 0.0627451 0 0 0 0.6 0"/>
<feBlend mode="normal" in2="shape" result="effect2_innerShadow_168_1947"/>
<feColorMatrix in="SourceAlpha" type="matrix" values="0 0 0 0 0 0 0 0 0 0 0 0 0 0 0 0 0 0 127 0" result="hardAlpha"/>
<feOffset/>
<feGaussianBlur stdDeviation="1"/>
<feComposite in2="hardAlpha" operator="arithmetic" k2="-1" k3="1"/>
<feColorMatrix type="matrix" values="0 0 0 0 1 0 0 0 0 1 0 0 0 0 1 0 0 0 0.5 0"/>
<feBlend mode="normal" in2="effect2_innerShadow_168_1947" result="effect3_innerShadow_168_1947"/>
</filter>
<filter id="filter1_dii_168_1947" x="6.375" y="16.3901" width="18.75" height="14.25" filterUnits="userSpaceOnUse" color-interpolation-filters="sRGB">
<feFlood flood-opacity="0" result="BackgroundImageFix"/>
<feColorMatrix in="SourceAlpha" type="matrix" values="0 0 0 0 0 0 0 0 0 0 0 0 0 0 0 0 0 0 127 0" result="hardAlpha"/>
<feOffset dy="4"/>
<feGaussianBlur stdDeviation="3"/>
<feComposite in2="hardAlpha" operator="out"/>
<feColorMatrix type="matrix" values="0 0 0 0 1 0 0 0 0 0.0627451 0 0 0 0 0.0627451 0 0 0 0.6 0"/>
<feBlend mode="normal" in2="BackgroundImageFix" result="effect1_dropShadow_168_1947"/>
<feBlend mode="normal" in="SourceGraphic" in2="effect1_dropShadow_168_1947" result="shape"/>
<feColorMatrix in="SourceAlpha" type="matrix" values="0 0 0 0 0 0 0 0 0 0 0 0 0 0 0 0 0 0 127 0" result="hardAlpha"/>
<feOffset dy="4"/>
<feGaussianBlur stdDeviation="2.5"/>
<feComposite in2="hardAlpha" operator="arithmetic" k2="-1" k3="1"/>
<feColorMatrix type="matrix" values="0 0 0 0 1 0 0 0 0 0.0627451 0 0 0 0 0.0627451 0 0 0 0.6 0"/>
<feBlend mode="normal" in2="shape" result="effect2_innerShadow_168_1947"/>
<feColorMatrix in="SourceAlpha" type="matrix" values="0 0 0 0 0 0 0 0 0 0 0 0 0 0 0 0 0 0 127 0" result="hardAlpha"/>
<feOffset/>
<feGaussianBlur stdDeviation="1"/>
<feComposite in2="hardAlpha" operator="arithmetic" k2="-1" k3="1"/>
<feColorMatrix type="matrix" values="0 0 0 0 1 0 0 0 0 1 0 0 0 0 1 0 0 0 0.5 0"/>
<feBlend mode="normal" in2="effect2_innerShadow_168_1947" result="effect3_innerShadow_168_1947"/>
</filter>
<filter id="filter2_dii_168_1947" x="6.375" y="10.3901" width="18.75" height="14.25" filterUnits="userSpaceOnUse" color-interpolation-filters="sRGB">
<feFlood flood-opacity="0" result="BackgroundImageFix"/>
<feColorMatrix in="SourceAlpha" type="matrix" values="0 0 0 0 0 0 0 0 0 0 0 0 0 0 0 0 0 0 127 0" result="hardAlpha"/>
<feOffset dy="4"/>
<feGaussianBlur stdDeviation="3"/>
<feComposite in2="hardAlpha" operator="out"/>
<feColorMatrix type="matrix" values="0 0 0 0 1 0 0 0 0 0.0627451 0 0 0 0 0.0627451 0 0 0 0.6 0"/>
<feBlend mode="normal" in2="BackgroundImageFix" result="effect1_dropShadow_168_1947"/>
<feBlend mode="normal" in="SourceGraphic" in2="effect1_dropShadow_168_1947" result="shape"/>
<feColorMatrix in="SourceAlpha" type="matrix" values="0 0 0 0 0 0 0 0 0 0 0 0 0 0 0 0 0 0 127 0" result="hardAlpha"/>
<feOffset dy="4"/>
<feGaussianBlur stdDeviation="2.5"/>
<feComposite in2="hardAlpha" operator="arithmetic" k2="-1" k3="1"/>
<feColorMatrix type="matrix" values="0 0 0 0 1 0 0 0 0 0.0627451 0 0 0 0 0.0627451 0 0 0 0.6 0"/>
<feBlend mode="normal" in2="shape" result="effect2_innerShadow_168_1947"/>
<feColorMatrix in="SourceAlpha" type="matrix" values="0 0 0 0 0 0 0 0 0 0 0 0 0 0 0 0 0 0 127 0" result="hardAlpha"/>
<feOffset/>
<feGaussianBlur stdDeviation="1"/>
<feComposite in2="hardAlpha" operator="arithmetic" k2="-1" k3="1"/>
<feColorMatrix type="matrix" values="0 0 0 0 1 0 0 0 0 1 0 0 0 0 1 0 0 0 0.5 0"/>
<feBlend mode="normal" in2="effect2_innerShadow_168_1947" result="effect3_innerShadow_168_1947"/>
</filter>
<filter id="filter3_dii_168_1947" x="1.45499" y="10.0151" width="15" height="15" filterUnits="userSpaceOnUse" color-interpolation-filters="sRGB">
<feFlood flood-opacity="0" result="BackgroundImageFix"/>
<feColorMatrix in="SourceAlpha" type="matrix" values="0 0 0 0 0 0 0 0 0 0 0 0 0 0 0 0 0 0 127 0" result="hardAlpha"/>
<feOffset dy="4"/>
<feGaussianBlur stdDeviation="3"/>
<feComposite in2="hardAlpha" operator="out"/>
<feColorMatrix type="matrix" values="0 0 0 0 1 0 0 0 0 0.0627451 0 0 0 0 0.0627451 0 0 0 0.6 0"/>
<feBlend mode="normal" in2="BackgroundImageFix" result="effect1_dropShadow_168_1947"/>
<feBlend mode="normal" in="SourceGraphic" in2="effect1_dropShadow_168_1947" result="shape"/>
<feColorMatrix in="SourceAlpha" type="matrix" values="0 0 0 0 0 0 0 0 0 0 0 0 0 0 0 0 0 0 127 0" result="hardAlpha"/>
<feOffset dy="4"/>
<feGaussianBlur stdDeviation="2.5"/>
<feComposite in2="hardAlpha" operator="arithmetic" k2="-1" k3="1"/>
<feColorMatrix type="matrix" values="0 0 0 0 1 0 0 0 0 0.0627451 0 0 0 0 0.0627451 0 0 0 0.6 0"/>
<feBlend mode="normal" in2="shape" result="effect2_innerShadow_168_1947"/>
<feColorMatrix in="SourceAlpha" type="matrix" values="0 0 0 0 0 0 0 0 0 0 0 0 0 0 0 0 0 0 127 0" result="hardAlpha"/>
<feOffset/>
<feGaussianBlur stdDeviation="1"/>
<feComposite in2="hardAlpha" operator="arithmetic" k2="-1" k3="1"/>
<feColorMatrix type="matrix" values="0 0 0 0 1 0 0 0 0 1 0 0 0 0 1 0 0 0 0.5 0"/>
<feBlend mode="normal" in2="effect2_innerShadow_168_1947" result="effect3_innerShadow_168_1947"/>
</filter>
<filter id="filter4_dii_168_1947" x="1.45499" y="16.0151" width="15" height="15" filterUnits="userSpaceOnUse" color-interpolation-filters="sRGB">
<feFlood flood-opacity="0" result="BackgroundImageFix"/>
<feColorMatrix in="SourceAlpha" type="matrix" values="0 0 0 0 0 0 0 0 0 0 0 0 0 0 0 0 0 0 127 0" result="hardAlpha"/>
<feOffset dy="4"/>
<feGaussianBlur stdDeviation="3"/>
<feComposite in2="hardAlpha" operator="out"/>
<feColorMatrix type="matrix" values="0 0 0 0 1 0 0 0 0 0.0627451 0 0 0 0 0.0627451 0 0 0 0.6 0"/>
<feBlend mode="normal" in2="BackgroundImageFix" result="effect1_dropShadow_168_1947"/>
<feBlend mode="normal" in="SourceGraphic" in2="effect1_dropShadow_168_1947" result="shape"/>
<feColorMatrix in="SourceAlpha" type="matrix" values="0 0 0 0 0 0 0 0 0 0 0 0 0 0 0 0 0 0 127 0" result="hardAlpha"/>
<feOffset dy="4"/>
<feGaussianBlur stdDeviation="2.5"/>
<feComposite in2="hardAlpha" operator="arithmetic" k2="-1" k3="1"/>
<feColorMatrix type="matrix" values="0 0 0 0 1 0 0 0 0 0.0627451 0 0 0 0 0.0627451 0 0 0 0.6 0"/>
<feBlend mode="normal" in2="shape" result="effect2_innerShadow_168_1947"/>
<feColorMatrix in="SourceAlpha" type="matrix" values="0 0 0 0 0 0 0 0 0 0 0 0 0 0 0 0 0 0 127 0" result="hardAlpha"/>
<feOffset/>
<feGaussianBlur stdDeviation="1"/>
<feComposite in2="hardAlpha" operator="arithmetic" k2="-1" k3="1"/>
<feColorMatrix type="matrix" values="0 0 0 0 1 0 0 0 0 1 0 0 0 0 1 0 0 0 0.5 0"/>
<feBlend mode="normal" in2="effect2_innerShadow_168_1947" result="effect3_innerShadow_168_1947"/>
</filter>
<radialGradient id="paint0_radial_168_1947" cx="0" cy="0" r="1" gradientUnits="userSpaceOnUse" gradientTransform="translate(26.9112 4.54784) rotate(82.428) scale(12.0574 15.6814)">
<stop stop-color="white" stop-opacity="0.7"/>
<stop offset="1" stop-color="#FF1010" stop-opacity="0"/>
</radialGradient>
<radialGradient id="paint1_radial_168_1947" cx="0" cy="0" r="1" gradientUnits="userSpaceOnUse" gradientTransform="translate(10.7631 6.53979) rotate(81.1891) scale(27.6604 41.6872)">
<stop stop-color="white" stop-opacity="0.7"/>
<stop offset="1" stop-color="#FF1010" stop-opacity="0"/>
</radialGradient>
<radialGradient id="paint2_radial_168_1947" cx="0" cy="0" r="1" gradientUnits="userSpaceOnUse" gradientTransform="translate(14.5584 18.6481) rotate(59.1124) scale(2.32124 10.1819)">
<stop stop-color="white" stop-opacity="0.7"/>
<stop offset="1" stop-color="#FF1010" stop-opacity="0"/>
</radialGradient>
<radialGradient id="paint3_radial_168_1947" cx="0" cy="0" r="1" gradientUnits="userSpaceOnUse" gradientTransform="translate(14.5584 12.6481) rotate(59.1124) scale(2.32124 10.1819)">
<stop stop-color="white" stop-opacity="0.7"/>
<stop offset="1" stop-color="#FF1010" stop-opacity="0"/>
</radialGradient>
<radialGradient id="paint4_radial_168_1947" cx="0" cy="0" r="1" gradientUnits="userSpaceOnUse" gradientTransform="translate(8.42538 12.3591) rotate(78.7233) scale(2.70833 5.17133)">
<stop stop-color="white" stop-opacity="0.7"/>
<stop offset="1" stop-color="#FF1010" stop-opacity="0"/>
</radialGradient>
<radialGradient id="paint5_radial_168_1947" cx="0" cy="0" r="1" gradientUnits="userSpaceOnUse" gradientTransform="translate(8.42538 18.3591) rotate(78.7233) scale(2.70833 5.17133)">
<stop stop-color="white" stop-opacity="0.7"/>
<stop offset="1" stop-color="#FF1010" stop-opacity="0"/>
</radialGradient>
</defs>
</svg>
