<svg width="36" height="36" viewBox="0 0 36 36" fill="none" xmlns="http://www.w3.org/2000/svg">
<g opacity="0.4">
<path d="M18 33.0002C25.1825 33.0002 31.005 27.1777 31.005 19.9952C31.005 12.8128 25.1825 6.99023 18 6.99023C10.8175 6.99023 4.995 12.8128 4.995 19.9952C4.995 27.1777 10.8175 33.0002 18 33.0002Z" fill="#511DD6"/>
<path d="M18 33.0002C25.1825 33.0002 31.005 27.1777 31.005 19.9952C31.005 12.8128 25.1825 6.99023 18 6.99023C10.8175 6.99023 4.995 12.8128 4.995 19.9952C4.995 27.1777 10.8175 33.0002 18 33.0002Z" fill="url(#paint0_radial_168_1913)" style="mix-blend-mode:plus-lighter"/>
</g>
<g filter="url(#filter0_dii_168_1913)">
<path d="M18 20.625C17.385 20.625 16.875 20.115 16.875 19.5V12C16.875 11.385 17.385 10.875 18 10.875C18.615 10.875 19.125 11.385 19.125 12V19.5C19.125 20.115 18.615 20.625 18 20.625Z" fill="#511DD6"/>
<path d="M18 20.625C17.385 20.625 16.875 20.115 16.875 19.5V12C16.875 11.385 17.385 10.875 18 10.875C18.615 10.875 19.125 11.385 19.125 12V19.5C19.125 20.115 18.615 20.625 18 20.625Z" fill="url(#paint1_radial_168_1913)" style="mix-blend-mode:plus-lighter"/>
</g>
<g filter="url(#filter1_dii_168_1913)">
<path d="M22.335 5.175H13.665C13.065 5.175 12.585 4.695 12.585 4.095C12.585 3.495 13.065 3 13.665 3H22.335C22.935 3 23.415 3.48 23.415 4.08C23.415 4.68 22.935 5.175 22.335 5.175Z" fill="#511DD6"/>
<path d="M22.335 5.175H13.665C13.065 5.175 12.585 4.695 12.585 4.095C12.585 3.495 13.065 3 13.665 3H22.335C22.935 3 23.415 3.48 23.415 4.08C23.415 4.68 22.935 5.175 22.335 5.175Z" fill="url(#paint2_radial_168_1913)" style="mix-blend-mode:plus-lighter"/>
</g>
<defs>
<filter id="filter0_dii_168_1913" x="10.875" y="8.875" width="14.25" height="21.75" filterUnits="userSpaceOnUse" color-interpolation-filters="sRGB">
<feFlood flood-opacity="0" result="BackgroundImageFix"/>
<feColorMatrix in="SourceAlpha" type="matrix" values="0 0 0 0 0 0 0 0 0 0 0 0 0 0 0 0 0 0 127 0" result="hardAlpha"/>
<feOffset dy="4"/>
<feGaussianBlur stdDeviation="3"/>
<feComposite in2="hardAlpha" operator="out"/>
<feColorMatrix type="matrix" values="0 0 0 0 0.317647 0 0 0 0 0.113725 0 0 0 0 0.839216 0 0 0 0.6 0"/>
<feBlend mode="normal" in2="BackgroundImageFix" result="effect1_dropShadow_168_1913"/>
<feBlend mode="normal" in="SourceGraphic" in2="effect1_dropShadow_168_1913" result="shape"/>
<feColorMatrix in="SourceAlpha" type="matrix" values="0 0 0 0 0 0 0 0 0 0 0 0 0 0 0 0 0 0 127 0" result="hardAlpha"/>
<feOffset dy="4"/>
<feGaussianBlur stdDeviation="2.5"/>
<feComposite in2="hardAlpha" operator="arithmetic" k2="-1" k3="1"/>
<feColorMatrix type="matrix" values="0 0 0 0 0.317647 0 0 0 0 0.113725 0 0 0 0 0.839216 0 0 0 0.6 0"/>
<feBlend mode="normal" in2="shape" result="effect2_innerShadow_168_1913"/>
<feColorMatrix in="SourceAlpha" type="matrix" values="0 0 0 0 0 0 0 0 0 0 0 0 0 0 0 0 0 0 127 0" result="hardAlpha"/>
<feOffset/>
<feGaussianBlur stdDeviation="1"/>
<feComposite in2="hardAlpha" operator="arithmetic" k2="-1" k3="1"/>
<feColorMatrix type="matrix" values="0 0 0 0 1 0 0 0 0 1 0 0 0 0 1 0 0 0 0.5 0"/>
<feBlend mode="normal" in2="effect2_innerShadow_168_1913" result="effect3_innerShadow_168_1913"/>
</filter>
<filter id="filter1_dii_168_1913" x="6.58501" y="1" width="22.83" height="14.1748" filterUnits="userSpaceOnUse" color-interpolation-filters="sRGB">
<feFlood flood-opacity="0" result="BackgroundImageFix"/>
<feColorMatrix in="SourceAlpha" type="matrix" values="0 0 0 0 0 0 0 0 0 0 0 0 0 0 0 0 0 0 127 0" result="hardAlpha"/>
<feOffset dy="4"/>
<feGaussianBlur stdDeviation="3"/>
<feComposite in2="hardAlpha" operator="out"/>
<feColorMatrix type="matrix" values="0 0 0 0 0.317647 0 0 0 0 0.113725 0 0 0 0 0.839216 0 0 0 0.6 0"/>
<feBlend mode="normal" in2="BackgroundImageFix" result="effect1_dropShadow_168_1913"/>
<feBlend mode="normal" in="SourceGraphic" in2="effect1_dropShadow_168_1913" result="shape"/>
<feColorMatrix in="SourceAlpha" type="matrix" values="0 0 0 0 0 0 0 0 0 0 0 0 0 0 0 0 0 0 127 0" result="hardAlpha"/>
<feOffset dy="4"/>
<feGaussianBlur stdDeviation="2.5"/>
<feComposite in2="hardAlpha" operator="arithmetic" k2="-1" k3="1"/>
<feColorMatrix type="matrix" values="0 0 0 0 0.317647 0 0 0 0 0.113725 0 0 0 0 0.839216 0 0 0 0.6 0"/>
<feBlend mode="normal" in2="shape" result="effect2_innerShadow_168_1913"/>
<feColorMatrix in="SourceAlpha" type="matrix" values="0 0 0 0 0 0 0 0 0 0 0 0 0 0 0 0 0 0 127 0" result="hardAlpha"/>
<feOffset/>
<feGaussianBlur stdDeviation="1"/>
<feComposite in2="hardAlpha" operator="arithmetic" k2="-1" k3="1"/>
<feColorMatrix type="matrix" values="0 0 0 0 1 0 0 0 0 1 0 0 0 0 1 0 0 0 0.5 0"/>
<feBlend mode="normal" in2="effect2_innerShadow_168_1913" result="effect3_innerShadow_168_1913"/>
</filter>
<radialGradient id="paint0_radial_168_1913" cx="0" cy="0" r="1" gradientUnits="userSpaceOnUse" gradientTransform="translate(13.4083 9.97238) rotate(78.7233) scale(23.4812 44.8354)">
<stop stop-color="white" stop-opacity="0.7"/>
<stop offset="1" stop-color="#511DD6" stop-opacity="0"/>
</radialGradient>
<radialGradient id="paint1_radial_168_1913" cx="0" cy="0" r="1" gradientUnits="userSpaceOnUse" gradientTransform="translate(17.6028 11.9929) rotate(87.3654) scale(8.64126 3.95067)">
<stop stop-color="white" stop-opacity="0.7"/>
<stop offset="1" stop-color="#511DD6" stop-opacity="0"/>
</radialGradient>
<radialGradient id="paint2_radial_168_1913" cx="0" cy="0" r="1" gradientUnits="userSpaceOnUse" gradientTransform="translate(16.0881 3.24937) rotate(45.2052) scale(2.71355 13.5086)">
<stop stop-color="white" stop-opacity="0.7"/>
<stop offset="1" stop-color="#511DD6" stop-opacity="0"/>
</radialGradient>
</defs>
</svg>
